solid OpenSCAD_Model
  facet normal -1.000000 -0.000000 -0.000000
    outer loop
      vertex -47.495000 -9.995000 0.005000
      vertex -47.495000 -9.995000 5.000000
      vertex -47.495000 9.995000 0.005000
    endloop
  endfacet
  facet normal -1.000000 0.000000 0.000000
    outer loop
      vertex -47.495000 9.995000 0.005000
      vertex -47.495000 -9.995000 5.000000
      vertex -47.495000 9.995000 5.000000
    endloop
  endfacet
  facet normal 0.000000 -1.000000 0.000000
    outer loop
      vertex -47.495000 -9.995000 5.000000
      vertex -47.495000 -9.995000 0.005000
      vertex -27.505000 -9.995000 0.005000
    endloop
  endfacet
  facet normal 0.000000 -1.000000 0.000000
    outer loop
      vertex -27.505000 -9.995000 5.000000
      vertex -47.495000 -9.995000 5.000000
      vertex -27.505000 -9.995000 0.005000
    endloop
  endfacet
  facet normal -0.000000 -0.000000 -1.000000
    outer loop
      vertex -47.495000 -9.995000 0.005000
      vertex -47.495000 9.995000 0.005000
      vertex -27.505000 -9.995000 0.005000
    endloop
  endfacet
  facet normal 0.000000 0.000000 -1.000000
    outer loop
      vertex -27.505000 -9.995000 0.005000
      vertex -47.495000 9.995000 0.005000
      vertex -27.505000 9.995000 0.005000
    endloop
  endfacet
  facet normal 0.000000 1.000000 0.000000
    outer loop
      vertex -47.495000 9.995000 0.005000
      vertex -47.495000 9.995000 5.000000
      vertex -27.505000 9.995000 0.005000
    endloop
  endfacet
  facet normal 0.000000 1.000000 0.000000
    outer loop
      vertex -27.505000 9.995000 0.005000
      vertex -47.495000 9.995000 5.000000
      vertex -27.505000 9.995000 5.000000
    endloop
  endfacet
  facet normal 0.000000 0.000000 1.000000
    outer loop
      vertex -27.505000 -9.995000 5.000000
      vertex -27.505000 9.995000 5.000000
      vertex -47.495000 9.995000 5.000000
    endloop
  endfacet
  facet normal 0.000000 0.000000 1.000000
    outer loop
      vertex -47.495000 -9.995000 5.000000
      vertex -27.505000 -9.995000 5.000000
      vertex -47.495000 9.995000 5.000000
    endloop
  endfacet
  facet normal 1.000000 0.000000 -0.000000
    outer loop
      vertex -27.505000 -9.995000 5.000000
      vertex -27.505000 -9.995000 0.005000
      vertex -27.505000 9.995000 0.005000
    endloop
  endfacet
  facet normal 1.000000 0.000000 0.000000
    outer loop
      vertex -27.505000 9.995000 5.000000
      vertex -27.505000 -9.995000 5.000000
      vertex -27.505000 9.995000 0.005000
    endloop
  endfacet
  facet normal -1.000000 -0.000000 -0.000000
    outer loop
      vertex -22.495000 0.000000 0.005000
      vertex -22.495000 0.000000 9.995000
      vertex -22.495000 9.995000 0.005000
    endloop
  endfacet
  facet normal -1.000000 0.000000 0.000000
    outer loop
      vertex -22.495000 9.995000 0.005000
      vertex -22.495000 0.000000 9.995000
      vertex -22.495000 9.995000 9.995000
    endloop
  endfacet
  facet normal 0.000000 -1.000000 0.000000
    outer loop
      vertex -2.505000 0.000000 0.005000
      vertex -2.505000 0.000000 9.995000
      vertex -22.495000 0.000000 9.995000
    endloop
  endfacet
  facet normal -0.000000 -1.000000 -0.000000
    outer loop
      vertex -22.495000 0.000000 0.005000
      vertex -2.505000 0.000000 0.005000
      vertex -22.495000 0.000000 9.995000
    endloop
  endfacet
  facet normal -0.000000 -0.000000 -1.000000
    outer loop
      vertex -22.495000 0.000000 0.005000
      vertex -22.495000 9.995000 0.005000
      vertex -2.505000 0.000000 0.005000
    endloop
  endfacet
  facet normal 0.000000 0.000000 -1.000000
    outer loop
      vertex -2.505000 0.000000 0.005000
      vertex -22.495000 9.995000 0.005000
      vertex -2.505000 9.995000 0.005000
    endloop
  endfacet
  facet normal 0.000000 1.000000 0.000000
    outer loop
      vertex -22.495000 9.995000 0.005000
      vertex -22.495000 9.995000 9.995000
      vertex -2.505000 9.995000 0.005000
    endloop
  endfacet
  facet normal 0.000000 1.000000 0.000000
    outer loop
      vertex -2.505000 9.995000 0.005000
      vertex -22.495000 9.995000 9.995000
      vertex -2.505000 9.995000 9.995000
    endloop
  endfacet
  facet normal 0.000000 -0.000000 1.000000
    outer loop
      vertex -22.495000 9.995000 9.995000
      vertex -22.495000 0.000000 9.995000
      vertex -2.505000 0.000000 9.995000
    endloop
  endfacet
  facet normal 0.000000 0.000000 1.000000
    outer loop
      vertex -2.505000 9.995000 9.995000
      vertex -22.495000 9.995000 9.995000
      vertex -2.505000 0.000000 9.995000
    endloop
  endfacet
  facet normal 1.000000 0.000000 -0.000000
    outer loop
      vertex -2.505000 0.000000 9.995000
      vertex -2.505000 0.000000 0.005000
      vertex -2.505000 9.995000 0.005000
    endloop
  endfacet
  facet normal 1.000000 0.000000 0.000000
    outer loop
      vertex -2.505000 9.995000 9.995000
      vertex -2.505000 0.000000 9.995000
      vertex -2.505000 9.995000 0.005000
    endloop
  endfacet
  facet normal -1.000000 -0.000000 -0.000000
    outer loop
      vertex 2.505000 -9.995000 5.000000
      vertex 2.505000 -9.995000 9.995000
      vertex 2.505000 -0.005000 5.000000
    endloop
  endfacet
  facet normal -1.000000 0.000000 0.000000
    outer loop
      vertex 2.505000 -0.005000 5.000000
      vertex 2.505000 -9.995000 9.995000
      vertex 2.505000 -0.005000 9.995000
    endloop
  endfacet
  facet normal 0.000000 -1.000000 0.000000
    outer loop
      vertex 2.505000 -9.995000 9.995000
      vertex 2.505000 -9.995000 5.000000
      vertex 22.495000 -9.995000 5.000000
    endloop
  endfacet
  facet normal 0.000000 -1.000000 0.000000
    outer loop
      vertex 22.495000 -9.995000 9.995000
      vertex 2.505000 -9.995000 9.995000
      vertex 22.495000 -9.995000 5.000000
    endloop
  endfacet
  facet normal 0.000000 0.000000 -1.000000
    outer loop
      vertex 22.495000 -0.005000 5.000000
      vertex 22.495000 -9.995000 5.000000
      vertex 2.505000 -0.005000 5.000000
    endloop
  endfacet
  facet normal 0.000000 0.000000 -1.000000
    outer loop
      vertex 2.505000 -0.005000 5.000000
      vertex 22.495000 -9.995000 5.000000
      vertex 2.505000 -9.995000 5.000000
    endloop
  endfacet
  facet normal 0.000000 1.000000 0.000000
    outer loop
      vertex 22.495000 -0.005000 9.995000
      vertex 22.495000 -0.005000 5.000000
      vertex 2.505000 -0.005000 9.995000
    endloop
  endfacet
  facet normal 0.000000 1.000000 -0.000000
    outer loop
      vertex 2.505000 -0.005000 9.995000
      vertex 22.495000 -0.005000 5.000000
      vertex 2.505000 -0.005000 5.000000
    endloop
  endfacet
  facet normal 0.000000 -0.000000 1.000000
    outer loop
      vertex 2.505000 -0.005000 9.995000
      vertex 2.505000 -9.995000 9.995000
      vertex 22.495000 -9.995000 9.995000
    endloop
  endfacet
  facet normal 0.000000 0.000000 1.000000
    outer loop
      vertex 22.495000 -0.005000 9.995000
      vertex 2.505000 -0.005000 9.995000
      vertex 22.495000 -9.995000 9.995000
    endloop
  endfacet
  facet normal 1.000000 0.000000 -0.000000
    outer loop
      vertex 22.495000 -9.995000 9.995000
      vertex 22.495000 -9.995000 5.000000
      vertex 22.495000 -0.005000 5.000000
    endloop
  endfacet
  facet normal 1.000000 0.000000 0.000000
    outer loop
      vertex 22.495000 -0.005000 9.995000
      vertex 22.495000 -9.995000 9.995000
      vertex 22.495000 -0.005000 5.000000
    endloop
  endfacet
  facet normal -1.000000 -0.000000 -0.000000
    outer loop
      vertex 2.505000 0.005000 0.005000
      vertex 2.505000 0.005000 5.000000
      vertex 2.505000 9.995000 0.005000
    endloop
  endfacet
  facet normal -1.000000 0.000000 0.000000
    outer loop
      vertex 2.505000 9.995000 0.005000
      vertex 2.505000 0.005000 5.000000
      vertex 2.505000 9.995000 5.000000
    endloop
  endfacet
  facet normal 0.000000 -1.000000 0.000000
    outer loop
      vertex 22.495000 0.005000 0.005000
      vertex 22.495000 0.005000 5.000000
      vertex 2.505000 0.005000 5.000000
    endloop
  endfacet
  facet normal -0.000000 -1.000000 -0.000000
    outer loop
      vertex 2.505000 0.005000 0.005000
      vertex 22.495000 0.005000 0.005000
      vertex 2.505000 0.005000 5.000000
    endloop
  endfacet
  facet normal -0.000000 -0.000000 -1.000000
    outer loop
      vertex 2.505000 0.005000 0.005000
      vertex 2.505000 9.995000 0.005000
      vertex 22.495000 0.005000 0.005000
    endloop
  endfacet
  facet normal 0.000000 0.000000 -1.000000
    outer loop
      vertex 22.495000 0.005000 0.005000
      vertex 2.505000 9.995000 0.005000
      vertex 22.495000 9.995000 0.005000
    endloop
  endfacet
  facet normal 0.000000 1.000000 0.000000
    outer loop
      vertex 2.505000 9.995000 0.005000
      vertex 2.505000 9.995000 5.000000
      vertex 22.495000 9.995000 0.005000
    endloop
  endfacet
  facet normal 0.000000 1.000000 0.000000
    outer loop
      vertex 22.495000 9.995000 0.005000
      vertex 2.505000 9.995000 5.000000
      vertex 22.495000 9.995000 5.000000
    endloop
  endfacet
  facet normal 0.000000 -0.000000 1.000000
    outer loop
      vertex 2.505000 9.995000 5.000000
      vertex 2.505000 0.005000 5.000000
      vertex 22.495000 0.005000 5.000000
    endloop
  endfacet
  facet normal 0.000000 0.000000 1.000000
    outer loop
      vertex 22.495000 9.995000 5.000000
      vertex 2.505000 9.995000 5.000000
      vertex 22.495000 0.005000 5.000000
    endloop
  endfacet
  facet normal 1.000000 0.000000 -0.000000
    outer loop
      vertex 22.495000 0.005000 5.000000
      vertex 22.495000 0.005000 0.005000
      vertex 22.495000 9.995000 0.005000
    endloop
  endfacet
  facet normal 1.000000 0.000000 0.000000
    outer loop
      vertex 22.495000 9.995000 5.000000
      vertex 22.495000 0.005000 5.000000
      vertex 22.495000 9.995000 0.005000
    endloop
  endfacet
  facet normal -1.000000 -0.000000 -0.000000
    outer loop
      vertex 27.505000 -9.995000 5.000000
      vertex 27.505000 -9.995000 9.995000
      vertex 27.505000 -0.005000 5.000000
    endloop
  endfacet
  facet normal -1.000000 0.000000 0.000000
    outer loop
      vertex 27.505000 -0.005000 5.000000
      vertex 27.505000 -9.995000 9.995000
      vertex 27.505000 -0.005000 9.995000
    endloop
  endfacet
  facet normal 0.000000 -1.000000 0.000000
    outer loop
      vertex 27.505000 -9.995000 9.995000
      vertex 27.505000 -9.995000 5.000000
      vertex 37.490000 -9.995000 5.000000
    endloop
  endfacet
  facet normal 0.000000 -1.000000 0.000000
    outer loop
      vertex 37.490000 -9.995000 9.995000
      vertex 27.505000 -9.995000 9.995000
      vertex 37.490000 -9.995000 5.000000
    endloop
  endfacet
  facet normal 0.000000 0.000000 -1.000000
    outer loop
      vertex 37.490000 -0.005000 5.000000
      vertex 37.490000 -9.995000 5.000000
      vertex 27.505000 -0.005000 5.000000
    endloop
  endfacet
  facet normal 0.000000 0.000000 -1.000000
    outer loop
      vertex 27.505000 -0.005000 5.000000
      vertex 37.490000 -9.995000 5.000000
      vertex 27.505000 -9.995000 5.000000
    endloop
  endfacet
  facet normal 0.000000 1.000000 0.000000
    outer loop
      vertex 37.490000 -0.005000 9.995000
      vertex 37.490000 -0.005000 5.000000
      vertex 27.505000 -0.005000 9.995000
    endloop
  endfacet
  facet normal 0.000000 1.000000 -0.000000
    outer loop
      vertex 27.505000 -0.005000 9.995000
      vertex 37.490000 -0.005000 5.000000
      vertex 27.505000 -0.005000 5.000000
    endloop
  endfacet
  facet normal 0.000000 -0.000000 1.000000
    outer loop
      vertex 27.505000 -0.005000 9.995000
      vertex 27.505000 -9.995000 9.995000
      vertex 37.490000 -9.995000 9.995000
    endloop
  endfacet
  facet normal 0.000000 0.000000 1.000000
    outer loop
      vertex 37.490000 -0.005000 9.995000
      vertex 27.505000 -0.005000 9.995000
      vertex 37.490000 -9.995000 9.995000
    endloop
  endfacet
  facet normal 1.000000 0.000000 0.000000
    outer loop
      vertex 37.490000 -0.005000 5.000000
      vertex 37.490000 -0.005000 9.995000
      vertex 37.490000 -9.995000 9.995000
    endloop
  endfacet
  facet normal 1.000000 0.000000 0.000000
    outer loop
      vertex 37.490000 -9.995000 5.000000
      vertex 37.490000 -0.005000 5.000000
      vertex 37.490000 -9.995000 9.995000
    endloop
  endfacet
  facet normal -1.000000 0.000000 0.000000
    outer loop
      vertex 37.510000 9.995000 9.995000
      vertex 37.510000 9.995000 5.000000
      vertex 37.510000 0.005000 9.995000
    endloop
  endfacet
  facet normal -1.000000 0.000000 0.000000
    outer loop
      vertex 37.510000 0.005000 9.995000
      vertex 37.510000 9.995000 5.000000
      vertex 37.510000 0.005000 5.000000
    endloop
  endfacet
  facet normal 0.000000 -1.000000 0.000000
    outer loop
      vertex 47.495000 0.005000 5.000000
      vertex 47.495000 0.005000 9.995000
      vertex 37.510000 0.005000 9.995000
    endloop
  endfacet
  facet normal -0.000000 -1.000000 -0.000000
    outer loop
      vertex 37.510000 0.005000 5.000000
      vertex 47.495000 0.005000 5.000000
      vertex 37.510000 0.005000 9.995000
    endloop
  endfacet
  facet normal 0.000000 0.000000 -1.000000
    outer loop
      vertex 47.495000 9.995000 5.000000
      vertex 47.495000 0.005000 5.000000
      vertex 37.510000 9.995000 5.000000
    endloop
  endfacet
  facet normal 0.000000 0.000000 -1.000000
    outer loop
      vertex 37.510000 9.995000 5.000000
      vertex 47.495000 0.005000 5.000000
      vertex 37.510000 0.005000 5.000000
    endloop
  endfacet
  facet normal 0.000000 -0.000000 1.000000
    outer loop
      vertex 37.510000 9.995000 9.995000
      vertex 37.510000 0.005000 9.995000
      vertex 47.495000 0.005000 9.995000
    endloop
  endfacet
  facet normal 0.000000 0.000000 1.000000
    outer loop
      vertex 47.495000 9.995000 9.995000
      vertex 37.510000 9.995000 9.995000
      vertex 47.495000 0.005000 9.995000
    endloop
  endfacet
  facet normal 0.000000 1.000000 0.000000
    outer loop
      vertex 37.510000 9.995000 5.000000
      vertex 37.510000 9.995000 9.995000
      vertex 47.495000 9.995000 5.000000
    endloop
  endfacet
  facet normal 0.000000 1.000000 0.000000
    outer loop
      vertex 47.495000 9.995000 5.000000
      vertex 37.510000 9.995000 9.995000
      vertex 47.495000 9.995000 9.995000
    endloop
  endfacet
  facet normal 1.000000 0.000000 -0.000000
    outer loop
      vertex 47.495000 0.005000 9.995000
      vertex 47.495000 0.005000 5.000000
      vertex 47.495000 9.995000 5.000000
    endloop
  endfacet
  facet normal 1.000000 0.000000 0.000000
    outer loop
      vertex 47.495000 9.995000 9.995000
      vertex 47.495000 0.005000 9.995000
      vertex 47.495000 9.995000 5.000000
    endloop
  endfacet
  facet normal -1.000000 -0.000000 -0.000000
    outer loop
      vertex 27.505000 0.005000 0.005000
      vertex 27.505000 0.005000 5.000000
      vertex 27.505000 9.995000 0.005000
    endloop
  endfacet
  facet normal -1.000000 0.000000 0.000000
    outer loop
      vertex 27.505000 9.995000 0.005000
      vertex 27.505000 0.005000 5.000000
      vertex 27.505000 9.995000 5.000000
    endloop
  endfacet
  facet normal 0.000000 -1.000000 0.000000
    outer loop
      vertex 37.490000 0.005000 0.005000
      vertex 37.490000 0.005000 5.000000
      vertex 27.505000 0.005000 5.000000
    endloop
  endfacet
  facet normal -0.000000 -1.000000 -0.000000
    outer loop
      vertex 27.505000 0.005000 0.005000
      vertex 37.490000 0.005000 0.005000
      vertex 27.505000 0.005000 5.000000
    endloop
  endfacet
  facet normal -0.000000 -0.000000 -1.000000
    outer loop
      vertex 27.505000 0.005000 0.005000
      vertex 27.505000 9.995000 0.005000
      vertex 37.490000 0.005000 0.005000
    endloop
  endfacet
  facet normal 0.000000 0.000000 -1.000000
    outer loop
      vertex 37.490000 0.005000 0.005000
      vertex 27.505000 9.995000 0.005000
      vertex 37.490000 9.995000 0.005000
    endloop
  endfacet
  facet normal 0.000000 1.000000 0.000000
    outer loop
      vertex 27.505000 9.995000 0.005000
      vertex 27.505000 9.995000 5.000000
      vertex 37.490000 9.995000 0.005000
    endloop
  endfacet
  facet normal 0.000000 1.000000 0.000000
    outer loop
      vertex 37.490000 9.995000 0.005000
      vertex 27.505000 9.995000 5.000000
      vertex 37.490000 9.995000 5.000000
    endloop
  endfacet
  facet normal 0.000000 -0.000000 1.000000
    outer loop
      vertex 27.505000 9.995000 5.000000
      vertex 27.505000 0.005000 5.000000
      vertex 37.490000 0.005000 5.000000
    endloop
  endfacet
  facet normal 0.000000 0.000000 1.000000
    outer loop
      vertex 37.490000 9.995000 5.000000
      vertex 27.505000 9.995000 5.000000
      vertex 37.490000 0.005000 5.000000
    endloop
  endfacet
  facet normal 1.000000 0.000000 0.000000
    outer loop
      vertex 37.490000 9.995000 0.005000
      vertex 37.490000 9.995000 5.000000
      vertex 37.490000 0.005000 5.000000
    endloop
  endfacet
  facet normal 1.000000 0.000000 0.000000
    outer loop
      vertex 37.490000 0.005000 0.005000
      vertex 37.490000 9.995000 0.005000
      vertex 37.490000 0.005000 5.000000
    endloop
  endfacet
  facet normal -1.000000 0.000000 0.000000
    outer loop
      vertex 37.510000 -0.005000 5.000000
      vertex 37.510000 -0.005000 0.005000
      vertex 37.510000 -9.995000 5.000000
    endloop
  endfacet
  facet normal -1.000000 0.000000 0.000000
    outer loop
      vertex 37.510000 -9.995000 5.000000
      vertex 37.510000 -0.005000 0.005000
      vertex 37.510000 -9.995000 0.005000
    endloop
  endfacet
  facet normal 0.000000 -1.000000 0.000000
    outer loop
      vertex 37.510000 -9.995000 5.000000
      vertex 37.510000 -9.995000 0.005000
      vertex 47.495000 -9.995000 0.005000
    endloop
  endfacet
  facet normal 0.000000 -1.000000 0.000000
    outer loop
      vertex 47.495000 -9.995000 5.000000
      vertex 37.510000 -9.995000 5.000000
      vertex 47.495000 -9.995000 0.005000
    endloop
  endfacet
  facet normal -0.000000 -0.000000 -1.000000
    outer loop
      vertex 37.510000 -9.995000 0.005000
      vertex 37.510000 -0.005000 0.005000
      vertex 47.495000 -9.995000 0.005000
    endloop
  endfacet
  facet normal 0.000000 0.000000 -1.000000
    outer loop
      vertex 47.495000 -9.995000 0.005000
      vertex 37.510000 -0.005000 0.005000
      vertex 47.495000 -0.005000 0.005000
    endloop
  endfacet
  facet normal 0.000000 -0.000000 1.000000
    outer loop
      vertex 37.510000 -0.005000 5.000000
      vertex 37.510000 -9.995000 5.000000
      vertex 47.495000 -9.995000 5.000000
    endloop
  endfacet
  facet normal 0.000000 0.000000 1.000000
    outer loop
      vertex 47.495000 -0.005000 5.000000
      vertex 37.510000 -0.005000 5.000000
      vertex 47.495000 -9.995000 5.000000
    endloop
  endfacet
  facet normal 0.000000 1.000000 0.000000
    outer loop
      vertex 47.495000 -0.005000 5.000000
      vertex 47.495000 -0.005000 0.005000
      vertex 37.510000 -0.005000 5.000000
    endloop
  endfacet
  facet normal 0.000000 1.000000 -0.000000
    outer loop
      vertex 37.510000 -0.005000 5.000000
      vertex 47.495000 -0.005000 0.005000
      vertex 37.510000 -0.005000 0.005000
    endloop
  endfacet
  facet normal 1.000000 0.000000 -0.000000
    outer loop
      vertex 47.495000 -9.995000 5.000000
      vertex 47.495000 -9.995000 0.005000
      vertex 47.495000 -0.005000 0.005000
    endloop
  endfacet
  facet normal 1.000000 0.000000 0.000000
    outer loop
      vertex 47.495000 -0.005000 5.000000
      vertex 47.495000 -9.995000 5.000000
      vertex 47.495000 -0.005000 0.005000
    endloop
  endfacet
endsolid OpenSCAD_Model
