solid ascii
  facet normal -3.535534e-001 -6.123724e-001 -7.071068e-001
    outer loop
      vertex   5.000000e-001 -2.886751e-001 -9.300000e+001
      vertex   1.000000e+000 -7.771561e-015 -9.350000e+001
      vertex   1.732051e+001 -1.000000e+001 -9.300000e+001
    endloop
  endfacet
  facet normal -3.535534e-001 -6.123724e-001 -7.071068e-001
    outer loop
      vertex   1.732051e+001 -1.000000e+001 -9.300000e+001
      vertex   1.000000e+000 -7.771561e-015 -9.350000e+001
      vertex   2.200000e+001 2.206568e-014 -1.040000e+002
    endloop
  endfacet
  facet normal -3.535534e-001 -6.123724e-001 -7.071068e-001
    outer loop
      vertex   2.282051e+001 -4.737206e-001 -1.040000e+002
      vertex   1.732051e+001 -1.000000e+001 -9.300000e+001
      vertex   2.200000e+001 2.206568e-014 -1.040000e+002
    endloop
  endfacet
  facet normal 3.535534e-001 6.123724e-001 -7.071068e-001
    outer loop
      vertex   5.000000e-001 -2.886751e-001 -9.300000e+001
      vertex   1.732051e+001 -1.000000e+001 -9.300000e+001
      vertex   1.150000e+001 -1.934123e+001 -1.040000e+002
    endloop
  endfacet
  facet normal 3.535534e-001 6.123724e-001 -7.071068e-001
    outer loop
      vertex   1.150000e+001 -1.934123e+001 -1.040000e+002
      vertex   1.732051e+001 -1.000000e+001 -9.300000e+001
      vertex   1.182051e+001 -1.952628e+001 -1.040000e+002
    endloop
  endfacet
  facet normal 3.535534e-001 6.123724e-001 -7.071068e-001
    outer loop
      vertex   -5.000000e-001 2.886751e-001 -9.300000e+001
      vertex   -1.000000e+000 -1.568190e-014 -9.350000e+001
      vertex   -1.732051e+001 1.000000e+001 -9.300000e+001
    endloop
  endfacet
  facet normal 3.535534e-001 6.123724e-001 -7.071068e-001
    outer loop
      vertex   -1.732051e+001 1.000000e+001 -9.300000e+001
      vertex   -1.000000e+000 -1.568190e-014 -9.350000e+001
      vertex   -2.200000e+001 -3.330669e-014 -1.040000e+002
    endloop
  endfacet
  facet normal 3.535534e-001 6.123724e-001 -7.071068e-001
    outer loop
      vertex   -2.282051e+001 4.737206e-001 -1.040000e+002
      vertex   -1.732051e+001 1.000000e+001 -9.300000e+001
      vertex   -2.200000e+001 -3.330669e-014 -1.040000e+002
    endloop
  endfacet
  facet normal -3.535534e-001 -6.123724e-001 -7.071068e-001
    outer loop
      vertex   -5.000000e-001 2.886751e-001 -9.300000e+001
      vertex   -1.732051e+001 1.000000e+001 -9.300000e+001
      vertex   -1.150000e+001 1.934123e+001 -1.040000e+002
    endloop
  endfacet
  facet normal -3.535534e-001 -6.123724e-001 -7.071068e-001
    outer loop
      vertex   -1.150000e+001 1.934123e+001 -1.040000e+002
      vertex   -1.732051e+001 1.000000e+001 -9.300000e+001
      vertex   -1.182051e+001 1.952628e+001 -1.040000e+002
    endloop
  endfacet
  facet normal -8.660254e-001 5.000000e-001 -6.025488e-016
    outer loop
      vertex   -1.154701e+001 2.000000e+001 -1.040000e+002
      vertex   -1.182051e+001 1.952628e+001 -1.040000e+002
      vertex   -1.154701e+001 2.000000e+001 -7.400000e+001
    endloop
  endfacet
  facet normal -8.660254e-001 5.000000e-001 -5.689191e-016
    outer loop
      vertex   -1.154701e+001 2.000000e+001 -7.400000e+001
      vertex   -1.182051e+001 1.952628e+001 -1.040000e+002
      vertex   -1.732051e+001 1.000000e+001 -9.300000e+001
    endloop
  endfacet
  facet normal -8.660254e-001 5.000000e-001 -1.217876e-015
    outer loop
      vertex   -2.309401e+001 -1.129770e-015 -7.400000e+001
      vertex   -1.732051e+001 1.000000e+001 -9.300000e+001
      vertex   -2.309401e+001 -1.332268e-014 -1.040000e+002
    endloop
  endfacet
  facet normal -8.660254e-001 5.000000e-001 -1.366316e-015
    outer loop
      vertex   -2.309401e+001 -1.129770e-015 -7.400000e+001
      vertex   -1.154701e+001 2.000000e+001 -7.400000e+001
      vertex   -1.732051e+001 1.000000e+001 -9.300000e+001
    endloop
  endfacet
  facet normal -8.660254e-001 5.000000e-001 3.228970e-015
    outer loop
      vertex   -1.732051e+001 1.000000e+001 -9.300000e+001
      vertex   -2.282051e+001 4.737206e-001 -1.040000e+002
      vertex   -2.309401e+001 -1.332268e-014 -1.040000e+002
    endloop
  endfacet
  facet normal 3.247421e-014 5.624698e-014 -1.000000e+000
    outer loop
      vertex   -2.282051e+001 4.737206e-001 -1.040000e+002
      vertex   -2.200000e+001 -3.330669e-014 -1.040000e+002
      vertex   -2.309401e+001 -1.332268e-014 -1.040000e+002
    endloop
  endfacet
  facet normal 3.247421e-014 -5.624698e-014 -1.000000e+000
    outer loop
      vertex   -2.309401e+001 -1.332268e-014 -1.040000e+002
      vertex   -2.200000e+001 -3.330669e-014 -1.040000e+002
      vertex   -2.282051e+001 -4.737206e-001 -1.040000e+002
    endloop
  endfacet
  facet normal -3.247421e-014 -5.624698e-014 -1.000000e+000
    outer loop
      vertex   -1.182051e+001 1.952628e+001 -1.040000e+002
      vertex   -1.154701e+001 2.000000e+001 -1.040000e+002
      vertex   -1.150000e+001 1.934123e+001 -1.040000e+002
    endloop
  endfacet
  facet normal 7.558100e-013 -2.547544e-027 -1.000000e+000
    outer loop
      vertex   -1.150000e+001 1.934123e+001 -1.040000e+002
      vertex   -1.154701e+001 2.000000e+001 -1.040000e+002
      vertex   -1.150000e+001 2.000000e+001 -1.040000e+002
    endloop
  endfacet
  facet normal 8.660254e-001 -5.000000e-001 -5.721571e-016
    outer loop
      vertex   1.154701e+001 -2.000000e+001 -1.040000e+002
      vertex   1.182051e+001 -1.952628e+001 -1.040000e+002
      vertex   1.154701e+001 -2.000000e+001 -7.400000e+001
    endloop
  endfacet
  facet normal 8.660254e-001 -5.000000e-001 -5.936996e-016
    outer loop
      vertex   1.154701e+001 -2.000000e+001 -7.400000e+001
      vertex   1.182051e+001 -1.952628e+001 -1.040000e+002
      vertex   1.732051e+001 -1.000000e+001 -9.300000e+001
    endloop
  endfacet
  facet normal 8.660254e-001 -5.000000e-001 -6.089382e-016
    outer loop
      vertex   2.309401e+001 3.185637e-014 -7.400000e+001
      vertex   1.732051e+001 -1.000000e+001 -9.300000e+001
      vertex   2.309401e+001 1.554312e-014 -1.040000e+002
    endloop
  endfacet
  facet normal 8.660254e-001 -5.000000e-001 -1.163898e-015
    outer loop
      vertex   2.309401e+001 3.185637e-014 -7.400000e+001
      vertex   1.154701e+001 -2.000000e+001 -7.400000e+001
      vertex   1.732051e+001 -1.000000e+001 -9.300000e+001
    endloop
  endfacet
  facet normal 8.660254e-001 -5.000000e-001 -1.285822e-014
    outer loop
      vertex   1.732051e+001 -1.000000e+001 -9.300000e+001
      vertex   2.282051e+001 -4.737206e-001 -1.040000e+002
      vertex   2.309401e+001 1.554312e-014 -1.040000e+002
    endloop
  endfacet
  facet normal -7.071068e-001 0.000000e+000 -7.071068e-001
    outer loop
      vertex   1.000000e+000 -7.771561e-015 -9.350000e+001
      vertex   5.000000e-001 -2.886751e-001 -9.300000e+001
      vertex   5.000000e-001 2.886751e-001 -9.300000e+001
    endloop
  endfacet
  facet normal -7.071068e-001 -0.000000e+000 -7.071068e-001
    outer loop
      vertex   5.000000e-001 2.886751e-001 -9.300000e+001
      vertex   5.000000e-001 -2.886751e-001 -9.300000e+001
      vertex   1.346074e-014 -2.000000e+001 -9.250000e+001
    endloop
  endfacet
  facet normal -7.071068e-001 -4.753210e-016 -7.071068e-001
    outer loop
      vertex   -1.346074e-014 2.000000e+001 -9.250000e+001
      vertex   5.000000e-001 2.886751e-001 -9.300000e+001
      vertex   1.346074e-014 -2.000000e+001 -9.250000e+001
    endloop
  endfacet
  facet normal -7.071068e-001 -4.161926e-016 -7.071068e-001
    outer loop
      vertex   -1.346074e-014 2.000000e+001 -9.250000e+001
      vertex   1.150000e+001 1.934123e+001 -1.040000e+002
      vertex   5.000000e-001 2.886751e-001 -9.300000e+001
    endloop
  endfacet
  facet normal -7.071068e-001 -0.000000e+000 -7.071068e-001
    outer loop
      vertex   -1.346074e-014 2.000000e+001 -9.250000e+001
      vertex   1.150000e+001 2.000000e+001 -1.040000e+002
      vertex   1.150000e+001 1.934123e+001 -1.040000e+002
    endloop
  endfacet
  facet normal -7.071068e-001 -4.855580e-016 -7.071068e-001
    outer loop
      vertex   5.000000e-001 -2.886751e-001 -9.300000e+001
      vertex   1.150000e+001 -1.934123e+001 -1.040000e+002
      vertex   1.346074e-014 -2.000000e+001 -9.250000e+001
    endloop
  endfacet
  facet normal -7.071068e-001 -2.383384e-015 -7.071068e-001
    outer loop
      vertex   1.346074e-014 -2.000000e+001 -9.250000e+001
      vertex   1.150000e+001 -1.934123e+001 -1.040000e+002
      vertex   1.150000e+001 -2.000000e+001 -1.040000e+002
    endloop
  endfacet
  facet normal -3.247421e-014 -5.624698e-014 -1.000000e+000
    outer loop
      vertex   2.282051e+001 -4.737206e-001 -1.040000e+002
      vertex   2.200000e+001 2.206568e-014 -1.040000e+002
      vertex   2.309401e+001 1.554312e-014 -1.040000e+002
    endloop
  endfacet
  facet normal -3.247421e-014 5.624698e-014 -1.000000e+000
    outer loop
      vertex   2.309401e+001 1.554312e-014 -1.040000e+002
      vertex   2.200000e+001 2.206568e-014 -1.040000e+002
      vertex   2.282051e+001 4.737206e-001 -1.040000e+002
    endloop
  endfacet
  facet normal 3.535534e-001 -6.123724e-001 -7.071068e-001
    outer loop
      vertex   5.000000e-001 2.886751e-001 -9.300000e+001
      vertex   1.150000e+001 1.934123e+001 -1.040000e+002
      vertex   1.732051e+001 1.000000e+001 -9.300000e+001
    endloop
  endfacet
  facet normal 3.535534e-001 -6.123724e-001 -7.071068e-001
    outer loop
      vertex   1.732051e+001 1.000000e+001 -9.300000e+001
      vertex   1.150000e+001 1.934123e+001 -1.040000e+002
      vertex   1.182051e+001 1.952628e+001 -1.040000e+002
    endloop
  endfacet
  facet normal -3.535534e-001 6.123724e-001 -7.071068e-001
    outer loop
      vertex   2.282051e+001 4.737206e-001 -1.040000e+002
      vertex   2.200000e+001 2.206568e-014 -1.040000e+002
      vertex   1.732051e+001 1.000000e+001 -9.300000e+001
    endloop
  endfacet
  facet normal -3.535534e-001 6.123724e-001 -7.071068e-001
    outer loop
      vertex   1.732051e+001 1.000000e+001 -9.300000e+001
      vertex   2.200000e+001 2.206568e-014 -1.040000e+002
      vertex   1.000000e+000 -7.771561e-015 -9.350000e+001
    endloop
  endfacet
  facet normal -3.535534e-001 6.123724e-001 -7.071068e-001
    outer loop
      vertex   5.000000e-001 2.886751e-001 -9.300000e+001
      vertex   1.732051e+001 1.000000e+001 -9.300000e+001
      vertex   1.000000e+000 -7.771561e-015 -9.350000e+001
    endloop
  endfacet
  facet normal -3.535534e-001 6.123724e-001 -7.071068e-001
    outer loop
      vertex   -5.000000e-001 -2.886751e-001 -9.300000e+001
      vertex   -1.150000e+001 -1.934123e+001 -1.040000e+002
      vertex   -1.732051e+001 -1.000000e+001 -9.300000e+001
    endloop
  endfacet
  facet normal -3.535534e-001 6.123724e-001 -7.071068e-001
    outer loop
      vertex   -1.732051e+001 -1.000000e+001 -9.300000e+001
      vertex   -1.150000e+001 -1.934123e+001 -1.040000e+002
      vertex   -1.182051e+001 -1.952628e+001 -1.040000e+002
    endloop
  endfacet
  facet normal 3.535534e-001 -6.123724e-001 -7.071068e-001
    outer loop
      vertex   -2.282051e+001 -4.737206e-001 -1.040000e+002
      vertex   -2.200000e+001 -3.330669e-014 -1.040000e+002
      vertex   -1.732051e+001 -1.000000e+001 -9.300000e+001
    endloop
  endfacet
  facet normal 3.535534e-001 -6.123724e-001 -7.071068e-001
    outer loop
      vertex   -1.732051e+001 -1.000000e+001 -9.300000e+001
      vertex   -2.200000e+001 -3.330669e-014 -1.040000e+002
      vertex   -1.000000e+000 -1.568190e-014 -9.350000e+001
    endloop
  endfacet
  facet normal 3.535534e-001 -6.123724e-001 -7.071068e-001
    outer loop
      vertex   -5.000000e-001 -2.886751e-001 -9.300000e+001
      vertex   -1.732051e+001 -1.000000e+001 -9.300000e+001
      vertex   -1.000000e+000 -1.568190e-014 -9.350000e+001
    endloop
  endfacet
  facet normal -8.660254e-001 -5.000000e-001 -8.218978e-016
    outer loop
      vertex   -2.309401e+001 -1.332268e-014 -1.040000e+002
      vertex   -2.282051e+001 -4.737206e-001 -1.040000e+002
      vertex   -2.309401e+001 -1.129770e-015 -7.400000e+001
    endloop
  endfacet
  facet normal -8.660254e-001 -5.000000e-001 -4.460491e-016
    outer loop
      vertex   -2.309401e+001 -1.129770e-015 -7.400000e+001
      vertex   -2.282051e+001 -4.737206e-001 -1.040000e+002
      vertex   -1.732051e+001 -1.000000e+001 -9.300000e+001
    endloop
  endfacet
  facet normal -8.660254e-001 -5.000000e-001 -1.153778e-015
    outer loop
      vertex   -1.154701e+001 -2.000000e+001 -7.400000e+001
      vertex   -1.732051e+001 -1.000000e+001 -9.300000e+001
      vertex   -1.154701e+001 -2.000000e+001 -1.040000e+002
    endloop
  endfacet
  facet normal -8.660254e-001 -5.000000e-001 -9.614813e-016
    outer loop
      vertex   -1.154701e+001 -2.000000e+001 -7.400000e+001
      vertex   -2.309401e+001 -1.129770e-015 -7.400000e+001
      vertex   -1.732051e+001 -1.000000e+001 -9.300000e+001
    endloop
  endfacet
  facet normal -8.660254e-001 -5.000000e-001 4.324513e-015
    outer loop
      vertex   -1.732051e+001 -1.000000e+001 -9.300000e+001
      vertex   -1.182051e+001 -1.952628e+001 -1.040000e+002
      vertex   -1.154701e+001 -2.000000e+001 -1.040000e+002
    endloop
  endfacet
  facet normal -3.247421e-014 5.624698e-014 -1.000000e+000
    outer loop
      vertex   -1.182051e+001 -1.952628e+001 -1.040000e+002
      vertex   -1.150000e+001 -1.934123e+001 -1.040000e+002
      vertex   -1.154701e+001 -2.000000e+001 -1.040000e+002
    endloop
  endfacet
  facet normal 7.558100e-013 -7.642632e-027 -1.000000e+000
    outer loop
      vertex   -1.154701e+001 -2.000000e+001 -1.040000e+002
      vertex   -1.150000e+001 -1.934123e+001 -1.040000e+002
      vertex   -1.150000e+001 -2.000000e+001 -1.040000e+002
    endloop
  endfacet
  facet normal 3.247421e-014 5.624698e-014 -1.000000e+000
    outer loop
      vertex   1.182051e+001 -1.952628e+001 -1.040000e+002
      vertex   1.154701e+001 -2.000000e+001 -1.040000e+002
      vertex   1.150000e+001 -1.934123e+001 -1.040000e+002
    endloop
  endfacet
  facet normal -7.558100e-013 -2.547544e-027 -1.000000e+000
    outer loop
      vertex   1.150000e+001 -1.934123e+001 -1.040000e+002
      vertex   1.154701e+001 -2.000000e+001 -1.040000e+002
      vertex   1.150000e+001 -2.000000e+001 -1.040000e+002
    endloop
  endfacet
  facet normal 7.071068e-001 5.115701e-016 -7.071068e-001
    outer loop
      vertex   -1.150000e+001 1.934123e+001 -1.040000e+002
      vertex   -1.346074e-014 2.000000e+001 -9.250000e+001
      vertex   -5.000000e-001 2.886751e-001 -9.300000e+001
    endloop
  endfacet
  facet normal 7.071068e-001 -2.383384e-015 -7.071068e-001
    outer loop
      vertex   -1.150000e+001 1.934123e+001 -1.040000e+002
      vertex   -1.150000e+001 2.000000e+001 -1.040000e+002
      vertex   -1.346074e-014 2.000000e+001 -9.250000e+001
    endloop
  endfacet
  facet normal 7.071068e-001 4.759090e-016 -7.071068e-001
    outer loop
      vertex   -1.346074e-014 2.000000e+001 -9.250000e+001
      vertex   1.346074e-014 -2.000000e+001 -9.250000e+001
      vertex   -5.000000e-001 2.886751e-001 -9.300000e+001
    endloop
  endfacet
  facet normal 7.071068e-001 5.417714e-015 -7.071068e-001
    outer loop
      vertex   -5.000000e-001 2.886751e-001 -9.300000e+001
      vertex   1.346074e-014 -2.000000e+001 -9.250000e+001
      vertex   -5.000000e-001 -2.886751e-001 -9.300000e+001
    endloop
  endfacet
  facet normal 7.071068e-001 5.438960e-015 -7.071068e-001
    outer loop
      vertex   -1.000000e+000 -1.568190e-014 -9.350000e+001
      vertex   -5.000000e-001 2.886751e-001 -9.300000e+001
      vertex   -5.000000e-001 -2.886751e-001 -9.300000e+001
    endloop
  endfacet
  facet normal 7.071068e-001 -7.150153e-015 -7.071068e-001
    outer loop
      vertex   -1.150000e+001 -2.000000e+001 -1.040000e+002
      vertex   -1.150000e+001 -1.934123e+001 -1.040000e+002
      vertex   1.346074e-014 -2.000000e+001 -9.250000e+001
    endloop
  endfacet
  facet normal 7.071068e-001 2.774617e-016 -7.071068e-001
    outer loop
      vertex   1.346074e-014 -2.000000e+001 -9.250000e+001
      vertex   -1.150000e+001 -1.934123e+001 -1.040000e+002
      vertex   -5.000000e-001 -2.886751e-001 -9.300000e+001
    endloop
  endfacet
  facet normal -9.447624e-014 1.000000e+000 -7.401487e-016
    outer loop
      vertex   1.154701e+001 2.000000e+001 -1.040000e+002
      vertex   1.150000e+001 2.000000e+001 -1.040000e+002
      vertex   1.154701e+001 2.000000e+001 -7.400000e+001
    endloop
  endfacet
  facet normal -1.272349e-015 1.000000e+000 -8.861848e-016
    outer loop
      vertex   1.154701e+001 2.000000e+001 -7.400000e+001
      vertex   1.150000e+001 2.000000e+001 -1.040000e+002
      vertex   -1.346074e-014 2.000000e+001 -9.250000e+001
    endloop
  endfacet
  facet normal -2.115259e-016 1.000000e+000 -1.332268e-015
    outer loop
      vertex   -1.154701e+001 2.000000e+001 -7.400000e+001
      vertex   -1.346074e-014 2.000000e+001 -9.250000e+001
      vertex   -1.154701e+001 2.000000e+001 -1.040000e+002
    endloop
  endfacet
  facet normal -3.845925e-016 1.000000e+000 -1.440289e-015
    outer loop
      vertex   -1.154701e+001 2.000000e+001 -7.400000e+001
      vertex   1.154701e+001 2.000000e+001 -7.400000e+001
      vertex   -1.346074e-014 2.000000e+001 -9.250000e+001
    endloop
  endfacet
  facet normal -1.889525e-013 1.000000e+000 1.881802e-013
    outer loop
      vertex   -1.346074e-014 2.000000e+001 -9.250000e+001
      vertex   -1.150000e+001 2.000000e+001 -1.040000e+002
      vertex   -1.154701e+001 2.000000e+001 -1.040000e+002
    endloop
  endfacet
  facet normal -4.378005e-028 -1.000000e+000 -5.792468e-016
    outer loop
      vertex   1.150000e+001 -2.000000e+001 -1.040000e+002
      vertex   1.154701e+001 -2.000000e+001 -1.040000e+002
      vertex   1.346074e-014 -2.000000e+001 -9.250000e+001
    endloop
  endfacet
  facet normal -3.076740e-016 -1.000000e+000 -8.881784e-016
    outer loop
      vertex   1.346074e-014 -2.000000e+001 -9.250000e+001
      vertex   1.154701e+001 -2.000000e+001 -1.040000e+002
      vertex   1.154701e+001 -2.000000e+001 -7.400000e+001
    endloop
  endfacet
  facet normal 1.153778e-015 -1.000000e+000 -1.800362e-015
    outer loop
      vertex   -1.154701e+001 -2.000000e+001 -7.400000e+001
      vertex   1.346074e-014 -2.000000e+001 -9.250000e+001
      vertex   1.154701e+001 -2.000000e+001 -7.400000e+001
    endloop
  endfacet
  facet normal 1.908524e-015 -1.000000e+000 -1.329277e-015
    outer loop
      vertex   -1.154701e+001 -2.000000e+001 -7.400000e+001
      vertex   -1.150000e+001 -2.000000e+001 -1.040000e+002
      vertex   1.346074e-014 -2.000000e+001 -9.250000e+001
    endloop
  endfacet
  facet normal 4.723812e-013 -1.000000e+000 -5.921189e-016
    outer loop
      vertex   -1.154701e+001 -2.000000e+001 -7.400000e+001
      vertex   -1.154701e+001 -2.000000e+001 -1.040000e+002
      vertex   -1.150000e+001 -2.000000e+001 -1.040000e+002
    endloop
  endfacet
  facet normal 8.660254e-001 5.000000e-001 -1.902786e-015
    outer loop
      vertex   1.182051e+001 1.952628e+001 -1.040000e+002
      vertex   1.154701e+001 2.000000e+001 -1.040000e+002
      vertex   1.732051e+001 1.000000e+001 -9.300000e+001
    endloop
  endfacet
  facet normal 8.660254e-001 5.000000e-001 -1.331556e-015
    outer loop
      vertex   1.732051e+001 1.000000e+001 -9.300000e+001
      vertex   1.154701e+001 2.000000e+001 -1.040000e+002
      vertex   1.154701e+001 2.000000e+001 -7.400000e+001
    endloop
  endfacet
  facet normal 8.660254e-001 5.000000e-001 -1.922963e-015
    outer loop
      vertex   2.309401e+001 3.185637e-014 -7.400000e+001
      vertex   1.732051e+001 1.000000e+001 -9.300000e+001
      vertex   1.154701e+001 2.000000e+001 -7.400000e+001
    endloop
  endfacet
  facet normal 8.660254e-001 5.000000e-001 -1.096537e-015
    outer loop
      vertex   2.309401e+001 3.185637e-014 -7.400000e+001
      vertex   2.282051e+001 4.737206e-001 -1.040000e+002
      vertex   1.732051e+001 1.000000e+001 -9.300000e+001
    endloop
  endfacet
  facet normal 8.660254e-001 5.000000e-001 -1.169270e-015
    outer loop
      vertex   2.309401e+001 3.185637e-014 -7.400000e+001
      vertex   2.309401e+001 1.554312e-014 -1.040000e+002
      vertex   2.282051e+001 4.737206e-001 -1.040000e+002
    endloop
  endfacet
  facet normal 3.247421e-014 -5.624698e-014 -1.000000e+000
    outer loop
      vertex   1.182051e+001 1.952628e+001 -1.040000e+002
      vertex   1.150000e+001 1.934123e+001 -1.040000e+002
      vertex   1.154701e+001 2.000000e+001 -1.040000e+002
    endloop
  endfacet
  facet normal -7.558100e-013 0.000000e+000 -1.000000e+000
    outer loop
      vertex   1.154701e+001 2.000000e+001 -1.040000e+002
      vertex   1.150000e+001 1.934123e+001 -1.040000e+002
      vertex   1.150000e+001 2.000000e+001 -1.040000e+002
    endloop
  endfacet
  facet normal 6.123724e-001 3.535534e-001 7.071068e-001
    outer loop
      vertex   2.309401e+001 3.185637e-014 -7.400000e+001
      vertex   1.154701e+001 2.000000e+001 -7.400000e+001
      vertex   9.237604e+000 1.511004e-014 -6.200000e+001
    endloop
  endfacet
  facet normal 6.123724e-001 3.535534e-001 7.071068e-001
    outer loop
      vertex   9.237604e+000 1.511004e-014 -6.200000e+001
      vertex   1.154701e+001 2.000000e+001 -7.400000e+001
      vertex   4.618802e+000 8.000000e+000 -6.200000e+001
    endloop
  endfacet
  facet normal -2.719480e-016 7.071068e-001 7.071068e-001
    outer loop
      vertex   1.154701e+001 2.000000e+001 -7.400000e+001
      vertex   -1.154701e+001 2.000000e+001 -7.400000e+001
      vertex   4.618802e+000 8.000000e+000 -6.200000e+001
    endloop
  endfacet
  facet normal 0.000000e+000 7.071068e-001 7.071068e-001
    outer loop
      vertex   4.618802e+000 8.000000e+000 -6.200000e+001
      vertex   -1.154701e+001 2.000000e+001 -7.400000e+001
      vertex   -4.618802e+000 8.000000e+000 -6.200000e+001
    endloop
  endfacet
  facet normal -6.123724e-001 3.535534e-001 7.071068e-001
    outer loop
      vertex   -1.154701e+001 2.000000e+001 -7.400000e+001
      vertex   -2.309401e+001 -1.129770e-015 -7.400000e+001
      vertex   -4.618802e+000 8.000000e+000 -6.200000e+001
    endloop
  endfacet
  facet normal -6.123724e-001 3.535534e-001 7.071068e-001
    outer loop
      vertex   -4.618802e+000 8.000000e+000 -6.200000e+001
      vertex   -2.309401e+001 -1.129770e-015 -7.400000e+001
      vertex   -9.237604e+000 -3.330669e-015 -6.200000e+001
    endloop
  endfacet
  facet normal -6.123724e-001 -3.535534e-001 7.071068e-001
    outer loop
      vertex   -2.309401e+001 -1.129770e-015 -7.400000e+001
      vertex   -1.154701e+001 -2.000000e+001 -7.400000e+001
      vertex   -9.237604e+000 -3.330669e-015 -6.200000e+001
    endloop
  endfacet
  facet normal -6.123724e-001 -3.535534e-001 7.071068e-001
    outer loop
      vertex   -9.237604e+000 -3.330669e-015 -6.200000e+001
      vertex   -1.154701e+001 -2.000000e+001 -7.400000e+001
      vertex   -4.618802e+000 -8.000000e+000 -6.200000e+001
    endloop
  endfacet
  facet normal 8.158440e-016 -7.071068e-001 7.071068e-001
    outer loop
      vertex   -1.154701e+001 -2.000000e+001 -7.400000e+001
      vertex   1.154701e+001 -2.000000e+001 -7.400000e+001
      vertex   -4.618802e+000 -8.000000e+000 -6.200000e+001
    endloop
  endfacet
  facet normal 0.000000e+000 -7.071068e-001 7.071068e-001
    outer loop
      vertex   -4.618802e+000 -8.000000e+000 -6.200000e+001
      vertex   1.154701e+001 -2.000000e+001 -7.400000e+001
      vertex   4.618802e+000 -8.000000e+000 -6.200000e+001
    endloop
  endfacet
  facet normal 6.123724e-001 -3.535534e-001 7.071068e-001
    outer loop
      vertex   1.154701e+001 -2.000000e+001 -7.400000e+001
      vertex   2.309401e+001 3.185637e-014 -7.400000e+001
      vertex   4.618802e+000 -8.000000e+000 -6.200000e+001
    endloop
  endfacet
  facet normal 6.123724e-001 -3.535534e-001 7.071068e-001
    outer loop
      vertex   4.618802e+000 -8.000000e+000 -6.200000e+001
      vertex   2.309401e+001 3.185637e-014 -7.400000e+001
      vertex   9.237604e+000 1.511004e-014 -6.200000e+001
    endloop
  endfacet
  facet normal 6.123724e-001 -3.535534e-001 -7.071068e-001
    outer loop
      vertex   4.618802e+000 -8.000000e+000 -6.200000e+001
      vertex   9.237604e+000 1.511004e-014 -6.200000e+001
      vertex   1.154701e+001 -2.000000e+001 -5.000000e+001
    endloop
  endfacet
  facet normal 6.123724e-001 -3.535534e-001 -7.071068e-001
    outer loop
      vertex   1.154701e+001 -2.000000e+001 -5.000000e+001
      vertex   9.237604e+000 1.511004e-014 -6.200000e+001
      vertex   2.309401e+001 2.442491e-014 -5.000000e+001
    endloop
  endfacet
  facet normal 6.123724e-001 3.535534e-001 -7.071068e-001
    outer loop
      vertex   9.237604e+000 1.511004e-014 -6.200000e+001
      vertex   4.618802e+000 8.000000e+000 -6.200000e+001
      vertex   2.309401e+001 2.442491e-014 -5.000000e+001
    endloop
  endfacet
  facet normal 6.123724e-001 3.535534e-001 -7.071068e-001
    outer loop
      vertex   2.309401e+001 2.442491e-014 -5.000000e+001
      vertex   4.618802e+000 8.000000e+000 -6.200000e+001
      vertex   1.154701e+001 2.000000e+001 -5.000000e+001
    endloop
  endfacet
  facet normal 0.000000e+000 7.071068e-001 -7.071068e-001
    outer loop
      vertex   4.618802e+000 8.000000e+000 -6.200000e+001
      vertex   -4.618802e+000 8.000000e+000 -6.200000e+001
      vertex   1.154701e+001 2.000000e+001 -5.000000e+001
    endloop
  endfacet
  facet normal -2.832792e-016 7.071068e-001 -7.071068e-001
    outer loop
      vertex   1.154701e+001 2.000000e+001 -5.000000e+001
      vertex   -4.618802e+000 8.000000e+000 -6.200000e+001
      vertex   -1.154701e+001 2.000000e+001 -5.000000e+001
    endloop
  endfacet
  facet normal -6.123724e-001 3.535534e-001 -7.071068e-001
    outer loop
      vertex   -4.618802e+000 8.000000e+000 -6.200000e+001
      vertex   -9.237604e+000 -3.330669e-015 -6.200000e+001
      vertex   -1.154701e+001 2.000000e+001 -5.000000e+001
    endloop
  endfacet
  facet normal -6.123724e-001 3.535534e-001 -7.071068e-001
    outer loop
      vertex   -1.154701e+001 2.000000e+001 -5.000000e+001
      vertex   -9.237604e+000 -3.330669e-015 -6.200000e+001
      vertex   -2.309401e+001 -6.661338e-015 -5.000000e+001
    endloop
  endfacet
  facet normal -6.123724e-001 -3.535534e-001 -7.071068e-001
    outer loop
      vertex   -9.237604e+000 -3.330669e-015 -6.200000e+001
      vertex   -4.618802e+000 -8.000000e+000 -6.200000e+001
      vertex   -2.309401e+001 -6.661338e-015 -5.000000e+001
    endloop
  endfacet
  facet normal -6.123724e-001 -3.535534e-001 -7.071068e-001
    outer loop
      vertex   -2.309401e+001 -6.661338e-015 -5.000000e+001
      vertex   -4.618802e+000 -8.000000e+000 -6.200000e+001
      vertex   -1.154701e+001 -2.000000e+001 -5.000000e+001
    endloop
  endfacet
  facet normal 3.448616e-015 -7.071068e-001 -7.071068e-001
    outer loop
      vertex   -1.154701e+001 -2.000000e+001 -5.000000e+001
      vertex   -4.618802e+000 -8.000000e+000 -6.200000e+001
      vertex   -8.891194e+000 -2.000000e+001 -5.000000e+001
    endloop
  endfacet
  facet normal -8.498375e-017 -7.071068e-001 -7.071068e-001
    outer loop
      vertex   -8.891194e+000 -2.000000e+001 -5.000000e+001
      vertex   -4.618802e+000 -8.000000e+000 -6.200000e+001
      vertex   4.618802e+000 -8.000000e+000 -6.200000e+001
    endloop
  endfacet
  facet normal 9.853188e-016 -7.071068e-001 -7.071068e-001
    outer loop
      vertex   8.891194e+000 -2.000000e+001 -5.000000e+001
      vertex   4.618802e+000 -8.000000e+000 -6.200000e+001
      vertex   1.154701e+001 -2.000000e+001 -5.000000e+001
    endloop
  endfacet
  facet normal -0.000000e+000 -7.071068e-001 -7.071068e-001
    outer loop
      vertex   8.891194e+000 -2.000000e+001 -5.000000e+001
      vertex   -8.891194e+000 -2.000000e+001 -5.000000e+001
      vertex   4.618802e+000 -8.000000e+000 -6.200000e+001
    endloop
  endfacet
  facet normal -3.344283e-015 1.930823e-015 1.000000e+000
    outer loop
      vertex   8.891194e+000 -2.000000e+001 -5.000000e+001
      vertex   1.154701e+001 -2.000000e+001 -5.000000e+001
      vertex   2.043820e+001 -1.190020e-014 -5.000000e+001
    endloop
  endfacet
  facet normal -3.344283e-015 1.930823e-015 1.000000e+000
    outer loop
      vertex   2.043820e+001 -1.190020e-014 -5.000000e+001
      vertex   1.154701e+001 -2.000000e+001 -5.000000e+001
      vertex   2.309401e+001 2.442491e-014 -5.000000e+001
    endloop
  endfacet
  facet normal -3.344283e-015 -1.930823e-015 1.000000e+000
    outer loop
      vertex   1.021910e+001 1.770000e+001 -5.000000e+001
      vertex   2.309401e+001 2.442491e-014 -5.000000e+001
      vertex   1.154701e+001 2.000000e+001 -5.000000e+001
    endloop
  endfacet
  facet normal 1.485160e-030 -3.861645e-015 1.000000e+000
    outer loop
      vertex   -1.154701e+001 2.000000e+001 -5.000000e+001
      vertex   1.021910e+001 1.770000e+001 -5.000000e+001
      vertex   1.154701e+001 2.000000e+001 -5.000000e+001
    endloop
  endfacet
  facet normal -3.775830e-030 -3.861645e-015 1.000000e+000
    outer loop
      vertex   -1.154701e+001 2.000000e+001 -5.000000e+001
      vertex   -1.021910e+001 1.770000e+001 -5.000000e+001
      vertex   1.021910e+001 1.770000e+001 -5.000000e+001
    endloop
  endfacet
  facet normal 3.344283e-015 -1.930823e-015 1.000000e+000
    outer loop
      vertex   -1.154701e+001 2.000000e+001 -5.000000e+001
      vertex   -2.309401e+001 -6.661338e-015 -5.000000e+001
      vertex   -1.021910e+001 1.770000e+001 -5.000000e+001
    endloop
  endfacet
  facet normal 3.344283e-015 -1.930823e-015 1.000000e+000
    outer loop
      vertex   -1.021910e+001 1.770000e+001 -5.000000e+001
      vertex   -2.309401e+001 -6.661338e-015 -5.000000e+001
      vertex   -2.043820e+001 1.554312e-014 -5.000000e+001
    endloop
  endfacet
  facet normal 3.344283e-015 1.930823e-015 1.000000e+000
    outer loop
      vertex   -2.043820e+001 1.554312e-014 -5.000000e+001
      vertex   -2.309401e+001 -6.661338e-015 -5.000000e+001
      vertex   -1.154701e+001 -2.000000e+001 -5.000000e+001
    endloop
  endfacet
  facet normal 3.344283e-015 1.930823e-015 1.000000e+000
    outer loop
      vertex   -8.891194e+000 -2.000000e+001 -5.000000e+001
      vertex   -2.043820e+001 1.554312e-014 -5.000000e+001
      vertex   -1.154701e+001 -2.000000e+001 -5.000000e+001
    endloop
  endfacet
  facet normal -3.344283e-015 -1.930823e-015 1.000000e+000
    outer loop
      vertex   1.021910e+001 1.770000e+001 -5.000000e+001
      vertex   2.043820e+001 -1.190020e-014 -5.000000e+001
      vertex   2.309401e+001 2.442491e-014 -5.000000e+001
    endloop
  endfacet
  facet normal 8.660254e-001 -5.000000e-001 0.000000e+000
    outer loop
      vertex   2.043820e+001 -1.190020e-014 4.800000e+001
      vertex   8.891194e+000 -2.000000e+001 4.800000e+001
      vertex   2.043820e+001 -1.190020e-014 -5.000000e+001
    endloop
  endfacet
  facet normal 8.660254e-001 -5.000000e-001 0.000000e+000
    outer loop
      vertex   2.043820e+001 -1.190020e-014 -5.000000e+001
      vertex   8.891194e+000 -2.000000e+001 4.800000e+001
      vertex   8.891194e+000 -2.000000e+001 -5.000000e+001
    endloop
  endfacet
  facet normal -0.000000e+000 -1.000000e+000 -0.000000e+000
    outer loop
      vertex   8.891194e+000 -2.000000e+001 4.800000e+001
      vertex   -8.891194e+000 -2.000000e+001 4.800000e+001
      vertex   8.891194e+000 -2.000000e+001 -5.000000e+001
    endloop
  endfacet
  facet normal -0.000000e+000 -1.000000e+000 -0.000000e+000
    outer loop
      vertex   8.891194e+000 -2.000000e+001 -5.000000e+001
      vertex   -8.891194e+000 -2.000000e+001 4.800000e+001
      vertex   -8.891194e+000 -2.000000e+001 -5.000000e+001
    endloop
  endfacet
  facet normal -8.660254e-001 -5.000000e-001 0.000000e+000
    outer loop
      vertex   -8.891194e+000 -2.000000e+001 4.800000e+001
      vertex   -2.043820e+001 1.554312e-014 4.800000e+001
      vertex   -8.891194e+000 -2.000000e+001 -5.000000e+001
    endloop
  endfacet
  facet normal -8.660254e-001 -5.000000e-001 -0.000000e+000
    outer loop
      vertex   -8.891194e+000 -2.000000e+001 -5.000000e+001
      vertex   -2.043820e+001 1.554312e-014 4.800000e+001
      vertex   -2.043820e+001 1.554312e-014 -5.000000e+001
    endloop
  endfacet
  facet normal -8.660254e-001 5.000000e-001 0.000000e+000
    outer loop
      vertex   -2.043820e+001 1.554312e-014 4.800000e+001
      vertex   -1.021910e+001 1.770000e+001 4.800000e+001
      vertex   -2.043820e+001 1.554312e-014 -5.000000e+001
    endloop
  endfacet
  facet normal -8.660254e-001 5.000000e-001 0.000000e+000
    outer loop
      vertex   -2.043820e+001 1.554312e-014 -5.000000e+001
      vertex   -1.021910e+001 1.770000e+001 4.800000e+001
      vertex   -1.021910e+001 1.770000e+001 -5.000000e+001
    endloop
  endfacet
  facet normal 9.777776e-016 1.000000e+000 0.000000e+000
    outer loop
      vertex   -1.021910e+001 1.770000e+001 4.800000e+001
      vertex   1.021910e+001 1.770000e+001 4.800000e+001
      vertex   -1.021910e+001 1.770000e+001 -5.000000e+001
    endloop
  endfacet
  facet normal 9.777776e-016 1.000000e+000 0.000000e+000
    outer loop
      vertex   -1.021910e+001 1.770000e+001 -5.000000e+001
      vertex   1.021910e+001 1.770000e+001 4.800000e+001
      vertex   1.021910e+001 1.770000e+001 -5.000000e+001
    endloop
  endfacet
  facet normal 8.660254e-001 5.000000e-001 0.000000e+000
    outer loop
      vertex   1.021910e+001 1.770000e+001 4.800000e+001
      vertex   2.043820e+001 -1.190020e-014 4.800000e+001
      vertex   1.021910e+001 1.770000e+001 -5.000000e+001
    endloop
  endfacet
  facet normal 8.660254e-001 5.000000e-001 0.000000e+000
    outer loop
      vertex   1.021910e+001 1.770000e+001 -5.000000e+001
      vertex   2.043820e+001 -1.190020e-014 4.800000e+001
      vertex   2.043820e+001 -1.190020e-014 -5.000000e+001
    endloop
  endfacet
  facet normal 3.845925e-015 2.220446e-015 1.000000e+000
    outer loop
      vertex   1.021910e+001 1.770000e+001 4.800000e+001
      vertex   9.064399e+000 1.570000e+001 4.800000e+001
      vertex   2.043820e+001 -1.190020e-014 4.800000e+001
    endloop
  endfacet
  facet normal 4.342205e-030 4.440892e-015 1.000000e+000
    outer loop
      vertex   1.021910e+001 1.770000e+001 4.800000e+001
      vertex   -1.021910e+001 1.770000e+001 4.800000e+001
      vertex   9.064399e+000 1.570000e+001 4.800000e+001
    endloop
  endfacet
  facet normal 2.175712e-030 4.440892e-015 1.000000e+000
    outer loop
      vertex   9.064399e+000 1.570000e+001 4.800000e+001
      vertex   -1.021910e+001 1.770000e+001 4.800000e+001
      vertex   -9.064399e+000 1.570000e+001 4.800000e+001
    endloop
  endfacet
  facet normal -3.845925e-015 2.220446e-015 1.000000e+000
    outer loop
      vertex   -9.064399e+000 1.570000e+001 4.800000e+001
      vertex   -1.021910e+001 1.770000e+001 4.800000e+001
      vertex   -2.043820e+001 1.554312e-014 4.800000e+001
    endloop
  endfacet
  facet normal -3.845925e-015 -2.220446e-015 1.000000e+000
    outer loop
      vertex   -1.812880e+001 1.443290e-014 4.800000e+001
      vertex   -2.043820e+001 1.554312e-014 4.800000e+001
      vertex   -7.736494e+000 -1.800000e+001 4.800000e+001
    endloop
  endfacet
  facet normal -3.845925e-015 2.220446e-015 1.000000e+000
    outer loop
      vertex   -1.812880e+001 1.443290e-014 4.800000e+001
      vertex   -9.064399e+000 1.570000e+001 4.800000e+001
      vertex   -2.043820e+001 1.554312e-014 4.800000e+001
    endloop
  endfacet
  facet normal -3.845925e-015 -2.220446e-015 1.000000e+000
    outer loop
      vertex   -2.043820e+001 1.554312e-014 4.800000e+001
      vertex   -8.891194e+000 -2.000000e+001 4.800000e+001
      vertex   -7.736494e+000 -1.800000e+001 4.800000e+001
    endloop
  endfacet
  facet normal 0.000000e+000 -4.440892e-015 1.000000e+000
    outer loop
      vertex   -7.736494e+000 -1.800000e+001 4.800000e+001
      vertex   -8.891194e+000 -2.000000e+001 4.800000e+001
      vertex   8.891194e+000 -2.000000e+001 4.800000e+001
    endloop
  endfacet
  facet normal 3.845925e-015 -2.220446e-015 1.000000e+000
    outer loop
      vertex   7.736494e+000 -1.800000e+001 4.800000e+001
      vertex   8.891194e+000 -2.000000e+001 4.800000e+001
      vertex   1.812880e+001 -1.184238e-014 4.800000e+001
    endloop
  endfacet
  facet normal 0.000000e+000 -4.440892e-015 1.000000e+000
    outer loop
      vertex   7.736494e+000 -1.800000e+001 4.800000e+001
      vertex   -7.736494e+000 -1.800000e+001 4.800000e+001
      vertex   8.891194e+000 -2.000000e+001 4.800000e+001
    endloop
  endfacet
  facet normal 3.845925e-015 2.220446e-015 1.000000e+000
    outer loop
      vertex   9.064399e+000 1.570000e+001 4.800000e+001
      vertex   1.812880e+001 -1.184238e-014 4.800000e+001
      vertex   2.043820e+001 -1.190020e-014 4.800000e+001
    endloop
  endfacet
  facet normal 3.845925e-015 -2.220446e-015 1.000000e+000
    outer loop
      vertex   2.043820e+001 -1.190020e-014 4.800000e+001
      vertex   1.812880e+001 -1.184238e-014 4.800000e+001
      vertex   8.891194e+000 -2.000000e+001 4.800000e+001
    endloop
  endfacet
  facet normal 8.660254e-001 5.000000e-001 -2.207429e-015
    outer loop
      vertex   -1.055897e+001 -1.771132e+001 -1.002305e+002
      vertex   -1.558846e+001 -9.000000e+000 -9.017157e+001
      vertex   -1.039230e+001 -1.800000e+001 -1.000639e+002
    endloop
  endfacet
  facet normal 8.660254e-001 5.000000e-001 -2.116690e-016
    outer loop
      vertex   -1.039230e+001 -1.800000e+001 -1.000639e+002
      vertex   -1.558846e+001 -9.000000e+000 -9.017157e+001
      vertex   -1.039230e+001 -1.800000e+001 -7.482843e+001
    endloop
  endfacet
  facet normal 8.660254e-001 5.000000e-001 -2.436980e-016
    outer loop
      vertex   -1.039230e+001 -1.800000e+001 -7.482843e+001
      vertex   -1.558846e+001 -9.000000e+000 -9.017157e+001
      vertex   -2.078461e+001 3.608225e-015 -7.482843e+001
    endloop
  endfacet
  facet normal 8.660254e-001 5.000000e-001 -3.943576e-016
    outer loop
      vertex   -2.078461e+001 3.608225e-015 -7.482843e+001
      vertex   -1.558846e+001 -9.000000e+000 -9.017157e+001
      vertex   -2.078461e+001 -2.393918e-014 -1.005639e+002
    endloop
  endfacet
  facet normal -8.660254e-001 -5.000000e-001 1.477588e-016
    outer loop
      vertex   9.064399e+000 1.570000e+001 -5.147157e+001
      vertex   1.812880e+001 1.866679e-014 -5.147157e+001
      vertex   9.064399e+000 1.570000e+001 4.800000e+001
    endloop
  endfacet
  facet normal -8.660254e-001 -5.000000e-001 -2.886787e-016
    outer loop
      vertex   9.064399e+000 1.570000e+001 4.800000e+001
      vertex   1.812880e+001 1.866679e-014 -5.147157e+001
      vertex   1.812880e+001 -1.184238e-014 4.800000e+001
    endloop
  endfacet
  facet normal 8.573719e-016 -1.000000e+000 2.455466e-016
    outer loop
      vertex   -9.064399e+000 1.570000e+001 -5.147157e+001
      vertex   9.064399e+000 1.570000e+001 -5.147157e+001
      vertex   -9.064399e+000 1.570000e+001 4.800000e+001
    endloop
  endfacet
  facet normal -4.899268e-016 -1.000000e+000 8.202263e-032
    outer loop
      vertex   -9.064399e+000 1.570000e+001 4.800000e+001
      vertex   9.064399e+000 1.570000e+001 -5.147157e+001
      vertex   9.064399e+000 1.570000e+001 4.800000e+001
    endloop
  endfacet
  facet normal 8.660254e-001 -5.000000e-001 1.970118e-016
    outer loop
      vertex   -1.812880e+001 -3.330669e-015 -5.147157e+001
      vertex   -9.064399e+000 1.570000e+001 -5.147157e+001
      vertex   -1.812880e+001 1.443290e-014 4.800000e+001
    endloop
  endfacet
  facet normal 8.660254e-001 -5.000000e-001 -2.883278e-018
    outer loop
      vertex   -1.812880e+001 1.443290e-014 4.800000e+001
      vertex   -9.064399e+000 1.570000e+001 -5.147157e+001
      vertex   -9.064399e+000 1.570000e+001 4.800000e+001
    endloop
  endfacet
  facet normal -6.123724e-001 -3.535534e-001 7.071068e-001
    outer loop
      vertex   1.812880e+001 1.866679e-014 -5.147157e+001
      vertex   9.064399e+000 1.570000e+001 -5.147157e+001
      vertex   5.971618e+000 1.063964e-014 -6.200000e+001
    endloop
  endfacet
  facet normal -6.123724e-001 -3.535534e-001 7.071068e-001
    outer loop
      vertex   5.971618e+000 1.063964e-014 -6.200000e+001
      vertex   9.064399e+000 1.570000e+001 -5.147157e+001
      vertex   2.985809e+000 5.171573e+000 -6.200000e+001
    endloop
  endfacet
  facet normal 8.660254e-001 5.000000e-001 -2.151017e-017
    outer loop
      vertex   -7.736494e+000 -1.800000e+001 -4.917157e+001
      vertex   -9.064399e+000 -1.570000e+001 -5.147157e+001
      vertex   -7.736494e+000 -1.800000e+001 4.800000e+001
    endloop
  endfacet
  facet normal 8.660254e-001 5.000000e-001 -4.027454e-018
    outer loop
      vertex   -7.736494e+000 -1.800000e+001 4.800000e+001
      vertex   -9.064399e+000 -1.570000e+001 -5.147157e+001
      vertex   -1.812880e+001 1.443290e-014 4.800000e+001
    endloop
  endfacet
  facet normal 8.660254e-001 5.000000e-001 0.000000e+000
    outer loop
      vertex   -1.812880e+001 1.443290e-014 4.800000e+001
      vertex   -9.064399e+000 -1.570000e+001 -5.147157e+001
      vertex   -1.812880e+001 -3.330669e-015 -5.147157e+001
    endloop
  endfacet
  facet normal 0.000000e+000 1.000000e+000 -2.285078e-017
    outer loop
      vertex   -7.736494e+000 -1.800000e+001 4.800000e+001
      vertex   7.736494e+000 -1.800000e+001 4.800000e+001
      vertex   -7.736494e+000 -1.800000e+001 -4.917157e+001
    endloop
  endfacet
  facet normal 2.623355e-032 1.000000e+000 -2.285078e-017
    outer loop
      vertex   -7.736494e+000 -1.800000e+001 -4.917157e+001
      vertex   7.736494e+000 -1.800000e+001 4.800000e+001
      vertex   7.736494e+000 -1.800000e+001 -4.917157e+001
    endloop
  endfacet
  facet normal -8.660254e-001 5.000000e-001 1.231324e-017
    outer loop
      vertex   1.812880e+001 1.866679e-014 -5.147157e+001
      vertex   9.064399e+000 -1.570000e+001 -5.147157e+001
      vertex   1.812880e+001 -1.184238e-014 4.800000e+001
    endloop
  endfacet
  facet normal -8.660254e-001 5.000000e-001 -1.342485e-018
    outer loop
      vertex   1.812880e+001 -1.184238e-014 4.800000e+001
      vertex   9.064399e+000 -1.570000e+001 -5.147157e+001
      vertex   7.736494e+000 -1.800000e+001 4.800000e+001
    endloop
  endfacet
  facet normal -8.660254e-001 5.000000e-001 -3.226525e-017
    outer loop
      vertex   7.736494e+000 -1.800000e+001 4.800000e+001
      vertex   9.064399e+000 -1.570000e+001 -5.147157e+001
      vertex   7.736494e+000 -1.800000e+001 -4.917157e+001
    endloop
  endfacet
  facet normal -6.123724e-001 3.535534e-001 7.071068e-001
    outer loop
      vertex   9.064399e+000 -1.570000e+001 -5.147157e+001
      vertex   1.812880e+001 1.866679e-014 -5.147157e+001
      vertex   2.985809e+000 -5.171573e+000 -6.200000e+001
    endloop
  endfacet
  facet normal -6.123724e-001 3.535534e-001 7.071068e-001
    outer loop
      vertex   2.985809e+000 -5.171573e+000 -6.200000e+001
      vertex   1.812880e+001 1.866679e-014 -5.147157e+001
      vertex   5.971618e+000 1.063964e-014 -6.200000e+001
    endloop
  endfacet
  facet normal -6.123724e-001 -3.535534e-001 -7.071068e-001
    outer loop
      vertex   1.039230e+001 1.800000e+001 -7.482843e+001
      vertex   2.078461e+001 2.599772e-014 -7.482843e+001
      vertex   2.985809e+000 5.171573e+000 -6.200000e+001
    endloop
  endfacet
  facet normal -6.123724e-001 -3.535534e-001 -7.071068e-001
    outer loop
      vertex   2.985809e+000 5.171573e+000 -6.200000e+001
      vertex   2.078461e+001 2.599772e-014 -7.482843e+001
      vertex   5.971618e+000 1.063964e-014 -6.200000e+001
    endloop
  endfacet
  facet normal 2.598229e-016 -7.071068e-001 7.071068e-001
    outer loop
      vertex   9.064399e+000 1.570000e+001 -5.147157e+001
      vertex   -9.064399e+000 1.570000e+001 -5.147157e+001
      vertex   2.985809e+000 5.171573e+000 -6.200000e+001
    endloop
  endfacet
  facet normal 1.997835e-015 -7.071068e-001 7.071068e-001
    outer loop
      vertex   2.985809e+000 5.171573e+000 -6.200000e+001
      vertex   -9.064399e+000 1.570000e+001 -5.147157e+001
      vertex   -2.985809e+000 5.171573e+000 -6.200000e+001
    endloop
  endfacet
  facet normal 6.123724e-001 -3.535534e-001 7.071068e-001
    outer loop
      vertex   -9.064399e+000 1.570000e+001 -5.147157e+001
      vertex   -1.812880e+001 -3.330669e-015 -5.147157e+001
      vertex   -2.985809e+000 5.171573e+000 -6.200000e+001
    endloop
  endfacet
  facet normal 6.123724e-001 -3.535534e-001 7.071068e-001
    outer loop
      vertex   -2.985809e+000 5.171573e+000 -6.200000e+001
      vertex   -1.812880e+001 -3.330669e-015 -5.147157e+001
      vertex   -5.971618e+000 -1.480297e-015 -6.200000e+001
    endloop
  endfacet
  facet normal -1.183166e-015 7.071068e-001 7.071068e-001
    outer loop
      vertex   2.985809e+000 -5.171573e+000 -6.200000e+001
      vertex   -2.985809e+000 -5.171573e+000 -6.200000e+001
      vertex   9.064399e+000 -1.570000e+001 -5.147157e+001
    endloop
  endfacet
  facet normal -3.290430e-016 7.071068e-001 7.071068e-001
    outer loop
      vertex   9.064399e+000 -1.570000e+001 -5.147157e+001
      vertex   -2.985809e+000 -5.171573e+000 -6.200000e+001
      vertex   -9.064399e+000 -1.570000e+001 -5.147157e+001
    endloop
  endfacet
  facet normal -3.998262e-016 7.071068e-001 7.071068e-001
    outer loop
      vertex   7.736494e+000 -1.800000e+001 -4.917157e+001
      vertex   -9.064399e+000 -1.570000e+001 -5.147157e+001
      vertex   -7.736494e+000 -1.800000e+001 -4.917157e+001
    endloop
  endfacet
  facet normal -4.330382e-016 7.071068e-001 7.071068e-001
    outer loop
      vertex   7.736494e+000 -1.800000e+001 -4.917157e+001
      vertex   9.064399e+000 -1.570000e+001 -5.147157e+001
      vertex   -9.064399e+000 -1.570000e+001 -5.147157e+001
    endloop
  endfacet
  facet normal -6.123724e-001 3.535534e-001 -7.071068e-001
    outer loop
      vertex   2.078461e+001 2.599772e-014 -7.482843e+001
      vertex   1.039230e+001 -1.800000e+001 -7.482843e+001
      vertex   5.971618e+000 1.063964e-014 -6.200000e+001
    endloop
  endfacet
  facet normal -6.123724e-001 3.535534e-001 -7.071068e-001
    outer loop
      vertex   5.971618e+000 1.063964e-014 -6.200000e+001
      vertex   1.039230e+001 -1.800000e+001 -7.482843e+001
      vertex   2.985809e+000 -5.171573e+000 -6.200000e+001
    endloop
  endfacet
  facet normal -3.535534e-001 -6.123724e-001 7.071068e-001
    outer loop
      vertex   1.055897e+001 -1.771132e+001 -1.002305e+002
      vertex   1.558846e+001 -9.000000e+000 -9.017157e+001
      vertex   5.000000e-001 -2.886751e-001 -9.017157e+001
    endloop
  endfacet
  facet normal 3.535534e-001 6.123724e-001 7.071068e-001
    outer loop
      vertex   2.078461e+001 1.887379e-014 -1.005639e+002
      vertex   1.000000e+000 -8.881784e-015 -9.067157e+001
      vertex   1.558846e+001 -9.000000e+000 -9.017157e+001
    endloop
  endfacet
  facet normal 3.535534e-001 6.123724e-001 7.071068e-001
    outer loop
      vertex   1.558846e+001 -9.000000e+000 -9.017157e+001
      vertex   1.000000e+000 -8.881784e-015 -9.067157e+001
      vertex   5.000000e-001 -2.886751e-001 -9.017157e+001
    endloop
  endfacet
  facet normal 3.535534e-001 -6.123724e-001 7.071068e-001
    outer loop
      vertex   2.078461e+001 1.887379e-014 -1.005639e+002
      vertex   1.558846e+001 9.000000e+000 -9.017157e+001
      vertex   1.000000e+000 -8.881784e-015 -9.067157e+001
    endloop
  endfacet
  facet normal 3.535534e-001 -6.123724e-001 7.071068e-001
    outer loop
      vertex   1.000000e+000 -8.881784e-015 -9.067157e+001
      vertex   1.558846e+001 9.000000e+000 -9.017157e+001
      vertex   5.000000e-001 2.886751e-001 -9.017157e+001
    endloop
  endfacet
  facet normal -3.535534e-001 6.123724e-001 7.071068e-001
    outer loop
      vertex   1.055897e+001 1.771132e+001 -1.002305e+002
      vertex   5.000000e-001 2.886751e-001 -9.017157e+001
      vertex   1.558846e+001 9.000000e+000 -9.017157e+001
    endloop
  endfacet
  facet normal -8.660254e-001 -5.000000e-001 0.000000e+000
    outer loop
      vertex   1.055897e+001 1.771132e+001 -1.002305e+002
      vertex   1.558846e+001 9.000000e+000 -9.017157e+001
      vertex   1.039230e+001 1.800000e+001 -1.000639e+002
    endloop
  endfacet
  facet normal -8.660254e-001 -5.000000e-001 4.233380e-017
    outer loop
      vertex   1.039230e+001 1.800000e+001 -1.000639e+002
      vertex   1.558846e+001 9.000000e+000 -9.017157e+001
      vertex   1.039230e+001 1.800000e+001 -7.482843e+001
    endloop
  endfacet
  facet normal -8.660254e-001 -5.000000e-001 6.962800e-017
    outer loop
      vertex   1.039230e+001 1.800000e+001 -7.482843e+001
      vertex   1.558846e+001 9.000000e+000 -9.017157e+001
      vertex   2.078461e+001 2.599772e-014 -7.482843e+001
    endloop
  endfacet
  facet normal -8.660254e-001 -5.000000e-001 2.698236e-016
    outer loop
      vertex   2.078461e+001 2.599772e-014 -7.482843e+001
      vertex   1.558846e+001 9.000000e+000 -9.017157e+001
      vertex   2.078461e+001 1.887379e-014 -1.005639e+002
    endloop
  endfacet
  facet normal 4.532467e-016 -7.071068e-001 -7.071068e-001
    outer loop
      vertex   -1.039230e+001 1.800000e+001 -7.482843e+001
      vertex   1.039230e+001 1.800000e+001 -7.482843e+001
      vertex   -2.985809e+000 5.171573e+000 -6.200000e+001
    endloop
  endfacet
  facet normal -2.049556e-016 -7.071068e-001 -7.071068e-001
    outer loop
      vertex   -2.985809e+000 5.171573e+000 -6.200000e+001
      vertex   1.039230e+001 1.800000e+001 -7.482843e+001
      vertex   2.985809e+000 5.171573e+000 -6.200000e+001
    endloop
  endfacet
  facet normal 6.123724e-001 -3.535534e-001 -7.071068e-001
    outer loop
      vertex   -2.078461e+001 3.608225e-015 -7.482843e+001
      vertex   -1.039230e+001 1.800000e+001 -7.482843e+001
      vertex   -5.971618e+000 -1.480297e-015 -6.200000e+001
    endloop
  endfacet
  facet normal 6.123724e-001 -3.535534e-001 -7.071068e-001
    outer loop
      vertex   -5.971618e+000 -1.480297e-015 -6.200000e+001
      vertex   -1.039230e+001 1.800000e+001 -7.482843e+001
      vertex   -2.985809e+000 5.171573e+000 -6.200000e+001
    endloop
  endfacet
  facet normal 6.123724e-001 3.535534e-001 7.071068e-001
    outer loop
      vertex   -1.812880e+001 -3.330669e-015 -5.147157e+001
      vertex   -9.064399e+000 -1.570000e+001 -5.147157e+001
      vertex   -5.971618e+000 -1.480297e-015 -6.200000e+001
    endloop
  endfacet
  facet normal 6.123724e-001 3.535534e-001 7.071068e-001
    outer loop
      vertex   -5.971618e+000 -1.480297e-015 -6.200000e+001
      vertex   -9.064399e+000 -1.570000e+001 -5.147157e+001
      vertex   -2.985809e+000 -5.171573e+000 -6.200000e+001
    endloop
  endfacet
  facet normal -6.043289e-016 7.071068e-001 -7.071068e-001
    outer loop
      vertex   1.039230e+001 -1.800000e+001 -7.482843e+001
      vertex   -1.039230e+001 -1.800000e+001 -7.482843e+001
      vertex   2.985809e+000 -5.171573e+000 -6.200000e+001
    endloop
  endfacet
  facet normal 6.148668e-016 7.071068e-001 -7.071068e-001
    outer loop
      vertex   2.985809e+000 -5.171573e+000 -6.200000e+001
      vertex   -1.039230e+001 -1.800000e+001 -7.482843e+001
      vertex   -2.985809e+000 -5.171573e+000 -6.200000e+001
    endloop
  endfacet
  facet normal -8.660254e-001 5.000000e-001 1.207187e-015
    outer loop
      vertex   1.055897e+001 -1.771132e+001 -1.002305e+002
      vertex   1.039230e+001 -1.800000e+001 -1.000639e+002
      vertex   1.558846e+001 -9.000000e+000 -9.017157e+001
    endloop
  endfacet
  facet normal -8.660254e-001 5.000000e-001 -1.524017e-016
    outer loop
      vertex   1.558846e+001 -9.000000e+000 -9.017157e+001
      vertex   1.039230e+001 -1.800000e+001 -1.000639e+002
      vertex   1.039230e+001 -1.800000e+001 -7.482843e+001
    endloop
  endfacet
  facet normal -8.660254e-001 5.000000e-001 -5.222100e-017
    outer loop
      vertex   2.078461e+001 2.599772e-014 -7.482843e+001
      vertex   1.558846e+001 -9.000000e+000 -9.017157e+001
      vertex   1.039230e+001 -1.800000e+001 -7.482843e+001
    endloop
  endfacet
  facet normal -8.660254e-001 5.000000e-001 1.103380e-017
    outer loop
      vertex   2.078461e+001 2.599772e-014 -7.482843e+001
      vertex   2.078461e+001 1.887379e-014 -1.005639e+002
      vertex   1.558846e+001 -9.000000e+000 -9.017157e+001
    endloop
  endfacet
  facet normal 7.071068e-001 2.999236e-015 7.071068e-001
    outer loop
      vertex   1.055897e+001 1.771132e+001 -1.002305e+002
      vertex   1.039230e+001 1.800000e+001 -1.000639e+002
      vertex   5.000000e-001 2.886751e-001 -9.017157e+001
    endloop
  endfacet
  facet normal 7.071068e-001 4.265130e-016 7.071068e-001
    outer loop
      vertex   5.000000e-001 2.886751e-001 -9.017157e+001
      vertex   1.039230e+001 1.800000e+001 -1.000639e+002
      vertex   -1.125616e-014 1.800000e+001 -8.967157e+001
    endloop
  endfacet
  facet normal 7.071068e-001 4.565807e-016 7.071068e-001
    outer loop
      vertex   1.191401e-014 -1.800000e+001 -8.967157e+001
      vertex   5.000000e-001 2.886751e-001 -9.017157e+001
      vertex   -1.125616e-014 1.800000e+001 -8.967157e+001
    endloop
  endfacet
  facet normal 7.071068e-001 3.399350e-015 7.071068e-001
    outer loop
      vertex   1.191401e-014 -1.800000e+001 -8.967157e+001
      vertex   5.000000e-001 -2.886751e-001 -9.017157e+001
      vertex   5.000000e-001 2.886751e-001 -9.017157e+001
    endloop
  endfacet
  facet normal 7.071068e-001 3.412104e-016 7.071068e-001
    outer loop
      vertex   1.191401e-014 -1.800000e+001 -8.967157e+001
      vertex   1.039230e+001 -1.800000e+001 -1.000639e+002
      vertex   5.000000e-001 -2.886751e-001 -9.017157e+001
    endloop
  endfacet
  facet normal 7.071068e-001 -2.390940e-014 7.071068e-001
    outer loop
      vertex   5.000000e-001 -2.886751e-001 -9.017157e+001
      vertex   1.039230e+001 -1.800000e+001 -1.000639e+002
      vertex   1.055897e+001 -1.771132e+001 -1.002305e+002
    endloop
  endfacet
  facet normal 7.071068e-001 3.399350e-015 7.071068e-001
    outer loop
      vertex   5.000000e-001 -2.886751e-001 -9.017157e+001
      vertex   1.000000e+000 -8.881784e-015 -9.067157e+001
      vertex   5.000000e-001 2.886751e-001 -9.017157e+001
    endloop
  endfacet
  facet normal 2.136625e-016 -1.000000e+000 -3.759997e-032
    outer loop
      vertex   -1.039230e+001 1.800000e+001 -1.000639e+002
      vertex   -1.125616e-014 1.800000e+001 -8.967157e+001
      vertex   -1.039230e+001 1.800000e+001 -7.482843e+001
    endloop
  endfacet
  facet normal 2.136625e-016 -1.000000e+000 0.000000e+000
    outer loop
      vertex   -1.039230e+001 1.800000e+001 -7.482843e+001
      vertex   -1.125616e-014 1.800000e+001 -8.967157e+001
      vertex   1.039230e+001 1.800000e+001 -7.482843e+001
    endloop
  endfacet
  facet normal 3.393359e-016 -1.000000e+000 -8.798916e-017
    outer loop
      vertex   1.039230e+001 1.800000e+001 -7.482843e+001
      vertex   -1.125616e-014 1.800000e+001 -8.967157e+001
      vertex   1.039230e+001 1.800000e+001 -1.000639e+002
    endloop
  endfacet
  facet normal 3.535534e-001 6.123724e-001 7.071068e-001
    outer loop
      vertex   -1.055897e+001 1.771132e+001 -1.002305e+002
      vertex   -1.558846e+001 9.000000e+000 -9.017157e+001
      vertex   -5.000000e-001 2.886751e-001 -9.017157e+001
    endloop
  endfacet
  facet normal -3.535534e-001 -6.123724e-001 7.071068e-001
    outer loop
      vertex   -2.078461e+001 -2.393918e-014 -1.005639e+002
      vertex   -1.000000e+000 7.401487e-016 -9.067157e+001
      vertex   -1.558846e+001 9.000000e+000 -9.017157e+001
    endloop
  endfacet
  facet normal -3.535534e-001 -6.123724e-001 7.071068e-001
    outer loop
      vertex   -1.558846e+001 9.000000e+000 -9.017157e+001
      vertex   -1.000000e+000 7.401487e-016 -9.067157e+001
      vertex   -5.000000e-001 2.886751e-001 -9.017157e+001
    endloop
  endfacet
  facet normal 3.535534e-001 -6.123724e-001 7.071068e-001
    outer loop
      vertex   -1.055897e+001 -1.771132e+001 -1.002305e+002
      vertex   -5.000000e-001 -2.886751e-001 -9.017157e+001
      vertex   -1.558846e+001 -9.000000e+000 -9.017157e+001
    endloop
  endfacet
  facet normal -3.535534e-001 6.123724e-001 7.071068e-001
    outer loop
      vertex   -2.078461e+001 -2.393918e-014 -1.005639e+002
      vertex   -1.558846e+001 -9.000000e+000 -9.017157e+001
      vertex   -1.000000e+000 7.401487e-016 -9.067157e+001
    endloop
  endfacet
  facet normal -3.535534e-001 6.123724e-001 7.071068e-001
    outer loop
      vertex   -1.000000e+000 7.401487e-016 -9.067157e+001
      vertex   -1.558846e+001 -9.000000e+000 -9.017157e+001
      vertex   -5.000000e-001 -2.886751e-001 -9.017157e+001
    endloop
  endfacet
  facet normal 8.660254e-001 -5.000000e-001 8.829714e-015
    outer loop
      vertex   -1.055897e+001 1.771132e+001 -1.002305e+002
      vertex   -1.039230e+001 1.800000e+001 -1.000639e+002
      vertex   -1.558846e+001 9.000000e+000 -9.017157e+001
    endloop
  endfacet
  facet normal 8.660254e-001 -5.000000e-001 -1.524017e-016
    outer loop
      vertex   -1.558846e+001 9.000000e+000 -9.017157e+001
      vertex   -1.039230e+001 1.800000e+001 -1.000639e+002
      vertex   -1.039230e+001 1.800000e+001 -7.482843e+001
    endloop
  endfacet
  facet normal 8.660254e-001 -5.000000e-001 1.566630e-016
    outer loop
      vertex   -2.078461e+001 3.608225e-015 -7.482843e+001
      vertex   -1.558846e+001 9.000000e+000 -9.017157e+001
      vertex   -1.039230e+001 1.800000e+001 -7.482843e+001
    endloop
  endfacet
  facet normal 8.660254e-001 -5.000000e-001 6.846443e-016
    outer loop
      vertex   -2.078461e+001 3.608225e-015 -7.482843e+001
      vertex   -2.078461e+001 -2.393918e-014 -1.005639e+002
      vertex   -1.558846e+001 9.000000e+000 -9.017157e+001
    endloop
  endfacet
  facet normal 6.123724e-001 3.535534e-001 -7.071068e-001
    outer loop
      vertex   -1.039230e+001 -1.800000e+001 -7.482843e+001
      vertex   -2.078461e+001 3.608225e-015 -7.482843e+001
      vertex   -2.985809e+000 -5.171573e+000 -6.200000e+001
    endloop
  endfacet
  facet normal 6.123724e-001 3.535534e-001 -7.071068e-001
    outer loop
      vertex   -2.985809e+000 -5.171573e+000 -6.200000e+001
      vertex   -2.078461e+001 3.608225e-015 -7.482843e+001
      vertex   -5.971618e+000 -1.480297e-015 -6.200000e+001
    endloop
  endfacet
  facet normal -8.169659e-016 1.000000e+000 1.759783e-016
    outer loop
      vertex   -1.039230e+001 -1.800000e+001 -1.000639e+002
      vertex   -1.039230e+001 -1.800000e+001 -7.482843e+001
      vertex   1.191401e-014 -1.800000e+001 -8.967157e+001
    endloop
  endfacet
  facet normal -8.546501e-016 1.000000e+000 1.495940e-016
    outer loop
      vertex   1.191401e-014 -1.800000e+001 -8.967157e+001
      vertex   -1.039230e+001 -1.800000e+001 -7.482843e+001
      vertex   1.039230e+001 -1.800000e+001 -7.482843e+001
    endloop
  endfacet
  facet normal -6.409876e-016 1.000000e+000 -1.127999e-031
    outer loop
      vertex   1.039230e+001 -1.800000e+001 -1.000639e+002
      vertex   1.191401e-014 -1.800000e+001 -8.967157e+001
      vertex   1.039230e+001 -1.800000e+001 -7.482843e+001
    endloop
  endfacet
  facet normal -7.071068e-001 -1.360217e-014 7.071068e-001
    outer loop
      vertex   -1.055897e+001 -1.771132e+001 -1.002305e+002
      vertex   -1.039230e+001 -1.800000e+001 -1.000639e+002
      vertex   -5.000000e-001 -2.886751e-001 -9.017157e+001
    endloop
  endfacet
  facet normal -7.071068e-001 -3.412104e-016 7.071068e-001
    outer loop
      vertex   -5.000000e-001 -2.886751e-001 -9.017157e+001
      vertex   -1.039230e+001 -1.800000e+001 -1.000639e+002
      vertex   1.191401e-014 -1.800000e+001 -8.967157e+001
    endloop
  endfacet
  facet normal -7.071068e-001 -4.551052e-016 7.071068e-001
    outer loop
      vertex   -5.000000e-001 2.886751e-001 -9.017157e+001
      vertex   1.191401e-014 -1.800000e+001 -8.967157e+001
      vertex   -1.125616e-014 1.800000e+001 -8.967157e+001
    endloop
  endfacet
  facet normal -7.071068e-001 -3.678675e-016 7.071068e-001
    outer loop
      vertex   -1.039230e+001 1.800000e+001 -1.000639e+002
      vertex   -5.000000e-001 2.886751e-001 -9.017157e+001
      vertex   -1.125616e-014 1.800000e+001 -8.967157e+001
    endloop
  endfacet
  facet normal -7.071068e-001 3.459682e-014 7.071068e-001
    outer loop
      vertex   -1.039230e+001 1.800000e+001 -1.000639e+002
      vertex   -1.055897e+001 1.771132e+001 -1.002305e+002
      vertex   -5.000000e-001 2.886751e-001 -9.017157e+001
    endloop
  endfacet
  facet normal -7.071068e-001 -5.693911e-015 7.071068e-001
    outer loop
      vertex   -1.000000e+000 7.401487e-016 -9.067157e+001
      vertex   -5.000000e-001 -2.886751e-001 -9.017157e+001
      vertex   -5.000000e-001 2.886751e-001 -9.017157e+001
    endloop
  endfacet
  facet normal -7.071068e-001 -5.693911e-015 7.071068e-001
    outer loop
      vertex   -5.000000e-001 2.886751e-001 -9.017157e+001
      vertex   -5.000000e-001 -2.886751e-001 -9.017157e+001
      vertex   1.191401e-014 -1.800000e+001 -8.967157e+001
    endloop
  endfacet
endsolid
