solid OpenSCAD_Model
  facet normal -1.000000 -0.000000 -0.000000
    outer loop
      vertex -9.995000 -9.995000 0.005000
      vertex -9.995000 -9.995000 9.995000
      vertex -9.995000 0.000000 0.005000
    endloop
  endfacet
  facet normal -1.000000 0.000000 0.000000
    outer loop
      vertex -9.995000 0.000000 0.005000
      vertex -9.995000 -9.995000 9.995000
      vertex -9.995000 0.000000 9.995000
    endloop
  endfacet
  facet normal 0.000000 -1.000000 0.000000
    outer loop
      vertex -9.995000 -9.995000 9.995000
      vertex -9.995000 -9.995000 0.005000
      vertex 9.995000 -9.995000 0.005000
    endloop
  endfacet
  facet normal 0.000000 -1.000000 0.000000
    outer loop
      vertex 9.995000 -9.995000 9.995000
      vertex -9.995000 -9.995000 9.995000
      vertex 9.995000 -9.995000 0.005000
    endloop
  endfacet
  facet normal -0.000000 -0.000000 -1.000000
    outer loop
      vertex -9.995000 -9.995000 0.005000
      vertex -9.995000 0.000000 0.005000
      vertex 9.995000 -9.995000 0.005000
    endloop
  endfacet
  facet normal 0.000000 0.000000 -1.000000
    outer loop
      vertex 9.995000 -9.995000 0.005000
      vertex -9.995000 0.000000 0.005000
      vertex 9.995000 0.000000 0.005000
    endloop
  endfacet
  facet normal 0.000000 1.000000 0.000000
    outer loop
      vertex 9.995000 0.000000 9.995000
      vertex 9.995000 0.000000 0.005000
      vertex -9.995000 0.000000 9.995000
    endloop
  endfacet
  facet normal 0.000000 1.000000 -0.000000
    outer loop
      vertex -9.995000 0.000000 9.995000
      vertex 9.995000 0.000000 0.005000
      vertex -9.995000 0.000000 0.005000
    endloop
  endfacet
  facet normal 0.000000 -0.000000 1.000000
    outer loop
      vertex -9.995000 0.000000 9.995000
      vertex -9.995000 -9.995000 9.995000
      vertex 9.995000 -9.995000 9.995000
    endloop
  endfacet
  facet normal 0.000000 0.000000 1.000000
    outer loop
      vertex 9.995000 0.000000 9.995000
      vertex -9.995000 0.000000 9.995000
      vertex 9.995000 -9.995000 9.995000
    endloop
  endfacet
  facet normal 1.000000 0.000000 -0.000000
    outer loop
      vertex 9.995000 -9.995000 9.995000
      vertex 9.995000 -9.995000 0.005000
      vertex 9.995000 0.000000 0.005000
    endloop
  endfacet
  facet normal 1.000000 0.000000 0.000000
    outer loop
      vertex 9.995000 0.000000 9.995000
      vertex 9.995000 -9.995000 9.995000
      vertex 9.995000 0.000000 0.005000
    endloop
  endfacet
endsolid OpenSCAD_Model
