solid OpenSCAD_Model
  facet normal -1 0 0
    outer loop
      vertex -7 -4.5 0.7
      vertex -7 -4.5 4.3
      vertex -7 4.5 0.7
    endloop
  endfacet
  facet normal -1 0 0
    outer loop
      vertex -7 4.5 0.7
      vertex -7 -4.5 4.3
      vertex -7 4.5 4.3
    endloop
  endfacet
  facet normal 0 -1 0
    outer loop
      vertex -7 -4.5 4.3
      vertex -7 -4.5 0.7
      vertex -3.4 -4.5 0.7
    endloop
  endfacet
  facet normal 0 -1 0
    outer loop
      vertex -3.4 -4.5 4.3
      vertex -7 -4.5 4.3
      vertex -3.4 -4.5 0.7
    endloop
  endfacet
  facet normal 0 0 -1
    outer loop
      vertex -7 -4.5 0.7
      vertex -7 4.5 0.7
      vertex -3.4 -4.5 0.7
    endloop
  endfacet
  facet normal 0 0 -1
    outer loop
      vertex -3.4 1.8 0.7
      vertex -7 4.5 0.7
      vertex -3.4 4.5 0.7
    endloop
  endfacet
  facet normal 0 0 -1
    outer loop
      vertex -3.4 -4.5 0.7
      vertex -7 4.5 0.7
      vertex -3.4 -1.8 0.7
    endloop
  endfacet
  facet normal 0 0 -1
    outer loop
      vertex 3.4 1.8 0.7
      vertex 3.4 4.5 0.7
      vertex 7 4.5 0.7
    endloop
  endfacet
  facet normal 0 0 -1
    outer loop
      vertex 3.4 -4.5 0.7
      vertex 7 4.5 0.7
      vertex 7 -4.5 0.7
    endloop
  endfacet
  facet normal 0 0 -1
    outer loop
      vertex 3.4 -1.8 0.7
      vertex 7 4.5 0.7
      vertex 3.4 -4.5 0.7
    endloop
  endfacet
  facet normal 0 0 -1
    outer loop
      vertex -3.4 1.8 0.7
      vertex 3.4 1.8 0.7
      vertex -3.4 -1.8 0.7
    endloop
  endfacet
  facet normal 0 0 -1
    outer loop
      vertex -3.4 1.8 0.7
      vertex -3.4 -1.8 0.7
      vertex -7 4.5 0.7
    endloop
  endfacet
  facet normal 0 0 -1
    outer loop
      vertex 3.4 1.8 0.7
      vertex 7 4.5 0.7
      vertex 3.4 -1.8 0.7
    endloop
  endfacet
  facet normal 0 0 -1
    outer loop
      vertex -3.4 -1.8 0.7
      vertex 3.4 1.8 0.7
      vertex 3.4 -1.8 0.7
    endloop
  endfacet
  facet normal 0 1 0
    outer loop
      vertex -7 4.5 0.7
      vertex -7 4.5 4.3
      vertex -3.4 4.5 0.7
    endloop
  endfacet
  facet normal 0 1 0
    outer loop
      vertex -3.4 4.5 0.7
      vertex -7 4.5 4.3
      vertex -3.4 4.5 4.3
    endloop
  endfacet
  facet normal 0 0 1
    outer loop
      vertex -7 4.5 4.3
      vertex -7 -4.5 4.3
      vertex -3.4 -4.5 4.3
    endloop
  endfacet
  facet normal 0 0 1
    outer loop
      vertex -3.4 1.8 4.3
      vertex -7 4.5 4.3
      vertex -3.4 -1.8 4.3
    endloop
  endfacet
  facet normal 0 0 1
    outer loop
      vertex -3.4 -1.8 4.3
      vertex -7 4.5 4.3
      vertex -3.4 -4.5 4.3
    endloop
  endfacet
  facet normal 0 0 1
    outer loop
      vertex -3.4 1.8 4.3
      vertex -3.4 4.5 4.3
      vertex -7 4.5 4.3
    endloop
  endfacet
  facet normal 0 0 1
    outer loop
      vertex 7 -4.5 4.3
      vertex 3.4 -1.8 4.3
      vertex 3.4 -4.5 4.3
    endloop
  endfacet
  facet normal 0 0 1
    outer loop
      vertex 7 4.5 4.3
      vertex 3.4 -1.8 4.3
      vertex 7 -4.5 4.3
    endloop
  endfacet
  facet normal 0 0 1
    outer loop
      vertex 7 4.5 4.3
      vertex 3.4 1.8 4.3
      vertex 3.4 -1.8 4.3
    endloop
  endfacet
  facet normal 0 0 1
    outer loop
      vertex 7 4.5 4.3
      vertex 3.4 4.5 4.3
      vertex 3.4 1.8 4.3
    endloop
  endfacet
  facet normal 0 0 1
    outer loop
      vertex 3.4 -1.8 4.3
      vertex -3.4 1.8 4.3
      vertex -3.4 -1.8 4.3
    endloop
  endfacet
  facet normal 0 0 1
    outer loop
      vertex 3.4 1.8 4.3
      vertex -3.4 1.8 4.3
      vertex 3.4 -1.8 4.3
    endloop
  endfacet
  facet normal 1 0 0
    outer loop
      vertex -3.4 -4.5 4.3
      vertex -3.4 -4.5 0.7
      vertex -3.4 -1.8 0.7
    endloop
  endfacet
  facet normal 1 0 0
    outer loop
      vertex -3.4 -1.8 4.3
      vertex -3.4 -4.5 4.3
      vertex -3.4 -1.8 0.7
    endloop
  endfacet
  facet normal 0 -1 0
    outer loop
      vertex -3.4 -1.8 4.3
      vertex -3.4 -1.8 0.7
      vertex 3.4 -1.8 0.7
    endloop
  endfacet
  facet normal 0 -1 0
    outer loop
      vertex 3.4 -1.8 4.3
      vertex -3.4 -1.8 4.3
      vertex 3.4 -1.8 0.7
    endloop
  endfacet
  facet normal -1 0 0
    outer loop
      vertex 3.4 -4.5 0.7
      vertex 3.4 -4.5 4.3
      vertex 3.4 -1.8 0.7
    endloop
  endfacet
  facet normal -1 0 0
    outer loop
      vertex 3.4 -1.8 0.7
      vertex 3.4 -4.5 4.3
      vertex 3.4 -1.8 4.3
    endloop
  endfacet
  facet normal 0 -1 0
    outer loop
      vertex 3.4 -4.5 4.3
      vertex 3.4 -4.5 0.7
      vertex 7 -4.5 0.7
    endloop
  endfacet
  facet normal 0 -1 0
    outer loop
      vertex 7 -4.5 4.3
      vertex 3.4 -4.5 4.3
      vertex 7 -4.5 0.7
    endloop
  endfacet
  facet normal 1 0 0
    outer loop
      vertex 7 -4.5 4.3
      vertex 7 -4.5 0.7
      vertex 7 4.5 0.7
    endloop
  endfacet
  facet normal 1 0 0
    outer loop
      vertex 7 4.5 4.3
      vertex 7 -4.5 4.3
      vertex 7 4.5 0.7
    endloop
  endfacet
  facet normal 0 1 0
    outer loop
      vertex 3.4 4.5 0.7
      vertex 3.4 4.5 4.3
      vertex 7 4.5 0.7
    endloop
  endfacet
  facet normal 0 1 0
    outer loop
      vertex 7 4.5 0.7
      vertex 3.4 4.5 4.3
      vertex 7 4.5 4.3
    endloop
  endfacet
  facet normal -1 0 0
    outer loop
      vertex 3.4 1.8 0.7
      vertex 3.4 1.8 4.3
      vertex 3.4 4.5 0.7
    endloop
  endfacet
  facet normal -1 0 0
    outer loop
      vertex 3.4 4.5 0.7
      vertex 3.4 1.8 4.3
      vertex 3.4 4.5 4.3
    endloop
  endfacet
  facet normal 0 1 0
    outer loop
      vertex -3.4 1.8 0.7
      vertex -3.4 1.8 4.3
      vertex 3.4 1.8 0.7
    endloop
  endfacet
  facet normal 0 1 0
    outer loop
      vertex 3.4 1.8 0.7
      vertex -3.4 1.8 4.3
      vertex 3.4 1.8 4.3
    endloop
  endfacet
  facet normal 1 0 0
    outer loop
      vertex -3.4 1.8 4.3
      vertex -3.4 1.8 0.7
      vertex -3.4 4.5 0.7
    endloop
  endfacet
  facet normal 1 0 0
    outer loop
      vertex -3.4 4.5 4.3
      vertex -3.4 1.8 4.3
      vertex -3.4 4.5 0.7
    endloop
  endfacet
endsolid OpenSCAD_Model
