solid OpenSCAD_Model
  facet normal -0.192566 0.576547 0.794048
    outer loop
      vertex -16.9861 12.3745 4.28757
      vertex -30.1534 0.109194 10
      vertex -9.47976 7.01415 10
    endloop
  endfacet
  facet normal -0.31469 0.942189 0.115111
    outer loop
      vertex -9.47976 7.01415 10
      vertex -30.1534 0.109194 10
      vertex -0.1544 0.354882 90
    endloop
  endfacet
  facet normal -0.299216 -0.947217 0.115111
    outer loop
      vertex -0.1544 0.354882 90
      vertex -30.1534 0.109194 10
      vertex -9.36944 -6.45623 10
    endloop
  endfacet
  facet normal -0.183097 -0.579624 0.794048
    outer loop
      vertex -9.36944 -6.45623 10
      vertex -30.1534 0.109194 10
      vertex -16.787 -11.9388 4.28757
    endloop
  endfacet
  facet normal -0.681002 -0.503349 -0.531861
    outer loop
      vertex -16.787 -11.9388 4.28757
      vertex -30.1534 0.109194 10
      vertex -22.4265 0.172476 0.046508
    endloop
  endfacet
  facet normal -0.689154 0.492128 -0.531861
    outer loop
      vertex -15.3834 13.6488 3.39005
      vertex -7.21034 21.4805 0.046508
      vertex -13.6845 12.4145 0.046508
    endloop
  endfacet
  facet normal -0.689154 0.492128 -0.531861
    outer loop
      vertex -30.1534 0.109194 10
      vertex -7.21034 21.4805 0.046508
      vertex -15.3834 13.6488 3.39005
    endloop
  endfacet
  facet normal -0.689154 0.492128 -0.531861
    outer loop
      vertex -30.1534 0.109194 10
      vertex -15.3834 13.6488 3.39005
      vertex -17.7151 10.3986 3.40393
    endloop
  endfacet
  facet normal -0.689154 0.492128 -0.531861
    outer loop
      vertex -30.1534 0.109194 10
      vertex -16.0091 9.15915 0.046508
      vertex -22.4265 0.172476 0.046508
    endloop
  endfacet
  facet normal -0.689154 0.492128 -0.531861
    outer loop
      vertex -16.0091 9.15915 0.046508
      vertex -30.1534 0.109194 10
      vertex -17.7151 10.3986 3.40393
    endloop
  endfacet
  facet normal 0.118771 -0.521135 -0.84517
    outer loop
      vertex -7.21034 21.4805 0.046508
      vertex -30.1534 0.109194 10
      vertex -16.9861 12.3745 4.28757
    endloop
  endfacet
  facet normal -0.689154 0.492128 -0.531862
    outer loop
      vertex -7.21034 21.4805 0.046508
      vertex -16.9861 12.3745 4.28757
      vertex -9.65826 28.8097 10
    endloop
  endfacet
  facet normal -0.607835 -0.00497811 0.794048
    outer loop
      vertex -9.65826 28.8097 10
      vertex -16.9861 12.3745 4.28757
      vertex -9.47976 7.01415 10
    endloop
  endfacet
  facet normal -0.993319 -0.00813518 0.115111
    outer loop
      vertex -0.1544 0.354882 90
      vertex -9.65826 28.8097 10
      vertex -9.47976 7.01415 10
    endloop
  endfacet
  facet normal 0.79883 0.59044 0.115111
    outer loop
      vertex 3.29725 11.2817 10
      vertex -9.65826 28.8097 10
      vertex -0.1544 0.354882 90
    endloop
  endfacet
  facet normal -0.31469 0.942189 0.115111
    outer loop
      vertex 3.29725 11.2817 10
      vertex -0.1544 0.354882 90
      vertex 23.9709 18.1866 10
    endloop
  endfacet
  facet normal 0.808394 -0.577277 0.115111
    outer loop
      vertex 23.9709 18.1866 10
      vertex -0.1544 0.354882 90
      vertex 11.3042 0.448727 10
    endloop
  endfacet
  facet normal 0.79883 0.59044 0.115111
    outer loop
      vertex 11.3042 0.448727 10
      vertex -0.1544 0.354882 90
      vertex 24.2597 -17.0793 10
    endloop
  endfacet
  facet normal -0.299216 -0.947217 0.115111
    outer loop
      vertex 24.2597 -17.0793 10
      vertex -0.1544 0.354882 90
      vertex 3.47575 -10.5139 10
    endloop
  endfacet
  facet normal 0.808394 -0.577277 0.115111
    outer loop
      vertex -0.1544 0.354882 90
      vertex -9.19094 -28.2518 10
      vertex 3.47575 -10.5139 10
    endloop
  endfacet
  facet normal -0.993319 -0.00813518 0.115111
    outer loop
      vertex -0.1544 0.354882 90
      vertex -9.36944 -6.45623 10
      vertex -9.19094 -28.2518 10
    endloop
  endfacet
  facet normal -0.607835 -0.00497811 0.794048
    outer loop
      vertex -9.36944 -6.45623 10
      vertex -16.787 -11.9388 4.28757
      vertex -9.19094 -28.2518 10
    endloop
  endfacet
  facet normal -0.681002 -0.503349 -0.531861
    outer loop
      vertex -16.787 -11.9388 4.28757
      vertex -15.1342 -13.4285 3.58121
      vertex -9.19094 -28.2518 10
    endloop
  endfacet
  facet normal -0.681002 -0.503349 -0.531861
    outer loop
      vertex -9.19094 -28.2518 10
      vertex -15.1342 -13.4285 3.58121
      vertex -15.1154 -13.4541 3.58132
    endloop
  endfacet
  facet normal -0.681002 -0.503349 -0.531861
    outer loop
      vertex -9.19094 -28.2518 10
      vertex -15.1154 -13.4541 3.58132
      vertex -15.1101 -13.4503 3.57092
    endloop
  endfacet
  facet normal -0.681002 -0.503349 -0.531861
    outer loop
      vertex -9.19094 -28.2518 10
      vertex -15.1101 -13.4503 3.57092
      vertex -6.86338 -20.8835 0.046508
    endloop
  endfacet
  facet normal -0.681002 -0.503349 -0.531862
    outer loop
      vertex -22.4265 0.172476 0.046508
      vertex -17.486 -10.2322 3.56744
      vertex -16.787 -11.9388 4.28757
    endloop
  endfacet
  facet normal -0.681002 -0.503349 -0.531862
    outer loop
      vertex -22.4265 0.172476 0.046508
      vertex -15.6969 -8.93231 0.046508
      vertex -17.486 -10.2322 3.56744
    endloop
  endfacet
  facet normal -0.681002 -0.503349 -0.531862
    outer loop
      vertex -15.1342 -13.4285 3.58121
      vertex -16.787 -11.9388 4.28757
      vertex -17.486 -10.2322 3.56744
    endloop
  endfacet
  facet normal 0 0 -1
    outer loop
      vertex -22.4265 0.172476 0.046508
      vertex -16.0091 9.15915 0.046508
      vertex -15.6969 -8.93231 0.046508
    endloop
  endfacet
  facet normal 0 0 -1
    outer loop
      vertex -14.6288 4.44812 0.046508
      vertex -16.0091 9.15915 0.046508
      vertex -12.8655 6.87517 0.046508
    endloop
  endfacet
  facet normal 0 0 -1
    outer loop
      vertex -15.6969 -8.93231 0.046508
      vertex -16.0091 9.15915 0.046508
      vertex -14.6288 4.44812 0.046508
    endloop
  endfacet
  facet normal 0 0 -1
    outer loop
      vertex -13.6845 12.4145 0.046508
      vertex -8.75097 12.5383 0.046508
      vertex -10.5143 10.1112 0.046508
    endloop
  endfacet
  facet normal 0 0 -1
    outer loop
      vertex -0.290141 15.2874 0.046508
      vertex 3.75143 18.0178 0.046508
      vertex 2.56303 14.3603 0.046508
    endloop
  endfacet
  facet normal 0 0 -1
    outer loop
      vertex -8.75097 12.5383 0.046508
      vertex -13.6845 12.4145 0.046508
      vertex -7.21034 21.4805 0.046508
    endloop
  endfacet
  facet normal 0 0 -1
    outer loop
      vertex -8.75097 12.5383 0.046508
      vertex -7.21034 21.4805 0.046508
      vertex -5.01428 9.82342 0.046508
    endloop
  endfacet
  facet normal 0 0 -1
    outer loop
      vertex -0.290141 15.2874 0.046508
      vertex -7.21034 21.4805 0.046508
      vertex 3.75143 18.0178 0.046508
    endloop
  endfacet
  facet normal 0 0 -1
    outer loop
      vertex -0.772542 2.37764 0.046508
      vertex -2.02254 1.46946 0.046508
      vertex -1.71743 10.8946 0.046508
    endloop
  endfacet
  facet normal 0 0 -1
    outer loop
      vertex 7.79314 7.80447 0.046508
      vertex -0.772542 2.37764 0.046508
      vertex -1.71743 10.8946 0.046508
    endloop
  endfacet
  facet normal 0 0 -1
    outer loop
      vertex -5.01428 9.82342 0.046508
      vertex -7.21034 21.4805 0.046508
      vertex -0.290141 15.2874 0.046508
    endloop
  endfacet
  facet normal 0 0 -1
    outer loop
      vertex -1.71743 10.8946 0.046508
      vertex -5.01428 9.82342 0.046508
      vertex -0.290141 15.2874 0.046508
    endloop
  endfacet
  facet normal 0 0 -1
    outer loop
      vertex -14.6288 -4.44812 0.046508
      vertex -10.8921 1.73325 0.046508
      vertex -5.01428 9.82342 0.046508
    endloop
  endfacet
  facet normal 0 0 -1
    outer loop
      vertex 7.56578 16.8129 0.046508
      vertex 9.22042 12.1972 0.046508
      vertex 6.36725 13.1243 0.046508
    endloop
  endfacet
  facet normal 0 0 -1
    outer loop
      vertex 9.22042 12.1972 0.046508
      vertex 7.56578 16.8129 0.046508
      vertex 17.7569 13.5937 0.046508
    endloop
  endfacet
  facet normal 0 0 -1
    outer loop
      vertex 9.22042 12.1972 0.046508
      vertex 17.7569 13.5937 0.046508
      vertex 7.79314 7.80447 0.046508
    endloop
  endfacet
  facet normal 0 0 -1
    outer loop
      vertex 14.4495 2 0.046508
      vertex 17.7569 13.5937 0.046508
      vertex 17.8518 2 0.046508
    endloop
  endfacet
  facet normal 0 0 -1
    outer loop
      vertex 14.4495 5 0.046508
      vertex 17.7569 13.5937 0.046508
      vertex 14.4495 2 0.046508
    endloop
  endfacet
  facet normal 0 0 -1
    outer loop
      vertex -10.8921 -1.73325 0.046508
      vertex -2.5 0 0.046508
      vertex -2.02254 -1.46946 0.046508
    endloop
  endfacet
  facet normal 0 0 -1
    outer loop
      vertex 9.8307 5 0.046508
      vertex 17.7569 13.5937 0.046508
      vertex 14.4495 5 0.046508
    endloop
  endfacet
  facet normal 0 0 -1
    outer loop
      vertex 2.02254 1.46946 0.046508
      vertex 17.7569 13.5937 0.046508
      vertex 9.8307 5 0.046508
    endloop
  endfacet
  facet normal 0 0 -1
    outer loop
      vertex -0.772542 -2.37764 0.046508
      vertex 0.772542 -2.37764 0.046508
      vertex 9.8307 -5 0.046508
    endloop
  endfacet
  facet normal 0 0 -1
    outer loop
      vertex 17.8846 -2 0.046508
      vertex 14.4495 -5 0.046508
      vertex 14.4495 -2 0.046508
    endloop
  endfacet
  facet normal 0 0 -1
    outer loop
      vertex 7.79314 -7.80447 0.046508
      vertex 17.9713 -12.5888 0.046508
      vertex 9.22042 -12.1972 0.046508
    endloop
  endfacet
  facet normal 0 0 -1
    outer loop
      vertex 14.4495 -5 0.046508
      vertex 17.8846 -2 0.046508
      vertex 17.9713 -12.5888 0.046508
    endloop
  endfacet
  facet normal 0 0 -1
    outer loop
      vertex -1.71743 -10.8946 0.046508
      vertex -5.01428 -9.82342 0.046508
      vertex 7.79314 -7.80447 0.046508
    endloop
  endfacet
  facet normal 0 0 -1
    outer loop
      vertex 6.36725 -13.1243 0.046508
      vertex 17.9713 -12.5888 0.046508
      vertex 7.34632 -16.1375 0.046508
    endloop
  endfacet
  facet normal 0 0 -1
    outer loop
      vertex -10.8921 -1.73325 0.046508
      vertex -2.02254 1.46946 0.046508
      vertex -2.5 0 0.046508
    endloop
  endfacet
  facet normal 0 0 -1
    outer loop
      vertex 9.22042 -12.1972 0.046508
      vertex 17.9713 -12.5888 0.046508
      vertex 6.36725 -13.1243 0.046508
    endloop
  endfacet
  facet normal 0 0 -1
    outer loop
      vertex 14.4495 -5 0.046508
      vertex 17.9713 -12.5888 0.046508
      vertex 7.79314 -7.80447 0.046508
    endloop
  endfacet
  facet normal 0 0 -1
    outer loop
      vertex -5.01428 -9.82342 0.046508
      vertex -1.71743 -10.8946 0.046508
      vertex -0.290141 -15.2874 0.046508
    endloop
  endfacet
  facet normal 0 0 -1
    outer loop
      vertex 0.772542 2.37764 0.046508
      vertex 17.7569 13.5937 0.046508
      vertex 2.02254 1.46946 0.046508
    endloop
  endfacet
  facet normal 0 0 -1
    outer loop
      vertex 3.55221 -17.4047 0.046508
      vertex -0.290141 -15.2874 0.046508
      vertex 2.56303 -14.3603 0.046508
    endloop
  endfacet
  facet normal 0 0 -1
    outer loop
      vertex -0.290141 -15.2874 0.046508
      vertex 3.55221 -17.4047 0.046508
      vertex -8.75097 -12.5383 0.046508
    endloop
  endfacet
  facet normal 0 0 -1
    outer loop
      vertex -13.3192 -12.1491 0.046508
      vertex 3.55221 -17.4047 0.046508
      vertex -6.86338 -20.8835 0.046508
    endloop
  endfacet
  facet normal 0 0 -1
    outer loop
      vertex -8.75097 -12.5383 0.046508
      vertex 3.55221 -17.4047 0.046508
      vertex -13.3192 -12.1491 0.046508
    endloop
  endfacet
  facet normal 0 0 -1
    outer loop
      vertex -10.5143 -10.1112 0.046508
      vertex -8.75097 -12.5383 0.046508
      vertex -13.3192 -12.1491 0.046508
    endloop
  endfacet
  facet normal 0 0 -1
    outer loop
      vertex -5.01428 -9.82342 0.046508
      vertex -0.290141 -15.2874 0.046508
      vertex -8.75097 -12.5383 0.046508
    endloop
  endfacet
  facet normal 0 0 -1
    outer loop
      vertex -10.8921 -1.73325 0.046508
      vertex -1.71743 10.8946 0.046508
      vertex -2.02254 1.46946 0.046508
    endloop
  endfacet
  facet normal 0 0 -1
    outer loop
      vertex -5.01428 9.82342 0.046508
      vertex -1.71743 10.8946 0.046508
      vertex -10.8921 -1.73325 0.046508
    endloop
  endfacet
  facet normal 0 0 -1
    outer loop
      vertex -12.8655 -6.87517 0.046508
      vertex -15.6969 -8.93231 0.046508
      vertex -14.6288 -4.44812 0.046508
    endloop
  endfacet
  facet normal 0 0 -1
    outer loop
      vertex -0.772542 2.37764 0.046508
      vertex 7.79314 7.80447 0.046508
      vertex 0.772542 2.37764 0.046508
    endloop
  endfacet
  facet normal 0 0 -1
    outer loop
      vertex 0.772542 -2.37764 0.046508
      vertex 9.8307 -2.40775e-015 0.046508
      vertex 9.8307 -5 0.046508
    endloop
  endfacet
  facet normal 0 0 -1
    outer loop
      vertex -10.8921 -1.73325 0.046508
      vertex -2.02254 -1.46946 0.046508
      vertex -0.772542 -2.37764 0.046508
    endloop
  endfacet
  facet normal 0 0 -1
    outer loop
      vertex 7.79314 7.80447 0.046508
      vertex 17.7569 13.5937 0.046508
      vertex 0.772542 2.37764 0.046508
    endloop
  endfacet
  facet normal 0 0 -1
    outer loop
      vertex 2.02254 1.46946 0.046508
      vertex 9.8307 5 0.046508
      vertex 2.5 0 0.046508
    endloop
  endfacet
  facet normal 0 0 -1
    outer loop
      vertex -14.6288 -4.44812 0.046508
      vertex -15.6969 -8.93231 0.046508
      vertex -14.6288 4.44812 0.046508
    endloop
  endfacet
  facet normal 0 0 -1
    outer loop
      vertex -10.8921 1.73325 0.046508
      vertex -14.6288 -4.44812 0.046508
      vertex -14.6288 4.44812 0.046508
    endloop
  endfacet
  facet normal 0 0 -1
    outer loop
      vertex -14.6288 -4.44812 0.046508
      vertex -5.01428 9.82342 0.046508
      vertex -10.8921 -1.73325 0.046508
    endloop
  endfacet
  facet normal 0 0 -1
    outer loop
      vertex 9.8307 -2.40775e-015 0.046508
      vertex 2.02254 -1.46946 0.046508
      vertex 2.5 0 0.046508
    endloop
  endfacet
  facet normal 0 0 -1
    outer loop
      vertex 9.8307 -2.40775e-015 0.046508
      vertex 2.5 0 0.046508
      vertex 9.8307 5 0.046508
    endloop
  endfacet
  facet normal 0 0 -1
    outer loop
      vertex -10.8921 -1.73325 0.046508
      vertex -0.772542 -2.37764 0.046508
      vertex 9.8307 -5 0.046508
    endloop
  endfacet
  facet normal 0 0 -1
    outer loop
      vertex 9.8307 -5 0.046508
      vertex 14.4495 -5 0.046508
      vertex 7.79314 -7.80447 0.046508
    endloop
  endfacet
  facet normal 0 0 -1
    outer loop
      vertex -10.8921 -1.73325 0.046508
      vertex 9.8307 -5 0.046508
      vertex 7.79314 -7.80447 0.046508
    endloop
  endfacet
  facet normal 0 0 -1
    outer loop
      vertex -10.8921 -1.73325 0.046508
      vertex 7.79314 -7.80447 0.046508
      vertex -5.01428 -9.82342 0.046508
    endloop
  endfacet
  facet normal 0 0 -1
    outer loop
      vertex 2.02254 -1.46946 0.046508
      vertex 9.8307 -2.40775e-015 0.046508
      vertex 0.772542 -2.37764 0.046508
    endloop
  endfacet
  facet normal 0.587785 0.809017 0
    outer loop
      vertex -12.8655 6.87517 0.046508
      vertex -16.0091 9.15915 0.046508
      vertex -15.254 8.61056 5.16025
    endloop
  endfacet
  facet normal 0.587785 0.809017 0
    outer loop
      vertex -15.254 8.61056 5.16025
      vertex -16.0091 9.15915 0.046508
      vertex -17.7151 10.3986 3.40393
    endloop
  endfacet
  facet normal 0.404508 -0.293893 -0.866025
    outer loop
      vertex -12.9029 11.8466 5.16025
      vertex -11.1395 14.2737 5.16025
      vertex -8.33701 12.2375 7.16025
    endloop
  endfacet
  facet normal 0.404508 -0.293893 -0.866025
    outer loop
      vertex -12.9029 11.8466 5.16025
      vertex -8.33701 12.2375 7.16025
      vertex -14.2149 4.14736 7.16025
    endloop
  endfacet
  facet normal 0.404508 -0.293893 -0.866025
    outer loop
      vertex -12.9029 11.8466 5.16025
      vertex -14.2149 4.14736 7.16025
      vertex -15.3834 13.6488 3.39005
    endloop
  endfacet
  facet normal 0.404508 -0.293893 -0.866025
    outer loop
      vertex -14.2149 4.14736 7.16025
      vertex -17.0174 6.18351 5.16025
      vertex -15.254 8.61056 5.16025
    endloop
  endfacet
  facet normal 0.404508 -0.293893 -0.866025
    outer loop
      vertex -14.2149 4.14736 7.16025
      vertex -15.254 8.61056 5.16025
      vertex -15.3834 13.6488 3.39005
    endloop
  endfacet
  facet normal 0.404508 -0.293893 -0.866025
    outer loop
      vertex -17.7151 10.3986 3.40393
      vertex -15.3834 13.6488 3.39005
      vertex -15.254 8.61056 5.16025
    endloop
  endfacet
  facet normal -0.587785 -0.809017 0
    outer loop
      vertex -13.6845 12.4145 0.046508
      vertex -10.5143 10.1112 0.046508
      vertex -12.9029 11.8466 5.16025
    endloop
  endfacet
  facet normal -0.587785 -0.809017 0
    outer loop
      vertex -15.3834 13.6488 3.39005
      vertex -13.6845 12.4145 0.046508
      vertex -12.9029 11.8466 5.16025
    endloop
  endfacet
  facet normal 0.255081 0.807501 -0.531861
    outer loop
      vertex -7.21034 21.4805 0.046508
      vertex -9.65826 28.8097 10
      vertex 6.07562 20.077 4.28757
    endloop
  endfacet
  facet normal 0.255081 0.807501 -0.531862
    outer loop
      vertex 8.21801 18.8203 3.40699
      vertex 6.07562 20.077 4.28757
      vertex 17.7569 13.5937 0.046508
    endloop
  endfacet
  facet normal 0.255081 0.807501 -0.531862
    outer loop
      vertex 7.56578 16.8129 0.046508
      vertex 8.21801 18.8203 3.40699
      vertex 17.7569 13.5937 0.046508
    endloop
  endfacet
  facet normal 0.255081 0.807501 -0.531862
    outer loop
      vertex -7.21034 21.4805 0.046508
      vertex 6.07562 20.077 4.28757
      vertex 4.40635 20.0335 3.42087
    endloop
  endfacet
  facet normal 0.255081 0.807501 -0.531862
    outer loop
      vertex -7.21034 21.4805 0.046508
      vertex 4.40635 20.0335 3.42087
      vertex 3.75143 18.0178 0.046508
    endloop
  endfacet
  facet normal 0.255081 0.807501 -0.531862
    outer loop
      vertex 4.40635 20.0335 3.42087
      vertex 6.07562 20.077 4.28757
      vertex 8.21801 18.8203 3.40699
    endloop
  endfacet
  facet normal 0.488823 0.361304 0.794048
    outer loop
      vertex 6.07562 20.077 4.28757
      vertex -9.65826 28.8097 10
      vertex 3.29725 11.2817 10
    endloop
  endfacet
  facet normal -0.192566 0.576547 0.794048
    outer loop
      vertex 6.07562 20.077 4.28757
      vertex 3.29725 11.2817 10
      vertex 23.9709 18.1866 10
    endloop
  endfacet
  facet normal 0.255081 0.807501 -0.531861
    outer loop
      vertex 17.7569 13.5937 0.046508
      vertex 6.07562 20.077 4.28757
      vertex 23.9709 18.1866 10
    endloop
  endfacet
  facet normal 0.846803 0.00693523 -0.531861
    outer loop
      vertex 20.5277 0.524265 4.28757
      vertex 17.7569 13.5937 0.046508
      vertex 23.9709 18.1866 10
    endloop
  endfacet
  facet normal 0.494675 -0.353249 0.794048
    outer loop
      vertex 23.9709 18.1866 10
      vertex 11.3042 0.448727 10
      vertex 20.5277 0.524265 4.28757
    endloop
  endfacet
  facet normal 0.488823 0.361304 0.794048
    outer loop
      vertex 20.5277 0.524265 4.28757
      vertex 11.3042 0.448727 10
      vertex 24.2597 -17.0793 10
    endloop
  endfacet
  facet normal -0.183097 -0.579624 0.794047
    outer loop
      vertex 24.2597 -17.0793 10
      vertex 3.47575 -10.5139 10
      vertex 6.3978 -19.2626 4.28757
    endloop
  endfacet
  facet normal 0.846803 0.00693519 -0.531861
    outer loop
      vertex 24.2597 -17.0793 10
      vertex 17.9713 -12.5888 0.046508
      vertex 20.0356 -2 3.47117
    endloop
  endfacet
  facet normal 0.846803 0.00693519 -0.531861
    outer loop
      vertex 20.1133 -2 3.59486
      vertex 24.2597 -17.0793 10
      vertex 20.0356 -2 3.47117
    endloop
  endfacet
  facet normal 0.846803 0.00693519 -0.531861
    outer loop
      vertex 20.1109 -1.61339 3.5962
      vertex 24.2597 -17.0793 10
      vertex 20.1133 -2 3.59486
    endloop
  endfacet
  facet normal 0.846803 0.00693519 -0.531861
    outer loop
      vertex 20.5277 0.524265 4.28757
      vertex 24.2597 -17.0793 10
      vertex 20.1109 -1.61339 3.5962
    endloop
  endfacet
  facet normal 0.268272 -0.803214 -0.531861
    outer loop
      vertex 24.2597 -17.0793 10
      vertex 4.54512 -19.489 3.69507
      vertex 8.05695 -18.3246 3.70791
    endloop
  endfacet
  facet normal 0.268272 -0.803214 -0.531861
    outer loop
      vertex 7.34632 -16.1375 0.046508
      vertex 24.2597 -17.0793 10
      vertex 8.05695 -18.3246 3.70791
    endloop
  endfacet
  facet normal 0.268272 -0.803214 -0.531861
    outer loop
      vertex 7.34632 -16.1375 0.046508
      vertex 17.9713 -12.5888 0.046508
      vertex 24.2597 -17.0793 10
    endloop
  endfacet
  facet normal -0.271299 0.793234 0.545139
    outer loop
      vertex 4.54512 -19.489 3.69507
      vertex 24.2597 -17.0793 10
      vertex 6.3978 -19.2626 4.28757
    endloop
  endfacet
  facet normal 0.494675 -0.353249 0.794047
    outer loop
      vertex 3.47575 -10.5139 10
      vertex -9.19094 -28.2518 10
      vertex 6.3978 -19.2626 4.28757
    endloop
  endfacet
  facet normal 0.268272 -0.803214 -0.531861
    outer loop
      vertex 4.24151 -19.5262 3.59797
      vertex -9.19094 -28.2518 10
      vertex -6.86338 -20.8835 0.046508
    endloop
  endfacet
  facet normal 0.268272 -0.803214 -0.531861
    outer loop
      vertex 4.26015 -19.5835 3.69403
      vertex -9.19094 -28.2518 10
      vertex 4.24151 -19.5262 3.59797
    endloop
  endfacet
  facet normal 0.268272 -0.803214 -0.531861
    outer loop
      vertex 6.3978 -19.2626 4.28757
      vertex -9.19094 -28.2518 10
      vertex 4.26015 -19.5835 3.69403
    endloop
  endfacet
  facet normal 0.268272 -0.803214 -0.531861
    outer loop
      vertex 6.3978 -19.2626 4.28757
      vertex 4.26015 -19.5835 3.69403
      vertex 4.54512 -19.489 3.69507
    endloop
  endfacet
  facet normal 0.268272 -0.803214 -0.531861
    outer loop
      vertex 4.24151 -19.5262 3.59797
      vertex -6.86338 -20.8835 0.046508
      vertex 3.55221 -17.4047 0.046508
    endloop
  endfacet
  facet normal -0.681002 -0.503349 -0.531862
    outer loop
      vertex -6.86338 -20.8835 0.046508
      vertex -15.1101 -13.4503 3.57092
      vertex -13.3192 -12.1491 0.046508
    endloop
  endfacet
  facet normal -0.587785 0.809017 0
    outer loop
      vertex -10.5143 -10.1112 0.046508
      vertex -13.3192 -12.1491 0.046508
      vertex -12.9029 -11.8466 5.16025
    endloop
  endfacet
  facet normal -0.587785 0.809017 0
    outer loop
      vertex -12.9029 -11.8466 5.16025
      vertex -13.3192 -12.1491 0.046508
      vertex -15.1101 -13.4503 3.57092
    endloop
  endfacet
  facet normal -0.587785 0.809017 0
    outer loop
      vertex -12.9029 -11.8466 5.16025
      vertex -15.1101 -13.4503 3.57092
      vertex -15.1154 -13.4541 3.58132
    endloop
  endfacet
  facet normal 0.404508 0.293893 -0.866025
    outer loop
      vertex -17.0174 -6.18351 5.16025
      vertex -14.2149 -4.14736 7.16025
      vertex -15.254 -8.61056 5.16025
    endloop
  endfacet
  facet normal 0.404508 0.293893 -0.866025
    outer loop
      vertex -15.254 -8.61056 5.16025
      vertex -14.2149 -4.14736 7.16025
      vertex -8.33701 -12.2375 7.16025
    endloop
  endfacet
  facet normal 0.404508 0.293893 -0.866025
    outer loop
      vertex -12.9029 -11.8466 5.16025
      vertex -8.33701 -12.2375 7.16025
      vertex -11.1395 -14.2737 5.16025
    endloop
  endfacet
  facet normal 0.404508 0.293893 -0.866025
    outer loop
      vertex -15.254 -8.61056 5.16025
      vertex -8.33701 -12.2375 7.16025
      vertex -12.9029 -11.8466 5.16025
    endloop
  endfacet
  facet normal 0.404508 0.293893 -0.866025
    outer loop
      vertex -12.9029 -11.8466 5.16025
      vertex -15.1154 -13.4541 3.58132
      vertex -15.254 -8.61056 5.16025
    endloop
  endfacet
  facet normal 0.404508 0.293893 -0.866025
    outer loop
      vertex -15.254 -8.61056 5.16025
      vertex -15.1154 -13.4541 3.58132
      vertex -15.1342 -13.4285 3.58121
    endloop
  endfacet
  facet normal 0.404508 0.293893 -0.866025
    outer loop
      vertex -15.254 -8.61056 5.16025
      vertex -15.1342 -13.4285 3.58121
      vertex -17.486 -10.2322 3.56744
    endloop
  endfacet
  facet normal 0.587785 -0.809017 0
    outer loop
      vertex -15.6969 -8.93231 0.046508
      vertex -12.8655 -6.87517 0.046508
      vertex -15.254 -8.61056 5.16025
    endloop
  endfacet
  facet normal 0.587785 -0.809017 0
    outer loop
      vertex -17.486 -10.2322 3.56744
      vertex -15.6969 -8.93231 0.046508
      vertex -15.254 -8.61056 5.16025
    endloop
  endfacet
  facet normal 0.700629 0.509037 0.5
    outer loop
      vertex -15.254 -8.61056 5.16025
      vertex -12.8655 -6.87517 0.046508
      vertex -14.6288 -4.44812 0.046508
    endloop
  endfacet
  facet normal 0.700629 0.509037 0.5
    outer loop
      vertex -17.0174 -6.18351 5.16025
      vertex -15.254 -8.61056 5.16025
      vertex -14.6288 -4.44812 0.046508
    endloop
  endfacet
  facet normal 0.587785 -0.809017 0
    outer loop
      vertex -14.6288 -4.44812 0.046508
      vertex -10.8921 -1.73325 0.046508
      vertex -14.2149 -4.14736 7.16025
    endloop
  endfacet
  facet normal 0.587785 -0.809017 0
    outer loop
      vertex -17.0174 -6.18351 5.16025
      vertex -14.6288 -4.44812 0.046508
      vertex -14.2149 -4.14736 7.16025
    endloop
  endfacet
  facet normal -0.700629 -0.509037 -0.5
    outer loop
      vertex -5.01428 -9.82342 0.046508
      vertex -8.33701 -12.2375 7.16025
      vertex -10.8921 -1.73325 0.046508
    endloop
  endfacet
  facet normal -0.700629 -0.509037 -0.5
    outer loop
      vertex -10.8921 -1.73325 0.046508
      vertex -8.33701 -12.2375 7.16025
      vertex -14.2149 -4.14736 7.16025
    endloop
  endfacet
  facet normal -0.587785 0.809017 0
    outer loop
      vertex -5.01428 -9.82342 0.046508
      vertex -8.75097 -12.5383 0.046508
      vertex -8.33701 -12.2375 7.16025
    endloop
  endfacet
  facet normal -0.587785 0.809017 0
    outer loop
      vertex -8.33701 -12.2375 7.16025
      vertex -8.75097 -12.5383 0.046508
      vertex -11.1395 -14.2737 5.16025
    endloop
  endfacet
  facet normal 0.700629 0.509037 0.5
    outer loop
      vertex -11.1395 -14.2737 5.16025
      vertex -8.75097 -12.5383 0.046508
      vertex -10.5143 -10.1112 0.046508
    endloop
  endfacet
  facet normal 0.700629 0.509037 0.5
    outer loop
      vertex -12.9029 -11.8466 5.16025
      vertex -11.1395 -14.2737 5.16025
      vertex -10.5143 -10.1112 0.046508
    endloop
  endfacet
  facet normal 0.951057 0.309017 0
    outer loop
      vertex 3.47538 -17.1682 5.16025
      vertex 4.26015 -19.5835 3.69403
      vertex 4.24151 -19.5262 3.59797
    endloop
  endfacet
  facet normal 0.951057 0.309017 0
    outer loop
      vertex 3.55221 -17.4047 0.046508
      vertex 3.47538 -17.1682 5.16025
      vertex 4.24151 -19.5262 3.59797
    endloop
  endfacet
  facet normal 0.951057 0.309017 0
    outer loop
      vertex 3.55221 -17.4047 0.046508
      vertex 2.56303 -14.3603 0.046508
      vertex 3.47538 -17.1682 5.16025
    endloop
  endfacet
  facet normal -0.267617 0.823639 0.5
    outer loop
      vertex 3.47538 -17.1682 5.16025
      vertex 2.56303 -14.3603 0.046508
      vertex 0.622208 -18.0953 5.16025
    endloop
  endfacet
  facet normal -0.267617 0.823639 0.5
    outer loop
      vertex 0.622208 -18.0953 5.16025
      vertex 2.56303 -14.3603 0.046508
      vertex -0.290141 -15.2874 0.046508
    endloop
  endfacet
  facet normal 0.951057 0.309017 0
    outer loop
      vertex -0.448259 -14.8007 7.16025
      vertex 0.622208 -18.0953 5.16025
      vertex -0.290141 -15.2874 0.046508
    endloop
  endfacet
  facet normal 0.951057 0.309017 0
    outer loop
      vertex -1.71743 -10.8946 0.046508
      vertex -0.448259 -14.8007 7.16025
      vertex -0.290141 -15.2874 0.046508
    endloop
  endfacet
  facet normal 0.267617 -0.823639 -0.5
    outer loop
      vertex 7.79314 -7.80447 0.046508
      vertex 9.06231 -11.7106 7.16025
      vertex -0.448259 -14.8007 7.16025
    endloop
  endfacet
  facet normal 0.267617 -0.823639 -0.5
    outer loop
      vertex -1.71743 -10.8946 0.046508
      vertex 7.79314 -7.80447 0.046508
      vertex -0.448259 -14.8007 7.16025
    endloop
  endfacet
  facet normal -0.951057 -0.309017 0
    outer loop
      vertex 10.1328 -15.0051 5.16025
      vertex 9.06231 -11.7106 7.16025
      vertex 9.22042 -12.1972 0.046508
    endloop
  endfacet
  facet normal -0.951057 -0.309017 0
    outer loop
      vertex 9.22042 -12.1972 0.046508
      vertex 9.06231 -11.7106 7.16025
      vertex 7.79314 -7.80447 0.046508
    endloop
  endfacet
  facet normal -0.267617 0.823639 0.5
    outer loop
      vertex 10.1328 -15.0051 5.16025
      vertex 9.22042 -12.1972 0.046508
      vertex 7.2796 -15.9322 5.16025
    endloop
  endfacet
  facet normal -0.267617 0.823639 0.5
    outer loop
      vertex 7.2796 -15.9322 5.16025
      vertex 9.22042 -12.1972 0.046508
      vertex 6.36725 -13.1243 0.046508
    endloop
  endfacet
  facet normal -0.951057 -0.309017 0
    outer loop
      vertex 8.05695 -18.3246 3.70791
      vertex 7.2796 -15.9322 5.16025
      vertex 7.34632 -16.1375 0.046508
    endloop
  endfacet
  facet normal -0.951057 -0.309017 0
    outer loop
      vertex 7.34632 -16.1375 0.046508
      vertex 7.2796 -15.9322 5.16025
      vertex 6.36725 -13.1243 0.046508
    endloop
  endfacet
  facet normal 0.846803 0.00693521 -0.531861
    outer loop
      vertex 17.9713 -12.5888 0.046508
      vertex 17.8846 -2 0.046508
      vertex 20.0356 -2 3.47117
    endloop
  endfacet
  facet normal 2.44921e-016 1 0
    outer loop
      vertex 20.1133 -2 3.59486
      vertex 20.0356 -2 3.47117
      vertex 17.4019 -2 5.16025
    endloop
  endfacet
  facet normal 2.44921e-016 1 0
    outer loop
      vertex 17.4019 -2 5.16025
      vertex 20.0356 -2 3.47117
      vertex 17.8846 -2 0.046508
    endloop
  endfacet
  facet normal 2.44921e-016 1 0
    outer loop
      vertex 17.4019 -2 5.16025
      vertex 17.8846 -2 0.046508
      vertex 14.4495 -2 0.046508
    endloop
  endfacet
  facet normal -0.866025 0 0.5
    outer loop
      vertex 17.4019 -5 5.16025
      vertex 17.4019 -2 5.16025
      vertex 14.4495 -2 0.046508
    endloop
  endfacet
  facet normal -0.866025 0 0.5
    outer loop
      vertex 17.4019 -5 5.16025
      vertex 14.4495 -2 0.046508
      vertex 14.4495 -5 0.046508
    endloop
  endfacet
  facet normal 2.44921e-016 1 0
    outer loop
      vertex 17.4019 -5 5.16025
      vertex 14.4495 -5 0.046508
      vertex 13.9378 -5 7.16025
    endloop
  endfacet
  facet normal 2.44921e-016 1 0
    outer loop
      vertex 13.9378 -5 7.16025
      vertex 14.4495 -5 0.046508
      vertex 9.8307 -5 0.046508
    endloop
  endfacet
  facet normal 0.866025 -2.12108e-016 -0.5
    outer loop
      vertex 9.8307 -2.40775e-015 0.046508
      vertex 13.9378 -3.41367e-015 7.16025
      vertex 13.9378 -5 7.16025
    endloop
  endfacet
  facet normal 0.866025 -2.12108e-016 -0.5
    outer loop
      vertex 9.8307 -5 0.046508
      vertex 9.8307 -2.40775e-015 0.046508
      vertex 13.9378 -5 7.16025
    endloop
  endfacet
  facet normal 0.866025 0 -0.5
    outer loop
      vertex 9.8307 5 0.046508
      vertex 13.9378 5 7.16025
      vertex 13.9378 -3.41367e-015 7.16025
    endloop
  endfacet
  facet normal 0.866025 0 -0.5
    outer loop
      vertex 9.8307 -2.40775e-015 0.046508
      vertex 9.8307 5 0.046508
      vertex 13.9378 -3.41367e-015 7.16025
    endloop
  endfacet
  facet normal 0 -1 0
    outer loop
      vertex 14.4495 5 0.046508
      vertex 17.4019 5 5.16025
      vertex 13.9378 5 7.16025
    endloop
  endfacet
  facet normal 0 -1 0
    outer loop
      vertex 9.8307 5 0.046508
      vertex 14.4495 5 0.046508
      vertex 13.9378 5 7.16025
    endloop
  endfacet
  facet normal -0.866025 2.12108e-016 0.5
    outer loop
      vertex 17.4019 2 5.16025
      vertex 17.4019 5 5.16025
      vertex 14.4495 5 0.046508
    endloop
  endfacet
  facet normal -0.866025 2.12108e-016 0.5
    outer loop
      vertex 17.4019 2 5.16025
      vertex 14.4495 5 0.046508
      vertex 14.4495 2 0.046508
    endloop
  endfacet
  facet normal 0 -1 0
    outer loop
      vertex 17.8518 2 0.046508
      vertex 20.0892 2 3.60874
      vertex 17.4019 2 5.16025
    endloop
  endfacet
  facet normal 0 -1 0
    outer loop
      vertex 14.4495 2 0.046508
      vertex 17.8518 2 0.046508
      vertex 17.4019 2 5.16025
    endloop
  endfacet
  facet normal 0.846803 0.00693521 -0.531861
    outer loop
      vertex 20.0892 2 3.60874
      vertex 17.7569 13.5937 0.046508
      vertex 20.5277 0.524265 4.28757
    endloop
  endfacet
  facet normal 0.846803 0.00693521 -0.531861
    outer loop
      vertex 20.1109 -1.61339 3.5962
      vertex 20.1012 -4.92322e-015 3.6018
      vertex 20.5277 0.524265 4.28757
    endloop
  endfacet
  facet normal 0.846803 0.00693521 -0.531861
    outer loop
      vertex 20.0892 2 3.60874
      vertex 17.8518 2 0.046508
      vertex 17.7569 13.5937 0.046508
    endloop
  endfacet
  facet normal 0.846803 0.00693521 -0.531861
    outer loop
      vertex 20.1012 -4.92322e-015 3.6018
      vertex 20.0892 2 3.60874
      vertex 20.5277 0.524265 4.28757
    endloop
  endfacet
  facet normal -0.951057 0.309017 0
    outer loop
      vertex 8.21801 18.8203 3.40699
      vertex 7.56578 16.8129 0.046508
      vertex 7.2796 15.9322 5.16025
    endloop
  endfacet
  facet normal -0.951057 0.309017 0
    outer loop
      vertex 7.2796 15.9322 5.16025
      vertex 7.56578 16.8129 0.046508
      vertex 6.36725 13.1243 0.046508
    endloop
  endfacet
  facet normal -0.267617 -0.823639 0.5
    outer loop
      vertex 9.22042 12.1972 0.046508
      vertex 10.1328 15.0051 5.16025
      vertex 7.2796 15.9322 5.16025
    endloop
  endfacet
  facet normal -0.267617 -0.823639 0.5
    outer loop
      vertex 6.36725 13.1243 0.046508
      vertex 9.22042 12.1972 0.046508
      vertex 7.2796 15.9322 5.16025
    endloop
  endfacet
  facet normal -0.951057 0.309017 0
    outer loop
      vertex 10.1328 15.0051 5.16025
      vertex 9.22042 12.1972 0.046508
      vertex 9.06231 11.7106 7.16025
    endloop
  endfacet
  facet normal -0.951057 0.309017 0
    outer loop
      vertex 9.06231 11.7106 7.16025
      vertex 9.22042 12.1972 0.046508
      vertex 7.79314 7.80447 0.046508
    endloop
  endfacet
  facet normal 0.267617 0.823639 -0.5
    outer loop
      vertex 9.06231 11.7106 7.16025
      vertex 7.79314 7.80447 0.046508
      vertex -0.448259 14.8007 7.16025
    endloop
  endfacet
  facet normal 0.267617 0.823639 -0.5
    outer loop
      vertex -0.448259 14.8007 7.16025
      vertex 7.79314 7.80447 0.046508
      vertex -1.71743 10.8946 0.046508
    endloop
  endfacet
  facet normal 0.951057 -0.309017 0
    outer loop
      vertex -0.290141 15.2874 0.046508
      vertex 0.622208 18.0953 5.16025
      vertex -0.448259 14.8007 7.16025
    endloop
  endfacet
  facet normal 0.951057 -0.309017 0
    outer loop
      vertex -1.71743 10.8946 0.046508
      vertex -0.290141 15.2874 0.046508
      vertex -0.448259 14.8007 7.16025
    endloop
  endfacet
  facet normal -0.267617 -0.823639 0.5
    outer loop
      vertex 2.56303 14.3603 0.046508
      vertex 3.47538 17.1682 5.16025
      vertex 0.622208 18.0953 5.16025
    endloop
  endfacet
  facet normal -0.267617 -0.823639 0.5
    outer loop
      vertex -0.290141 15.2874 0.046508
      vertex 2.56303 14.3603 0.046508
      vertex 0.622208 18.0953 5.16025
    endloop
  endfacet
  facet normal 0.951057 -0.309017 0
    outer loop
      vertex 3.75143 18.0178 0.046508
      vertex 4.40635 20.0335 3.42087
      vertex 3.47538 17.1682 5.16025
    endloop
  endfacet
  facet normal 0.951057 -0.309017 0
    outer loop
      vertex 2.56303 14.3603 0.046508
      vertex 3.75143 18.0178 0.046508
      vertex 3.47538 17.1682 5.16025
    endloop
  endfacet
  facet normal 0.700629 -0.509037 0.5
    outer loop
      vertex -10.5143 10.1112 0.046508
      vertex -8.75097 12.5383 0.046508
      vertex -11.1395 14.2737 5.16025
    endloop
  endfacet
  facet normal 0.700629 -0.509037 0.5
    outer loop
      vertex -12.9029 11.8466 5.16025
      vertex -10.5143 10.1112 0.046508
      vertex -11.1395 14.2737 5.16025
    endloop
  endfacet
  facet normal -0.587785 -0.809017 0
    outer loop
      vertex -8.75097 12.5383 0.046508
      vertex -5.01428 9.82342 0.046508
      vertex -8.33701 12.2375 7.16025
    endloop
  endfacet
  facet normal -0.587785 -0.809017 0
    outer loop
      vertex -11.1395 14.2737 5.16025
      vertex -8.75097 12.5383 0.046508
      vertex -8.33701 12.2375 7.16025
    endloop
  endfacet
  facet normal -0.700629 0.509037 -0.5
    outer loop
      vertex -5.01428 9.82342 0.046508
      vertex -10.8921 1.73325 0.046508
      vertex -8.33701 12.2375 7.16025
    endloop
  endfacet
  facet normal -0.700629 0.509037 -0.5
    outer loop
      vertex -8.33701 12.2375 7.16025
      vertex -10.8921 1.73325 0.046508
      vertex -14.2149 4.14736 7.16025
    endloop
  endfacet
  facet normal 0.587785 0.809017 0
    outer loop
      vertex -10.8921 1.73325 0.046508
      vertex -14.6288 4.44812 0.046508
      vertex -14.2149 4.14736 7.16025
    endloop
  endfacet
  facet normal 0.587785 0.809017 0
    outer loop
      vertex -14.2149 4.14736 7.16025
      vertex -14.6288 4.44812 0.046508
      vertex -17.0174 6.18351 5.16025
    endloop
  endfacet
  facet normal 0.700629 -0.509037 0.5
    outer loop
      vertex -14.6288 4.44812 0.046508
      vertex -12.8655 6.87517 0.046508
      vertex -15.254 8.61056 5.16025
    endloop
  endfacet
  facet normal 0.700629 -0.509037 0.5
    outer loop
      vertex -17.0174 6.18351 5.16025
      vertex -14.6288 4.44812 0.046508
      vertex -15.254 8.61056 5.16025
    endloop
  endfacet
  facet normal 0.951056 -0.309017 0
    outer loop
      vertex -2.02254 1.46946 0.046508
      vertex -2.02254 1.46946 25
      vertex -2.5 0 25
    endloop
  endfacet
  facet normal 0.951056 -0.309017 0
    outer loop
      vertex -2.5 0 0.046508
      vertex -2.02254 1.46946 0.046508
      vertex -2.5 0 25
    endloop
  endfacet
  facet normal 0.951056 0.309017 0
    outer loop
      vertex -2.5 0 25
      vertex -2.02254 -1.46946 25
      vertex -2.02254 -1.46946 0.046508
    endloop
  endfacet
  facet normal 0.951056 0.309017 0
    outer loop
      vertex -2.5 0 0.046508
      vertex -2.5 0 25
      vertex -2.02254 -1.46946 0.046508
    endloop
  endfacet
  facet normal 0.587785 -0.809017 0
    outer loop
      vertex -0.772542 2.37764 0.046508
      vertex -0.772542 2.37764 25
      vertex -2.02254 1.46946 25
    endloop
  endfacet
  facet normal 0.587785 -0.809017 0
    outer loop
      vertex -2.02254 1.46946 0.046508
      vertex -0.772542 2.37764 0.046508
      vertex -2.02254 1.46946 25
    endloop
  endfacet
  facet normal 0 -1 0
    outer loop
      vertex 0.772542 2.37764 0.046508
      vertex 0.772542 2.37764 25
      vertex -0.772542 2.37764 25
    endloop
  endfacet
  facet normal 0 -1 0
    outer loop
      vertex -0.772542 2.37764 0.046508
      vertex 0.772542 2.37764 0.046508
      vertex -0.772542 2.37764 25
    endloop
  endfacet
  facet normal -0.587785 -0.809017 0
    outer loop
      vertex 2.02254 1.46946 0.046508
      vertex 2.02254 1.46946 25
      vertex 0.772542 2.37764 25
    endloop
  endfacet
  facet normal -0.587785 -0.809017 0
    outer loop
      vertex 0.772542 2.37764 0.046508
      vertex 2.02254 1.46946 0.046508
      vertex 0.772542 2.37764 25
    endloop
  endfacet
  facet normal -0.951056 -0.309017 0
    outer loop
      vertex 2.5 0 25
      vertex 2.02254 1.46946 25
      vertex 2.5 0 0.046508
    endloop
  endfacet
  facet normal -0.951056 -0.309017 0
    outer loop
      vertex 2.5 0 0.046508
      vertex 2.02254 1.46946 25
      vertex 2.02254 1.46946 0.046508
    endloop
  endfacet
  facet normal -0.951056 0.309017 0
    outer loop
      vertex 2.5 0 25
      vertex 2.5 0 0.046508
      vertex 2.02254 -1.46946 25
    endloop
  endfacet
  facet normal -0.951056 0.309017 0
    outer loop
      vertex 2.02254 -1.46946 25
      vertex 2.5 0 0.046508
      vertex 2.02254 -1.46946 0.046508
    endloop
  endfacet
  facet normal -0.587785 0.809017 0
    outer loop
      vertex 2.02254 -1.46946 25
      vertex 2.02254 -1.46946 0.046508
      vertex 0.772542 -2.37764 25
    endloop
  endfacet
  facet normal -0.587785 0.809017 0
    outer loop
      vertex 0.772542 -2.37764 25
      vertex 2.02254 -1.46946 0.046508
      vertex 0.772542 -2.37764 0.046508
    endloop
  endfacet
  facet normal 0 1 0
    outer loop
      vertex 0.772542 -2.37764 25
      vertex 0.772542 -2.37764 0.046508
      vertex -0.772542 -2.37764 25
    endloop
  endfacet
  facet normal 0 1 0
    outer loop
      vertex -0.772542 -2.37764 25
      vertex 0.772542 -2.37764 0.046508
      vertex -0.772542 -2.37764 0.046508
    endloop
  endfacet
  facet normal 0.587785 0.809017 0
    outer loop
      vertex -0.772542 -2.37764 25
      vertex -0.772542 -2.37764 0.046508
      vertex -2.02254 -1.46946 25
    endloop
  endfacet
  facet normal 0.587785 0.809017 0
    outer loop
      vertex -2.02254 -1.46946 25
      vertex -0.772542 -2.37764 0.046508
      vertex -2.02254 -1.46946 0.046508
    endloop
  endfacet
  facet normal -0.154508 -0.475528 -0.866025
    outer loop
      vertex 3.47538 17.1682 5.16025
      vertex 4.40635 20.0335 3.42087
      vertex 8.21801 18.8203 3.40699
    endloop
  endfacet
  facet normal -0.154508 -0.475528 -0.866025
    outer loop
      vertex 3.47538 17.1682 5.16025
      vertex 8.21801 18.8203 3.40699
      vertex 7.2796 15.9322 5.16025
    endloop
  endfacet
  facet normal -0.154508 -0.475528 -0.866025
    outer loop
      vertex 3.47538 17.1682 5.16025
      vertex 9.06231 11.7106 7.16025
      vertex 0.622208 18.0953 5.16025
    endloop
  endfacet
  facet normal -0.154508 -0.475528 -0.866025
    outer loop
      vertex 7.2796 15.9322 5.16025
      vertex 10.1328 15.0051 5.16025
      vertex 9.06231 11.7106 7.16025
    endloop
  endfacet
  facet normal -0.154508 -0.475528 -0.866025
    outer loop
      vertex 7.2796 15.9322 5.16025
      vertex 9.06231 11.7106 7.16025
      vertex 3.47538 17.1682 5.16025
    endloop
  endfacet
  facet normal -0.154508 -0.475528 -0.866025
    outer loop
      vertex 9.06231 11.7106 7.16025
      vertex -0.448259 14.8007 7.16025
      vertex 0.622208 18.0953 5.16025
    endloop
  endfacet
  facet normal -0.5 0 -0.866025
    outer loop
      vertex 20.1012 -4.92322e-015 3.6018
      vertex 20.1109 -1.61339 3.5962
      vertex 13.9378 -3.41367e-015 7.16025
    endloop
  endfacet
  facet normal -0.5 0 -0.866025
    outer loop
      vertex 13.9378 -3.41367e-015 7.16025
      vertex 20.1109 -1.61339 3.5962
      vertex 20.1133 -2 3.59486
    endloop
  endfacet
  facet normal -0.5 0 -0.866025
    outer loop
      vertex 13.9378 -3.41367e-015 7.16025
      vertex 20.1133 -2 3.59486
      vertex 17.4019 -2 5.16025
    endloop
  endfacet
  facet normal -0.5 0 -0.866025
    outer loop
      vertex 13.9378 -3.41367e-015 7.16025
      vertex 17.4019 -2 5.16025
      vertex 17.4019 -5 5.16025
    endloop
  endfacet
  facet normal -0.5 0 -0.866025
    outer loop
      vertex 13.9378 -3.41367e-015 7.16025
      vertex 17.4019 -5 5.16025
      vertex 13.9378 -5 7.16025
    endloop
  endfacet
  facet normal -0.154508 0.475528 -0.866025
    outer loop
      vertex 10.1328 -15.0051 5.16025
      vertex 7.2796 -15.9322 5.16025
      vertex 9.06231 -11.7106 7.16025
    endloop
  endfacet
  facet normal -0.154508 0.475528 -0.866025
    outer loop
      vertex 4.54512 -19.489 3.69507
      vertex 7.2796 -15.9322 5.16025
      vertex 8.05695 -18.3246 3.70791
    endloop
  endfacet
  facet normal -0.154508 0.475528 -0.866025
    outer loop
      vertex 9.06231 -11.7106 7.16025
      vertex 4.26015 -19.5835 3.69403
      vertex 3.47538 -17.1682 5.16025
    endloop
  endfacet
  facet normal -0.154508 0.475528 -0.866025
    outer loop
      vertex 9.06231 -11.7106 7.16025
      vertex 3.47538 -17.1682 5.16025
      vertex 0.622208 -18.0953 5.16025
    endloop
  endfacet
  facet normal -0.154508 0.475528 -0.866025
    outer loop
      vertex 9.06231 -11.7106 7.16025
      vertex 0.622208 -18.0953 5.16025
      vertex -0.448259 -14.8007 7.16025
    endloop
  endfacet
  facet normal -0.154508 0.475528 -0.866025
    outer loop
      vertex 4.26015 -19.5835 3.69403
      vertex 9.06231 -11.7106 7.16025
      vertex 7.2796 -15.9322 5.16025
    endloop
  endfacet
  facet normal -0.154508 0.475528 -0.866025
    outer loop
      vertex 4.26015 -19.5835 3.69403
      vertex 7.2796 -15.9322 5.16025
      vertex 4.54512 -19.489 3.69507
    endloop
  endfacet
  facet normal -0.5 1.22461e-016 -0.866025
    outer loop
      vertex 17.4019 5 5.16025
      vertex 17.4019 2 5.16025
      vertex 13.9378 5 7.16025
    endloop
  endfacet
  facet normal -0.5 1.22461e-016 -0.866025
    outer loop
      vertex 20.1012 -4.92322e-015 3.6018
      vertex 17.4019 2 5.16025
      vertex 20.0892 2 3.60874
    endloop
  endfacet
  facet normal -0.5 1.22461e-016 -0.866025
    outer loop
      vertex 13.9378 -3.41367e-015 7.16025
      vertex 17.4019 2 5.16025
      vertex 20.1012 -4.92322e-015 3.6018
    endloop
  endfacet
  facet normal -0.5 1.22461e-016 -0.866025
    outer loop
      vertex 13.9378 5 7.16025
      vertex 17.4019 2 5.16025
      vertex 13.9378 -3.41367e-015 7.16025
    endloop
  endfacet
  facet normal 0 0 -1
    outer loop
      vertex -0.772542 2.37764 25
      vertex 0.772542 2.37764 25
      vertex -2.02254 1.46946 25
    endloop
  endfacet
  facet normal 0 0 -1
    outer loop
      vertex -2.02254 1.46946 25
      vertex 0.772542 2.37764 25
      vertex 2.02254 1.46946 25
    endloop
  endfacet
  facet normal 0 0 -1
    outer loop
      vertex -2.02254 1.46946 25
      vertex 2.02254 1.46946 25
      vertex 2.5 0 25
    endloop
  endfacet
  facet normal 0 0 -1
    outer loop
      vertex -2.02254 1.46946 25
      vertex 2.5 0 25
      vertex 2.02254 -1.46946 25
    endloop
  endfacet
  facet normal 0 0 -1
    outer loop
      vertex -2.02254 1.46946 25
      vertex 2.02254 -1.46946 25
      vertex 0.772542 -2.37764 25
    endloop
  endfacet
  facet normal 0 0 -1
    outer loop
      vertex -2.02254 1.46946 25
      vertex 0.772542 -2.37764 25
      vertex -0.772542 -2.37764 25
    endloop
  endfacet
  facet normal 0 0 -1
    outer loop
      vertex -2.02254 1.46946 25
      vertex -0.772542 -2.37764 25
      vertex -2.02254 -1.46946 25
    endloop
  endfacet
  facet normal 0 0 -1
    outer loop
      vertex -2.02254 1.46946 25
      vertex -2.02254 -1.46946 25
      vertex -2.5 0 25
    endloop
  endfacet
endsolid OpenSCAD_Model
