solid ascii
  facet normal 0.000000e+000 0.000000e+000 -1.000000e+000
    outer loop
      vertex   9.237604e+000 -2.000000e+001 4.800000e+001
      vertex   -9.237604e+000 -2.000000e+001 4.800000e+001
      vertex   1.039230e+001 -1.800000e+001 4.800000e+001
    endloop
  endfacet
  facet normal -0.000000e+000 0.000000e+000 -1.000000e+000
    outer loop
      vertex   1.039230e+001 -1.800000e+001 4.800000e+001
      vertex   -9.237604e+000 -2.000000e+001 4.800000e+001
      vertex   -1.039230e+001 -1.800000e+001 4.800000e+001
    endloop
  endfacet
  facet normal -3.845925e-015 -2.220446e-015 -1.000000e+000
    outer loop
      vertex   -9.237604e+000 -2.000000e+001 -5.000000e+001
      vertex   -1.154701e+001 -2.000000e+001 -5.000000e+001
      vertex   -2.078461e+001 1.952142e-014 -5.000000e+001
    endloop
  endfacet
  facet normal -3.845925e-015 -2.220446e-015 -1.000000e+000
    outer loop
      vertex   -2.078461e+001 1.952142e-014 -5.000000e+001
      vertex   -1.154701e+001 -2.000000e+001 -5.000000e+001
      vertex   -2.309401e+001 2.442491e-014 -5.000000e+001
    endloop
  endfacet
  facet normal -3.845925e-015 2.220446e-015 -1.000000e+000
    outer loop
      vertex   -1.039230e+001 1.800000e+001 -5.000000e+001
      vertex   -2.309401e+001 2.442491e-014 -5.000000e+001
      vertex   -1.154701e+001 2.000000e+001 -5.000000e+001
    endloop
  endfacet
  facet normal 2.134917e-030 4.440892e-015 -1.000000e+000
    outer loop
      vertex   1.154701e+001 2.000000e+001 -5.000000e+001
      vertex   -1.039230e+001 1.800000e+001 -5.000000e+001
      vertex   -1.154701e+001 2.000000e+001 -5.000000e+001
    endloop
  endfacet
  facet normal 1.897704e-030 4.440892e-015 -1.000000e+000
    outer loop
      vertex   1.154701e+001 2.000000e+001 -5.000000e+001
      vertex   1.039230e+001 1.800000e+001 -5.000000e+001
      vertex   -1.039230e+001 1.800000e+001 -5.000000e+001
    endloop
  endfacet
  facet normal 3.845925e-015 2.220446e-015 -1.000000e+000
    outer loop
      vertex   1.154701e+001 2.000000e+001 -5.000000e+001
      vertex   2.309401e+001 -8.881784e-015 -5.000000e+001
      vertex   1.039230e+001 1.800000e+001 -5.000000e+001
    endloop
  endfacet
  facet normal 3.845925e-015 2.220446e-015 -1.000000e+000
    outer loop
      vertex   1.039230e+001 1.800000e+001 -5.000000e+001
      vertex   2.309401e+001 -8.881784e-015 -5.000000e+001
      vertex   2.078461e+001 -6.846375e-015 -5.000000e+001
    endloop
  endfacet
  facet normal 3.845925e-015 -2.220446e-015 -1.000000e+000
    outer loop
      vertex   2.078461e+001 -6.846375e-015 -5.000000e+001
      vertex   2.309401e+001 -8.881784e-015 -5.000000e+001
      vertex   1.154701e+001 -2.000000e+001 -5.000000e+001
    endloop
  endfacet
  facet normal 3.845925e-015 -2.220446e-015 -1.000000e+000
    outer loop
      vertex   9.237604e+000 -2.000000e+001 -5.000000e+001
      vertex   2.078461e+001 -6.846375e-015 -5.000000e+001
      vertex   1.154701e+001 -2.000000e+001 -5.000000e+001
    endloop
  endfacet
  facet normal -3.845925e-015 2.220446e-015 -1.000000e+000
    outer loop
      vertex   -1.039230e+001 1.800000e+001 -5.000000e+001
      vertex   -2.078461e+001 1.952142e-014 -5.000000e+001
      vertex   -2.309401e+001 2.442491e-014 -5.000000e+001
    endloop
  endfacet
  facet normal 5.288147e-014 -1.000000e+000 0.000000e+000
    outer loop
      vertex   -9.237604e+000 -2.000000e+001 -5.000000e+001
      vertex   -9.237604e+000 -2.000000e+001 4.800000e+001
      vertex   -1.154701e+001 -2.000000e+001 -5.000000e+001
    endloop
  endfacet
  facet normal 5.288147e-014 -1.000000e+000 0.000000e+000
    outer loop
      vertex   -1.154701e+001 -2.000000e+001 -5.000000e+001
      vertex   -9.237604e+000 -2.000000e+001 4.800000e+001
      vertex   -1.154701e+001 -2.000000e+001 5.000000e+001
    endloop
  endfacet
  facet normal -6.730369e-015 -1.000000e+000 -6.883383e-014
    outer loop
      vertex   -1.154701e+001 -2.000000e+001 5.000000e+001
      vertex   -9.237604e+000 -2.000000e+001 4.800000e+001
      vertex   9.237604e+000 -2.000000e+001 4.800000e+001
    endloop
  endfacet
  facet normal -6.730369e-015 -1.000000e+000 0.000000e+000
    outer loop
      vertex   1.154701e+001 -2.000000e+001 5.000000e+001
      vertex   9.237604e+000 -2.000000e+001 4.800000e+001
      vertex   1.154701e+001 -2.000000e+001 -5.000000e+001
    endloop
  endfacet
  facet normal -7.691851e-016 -1.000000e+000 -6.883383e-015
    outer loop
      vertex   1.154701e+001 -2.000000e+001 5.000000e+001
      vertex   -1.154701e+001 -2.000000e+001 5.000000e+001
      vertex   9.237604e+000 -2.000000e+001 4.800000e+001
    endloop
  endfacet
  facet normal -6.730369e-015 -1.000000e+000 -0.000000e+000
    outer loop
      vertex   9.237604e+000 -2.000000e+001 4.800000e+001
      vertex   9.237604e+000 -2.000000e+001 -5.000000e+001
      vertex   1.154701e+001 -2.000000e+001 -5.000000e+001
    endloop
  endfacet
  facet normal -3.535534e-001 -6.123724e-001 7.071068e-001
    outer loop
      vertex   -1.157051e+001 1.995929e+001 1.040000e+002
      vertex   -1.732051e+001 1.000000e+001 9.250000e+001
      vertex   -1.150000e+001 1.991858e+001 1.040000e+002
    endloop
  endfacet
  facet normal -3.535534e-001 -6.123724e-001 7.071068e-001
    outer loop
      vertex   -1.150000e+001 1.991858e+001 1.040000e+002
      vertex   -1.732051e+001 1.000000e+001 9.250000e+001
      vertex   4.440892e-015 4.662937e-014 9.250000e+001
    endloop
  endfacet
  facet normal 3.535534e-001 6.123724e-001 7.071068e-001
    outer loop
      vertex   -2.307051e+001 4.070786e-002 1.040000e+002
      vertex   -2.300000e+001 7.105427e-014 1.040000e+002
      vertex   -1.732051e+001 1.000000e+001 9.250000e+001
    endloop
  endfacet
  facet normal 3.535534e-001 6.123724e-001 7.071068e-001
    outer loop
      vertex   -1.732051e+001 1.000000e+001 9.250000e+001
      vertex   -2.300000e+001 7.105427e-014 1.040000e+002
      vertex   4.440892e-015 4.662937e-014 9.250000e+001
    endloop
  endfacet
  facet normal 3.535534e-001 6.123724e-001 7.071068e-001
    outer loop
      vertex   1.157051e+001 -1.995929e+001 1.040000e+002
      vertex   1.732051e+001 -1.000000e+001 9.250000e+001
      vertex   1.150000e+001 -1.991858e+001 1.040000e+002
    endloop
  endfacet
  facet normal 3.535534e-001 6.123724e-001 7.071068e-001
    outer loop
      vertex   1.150000e+001 -1.991858e+001 1.040000e+002
      vertex   1.732051e+001 -1.000000e+001 9.250000e+001
      vertex   4.440892e-015 4.662937e-014 9.250000e+001
    endloop
  endfacet
  facet normal -3.535534e-001 -6.123724e-001 7.071068e-001
    outer loop
      vertex   2.307051e+001 -4.070786e-002 1.040000e+002
      vertex   2.300000e+001 5.478257e-014 1.040000e+002
      vertex   1.732051e+001 -1.000000e+001 9.250000e+001
    endloop
  endfacet
  facet normal -3.535534e-001 -6.123724e-001 7.071068e-001
    outer loop
      vertex   1.732051e+001 -1.000000e+001 9.250000e+001
      vertex   2.300000e+001 5.478257e-014 1.040000e+002
      vertex   4.440892e-015 4.662937e-014 9.250000e+001
    endloop
  endfacet
  facet normal 8.660254e-001 -5.000000e-001 7.233193e-016
    outer loop
      vertex   2.309401e+001 -8.881784e-015 1.040000e+002
      vertex   2.307051e+001 -4.070786e-002 1.040000e+002
      vertex   2.309401e+001 -6.125774e-015 7.400000e+001
    endloop
  endfacet
  facet normal 8.660254e-001 -5.000000e-001 7.013384e-016
    outer loop
      vertex   2.309401e+001 -6.125774e-015 7.400000e+001
      vertex   2.307051e+001 -4.070786e-002 1.040000e+002
      vertex   1.732051e+001 -1.000000e+001 9.250000e+001
    endloop
  endfacet
  facet normal 8.660254e-001 -5.000000e-001 6.409876e-016
    outer loop
      vertex   1.154701e+001 -2.000000e+001 7.400000e+001
      vertex   1.732051e+001 -1.000000e+001 9.250000e+001
      vertex   1.154701e+001 -2.000000e+001 1.040000e+002
    endloop
  endfacet
  facet normal 8.660254e-001 -5.000000e-001 1.143383e-015
    outer loop
      vertex   1.154701e+001 -2.000000e+001 7.400000e+001
      vertex   2.309401e+001 -6.125774e-015 7.400000e+001
      vertex   1.732051e+001 -1.000000e+001 9.250000e+001
    endloop
  endfacet
  facet normal 8.660254e-001 -5.000000e-001 6.578679e-015
    outer loop
      vertex   1.732051e+001 -1.000000e+001 9.250000e+001
      vertex   1.157051e+001 -1.995929e+001 1.040000e+002
      vertex   1.154701e+001 -2.000000e+001 1.040000e+002
    endloop
  endfacet
  facet normal 1.889525e-013 3.272753e-013 1.000000e+000
    outer loop
      vertex   1.157051e+001 -1.995929e+001 1.040000e+002
      vertex   1.150000e+001 -1.991858e+001 1.040000e+002
      vertex   1.154701e+001 -2.000000e+001 1.040000e+002
    endloop
  endfacet
  facet normal -3.779050e-013 0.000000e+000 1.000000e+000
    outer loop
      vertex   1.154701e+001 -2.000000e+001 1.040000e+002
      vertex   1.150000e+001 -1.991858e+001 1.040000e+002
      vertex   1.150000e+001 -2.000000e+001 1.040000e+002
    endloop
  endfacet
  facet normal -7.071068e-001 6.888590e-016 7.071068e-001
    outer loop
      vertex   4.440892e-015 4.662937e-014 9.250000e+001
      vertex   -1.504298e-014 -2.000000e+001 9.250000e+001
      vertex   1.150000e+001 -1.991858e+001 1.040000e+002
    endloop
  endfacet
  facet normal -7.071068e-001 0.000000e+000 7.071068e-001
    outer loop
      vertex   1.150000e+001 -1.991858e+001 1.040000e+002
      vertex   -1.504298e-014 -2.000000e+001 9.250000e+001
      vertex   1.150000e+001 -2.000000e+001 1.040000e+002
    endloop
  endfacet
  facet normal 1.889525e-013 3.272753e-013 1.000000e+000
    outer loop
      vertex   -2.307051e+001 4.070786e-002 1.040000e+002
      vertex   -2.309401e+001 2.886580e-014 1.040000e+002
      vertex   -2.300000e+001 7.105427e-014 1.040000e+002
    endloop
  endfacet
  facet normal 1.889525e-013 1.090918e-013 1.000000e+000
    outer loop
      vertex   -2.300000e+001 7.105427e-014 1.040000e+002
      vertex   -2.309401e+001 2.886580e-014 1.040000e+002
      vertex   -2.307051e+001 -4.070786e-002 1.040000e+002
    endloop
  endfacet
  facet normal -0.000000e+000 -0.000000e+000 1.000000e+000
    outer loop
      vertex   -1.157051e+001 1.995929e+001 1.040000e+002
      vertex   -1.150000e+001 1.991858e+001 1.040000e+002
      vertex   -1.154701e+001 2.000000e+001 1.040000e+002
    endloop
  endfacet
  facet normal 3.779050e-013 2.181835e-013 1.000000e+000
    outer loop
      vertex   -1.154701e+001 2.000000e+001 1.040000e+002
      vertex   -1.150000e+001 1.991858e+001 1.040000e+002
      vertex   -1.150000e+001 2.000000e+001 1.040000e+002
    endloop
  endfacet
  facet normal 7.071068e-001 -3.748405e-016 7.071068e-001
    outer loop
      vertex   4.440892e-015 4.662937e-014 9.250000e+001
      vertex   1.504298e-014 2.000000e+001 9.250000e+001
      vertex   -1.150000e+001 1.991858e+001 1.040000e+002
    endloop
  endfacet
  facet normal 7.071068e-001 -3.353893e-014 7.071068e-001
    outer loop
      vertex   -1.150000e+001 1.991858e+001 1.040000e+002
      vertex   1.504298e-014 2.000000e+001 9.250000e+001
      vertex   -1.150000e+001 2.000000e+001 1.040000e+002
    endloop
  endfacet
  facet normal 3.535534e-001 -6.123724e-001 7.071068e-001
    outer loop
      vertex   4.440892e-015 4.662937e-014 9.250000e+001
      vertex   -2.300000e+001 7.105427e-014 1.040000e+002
      vertex   -1.732051e+001 -1.000000e+001 9.250000e+001
    endloop
  endfacet
  facet normal 3.535534e-001 -6.123724e-001 7.071068e-001
    outer loop
      vertex   -1.732051e+001 -1.000000e+001 9.250000e+001
      vertex   -2.300000e+001 7.105427e-014 1.040000e+002
      vertex   -2.307051e+001 -4.070786e-002 1.040000e+002
    endloop
  endfacet
  facet normal -3.535534e-001 6.123724e-001 7.071068e-001
    outer loop
      vertex   4.440892e-015 4.662937e-014 9.250000e+001
      vertex   2.300000e+001 5.478257e-014 1.040000e+002
      vertex   1.732051e+001 1.000000e+001 9.250000e+001
    endloop
  endfacet
  facet normal -3.535534e-001 6.123724e-001 7.071068e-001
    outer loop
      vertex   1.732051e+001 1.000000e+001 9.250000e+001
      vertex   2.300000e+001 5.478257e-014 1.040000e+002
      vertex   2.307051e+001 4.070786e-002 1.040000e+002
    endloop
  endfacet
  facet normal 3.535534e-001 -6.123724e-001 7.071068e-001
    outer loop
      vertex   4.440892e-015 4.662937e-014 9.250000e+001
      vertex   1.732051e+001 1.000000e+001 9.250000e+001
      vertex   1.150000e+001 1.991858e+001 1.040000e+002
    endloop
  endfacet
  facet normal 3.535534e-001 -6.123724e-001 7.071068e-001
    outer loop
      vertex   1.150000e+001 1.991858e+001 1.040000e+002
      vertex   1.732051e+001 1.000000e+001 9.250000e+001
      vertex   1.157051e+001 1.995929e+001 1.040000e+002
    endloop
  endfacet
  facet normal -3.535534e-001 6.123724e-001 7.071068e-001
    outer loop
      vertex   -1.157051e+001 -1.995929e+001 1.040000e+002
      vertex   -1.150000e+001 -1.991858e+001 1.040000e+002
      vertex   -1.732051e+001 -1.000000e+001 9.250000e+001
    endloop
  endfacet
  facet normal -3.535534e-001 6.123724e-001 7.071068e-001
    outer loop
      vertex   -1.732051e+001 -1.000000e+001 9.250000e+001
      vertex   -1.150000e+001 -1.991858e+001 1.040000e+002
      vertex   4.440892e-015 4.662937e-014 9.250000e+001
    endloop
  endfacet
  facet normal -1.889525e-013 3.272753e-013 1.000000e+000
    outer loop
      vertex   -1.157051e+001 -1.995929e+001 1.040000e+002
      vertex   -1.154701e+001 -2.000000e+001 1.040000e+002
      vertex   -1.150000e+001 -1.991858e+001 1.040000e+002
    endloop
  endfacet
  facet normal 3.779050e-013 -4.122632e-026 1.000000e+000
    outer loop
      vertex   -1.150000e+001 -1.991858e+001 1.040000e+002
      vertex   -1.154701e+001 -2.000000e+001 1.040000e+002
      vertex   -1.150000e+001 -2.000000e+001 1.040000e+002
    endloop
  endfacet
  facet normal 7.071068e-001 -6.826489e-016 7.071068e-001
    outer loop
      vertex   4.440892e-015 4.662937e-014 9.250000e+001
      vertex   -1.150000e+001 -1.991858e+001 1.040000e+002
      vertex   -1.504298e-014 -2.000000e+001 9.250000e+001
    endloop
  endfacet
  facet normal 7.071068e-001 -7.713953e-014 7.071068e-001
    outer loop
      vertex   -1.504298e-014 -2.000000e+001 9.250000e+001
      vertex   -1.150000e+001 -1.991858e+001 1.040000e+002
      vertex   -1.150000e+001 -2.000000e+001 1.040000e+002
    endloop
  endfacet
  facet normal -7.071068e-001 4.095893e-016 7.071068e-001
    outer loop
      vertex   4.440892e-015 4.662937e-014 9.250000e+001
      vertex   1.150000e+001 1.991858e+001 1.040000e+002
      vertex   1.504298e-014 2.000000e+001 9.250000e+001
    endloop
  endfacet
  facet normal -7.071068e-001 0.000000e+000 7.071068e-001
    outer loop
      vertex   1.504298e-014 2.000000e+001 9.250000e+001
      vertex   1.150000e+001 1.991858e+001 1.040000e+002
      vertex   1.150000e+001 2.000000e+001 1.040000e+002
    endloop
  endfacet
  facet normal 1.889525e-013 -3.272753e-013 1.000000e+000
    outer loop
      vertex   1.157051e+001 1.995929e+001 1.040000e+002
      vertex   1.154701e+001 2.000000e+001 1.040000e+002
      vertex   1.150000e+001 1.991858e+001 1.040000e+002
    endloop
  endfacet
  facet normal -3.779050e-013 0.000000e+000 1.000000e+000
    outer loop
      vertex   1.150000e+001 1.991858e+001 1.040000e+002
      vertex   1.154701e+001 2.000000e+001 1.040000e+002
      vertex   1.150000e+001 2.000000e+001 1.040000e+002
    endloop
  endfacet
  facet normal 4.723812e-014 -1.000000e+000 8.141636e-016
    outer loop
      vertex   1.154701e+001 -2.000000e+001 1.040000e+002
      vertex   1.150000e+001 -2.000000e+001 1.040000e+002
      vertex   1.154701e+001 -2.000000e+001 7.400000e+001
    endloop
  endfacet
  facet normal -1.510112e-015 -1.000000e+000 7.377826e-016
    outer loop
      vertex   1.154701e+001 -2.000000e+001 7.400000e+001
      vertex   1.150000e+001 -2.000000e+001 1.040000e+002
      vertex   -1.504298e-014 -2.000000e+001 9.250000e+001
    endloop
  endfacet
  facet normal -3.717728e-016 -1.000000e+000 5.921189e-016
    outer loop
      vertex   -1.154701e+001 -2.000000e+001 7.400000e+001
      vertex   -1.504298e-014 -2.000000e+001 9.250000e+001
      vertex   -1.154701e+001 -2.000000e+001 1.040000e+002
    endloop
  endfacet
  facet normal -1.057629e-015 -1.000000e+000 1.020205e-015
    outer loop
      vertex   -1.154701e+001 -2.000000e+001 7.400000e+001
      vertex   1.154701e+001 -2.000000e+001 7.400000e+001
      vertex   -1.504298e-014 -2.000000e+001 9.250000e+001
    endloop
  endfacet
  facet normal -4.723812e-014 -1.000000e+000 -4.646579e-014
    outer loop
      vertex   -1.504298e-014 -2.000000e+001 9.250000e+001
      vertex   -1.150000e+001 -2.000000e+001 1.040000e+002
      vertex   -1.154701e+001 -2.000000e+001 1.040000e+002
    endloop
  endfacet
  facet normal -8.660254e-001 -5.000000e-001 -1.508282e-014
    outer loop
      vertex   -2.307051e+001 -4.070786e-002 1.040000e+002
      vertex   -2.309401e+001 2.886580e-014 1.040000e+002
      vertex   -1.732051e+001 -1.000000e+001 9.250000e+001
    endloop
  endfacet
  facet normal -8.660254e-001 -5.000000e-001 6.591909e-016
    outer loop
      vertex   -1.732051e+001 -1.000000e+001 9.250000e+001
      vertex   -2.309401e+001 2.886580e-014 1.040000e+002
      vertex   -2.309401e+001 2.008175e-014 7.400000e+001
    endloop
  endfacet
  facet normal -8.660254e-001 -5.000000e-001 1.221341e-015
    outer loop
      vertex   -1.154701e+001 -2.000000e+001 7.400000e+001
      vertex   -1.732051e+001 -1.000000e+001 9.250000e+001
      vertex   -2.309401e+001 2.008175e-014 7.400000e+001
    endloop
  endfacet
  facet normal -8.660254e-001 -5.000000e-001 7.217962e-016
    outer loop
      vertex   -1.154701e+001 -2.000000e+001 7.400000e+001
      vertex   -1.157051e+001 -1.995929e+001 1.040000e+002
      vertex   -1.732051e+001 -1.000000e+001 9.250000e+001
    endloop
  endfacet
  facet normal -8.660254e-001 -5.000000e-001 6.165533e-016
    outer loop
      vertex   -1.154701e+001 -2.000000e+001 7.400000e+001
      vertex   -1.154701e+001 -2.000000e+001 1.040000e+002
      vertex   -1.157051e+001 -1.995929e+001 1.040000e+002
    endloop
  endfacet
  facet normal -8.660254e-001 5.000000e-001 -3.305385e-014
    outer loop
      vertex   -1.157051e+001 1.995929e+001 1.040000e+002
      vertex   -1.154701e+001 2.000000e+001 1.040000e+002
      vertex   -1.732051e+001 1.000000e+001 9.250000e+001
    endloop
  endfacet
  facet normal -8.660254e-001 5.000000e-001 5.081880e-016
    outer loop
      vertex   -1.732051e+001 1.000000e+001 9.250000e+001
      vertex   -1.154701e+001 2.000000e+001 1.040000e+002
      vertex   -1.154701e+001 2.000000e+001 7.400000e+001
    endloop
  endfacet
  facet normal -8.660254e-001 5.000000e-001 9.874673e-016
    outer loop
      vertex   -2.309401e+001 2.008175e-014 7.400000e+001
      vertex   -1.732051e+001 1.000000e+001 9.250000e+001
      vertex   -1.154701e+001 2.000000e+001 7.400000e+001
    endloop
  endfacet
  facet normal -8.660254e-001 5.000000e-001 7.983561e-016
    outer loop
      vertex   -2.309401e+001 2.008175e-014 7.400000e+001
      vertex   -2.307051e+001 4.070786e-002 1.040000e+002
      vertex   -1.732051e+001 1.000000e+001 9.250000e+001
    endloop
  endfacet
  facet normal -8.660254e-001 5.000000e-001 3.663892e-016
    outer loop
      vertex   -2.309401e+001 2.008175e-014 7.400000e+001
      vertex   -2.309401e+001 2.886580e-014 1.040000e+002
      vertex   -2.307051e+001 4.070786e-002 1.040000e+002
    endloop
  endfacet
  facet normal 2.361906e-013 1.000000e+000 -2.359975e-013
    outer loop
      vertex   1.150000e+001 2.000000e+001 1.040000e+002
      vertex   1.154701e+001 2.000000e+001 1.040000e+002
      vertex   1.504298e-014 2.000000e+001 9.250000e+001
    endloop
  endfacet
  facet normal -9.935307e-017 1.000000e+000 1.258253e-015
    outer loop
      vertex   1.504298e-014 2.000000e+001 9.250000e+001
      vertex   1.154701e+001 2.000000e+001 1.040000e+002
      vertex   1.154701e+001 2.000000e+001 7.400000e+001
    endloop
  endfacet
  facet normal 1.922963e-016 1.000000e+000 1.440289e-015
    outer loop
      vertex   -1.154701e+001 2.000000e+001 7.400000e+001
      vertex   1.504298e-014 2.000000e+001 9.250000e+001
      vertex   1.154701e+001 2.000000e+001 7.400000e+001
    endloop
  endfacet
  facet normal 1.079569e-015 1.000000e+000 8.864869e-016
    outer loop
      vertex   -1.154701e+001 2.000000e+001 7.400000e+001
      vertex   -1.150000e+001 2.000000e+001 1.040000e+002
      vertex   1.504298e-014 2.000000e+001 9.250000e+001
    endloop
  endfacet
  facet normal 3.356470e-028 1.000000e+000 8.881784e-016
    outer loop
      vertex   -1.154701e+001 2.000000e+001 7.400000e+001
      vertex   -1.154701e+001 2.000000e+001 1.040000e+002
      vertex   -1.150000e+001 2.000000e+001 1.040000e+002
    endloop
  endfacet
  facet normal 8.660254e-001 5.000000e-001 9.948246e-015
    outer loop
      vertex   2.307051e+001 4.070786e-002 1.040000e+002
      vertex   2.309401e+001 -8.881784e-015 1.040000e+002
      vertex   1.732051e+001 1.000000e+001 9.250000e+001
    endloop
  endfacet
  facet normal 8.660254e-001 5.000000e-001 8.151186e-016
    outer loop
      vertex   1.732051e+001 1.000000e+001 9.250000e+001
      vertex   2.309401e+001 -8.881784e-015 1.040000e+002
      vertex   2.309401e+001 -6.125774e-015 7.400000e+001
    endloop
  endfacet
  facet normal 8.660254e-001 5.000000e-001 1.429229e-015
    outer loop
      vertex   1.154701e+001 2.000000e+001 7.400000e+001
      vertex   1.732051e+001 1.000000e+001 9.250000e+001
      vertex   2.309401e+001 -6.125774e-015 7.400000e+001
    endloop
  endfacet
  facet normal 8.660254e-001 5.000000e-001 1.022890e-015
    outer loop
      vertex   1.154701e+001 2.000000e+001 7.400000e+001
      vertex   1.157051e+001 1.995929e+001 1.040000e+002
      vertex   1.732051e+001 1.000000e+001 9.250000e+001
    endloop
  endfacet
  facet normal 8.660254e-001 5.000000e-001 1.013719e-015
    outer loop
      vertex   1.154701e+001 2.000000e+001 7.400000e+001
      vertex   1.154701e+001 2.000000e+001 1.040000e+002
      vertex   1.157051e+001 1.995929e+001 1.040000e+002
    endloop
  endfacet
  facet normal -1.889525e-013 -3.272753e-013 1.000000e+000
    outer loop
      vertex   2.307051e+001 -4.070786e-002 1.040000e+002
      vertex   2.309401e+001 -8.881784e-015 1.040000e+002
      vertex   2.300000e+001 5.478257e-014 1.040000e+002
    endloop
  endfacet
  facet normal -1.889525e-013 3.272753e-013 1.000000e+000
    outer loop
      vertex   2.300000e+001 5.478257e-014 1.040000e+002
      vertex   2.309401e+001 -8.881784e-015 1.040000e+002
      vertex   2.307051e+001 4.070786e-002 1.040000e+002
    endloop
  endfacet
  facet normal -6.123724e-001 3.535534e-001 -7.071068e-001
    outer loop
      vertex   -2.309401e+001 2.008175e-014 7.400000e+001
      vertex   -1.154701e+001 2.000000e+001 7.400000e+001
      vertex   -9.237604e+000 1.511004e-014 6.200000e+001
    endloop
  endfacet
  facet normal -6.123724e-001 3.535534e-001 -7.071068e-001
    outer loop
      vertex   -9.237604e+000 1.511004e-014 6.200000e+001
      vertex   -1.154701e+001 2.000000e+001 7.400000e+001
      vertex   -4.618802e+000 8.000000e+000 6.200000e+001
    endloop
  endfacet
  facet normal 1.359740e-016 7.071068e-001 -7.071068e-001
    outer loop
      vertex   -1.154701e+001 2.000000e+001 7.400000e+001
      vertex   1.154701e+001 2.000000e+001 7.400000e+001
      vertex   -4.618802e+000 8.000000e+000 6.200000e+001
    endloop
  endfacet
  facet normal 0.000000e+000 7.071068e-001 -7.071068e-001
    outer loop
      vertex   -4.618802e+000 8.000000e+000 6.200000e+001
      vertex   1.154701e+001 2.000000e+001 7.400000e+001
      vertex   4.618802e+000 8.000000e+000 6.200000e+001
    endloop
  endfacet
  facet normal 6.123724e-001 3.535534e-001 -7.071068e-001
    outer loop
      vertex   1.154701e+001 2.000000e+001 7.400000e+001
      vertex   2.309401e+001 -6.125774e-015 7.400000e+001
      vertex   4.618802e+000 8.000000e+000 6.200000e+001
    endloop
  endfacet
  facet normal 6.123724e-001 3.535534e-001 -7.071068e-001
    outer loop
      vertex   4.618802e+000 8.000000e+000 6.200000e+001
      vertex   2.309401e+001 -6.125774e-015 7.400000e+001
      vertex   9.237604e+000 -3.330669e-015 6.200000e+001
    endloop
  endfacet
  facet normal 6.123724e-001 -3.535534e-001 -7.071068e-001
    outer loop
      vertex   2.309401e+001 -6.125774e-015 7.400000e+001
      vertex   1.154701e+001 -2.000000e+001 7.400000e+001
      vertex   9.237604e+000 -3.330669e-015 6.200000e+001
    endloop
  endfacet
  facet normal 6.123724e-001 -3.535534e-001 -7.071068e-001
    outer loop
      vertex   9.237604e+000 -3.330669e-015 6.200000e+001
      vertex   1.154701e+001 -2.000000e+001 7.400000e+001
      vertex   4.618802e+000 -8.000000e+000 6.200000e+001
    endloop
  endfacet
  facet normal -7.478570e-016 -7.071068e-001 -7.071068e-001
    outer loop
      vertex   1.154701e+001 -2.000000e+001 7.400000e+001
      vertex   -1.154701e+001 -2.000000e+001 7.400000e+001
      vertex   4.618802e+000 -8.000000e+000 6.200000e+001
    endloop
  endfacet
  facet normal 1.416396e-016 -7.071068e-001 -7.071068e-001
    outer loop
      vertex   4.618802e+000 -8.000000e+000 6.200000e+001
      vertex   -1.154701e+001 -2.000000e+001 7.400000e+001
      vertex   -4.618802e+000 -8.000000e+000 6.200000e+001
    endloop
  endfacet
  facet normal -6.123724e-001 -3.535534e-001 -7.071068e-001
    outer loop
      vertex   -1.154701e+001 -2.000000e+001 7.400000e+001
      vertex   -2.309401e+001 2.008175e-014 7.400000e+001
      vertex   -4.618802e+000 -8.000000e+000 6.200000e+001
    endloop
  endfacet
  facet normal -6.123724e-001 -3.535534e-001 -7.071068e-001
    outer loop
      vertex   -4.618802e+000 -8.000000e+000 6.200000e+001
      vertex   -2.309401e+001 2.008175e-014 7.400000e+001
      vertex   -9.237604e+000 1.511004e-014 6.200000e+001
    endloop
  endfacet
  facet normal -6.123724e-001 -3.535534e-001 7.071068e-001
    outer loop
      vertex   -4.618802e+000 -8.000000e+000 6.200000e+001
      vertex   -9.237604e+000 1.511004e-014 6.200000e+001
      vertex   -1.154701e+001 -2.000000e+001 5.000000e+001
    endloop
  endfacet
  facet normal -6.123724e-001 -3.535534e-001 7.071068e-001
    outer loop
      vertex   -1.154701e+001 -2.000000e+001 5.000000e+001
      vertex   -9.237604e+000 1.511004e-014 6.200000e+001
      vertex   -2.309401e+001 2.442491e-014 5.000000e+001
    endloop
  endfacet
  facet normal -6.123724e-001 3.535534e-001 7.071068e-001
    outer loop
      vertex   -9.237604e+000 1.511004e-014 6.200000e+001
      vertex   -4.618802e+000 8.000000e+000 6.200000e+001
      vertex   -2.309401e+001 2.442491e-014 5.000000e+001
    endloop
  endfacet
  facet normal -6.123724e-001 3.535534e-001 7.071068e-001
    outer loop
      vertex   -2.309401e+001 2.442491e-014 5.000000e+001
      vertex   -4.618802e+000 8.000000e+000 6.200000e+001
      vertex   -1.154701e+001 2.000000e+001 5.000000e+001
    endloop
  endfacet
  facet normal -0.000000e+000 7.071068e-001 7.071068e-001
    outer loop
      vertex   -4.618802e+000 8.000000e+000 6.200000e+001
      vertex   4.618802e+000 8.000000e+000 6.200000e+001
      vertex   -1.154701e+001 2.000000e+001 5.000000e+001
    endloop
  endfacet
  facet normal 3.965908e-016 7.071068e-001 7.071068e-001
    outer loop
      vertex   -1.154701e+001 2.000000e+001 5.000000e+001
      vertex   4.618802e+000 8.000000e+000 6.200000e+001
      vertex   1.154701e+001 2.000000e+001 5.000000e+001
    endloop
  endfacet
  facet normal 6.123724e-001 3.535534e-001 7.071068e-001
    outer loop
      vertex   4.618802e+000 8.000000e+000 6.200000e+001
      vertex   9.237604e+000 -3.330669e-015 6.200000e+001
      vertex   1.154701e+001 2.000000e+001 5.000000e+001
    endloop
  endfacet
  facet normal 6.123724e-001 3.535534e-001 7.071068e-001
    outer loop
      vertex   1.154701e+001 2.000000e+001 5.000000e+001
      vertex   9.237604e+000 -3.330669e-015 6.200000e+001
      vertex   2.309401e+001 -8.881784e-015 5.000000e+001
    endloop
  endfacet
  facet normal 6.123724e-001 -3.535534e-001 7.071068e-001
    outer loop
      vertex   9.237604e+000 -3.330669e-015 6.200000e+001
      vertex   4.618802e+000 -8.000000e+000 6.200000e+001
      vertex   2.309401e+001 -8.881784e-015 5.000000e+001
    endloop
  endfacet
  facet normal 6.123724e-001 -3.535534e-001 7.071068e-001
    outer loop
      vertex   2.309401e+001 -8.881784e-015 5.000000e+001
      vertex   4.618802e+000 -8.000000e+000 6.200000e+001
      vertex   1.154701e+001 -2.000000e+001 5.000000e+001
    endloop
  endfacet
  facet normal 8.498375e-017 -7.071068e-001 7.071068e-001
    outer loop
      vertex   4.618802e+000 -8.000000e+000 6.200000e+001
      vertex   -4.618802e+000 -8.000000e+000 6.200000e+001
      vertex   1.154701e+001 -2.000000e+001 5.000000e+001
    endloop
  endfacet
  facet normal -5.099025e-016 -7.071068e-001 7.071068e-001
    outer loop
      vertex   1.154701e+001 -2.000000e+001 5.000000e+001
      vertex   -4.618802e+000 -8.000000e+000 6.200000e+001
      vertex   -1.154701e+001 -2.000000e+001 5.000000e+001
    endloop
  endfacet
  facet normal -8.660254e-001 -5.000000e-001 0.000000e+000
    outer loop
      vertex   -1.154701e+001 -2.000000e+001 5.000000e+001
      vertex   -2.309401e+001 2.442491e-014 5.000000e+001
      vertex   -1.154701e+001 -2.000000e+001 -5.000000e+001
    endloop
  endfacet
  facet normal -8.660254e-001 -5.000000e-001 -0.000000e+000
    outer loop
      vertex   -1.154701e+001 -2.000000e+001 -5.000000e+001
      vertex   -2.309401e+001 2.442491e-014 5.000000e+001
      vertex   -2.309401e+001 2.442491e-014 -5.000000e+001
    endloop
  endfacet
  facet normal -8.660254e-001 5.000000e-001 0.000000e+000
    outer loop
      vertex   -2.309401e+001 2.442491e-014 5.000000e+001
      vertex   -1.154701e+001 2.000000e+001 5.000000e+001
      vertex   -2.309401e+001 2.442491e-014 -5.000000e+001
    endloop
  endfacet
  facet normal -8.660254e-001 5.000000e-001 0.000000e+000
    outer loop
      vertex   -2.309401e+001 2.442491e-014 -5.000000e+001
      vertex   -1.154701e+001 2.000000e+001 5.000000e+001
      vertex   -1.154701e+001 2.000000e+001 -5.000000e+001
    endloop
  endfacet
  facet normal 4.807407e-016 1.000000e+000 0.000000e+000
    outer loop
      vertex   -1.154701e+001 2.000000e+001 5.000000e+001
      vertex   1.154701e+001 2.000000e+001 5.000000e+001
      vertex   -1.154701e+001 2.000000e+001 -5.000000e+001
    endloop
  endfacet
  facet normal 4.807407e-016 1.000000e+000 0.000000e+000
    outer loop
      vertex   -1.154701e+001 2.000000e+001 -5.000000e+001
      vertex   1.154701e+001 2.000000e+001 5.000000e+001
      vertex   1.154701e+001 2.000000e+001 -5.000000e+001
    endloop
  endfacet
  facet normal 8.660254e-001 5.000000e-001 0.000000e+000
    outer loop
      vertex   1.154701e+001 2.000000e+001 5.000000e+001
      vertex   2.309401e+001 -8.881784e-015 5.000000e+001
      vertex   1.154701e+001 2.000000e+001 -5.000000e+001
    endloop
  endfacet
  facet normal 8.660254e-001 5.000000e-001 0.000000e+000
    outer loop
      vertex   1.154701e+001 2.000000e+001 -5.000000e+001
      vertex   2.309401e+001 -8.881784e-015 5.000000e+001
      vertex   2.309401e+001 -8.881784e-015 -5.000000e+001
    endloop
  endfacet
  facet normal 8.660254e-001 -5.000000e-001 0.000000e+000
    outer loop
      vertex   2.309401e+001 -8.881784e-015 5.000000e+001
      vertex   1.154701e+001 -2.000000e+001 5.000000e+001
      vertex   2.309401e+001 -8.881784e-015 -5.000000e+001
    endloop
  endfacet
  facet normal 8.660254e-001 -5.000000e-001 0.000000e+000
    outer loop
      vertex   2.309401e+001 -8.881784e-015 -5.000000e+001
      vertex   1.154701e+001 -2.000000e+001 5.000000e+001
      vertex   1.154701e+001 -2.000000e+001 -5.000000e+001
    endloop
  endfacet
  facet normal 3.535534e-001 -6.123724e-001 -7.071068e-001
    outer loop
      vertex   2.078461e+001 3.511924e-014 1.000639e+002
      vertex   4.996004e-015 3.830269e-014 8.967157e+001
      vertex   1.558846e+001 9.000000e+000 8.967157e+001
    endloop
  endfacet
  facet normal -3.535534e-001 6.123724e-001 -7.071068e-001
    outer loop
      vertex   1.039230e+001 1.800000e+001 1.000639e+002
      vertex   1.558846e+001 9.000000e+000 8.967157e+001
      vertex   4.996004e-015 3.830269e-014 8.967157e+001
    endloop
  endfacet
  facet normal 7.071068e-001 -3.377135e-016 -7.071068e-001
    outer loop
      vertex   1.039230e+001 1.800000e+001 1.000639e+002
      vertex   4.996004e-015 3.830269e-014 8.967157e+001
      vertex   1.359278e-014 1.800000e+001 8.967157e+001
    endloop
  endfacet
  facet normal -7.071068e-001 3.377135e-016 -7.071068e-001
    outer loop
      vertex   -1.039230e+001 1.800000e+001 1.000639e+002
      vertex   1.359278e-014 1.800000e+001 8.967157e+001
      vertex   4.996004e-015 3.830269e-014 8.967157e+001
    endloop
  endfacet
  facet normal 3.535534e-001 6.123724e-001 -7.071068e-001
    outer loop
      vertex   -1.039230e+001 1.800000e+001 1.000639e+002
      vertex   4.996004e-015 3.830269e-014 8.967157e+001
      vertex   -1.558846e+001 9.000000e+000 8.967157e+001
    endloop
  endfacet
  facet normal -3.535534e-001 -6.123724e-001 -7.071068e-001
    outer loop
      vertex   -2.078461e+001 3.676633e-014 1.000639e+002
      vertex   -1.558846e+001 9.000000e+000 8.967157e+001
      vertex   4.996004e-015 3.830269e-014 8.967157e+001
    endloop
  endfacet
  facet normal -3.535534e-001 6.123724e-001 -7.071068e-001
    outer loop
      vertex   -2.078461e+001 3.676633e-014 1.000639e+002
      vertex   4.996004e-015 3.830269e-014 8.967157e+001
      vertex   -1.558846e+001 -9.000000e+000 8.967157e+001
    endloop
  endfacet
  facet normal 3.535534e-001 -6.123724e-001 -7.071068e-001
    outer loop
      vertex   -1.039230e+001 -1.800000e+001 1.000639e+002
      vertex   -1.558846e+001 -9.000000e+000 8.967157e+001
      vertex   4.996004e-015 3.830269e-014 8.967157e+001
    endloop
  endfacet
  facet normal 7.071068e-001 -7.343792e-016 -7.071068e-001
    outer loop
      vertex   1.039230e+001 -1.800000e+001 1.000639e+002
      vertex   -1.369824e-014 -1.800000e+001 8.967157e+001
      vertex   4.996004e-015 3.830269e-014 8.967157e+001
    endloop
  endfacet
  facet normal -7.071068e-001 7.343792e-016 -7.071068e-001
    outer loop
      vertex   -1.039230e+001 -1.800000e+001 1.000639e+002
      vertex   4.996004e-015 3.830269e-014 8.967157e+001
      vertex   -1.369824e-014 -1.800000e+001 8.967157e+001
    endloop
  endfacet
  facet normal 3.535534e-001 6.123724e-001 -7.071068e-001
    outer loop
      vertex   2.078461e+001 3.511924e-014 1.000639e+002
      vertex   1.558846e+001 -9.000000e+000 8.967157e+001
      vertex   4.996004e-015 3.830269e-014 8.967157e+001
    endloop
  endfacet
  facet normal -3.535534e-001 -6.123724e-001 -7.071068e-001
    outer loop
      vertex   1.039230e+001 -1.800000e+001 1.000639e+002
      vertex   4.996004e-015 3.830269e-014 8.967157e+001
      vertex   1.558846e+001 -9.000000e+000 8.967157e+001
    endloop
  endfacet
  facet normal -8.660254e-001 -5.000000e-001 -2.050259e-016
    outer loop
      vertex   1.039230e+001 1.800000e+001 1.000639e+002
      vertex   1.039230e+001 1.800000e+001 7.482843e+001
      vertex   1.558846e+001 9.000000e+000 8.967157e+001
    endloop
  endfacet
  facet normal -8.660254e-001 -5.000000e-001 3.598673e-017
    outer loop
      vertex   1.558846e+001 9.000000e+000 8.967157e+001
      vertex   1.039230e+001 1.800000e+001 7.482843e+001
      vertex   2.078461e+001 -7.586524e-015 7.482843e+001
    endloop
  endfacet
  facet normal -8.660254e-001 -5.000000e-001 7.196747e-016
    outer loop
      vertex   2.078461e+001 3.511924e-014 1.000639e+002
      vertex   1.558846e+001 9.000000e+000 8.967157e+001
      vertex   2.078461e+001 -7.586524e-015 7.482843e+001
    endloop
  endfacet
  facet normal -5.906826e-016 -1.000000e+000 2.639675e-016
    outer loop
      vertex   -1.039230e+001 1.800000e+001 1.000639e+002
      vertex   -1.039230e+001 1.800000e+001 7.482843e+001
      vertex   1.359278e-014 1.800000e+001 8.967157e+001
    endloop
  endfacet
  facet normal -3.204938e-016 -1.000000e+000 7.479702e-017
    outer loop
      vertex   1.359278e-014 1.800000e+001 8.967157e+001
      vertex   -1.039230e+001 1.800000e+001 7.482843e+001
      vertex   1.039230e+001 1.800000e+001 7.482843e+001
    endloop
  endfacet
  facet normal 7.536841e-017 -1.000000e+000 3.519566e-016
    outer loop
      vertex   1.039230e+001 1.800000e+001 1.000639e+002
      vertex   1.359278e-014 1.800000e+001 8.967157e+001
      vertex   1.039230e+001 1.800000e+001 7.482843e+001
    endloop
  endfacet
  facet normal 8.660254e-001 -5.000000e-001 4.205039e-016
    outer loop
      vertex   -2.078461e+001 3.676633e-014 1.000639e+002
      vertex   -2.078461e+001 1.554312e-014 7.482843e+001
      vertex   -1.558846e+001 9.000000e+000 8.967157e+001
    endloop
  endfacet
  facet normal 8.660254e-001 -5.000000e-001 3.598673e-016
    outer loop
      vertex   -1.558846e+001 9.000000e+000 8.967157e+001
      vertex   -2.078461e+001 1.554312e-014 7.482843e+001
      vertex   -1.039230e+001 1.800000e+001 7.482843e+001
    endloop
  endfacet
  facet normal 8.660254e-001 -5.000000e-001 -1.693352e-016
    outer loop
      vertex   -1.039230e+001 1.800000e+001 1.000639e+002
      vertex   -1.558846e+001 9.000000e+000 8.967157e+001
      vertex   -1.039230e+001 1.800000e+001 7.482843e+001
    endloop
  endfacet
  facet normal 8.660254e-001 5.000000e-001 1.524017e-016
    outer loop
      vertex   -1.039230e+001 -1.800000e+001 1.000639e+002
      vertex   -1.039230e+001 -1.800000e+001 7.482843e+001
      vertex   -1.558846e+001 -9.000000e+000 8.967157e+001
    endloop
  endfacet
  facet normal 8.660254e-001 5.000000e-001 1.079602e-016
    outer loop
      vertex   -1.558846e+001 -9.000000e+000 8.967157e+001
      vertex   -1.039230e+001 -1.800000e+001 7.482843e+001
      vertex   -2.078461e+001 1.554312e-014 7.482843e+001
    endloop
  endfacet
  facet normal 8.660254e-001 5.000000e-001 -4.233380e-016
    outer loop
      vertex   -2.078461e+001 3.676633e-014 1.000639e+002
      vertex   -1.558846e+001 -9.000000e+000 8.967157e+001
      vertex   -2.078461e+001 1.554312e-014 7.482843e+001
    endloop
  endfacet
  facet normal 1.068313e-015 1.000000e+000 1.503999e-031
    outer loop
      vertex   -1.039230e+001 -1.800000e+001 1.000639e+002
      vertex   -1.369824e-014 -1.800000e+001 8.967157e+001
      vertex   -1.039230e+001 -1.800000e+001 7.482843e+001
    endloop
  endfacet
  facet normal 8.546501e-016 1.000000e+000 1.495940e-016
    outer loop
      vertex   -1.039230e+001 -1.800000e+001 7.482843e+001
      vertex   -1.369824e-014 -1.800000e+001 8.967157e+001
      vertex   1.039230e+001 -1.800000e+001 7.482843e+001
    endloop
  endfacet
  facet normal 5.153142e-016 1.000000e+000 -8.798916e-017
    outer loop
      vertex   1.039230e+001 -1.800000e+001 7.482843e+001
      vertex   -1.369824e-014 -1.800000e+001 8.967157e+001
      vertex   1.039230e+001 -1.800000e+001 1.000639e+002
    endloop
  endfacet
  facet normal -8.660254e-001 5.000000e-001 5.715063e-016
    outer loop
      vertex   1.039230e+001 -1.800000e+001 1.000639e+002
      vertex   1.558846e+001 -9.000000e+000 8.967157e+001
      vertex   1.039230e+001 -1.800000e+001 7.482843e+001
    endloop
  endfacet
  facet normal -8.660254e-001 5.000000e-001 1.619403e-016
    outer loop
      vertex   1.039230e+001 -1.800000e+001 7.482843e+001
      vertex   1.558846e+001 -9.000000e+000 8.967157e+001
      vertex   2.078461e+001 -7.586524e-015 7.482843e+001
    endloop
  endfacet
  facet normal -8.660254e-001 5.000000e-001 -1.016011e-015
    outer loop
      vertex   2.078461e+001 -7.586524e-015 7.482843e+001
      vertex   1.558846e+001 -9.000000e+000 8.967157e+001
      vertex   2.078461e+001 3.511924e-014 1.000639e+002
    endloop
  endfacet
  facet normal -6.123724e-001 -3.535534e-001 7.071068e-001
    outer loop
      vertex   2.078461e+001 -7.586524e-015 7.482843e+001
      vertex   1.039230e+001 1.800000e+001 7.482843e+001
      vertex   5.971618e+000 -7.759996e-015 6.200000e+001
    endloop
  endfacet
  facet normal -6.123724e-001 -3.535534e-001 7.071068e-001
    outer loop
      vertex   5.971618e+000 -7.759996e-015 6.200000e+001
      vertex   1.039230e+001 1.800000e+001 7.482843e+001
      vertex   2.985809e+000 5.171573e+000 6.200000e+001
    endloop
  endfacet
  facet normal -2.266233e-016 -7.071068e-001 7.071068e-001
    outer loop
      vertex   1.039230e+001 1.800000e+001 7.482843e+001
      vertex   -1.039230e+001 1.800000e+001 7.482843e+001
      vertex   2.985809e+000 5.171573e+000 6.200000e+001
    endloop
  endfacet
  facet normal -2.049556e-016 -7.071068e-001 7.071068e-001
    outer loop
      vertex   2.985809e+000 5.171573e+000 6.200000e+001
      vertex   -1.039230e+001 1.800000e+001 7.482843e+001
      vertex   -2.985809e+000 5.171573e+000 6.200000e+001
    endloop
  endfacet
  facet normal 6.123724e-001 -3.535534e-001 7.071068e-001
    outer loop
      vertex   -1.039230e+001 1.800000e+001 7.482843e+001
      vertex   -2.078461e+001 1.554312e-014 7.482843e+001
      vertex   -2.985809e+000 5.171573e+000 6.200000e+001
    endloop
  endfacet
  facet normal 6.123724e-001 -3.535534e-001 7.071068e-001
    outer loop
      vertex   -2.985809e+000 5.171573e+000 6.200000e+001
      vertex   -2.078461e+001 1.554312e-014 7.482843e+001
      vertex   -5.971618e+000 1.010766e-014 6.200000e+001
    endloop
  endfacet
  facet normal 6.123724e-001 3.535534e-001 7.071068e-001
    outer loop
      vertex   -2.078461e+001 1.554312e-014 7.482843e+001
      vertex   -1.039230e+001 -1.800000e+001 7.482843e+001
      vertex   -5.971618e+000 1.010766e-014 6.200000e+001
    endloop
  endfacet
  facet normal 6.123724e-001 3.535534e-001 7.071068e-001
    outer loop
      vertex   -5.971618e+000 1.010766e-014 6.200000e+001
      vertex   -1.039230e+001 -1.800000e+001 7.482843e+001
      vertex   -2.985809e+000 -5.171573e+000 6.200000e+001
    endloop
  endfacet
  facet normal 6.043289e-016 7.071068e-001 7.071068e-001
    outer loop
      vertex   -1.039230e+001 -1.800000e+001 7.482843e+001
      vertex   1.039230e+001 -1.800000e+001 7.482843e+001
      vertex   -2.985809e+000 -5.171573e+000 6.200000e+001
    endloop
  endfacet
  facet normal 0.000000e+000 7.071068e-001 7.071068e-001
    outer loop
      vertex   -2.985809e+000 -5.171573e+000 6.200000e+001
      vertex   1.039230e+001 -1.800000e+001 7.482843e+001
      vertex   2.985809e+000 -5.171573e+000 6.200000e+001
    endloop
  endfacet
  facet normal -6.123724e-001 3.535534e-001 7.071068e-001
    outer loop
      vertex   1.039230e+001 -1.800000e+001 7.482843e+001
      vertex   2.078461e+001 -7.586524e-015 7.482843e+001
      vertex   2.985809e+000 -5.171573e+000 6.200000e+001
    endloop
  endfacet
  facet normal -6.123724e-001 3.535534e-001 7.071068e-001
    outer loop
      vertex   2.985809e+000 -5.171573e+000 6.200000e+001
      vertex   2.078461e+001 -7.586524e-015 7.482843e+001
      vertex   5.971618e+000 -7.759996e-015 6.200000e+001
    endloop
  endfacet
  facet normal -6.123724e-001 -3.535534e-001 -7.071068e-001
    outer loop
      vertex   5.971618e+000 -7.759996e-015 6.200000e+001
      vertex   2.985809e+000 5.171573e+000 6.200000e+001
      vertex   2.078461e+001 -3.313322e-015 4.917157e+001
    endloop
  endfacet
  facet normal -6.123724e-001 -3.535534e-001 -7.071068e-001
    outer loop
      vertex   2.078461e+001 -3.313322e-015 4.917157e+001
      vertex   2.985809e+000 5.171573e+000 6.200000e+001
      vertex   1.039230e+001 1.800000e+001 4.917157e+001
    endloop
  endfacet
  facet normal -2.629258e-016 -7.071068e-001 -7.071068e-001
    outer loop
      vertex   2.985809e+000 5.171573e+000 6.200000e+001
      vertex   -2.985809e+000 5.171573e+000 6.200000e+001
      vertex   1.039230e+001 1.800000e+001 4.917157e+001
    endloop
  endfacet
  facet normal -2.355429e-016 -7.071068e-001 -7.071068e-001
    outer loop
      vertex   1.039230e+001 1.800000e+001 4.917157e+001
      vertex   -2.985809e+000 5.171573e+000 6.200000e+001
      vertex   -1.039230e+001 1.800000e+001 4.917157e+001
    endloop
  endfacet
  facet normal 6.123724e-001 -3.535534e-001 -7.071068e-001
    outer loop
      vertex   -2.985809e+000 5.171573e+000 6.200000e+001
      vertex   -5.971618e+000 1.010766e-014 6.200000e+001
      vertex   -1.039230e+001 1.800000e+001 4.917157e+001
    endloop
  endfacet
  facet normal 6.123724e-001 -3.535534e-001 -7.071068e-001
    outer loop
      vertex   -1.039230e+001 1.800000e+001 4.917157e+001
      vertex   -5.971618e+000 1.010766e-014 6.200000e+001
      vertex   -2.078461e+001 2.074151e-014 4.917157e+001
    endloop
  endfacet
  facet normal 6.123724e-001 3.535534e-001 -7.071068e-001
    outer loop
      vertex   -5.971618e+000 1.010766e-014 6.200000e+001
      vertex   -2.985809e+000 -5.171573e+000 6.200000e+001
      vertex   -2.078461e+001 2.074151e-014 4.917157e+001
    endloop
  endfacet
  facet normal 6.123724e-001 3.535534e-001 -7.071068e-001
    outer loop
      vertex   -2.078461e+001 2.074151e-014 4.917157e+001
      vertex   -2.985809e+000 -5.171573e+000 6.200000e+001
      vertex   -1.039230e+001 -1.800000e+001 4.917157e+001
    endloop
  endfacet
  facet normal 0.000000e+000 7.071068e-001 -7.071068e-001
    outer loop
      vertex   -2.985809e+000 -5.171573e+000 6.200000e+001
      vertex   2.985809e+000 -5.171573e+000 6.200000e+001
      vertex   -1.039230e+001 -1.800000e+001 4.917157e+001
    endloop
  endfacet
  facet normal 4.710857e-016 7.071068e-001 -7.071068e-001
    outer loop
      vertex   -1.039230e+001 -1.800000e+001 4.917157e+001
      vertex   2.985809e+000 -5.171573e+000 6.200000e+001
      vertex   1.039230e+001 -1.800000e+001 4.917157e+001
    endloop
  endfacet
  facet normal -6.123724e-001 3.535534e-001 -7.071068e-001
    outer loop
      vertex   2.985809e+000 -5.171573e+000 6.200000e+001
      vertex   5.971618e+000 -7.759996e-015 6.200000e+001
      vertex   1.039230e+001 -1.800000e+001 4.917157e+001
    endloop
  endfacet
  facet normal -6.123724e-001 3.535534e-001 -7.071068e-001
    outer loop
      vertex   1.039230e+001 -1.800000e+001 4.917157e+001
      vertex   5.971618e+000 -7.759996e-015 6.200000e+001
      vertex   2.078461e+001 -3.313322e-015 4.917157e+001
    endloop
  endfacet
  facet normal -8.660254e-001 -5.000000e-001 2.154473e-017
    outer loop
      vertex   2.078461e+001 -3.313322e-015 4.917157e+001
      vertex   1.039230e+001 1.800000e+001 4.917157e+001
      vertex   2.078461e+001 -6.846375e-015 -5.000000e+001
    endloop
  endfacet
  facet normal -8.660254e-001 -5.000000e-001 -0.000000e+000
    outer loop
      vertex   2.078461e+001 -6.846375e-015 -5.000000e+001
      vertex   1.039230e+001 1.800000e+001 4.917157e+001
      vertex   1.039230e+001 1.800000e+001 -5.000000e+001
    endloop
  endfacet
  facet normal -3.204938e-016 -1.000000e+000 0.000000e+000
    outer loop
      vertex   1.039230e+001 1.800000e+001 4.917157e+001
      vertex   -1.039230e+001 1.800000e+001 4.917157e+001
      vertex   1.039230e+001 1.800000e+001 -5.000000e+001
    endloop
  endfacet
  facet normal -4.273250e-016 -1.000000e+000 -2.238994e-017
    outer loop
      vertex   1.039230e+001 1.800000e+001 -5.000000e+001
      vertex   -1.039230e+001 1.800000e+001 4.917157e+001
      vertex   -1.039230e+001 1.800000e+001 -5.000000e+001
    endloop
  endfacet
  facet normal 8.660254e-001 -5.000000e-001 -1.077237e-017
    outer loop
      vertex   -1.039230e+001 1.800000e+001 4.917157e+001
      vertex   -2.078461e+001 2.074151e-014 4.917157e+001
      vertex   -1.039230e+001 1.800000e+001 -5.000000e+001
    endloop
  endfacet
  facet normal 8.660254e-001 -5.000000e-001 6.151404e-018
    outer loop
      vertex   -1.039230e+001 1.800000e+001 -5.000000e+001
      vertex   -2.078461e+001 2.074151e-014 4.917157e+001
      vertex   -2.078461e+001 1.952142e-014 -5.000000e+001
    endloop
  endfacet
  facet normal 8.660254e-001 5.000000e-001 6.670619e-014
    outer loop
      vertex   -1.039230e+001 -1.800000e+001 4.917157e+001
      vertex   -1.039230e+001 -1.800000e+001 4.800000e+001
      vertex   -2.078461e+001 2.074151e-014 4.917157e+001
    endloop
  endfacet
  facet normal 8.660254e-001 5.000000e-001 0.000000e+000
    outer loop
      vertex   -2.078461e+001 2.074151e-014 4.917157e+001
      vertex   -1.039230e+001 -1.800000e+001 4.800000e+001
      vertex   -2.078461e+001 1.952142e-014 -5.000000e+001
    endloop
  endfacet
  facet normal 8.660254e-001 5.000000e-001 -2.121636e-016
    outer loop
      vertex   -2.078461e+001 1.952142e-014 -5.000000e+001
      vertex   -1.039230e+001 -1.800000e+001 4.800000e+001
      vertex   -9.237604e+000 -2.000000e+001 -5.000000e+001
    endloop
  endfacet
  facet normal 8.660254e-001 5.000000e-001 0.000000e+000
    outer loop
      vertex   -9.237604e+000 -2.000000e+001 -5.000000e+001
      vertex   -1.039230e+001 -1.800000e+001 4.800000e+001
      vertex   -9.237604e+000 -2.000000e+001 4.800000e+001
    endloop
  endfacet
  facet normal 6.837201e-015 1.000000e+000 3.790539e-015
    outer loop
      vertex   1.039230e+001 -1.800000e+001 4.800000e+001
      vertex   -1.039230e+001 -1.800000e+001 4.800000e+001
      vertex   1.039230e+001 -1.800000e+001 4.917157e+001
    endloop
  endfacet
  facet normal 6.409876e-016 1.000000e+000 1.137162e-013
    outer loop
      vertex   1.039230e+001 -1.800000e+001 4.917157e+001
      vertex   -1.039230e+001 -1.800000e+001 4.800000e+001
      vertex   -1.039230e+001 -1.800000e+001 4.917157e+001
    endloop
  endfacet
  facet normal -8.660254e-001 5.000000e-001 -1.094234e-014
    outer loop
      vertex   1.039230e+001 -1.800000e+001 4.917157e+001
      vertex   2.078461e+001 -3.313322e-015 4.917157e+001
      vertex   1.039230e+001 -1.800000e+001 4.800000e+001
    endloop
  endfacet
  facet normal -8.660254e-001 5.000000e-001 -1.781283e-017
    outer loop
      vertex   1.039230e+001 -1.800000e+001 4.800000e+001
      vertex   2.078461e+001 -3.313322e-015 4.917157e+001
      vertex   2.078461e+001 -6.846375e-015 -5.000000e+001
    endloop
  endfacet
  facet normal -8.660254e-001 5.000000e-001 1.287698e-016
    outer loop
      vertex   9.237604e+000 -2.000000e+001 -5.000000e+001
      vertex   1.039230e+001 -1.800000e+001 4.800000e+001
      vertex   2.078461e+001 -6.846375e-015 -5.000000e+001
    endloop
  endfacet
  facet normal -8.660254e-001 5.000000e-001 0.000000e+000
    outer loop
      vertex   9.237604e+000 -2.000000e+001 -5.000000e+001
      vertex   9.237604e+000 -2.000000e+001 4.800000e+001
      vertex   1.039230e+001 -1.800000e+001 4.800000e+001
    endloop
  endfacet
endsolid
