solid OpenSCAD_Model
  facet normal 0 0 -1
    outer loop
      vertex -17 0 2
      vertex -16.8659 2.13067 2
      vertex -16.8659 -2.13067 2
    endloop
  endfacet
  facet normal 0 0 -1
    outer loop
      vertex -16.8659 -2.13067 2
      vertex -16.8659 2.13067 2
      vertex -16.4659 4.22773 2
    endloop
  endfacet
  facet normal 0 0 -1
    outer loop
      vertex -16.8659 -2.13067 2
      vertex -16.4659 4.22773 2
      vertex -15.8062 6.25812 2
    endloop
  endfacet
  facet normal 0 0 -1
    outer loop
      vertex -16.8659 -2.13067 2
      vertex -15.8062 6.25812 2
      vertex -14.8972 8.18981 2
    endloop
  endfacet
  facet normal 0 0 -1
    outer loop
      vertex -16.8659 -2.13067 2
      vertex -14.8972 8.18981 2
      vertex -13.7533 9.99235 2
    endloop
  endfacet
  facet normal 0 0 -1
    outer loop
      vertex -16.8659 -2.13067 2
      vertex -13.7533 9.99235 2
      vertex -12.3925 11.6373 2
    endloop
  endfacet
  facet normal 0 0 -1
    outer loop
      vertex -16.8659 -2.13067 2
      vertex -12.3925 11.6373 2
      vertex -10.8362 13.0987 2
    endloop
  endfacet
  facet normal 0 0 -1
    outer loop
      vertex -16.8659 -2.13067 2
      vertex -10.8362 13.0987 2
      vertex -9.10906 14.3536 2
    endloop
  endfacet
  facet normal 0 0 -1
    outer loop
      vertex -16.8659 -2.13067 2
      vertex -9.10906 14.3536 2
      vertex -7.23825 15.3821 2
    endloop
  endfacet
  facet normal 0 0 -1
    outer loop
      vertex -16.8659 -2.13067 2
      vertex -7.23825 15.3821 2
      vertex -5.25329 16.168 2
    endloop
  endfacet
  facet normal 0 0 -1
    outer loop
      vertex -9.11211 8.55684 2
      vertex -5.25329 16.168 2
      vertex -3.18548 16.6989 2
    endloop
  endfacet
  facet normal 0 0 -1
    outer loop
      vertex -6.69783 10.5541 2
      vertex -3.18548 16.6989 2
      vertex -1.06744 16.9665 2
    endloop
  endfacet
  facet normal 0 0 -1
    outer loop
      vertex -3.86271 11.8882 2
      vertex -1.06744 16.9665 2
      vertex 1.06744 16.9665 2
    endloop
  endfacet
  facet normal 0 0 -1
    outer loop
      vertex -2.34227 12.2786 2
      vertex 1.06744 16.9665 2
      vertex 3.18548 16.6989 2
    endloop
  endfacet
  facet normal 0 0 -1
    outer loop
      vertex 0.784881 12.4753 2
      vertex 3.18548 16.6989 2
      vertex 5.25329 16.168 2
    endloop
  endfacet
  facet normal 0 0 -1
    outer loop
      vertex 2.34227 12.2786 2
      vertex 5.25329 16.168 2
      vertex 7.23825 15.3821 2
    endloop
  endfacet
  facet normal 0 0 -1
    outer loop
      vertex 3.86271 11.8882 2
      vertex 7.23825 15.3821 2
      vertex 9.10906 14.3536 2
    endloop
  endfacet
  facet normal 0 0 -1
    outer loop
      vertex 5.32224 11.3103 2
      vertex 9.10906 14.3536 2
      vertex 10.8362 13.0987 2
    endloop
  endfacet
  facet normal 0 0 -1
    outer loop
      vertex 7.9678 9.63142 2
      vertex 10.8362 13.0987 2
      vertex 12.3925 11.6373 2
    endloop
  endfacet
  facet normal 0 0 -1
    outer loop
      vertex 9.11211 8.55684 2
      vertex 12.3925 11.6373 2
      vertex 13.7533 9.99235 2
    endloop
  endfacet
  facet normal 0 0 -1
    outer loop
      vertex 10.1127 7.34732 2
      vertex 13.7533 9.99235 2
      vertex 14.8972 8.18981 2
    endloop
  endfacet
  facet normal 0 0 -1
    outer loop
      vertex 10.9538 6.02192 2
      vertex 14.8972 8.18981 2
      vertex 15.8062 6.25812 2
    endloop
  endfacet
  facet normal 0 0 -1
    outer loop
      vertex 11.6222 4.60156 2
      vertex 15.8062 6.25812 2
      vertex 16.4659 4.22773 2
    endloop
  endfacet
  facet normal 0 0 -1
    outer loop
      vertex 12.1073 3.10862 2
      vertex 16.4659 4.22773 2
      vertex 16.8659 2.13067 2
    endloop
  endfacet
  facet normal 0 0 -1
    outer loop
      vertex 12.5 0 2
      vertex 16.8659 2.13067 2
      vertex 17 0 2
    endloop
  endfacet
  facet normal 0 0 -1
    outer loop
      vertex 12.4014 -1.56666 2
      vertex 17 0 2
      vertex 16.8659 -2.13067 2
    endloop
  endfacet
  facet normal 0 0 -1
    outer loop
      vertex 12.1073 -3.10862 2
      vertex 16.8659 -2.13067 2
      vertex 16.4659 -4.22773 2
    endloop
  endfacet
  facet normal 0 0 -1
    outer loop
      vertex 11.6222 -4.60156 2
      vertex 16.4659 -4.22773 2
      vertex 15.8062 -6.25812 2
    endloop
  endfacet
  facet normal 0 0 -1
    outer loop
      vertex 10.9538 -6.02192 2
      vertex 15.8062 -6.25812 2
      vertex 14.8972 -8.18981 2
    endloop
  endfacet
  facet normal 0 0 -1
    outer loop
      vertex 9.11211 -8.55684 2
      vertex 14.8972 -8.18981 2
      vertex 13.7533 -9.99235 2
    endloop
  endfacet
  facet normal 0 0 -1
    outer loop
      vertex 7.9678 -9.63142 2
      vertex 13.7533 -9.99235 2
      vertex 12.3925 -11.6373 2
    endloop
  endfacet
  facet normal 0 0 -1
    outer loop
      vertex 6.69783 -10.5541 2
      vertex 12.3925 -11.6373 2
      vertex 10.8362 -13.0987 2
    endloop
  endfacet
  facet normal 0 0 -1
    outer loop
      vertex 5.32224 -11.3103 2
      vertex 10.8362 -13.0987 2
      vertex 9.10906 -14.3536 2
    endloop
  endfacet
  facet normal 0 0 -1
    outer loop
      vertex 2.34227 -12.2786 2
      vertex 9.10906 -14.3536 2
      vertex 7.23825 -15.3821 2
    endloop
  endfacet
  facet normal 0 0 -1
    outer loop
      vertex 0.784881 -12.4753 2
      vertex 7.23825 -15.3821 2
      vertex 5.25329 -16.168 2
    endloop
  endfacet
  facet normal 0 0 -1
    outer loop
      vertex -2.34227 -12.2786 2
      vertex 5.25329 -16.168 2
      vertex 3.18548 -16.6989 2
    endloop
  endfacet
  facet normal 0 0 -1
    outer loop
      vertex -5.32224 -11.3103 2
      vertex 3.18548 -16.6989 2
      vertex 1.06744 -16.9665 2
    endloop
  endfacet
  facet normal 0 0 -1
    outer loop
      vertex -7.9678 -9.63142 2
      vertex 1.06744 -16.9665 2
      vertex -1.06744 -16.9665 2
    endloop
  endfacet
  facet normal 0 0 -1
    outer loop
      vertex -16.8659 -2.13067 2
      vertex -1.06744 -16.9665 2
      vertex -3.18548 -16.6989 2
    endloop
  endfacet
  facet normal 0 0 -1
    outer loop
      vertex -16.8659 -2.13067 2
      vertex -3.18548 -16.6989 2
      vertex -5.25329 -16.168 2
    endloop
  endfacet
  facet normal 0 0 -1
    outer loop
      vertex -16.8659 -2.13067 2
      vertex -5.25329 -16.168 2
      vertex -7.23825 -15.3821 2
    endloop
  endfacet
  facet normal 0 0 -1
    outer loop
      vertex -16.8659 -2.13067 2
      vertex -7.23825 -15.3821 2
      vertex -9.10906 -14.3536 2
    endloop
  endfacet
  facet normal 0 0 -1
    outer loop
      vertex -16.8659 -2.13067 2
      vertex -9.10906 -14.3536 2
      vertex -10.8362 -13.0987 2
    endloop
  endfacet
  facet normal 0 0 -1
    outer loop
      vertex -16.8659 -2.13067 2
      vertex -10.8362 -13.0987 2
      vertex -12.3925 -11.6373 2
    endloop
  endfacet
  facet normal 0 0 -1
    outer loop
      vertex -16.8659 -2.13067 2
      vertex -12.3925 -11.6373 2
      vertex -13.7533 -9.99235 2
    endloop
  endfacet
  facet normal 0 0 -1
    outer loop
      vertex -16.8659 -2.13067 2
      vertex -13.7533 -9.99235 2
      vertex -14.8972 -8.18981 2
    endloop
  endfacet
  facet normal 0 0 -1
    outer loop
      vertex -16.8659 -2.13067 2
      vertex -14.8972 -8.18981 2
      vertex -15.8062 -6.25812 2
    endloop
  endfacet
  facet normal 0 0 -1
    outer loop
      vertex -16.8659 -2.13067 2
      vertex -15.8062 -6.25812 2
      vertex -16.4659 -4.22773 2
    endloop
  endfacet
  facet normal 0 0 -1
    outer loop
      vertex -12.4014 -1.56666 2
      vertex -16.8659 -2.13067 2
      vertex -12.5 0 2
    endloop
  endfacet
  facet normal 0 0 -1
    outer loop
      vertex 12.1073 -3.10862 2
      vertex 16.4659 -4.22773 2
      vertex 11.6222 -4.60156 2
    endloop
  endfacet
  facet normal 0 0 -1
    outer loop
      vertex -12.1073 -3.10862 2
      vertex -16.8659 -2.13067 2
      vertex -12.4014 -1.56666 2
    endloop
  endfacet
  facet normal 0 0 -1
    outer loop
      vertex -11.6222 -4.60156 2
      vertex -16.8659 -2.13067 2
      vertex -12.1073 -3.10862 2
    endloop
  endfacet
  facet normal 0 0 -1
    outer loop
      vertex -10.9538 -6.02192 2
      vertex -16.8659 -2.13067 2
      vertex -11.6222 -4.60156 2
    endloop
  endfacet
  facet normal 0 0 -1
    outer loop
      vertex -10.1127 -7.34732 2
      vertex -16.8659 -2.13067 2
      vertex -10.9538 -6.02192 2
    endloop
  endfacet
  facet normal 0 0 -1
    outer loop
      vertex -9.11211 -8.55684 2
      vertex -16.8659 -2.13067 2
      vertex -10.1127 -7.34732 2
    endloop
  endfacet
  facet normal 0 0 -1
    outer loop
      vertex -5.32224 -11.3103 2
      vertex 1.06744 -16.9665 2
      vertex -6.69783 -10.5541 2
    endloop
  endfacet
  facet normal 0 0 -1
    outer loop
      vertex -16.8659 -2.13067 2
      vertex -9.11211 -8.55684 2
      vertex -1.06744 -16.9665 2
    endloop
  endfacet
  facet normal 0 0 -1
    outer loop
      vertex -6.69783 -10.5541 2
      vertex 1.06744 -16.9665 2
      vertex -7.9678 -9.63142 2
    endloop
  endfacet
  facet normal 0 0 -1
    outer loop
      vertex -9.11211 -8.55684 2
      vertex -7.9678 -9.63142 2
      vertex -1.06744 -16.9665 2
    endloop
  endfacet
  facet normal 0 0 -1
    outer loop
      vertex -3.86271 -11.8882 2
      vertex 3.18548 -16.6989 2
      vertex -5.32224 -11.3103 2
    endloop
  endfacet
  facet normal 0 0 -1
    outer loop
      vertex -2.34227 -12.2786 2
      vertex 3.18548 -16.6989 2
      vertex -3.86271 -11.8882 2
    endloop
  endfacet
  facet normal 0 0 -1
    outer loop
      vertex -0.784881 -12.4753 2
      vertex 5.25329 -16.168 2
      vertex -2.34227 -12.2786 2
    endloop
  endfacet
  facet normal 0 0 -1
    outer loop
      vertex 0.784881 -12.4753 2
      vertex 5.25329 -16.168 2
      vertex -0.784881 -12.4753 2
    endloop
  endfacet
  facet normal 0 0 -1
    outer loop
      vertex 3.86271 -11.8882 2
      vertex 9.10906 -14.3536 2
      vertex 2.34227 -12.2786 2
    endloop
  endfacet
  facet normal 0 0 -1
    outer loop
      vertex 5.32224 -11.3103 2
      vertex 9.10906 -14.3536 2
      vertex 3.86271 -11.8882 2
    endloop
  endfacet
  facet normal 0 0 -1
    outer loop
      vertex 2.34227 -12.2786 2
      vertex 7.23825 -15.3821 2
      vertex 0.784881 -12.4753 2
    endloop
  endfacet
  facet normal 0 0 -1
    outer loop
      vertex 10.1127 -7.34732 2
      vertex 14.8972 -8.18981 2
      vertex 9.11211 -8.55684 2
    endloop
  endfacet
  facet normal 0 0 -1
    outer loop
      vertex 10.9538 -6.02192 2
      vertex 14.8972 -8.18981 2
      vertex 10.1127 -7.34732 2
    endloop
  endfacet
  facet normal 0 0 -1
    outer loop
      vertex 9.11211 -8.55684 2
      vertex 13.7533 -9.99235 2
      vertex 7.9678 -9.63142 2
    endloop
  endfacet
  facet normal 0 0 -1
    outer loop
      vertex 7.9678 -9.63142 2
      vertex 12.3925 -11.6373 2
      vertex 6.69783 -10.5541 2
    endloop
  endfacet
  facet normal 0 0 -1
    outer loop
      vertex 6.69783 -10.5541 2
      vertex 10.8362 -13.0987 2
      vertex 5.32224 -11.3103 2
    endloop
  endfacet
  facet normal 0 0 -1
    outer loop
      vertex 12.4014 1.56666 2
      vertex 16.8659 2.13067 2
      vertex 12.5 0 2
    endloop
  endfacet
  facet normal 0 0 -1
    outer loop
      vertex 11.6222 4.60156 2
      vertex 16.4659 4.22773 2
      vertex 12.1073 3.10862 2
    endloop
  endfacet
  facet normal 0 0 -1
    outer loop
      vertex 12.1073 3.10862 2
      vertex 16.8659 2.13067 2
      vertex 12.4014 1.56666 2
    endloop
  endfacet
  facet normal 0 0 -1
    outer loop
      vertex 12.5 0 2
      vertex 17 0 2
      vertex 12.4014 -1.56666 2
    endloop
  endfacet
  facet normal 0 0 -1
    outer loop
      vertex 12.4014 -1.56666 2
      vertex 16.8659 -2.13067 2
      vertex 12.1073 -3.10862 2
    endloop
  endfacet
  facet normal 0 0 -1
    outer loop
      vertex 6.69783 10.5541 2
      vertex 10.8362 13.0987 2
      vertex 7.9678 9.63142 2
    endloop
  endfacet
  facet normal 0 0 -1
    outer loop
      vertex 5.32224 11.3103 2
      vertex 10.8362 13.0987 2
      vertex 6.69783 10.5541 2
    endloop
  endfacet
  facet normal 0 0 -1
    outer loop
      vertex 7.9678 9.63142 2
      vertex 12.3925 11.6373 2
      vertex 9.11211 8.55684 2
    endloop
  endfacet
  facet normal 0 0 -1
    outer loop
      vertex 9.11211 8.55684 2
      vertex 13.7533 9.99235 2
      vertex 10.1127 7.34732 2
    endloop
  endfacet
  facet normal 0 0 -1
    outer loop
      vertex 10.1127 7.34732 2
      vertex 14.8972 8.18981 2
      vertex 10.9538 6.02192 2
    endloop
  endfacet
  facet normal 0 0 -1
    outer loop
      vertex -0.784881 12.4753 2
      vertex 3.18548 16.6989 2
      vertex 0.784881 12.4753 2
    endloop
  endfacet
  facet normal 0 0 -1
    outer loop
      vertex -3.86271 11.8882 2
      vertex 1.06744 16.9665 2
      vertex -2.34227 12.2786 2
    endloop
  endfacet
  facet normal 0 0 -1
    outer loop
      vertex -5.32224 11.3103 2
      vertex -1.06744 16.9665 2
      vertex -3.86271 11.8882 2
    endloop
  endfacet
  facet normal 0 0 -1
    outer loop
      vertex -6.69783 10.5541 2
      vertex -1.06744 16.9665 2
      vertex -5.32224 11.3103 2
    endloop
  endfacet
  facet normal 0 0 -1
    outer loop
      vertex -7.9678 9.63142 2
      vertex -3.18548 16.6989 2
      vertex -6.69783 10.5541 2
    endloop
  endfacet
  facet normal 0 0 -1
    outer loop
      vertex -9.11211 8.55684 2
      vertex -3.18548 16.6989 2
      vertex -7.9678 9.63142 2
    endloop
  endfacet
  facet normal 0 0 -1
    outer loop
      vertex -10.1127 7.34732 2
      vertex -5.25329 16.168 2
      vertex -9.11211 8.55684 2
    endloop
  endfacet
  facet normal 0 0 -1
    outer loop
      vertex -11.6222 4.60156 2
      vertex -16.8659 -2.13067 2
      vertex -10.9538 6.02192 2
    endloop
  endfacet
  facet normal 0 0 -1
    outer loop
      vertex -16.8659 -2.13067 2
      vertex -5.25329 16.168 2
      vertex -10.1127 7.34732 2
    endloop
  endfacet
  facet normal 0 0 -1
    outer loop
      vertex -16.8659 -2.13067 2
      vertex -10.1127 7.34732 2
      vertex -10.9538 6.02192 2
    endloop
  endfacet
  facet normal 0 0 -1
    outer loop
      vertex -12.1073 3.10862 2
      vertex -16.8659 -2.13067 2
      vertex -11.6222 4.60156 2
    endloop
  endfacet
  facet normal 0 0 -1
    outer loop
      vertex -12.4014 1.56666 2
      vertex -16.8659 -2.13067 2
      vertex -12.1073 3.10862 2
    endloop
  endfacet
  facet normal 0 0 -1
    outer loop
      vertex 10.9538 6.02192 2
      vertex 15.8062 6.25812 2
      vertex 11.6222 4.60156 2
    endloop
  endfacet
  facet normal 0 0 -1
    outer loop
      vertex -12.5 0 2
      vertex -16.8659 -2.13067 2
      vertex -12.4014 1.56666 2
    endloop
  endfacet
  facet normal 0 0 -1
    outer loop
      vertex -2.34227 12.2786 2
      vertex 3.18548 16.6989 2
      vertex -0.784881 12.4753 2
    endloop
  endfacet
  facet normal 0 0 -1
    outer loop
      vertex 0.784881 12.4753 2
      vertex 5.25329 16.168 2
      vertex 2.34227 12.2786 2
    endloop
  endfacet
  facet normal 0 0 -1
    outer loop
      vertex 2.34227 12.2786 2
      vertex 7.23825 15.3821 2
      vertex 3.86271 11.8882 2
    endloop
  endfacet
  facet normal 0 0 -1
    outer loop
      vertex 3.86271 11.8882 2
      vertex 9.10906 14.3536 2
      vertex 5.32224 11.3103 2
    endloop
  endfacet
  facet normal 0 0 -1
    outer loop
      vertex 11.6222 -4.60156 2
      vertex 15.8062 -6.25812 2
      vertex 10.9538 -6.02192 2
    endloop
  endfacet
  facet normal -0.953681 0.0600005 0.294774
    outer loop
      vertex -17 0 2
      vertex -6.52987 0 35.8739
      vertex -16.8659 2.13067 2
    endloop
  endfacet
  facet normal -0.953681 0.0600005 0.294774
    outer loop
      vertex -16.8659 2.13067 2
      vertex -6.52987 0 35.8739
      vertex -6.60537 0.834453 35.4598
    endloop
  endfacet
  facet normal -0.953681 -0.0600005 0.294774
    outer loop
      vertex -17 0 2
      vertex -16.8659 -2.13067 2
      vertex -6.52987 0 35.8739
    endloop
  endfacet
  facet normal -0.953681 -0.0600005 0.294774
    outer loop
      vertex -6.52987 0 35.8739
      vertex -16.8659 -2.13067 2
      vertex -6.60537 -0.834453 35.4598
    endloop
  endfacet
  facet normal -0.953681 -0.0600005 0.294774
    outer loop
      vertex -6.52987 0 35.8739
      vertex -6.60537 -0.834453 35.4598
      vertex -6.52987 -1.75197e-015 35.8739
    endloop
  endfacet
  facet normal -0.938641 -0.179055 0.294774
    outer loop
      vertex -16.8659 -2.13067 2
      vertex -16.4659 -4.22773 2
      vertex -6.60537 -0.834453 35.4598
    endloop
  endfacet
  facet normal -0.938641 -0.179055 0.294774
    outer loop
      vertex -6.60537 -0.834453 35.4598
      vertex -16.4659 -4.22773 2
      vertex -6.62088 -1.69995 34.8847
    endloop
  endfacet
  facet normal -0.908798 -0.295287 0.294774
    outer loop
      vertex -16.4659 -4.22773 2
      vertex -15.8062 -6.25812 2
      vertex -6.62088 -1.69995 34.8847
    endloop
  endfacet
  facet normal -0.908798 -0.295287 0.294774
    outer loop
      vertex -6.62088 -1.69995 34.8847
      vertex -15.8062 -6.25812 2
      vertex -6.57149 -2.60184 34.1335
    endloop
  endfacet
  facet normal -0.864623 -0.40686 0.294774
    outer loop
      vertex -15.8062 -6.25812 2
      vertex -14.8972 -8.18981 2
      vertex -6.57149 -2.60184 34.1335
    endloop
  endfacet
  facet normal -0.864623 -0.40686 0.294774
    outer loop
      vertex -6.57149 -2.60184 34.1335
      vertex -14.8972 -8.18981 2
      vertex -6.45025 -3.54606 33.1859
    endloop
  endfacet
  facet normal -0.806812 -0.512018 0.294774
    outer loop
      vertex -14.8972 -8.18981 2
      vertex -13.7533 -9.99235 2
      vertex -6.45025 -3.54606 33.1859
    endloop
  endfacet
  facet normal -0.806812 -0.512018 0.294774
    outer loop
      vertex -6.45025 -3.54606 33.1859
      vertex -13.7533 -9.99235 2
      vertex -6.24769 -4.53921 32.0152
    endloop
  endfacet
  facet normal -0.736277 -0.609101 0.294774
    outer loop
      vertex -13.7533 -9.99235 2
      vertex -12.3925 -11.6373 2
      vertex -6.24769 -4.53921 32.0152
    endloop
  endfacet
  facet normal -0.736277 -0.609101 0.294774
    outer loop
      vertex -6.24769 -4.53921 32.0152
      vertex -12.3925 -11.6373 2
      vertex -5.95126 -5.5886 30.5872
    endloop
  endfacet
  facet normal -0.65413 -0.696578 0.294774
    outer loop
      vertex -5.95126 -5.5886 30.5872
      vertex -12.3925 -11.6373 2
      vertex -10.8362 -13.0987 2
    endloop
  endfacet
  facet normal -0.65413 -0.696578 0.294774
    outer loop
      vertex -5.54453 -6.70219 28.8583
      vertex -5.95126 -5.5886 30.5872
      vertex -10.8362 -13.0987 2
    endloop
  endfacet
  facet normal -0.561668 -0.77307 0.294774
    outer loop
      vertex -5.54453 -6.70219 28.8583
      vertex -10.8362 -13.0987 2
      vertex -9.10906 -14.3536 2
    endloop
  endfacet
  facet normal -0.561668 -0.77307 0.294774
    outer loop
      vertex -5.00618 -7.88848 26.7729
      vertex -5.54453 -6.70219 28.8583
      vertex -9.10906 -14.3536 2
    endloop
  endfacet
  facet normal -0.460348 -0.83737 0.294774
    outer loop
      vertex -5.00618 -7.88848 26.7729
      vertex -9.10906 -14.3536 2
      vertex -7.23825 -15.3821 2
    endloop
  endfacet
  facet normal -0.460348 -0.83737 0.294774
    outer loop
      vertex -4.3086 -9.15624 24.261
      vertex -5.00618 -7.88848 26.7729
      vertex -7.23825 -15.3821 2
    endloop
  endfacet
  facet normal -0.351768 -0.888464 0.294774
    outer loop
      vertex -4.3086 -9.15624 24.261
      vertex -7.23825 -15.3821 2
      vertex -5.25329 -16.168 2
    endloop
  endfacet
  facet normal -0.351768 -0.888464 0.294774
    outer loop
      vertex -3.41617 -10.5139 21.2339
      vertex -4.3086 -9.15624 24.261
      vertex -5.25329 -16.168 2
    endloop
  endfacet
  facet normal -0.23764 -0.925546 0.294774
    outer loop
      vertex -3.41617 -10.5139 21.2339
      vertex -5.25329 -16.168 2
      vertex -3.18548 -16.6989 2
    endloop
  endfacet
  facet normal -0.23764 -0.925546 0.294774
    outer loop
      vertex -2.28308 -11.9683 17.5807
      vertex -3.41617 -10.5139 21.2339
      vertex -3.18548 -16.6989 2
    endloop
  endfacet
  facet normal -0.119764 -0.948032 0.294774
    outer loop
      vertex -2.28308 -11.9683 17.5807
      vertex -3.18548 -16.6989 2
      vertex -1.06744 -16.9665 2
    endloop
  endfacet
  facet normal -0.119764 -0.948032 0.294774
    outer loop
      vertex -0.850781 -13.5228 13.1634
      vertex -2.28308 -11.9683 17.5807
      vertex -1.06744 -16.9665 2
    endloop
  endfacet
  facet normal 0 -0.955567 0.294774
    outer loop
      vertex -0.850781 -13.5228 13.1634
      vertex -1.06744 -16.9665 2
      vertex 1.06744 -16.9665 2
    endloop
  endfacet
  facet normal 0 -0.955567 0.294774
    outer loop
      vertex 0 -14.3005 10.6423
      vertex -0.850781 -13.5228 13.1634
      vertex 1.06744 -16.9665 2
    endloop
  endfacet
  facet normal 0 -0.955567 0.294774
    outer loop
      vertex 0.850781 -13.5228 13.1634
      vertex 0 -14.3005 10.6423
      vertex 1.06744 -16.9665 2
    endloop
  endfacet
  facet normal 0.119764 -0.948032 0.294774
    outer loop
      vertex 2.28308 -11.9683 17.5807
      vertex 0.850781 -13.5228 13.1634
      vertex 1.06744 -16.9665 2
    endloop
  endfacet
  facet normal 0.119764 -0.948032 0.294774
    outer loop
      vertex 3.18548 -16.6989 2
      vertex 2.28308 -11.9683 17.5807
      vertex 1.06744 -16.9665 2
    endloop
  endfacet
  facet normal 0.23764 -0.925546 0.294774
    outer loop
      vertex 3.41617 -10.5139 21.2339
      vertex 2.28308 -11.9683 17.5807
      vertex 3.18548 -16.6989 2
    endloop
  endfacet
  facet normal 0.23764 -0.925546 0.294774
    outer loop
      vertex 5.25329 -16.168 2
      vertex 3.41617 -10.5139 21.2339
      vertex 3.18548 -16.6989 2
    endloop
  endfacet
  facet normal 0.351768 -0.888464 0.294774
    outer loop
      vertex 4.3086 -9.15624 24.261
      vertex 3.41617 -10.5139 21.2339
      vertex 5.25329 -16.168 2
    endloop
  endfacet
  facet normal 0.351768 -0.888464 0.294774
    outer loop
      vertex 7.23825 -15.3821 2
      vertex 4.3086 -9.15624 24.261
      vertex 5.25329 -16.168 2
    endloop
  endfacet
  facet normal 0.460348 -0.83737 0.294774
    outer loop
      vertex 5.00618 -7.88848 26.7729
      vertex 4.3086 -9.15624 24.261
      vertex 7.23825 -15.3821 2
    endloop
  endfacet
  facet normal 0.460348 -0.83737 0.294774
    outer loop
      vertex 9.10906 -14.3536 2
      vertex 5.00618 -7.88848 26.7729
      vertex 7.23825 -15.3821 2
    endloop
  endfacet
  facet normal 0.561668 -0.77307 0.294774
    outer loop
      vertex 5.54453 -6.70219 28.8583
      vertex 5.00618 -7.88848 26.7729
      vertex 9.10906 -14.3536 2
    endloop
  endfacet
  facet normal 0.561668 -0.77307 0.294774
    outer loop
      vertex 10.8362 -13.0987 2
      vertex 5.54453 -6.70219 28.8583
      vertex 9.10906 -14.3536 2
    endloop
  endfacet
  facet normal 0.65413 -0.696578 0.294774
    outer loop
      vertex 5.95126 -5.5886 30.5872
      vertex 5.54453 -6.70219 28.8583
      vertex 10.8362 -13.0987 2
    endloop
  endfacet
  facet normal 0.65413 -0.696578 0.294774
    outer loop
      vertex 12.3925 -11.6373 2
      vertex 5.95126 -5.5886 30.5872
      vertex 10.8362 -13.0987 2
    endloop
  endfacet
  facet normal 0.736277 -0.609101 0.294774
    outer loop
      vertex 6.24769 -4.53921 32.0152
      vertex 5.95126 -5.5886 30.5872
      vertex 12.3925 -11.6373 2
    endloop
  endfacet
  facet normal 0.736277 -0.609101 0.294774
    outer loop
      vertex 13.7533 -9.99235 2
      vertex 6.24769 -4.53921 32.0152
      vertex 12.3925 -11.6373 2
    endloop
  endfacet
  facet normal 0.806812 -0.512018 0.294774
    outer loop
      vertex 6.45025 -3.54606 33.1859
      vertex 6.24769 -4.53921 32.0152
      vertex 13.7533 -9.99235 2
    endloop
  endfacet
  facet normal 0.806812 -0.512018 0.294774
    outer loop
      vertex 14.8972 -8.18981 2
      vertex 6.45025 -3.54606 33.1859
      vertex 13.7533 -9.99235 2
    endloop
  endfacet
  facet normal 0.864623 -0.40686 0.294774
    outer loop
      vertex 6.57149 -2.60184 34.1335
      vertex 6.45025 -3.54606 33.1859
      vertex 14.8972 -8.18981 2
    endloop
  endfacet
  facet normal 0.864623 -0.40686 0.294774
    outer loop
      vertex 15.8062 -6.25812 2
      vertex 6.57149 -2.60184 34.1335
      vertex 14.8972 -8.18981 2
    endloop
  endfacet
  facet normal 0.908798 -0.295287 0.294774
    outer loop
      vertex 6.62088 -1.69995 34.8847
      vertex 6.57149 -2.60184 34.1335
      vertex 15.8062 -6.25812 2
    endloop
  endfacet
  facet normal 0.908798 -0.295287 0.294774
    outer loop
      vertex 16.4659 -4.22773 2
      vertex 6.62088 -1.69995 34.8847
      vertex 15.8062 -6.25812 2
    endloop
  endfacet
  facet normal 0.938641 -0.179055 0.294774
    outer loop
      vertex 16.8659 -2.13067 2
      vertex 6.60537 -0.834453 35.4598
      vertex 6.62088 -1.69995 34.8847
    endloop
  endfacet
  facet normal 0.938641 -0.179055 0.294774
    outer loop
      vertex 16.4659 -4.22773 2
      vertex 16.8659 -2.13067 2
      vertex 6.62088 -1.69995 34.8847
    endloop
  endfacet
  facet normal 0.953681 -0.0600005 0.294774
    outer loop
      vertex 6.52987 0 35.8739
      vertex 6.52987 -1.75197e-015 35.8739
      vertex 6.60537 -0.834453 35.4598
    endloop
  endfacet
  facet normal 0.953681 -0.0600005 0.294774
    outer loop
      vertex 17 0 2
      vertex 6.52987 0 35.8739
      vertex 16.8659 -2.13067 2
    endloop
  endfacet
  facet normal 0.953681 -0.0600005 0.294774
    outer loop
      vertex 16.8659 -2.13067 2
      vertex 6.52987 0 35.8739
      vertex 6.60537 -0.834453 35.4598
    endloop
  endfacet
  facet normal 0.953681 0.0600005 0.294774
    outer loop
      vertex 6.60537 0.834453 35.4598
      vertex 6.52987 0 35.8739
      vertex 17 0 2
    endloop
  endfacet
  facet normal 0.953681 0.0600005 0.294774
    outer loop
      vertex 16.8659 2.13067 2
      vertex 6.60537 0.834453 35.4598
      vertex 17 0 2
    endloop
  endfacet
  facet normal 0.938641 0.179055 0.294774
    outer loop
      vertex 6.62088 1.69995 34.8847
      vertex 6.60537 0.834453 35.4598
      vertex 16.8659 2.13067 2
    endloop
  endfacet
  facet normal 0.938641 0.179055 0.294774
    outer loop
      vertex 16.4659 4.22773 2
      vertex 6.62088 1.69995 34.8847
      vertex 16.8659 2.13067 2
    endloop
  endfacet
  facet normal 0.908798 0.295287 0.294774
    outer loop
      vertex 15.8062 6.25812 2
      vertex 6.57149 2.60184 34.1335
      vertex 6.62088 1.69995 34.8847
    endloop
  endfacet
  facet normal 0.908798 0.295287 0.294774
    outer loop
      vertex 16.4659 4.22773 2
      vertex 15.8062 6.25812 2
      vertex 6.62088 1.69995 34.8847
    endloop
  endfacet
  facet normal 0.864623 0.40686 0.294774
    outer loop
      vertex 14.8972 8.18981 2
      vertex 6.45025 3.54606 33.1859
      vertex 6.57149 2.60184 34.1335
    endloop
  endfacet
  facet normal 0.864623 0.40686 0.294774
    outer loop
      vertex 15.8062 6.25812 2
      vertex 14.8972 8.18981 2
      vertex 6.57149 2.60184 34.1335
    endloop
  endfacet
  facet normal 0.806812 0.512018 0.294774
    outer loop
      vertex 13.7533 9.99235 2
      vertex 6.24769 4.53921 32.0152
      vertex 6.45025 3.54606 33.1859
    endloop
  endfacet
  facet normal 0.806812 0.512018 0.294774
    outer loop
      vertex 14.8972 8.18981 2
      vertex 13.7533 9.99235 2
      vertex 6.45025 3.54606 33.1859
    endloop
  endfacet
  facet normal 0.736277 0.609101 0.294774
    outer loop
      vertex 12.3925 11.6373 2
      vertex 5.95126 5.5886 30.5872
      vertex 6.24769 4.53921 32.0152
    endloop
  endfacet
  facet normal 0.736277 0.609101 0.294774
    outer loop
      vertex 13.7533 9.99235 2
      vertex 12.3925 11.6373 2
      vertex 6.24769 4.53921 32.0152
    endloop
  endfacet
  facet normal 0.65413 0.696578 0.294774
    outer loop
      vertex 5.54453 6.70219 28.8583
      vertex 5.95126 5.5886 30.5872
      vertex 10.8362 13.0987 2
    endloop
  endfacet
  facet normal 0.65413 0.696578 0.294774
    outer loop
      vertex 10.8362 13.0987 2
      vertex 5.95126 5.5886 30.5872
      vertex 12.3925 11.6373 2
    endloop
  endfacet
  facet normal 0.561668 0.77307 0.294774
    outer loop
      vertex 5.00618 7.88848 26.7729
      vertex 5.54453 6.70219 28.8583
      vertex 9.10906 14.3536 2
    endloop
  endfacet
  facet normal 0.561668 0.77307 0.294774
    outer loop
      vertex 9.10906 14.3536 2
      vertex 5.54453 6.70219 28.8583
      vertex 10.8362 13.0987 2
    endloop
  endfacet
  facet normal 0.460348 0.83737 0.294774
    outer loop
      vertex 4.3086 9.15624 24.261
      vertex 5.00618 7.88848 26.7729
      vertex 7.23825 15.3821 2
    endloop
  endfacet
  facet normal 0.460348 0.83737 0.294774
    outer loop
      vertex 7.23825 15.3821 2
      vertex 5.00618 7.88848 26.7729
      vertex 9.10906 14.3536 2
    endloop
  endfacet
  facet normal 0.351768 0.888464 0.294774
    outer loop
      vertex 3.41617 10.5139 21.2339
      vertex 4.3086 9.15624 24.261
      vertex 5.25329 16.168 2
    endloop
  endfacet
  facet normal 0.351768 0.888464 0.294774
    outer loop
      vertex 5.25329 16.168 2
      vertex 4.3086 9.15624 24.261
      vertex 7.23825 15.3821 2
    endloop
  endfacet
  facet normal 0.23764 0.925546 0.294774
    outer loop
      vertex 2.28308 11.9683 17.5807
      vertex 3.41617 10.5139 21.2339
      vertex 3.18548 16.6989 2
    endloop
  endfacet
  facet normal 0.23764 0.925546 0.294774
    outer loop
      vertex 3.18548 16.6989 2
      vertex 3.41617 10.5139 21.2339
      vertex 5.25329 16.168 2
    endloop
  endfacet
  facet normal 0.119764 0.948032 0.294774
    outer loop
      vertex 0.850781 13.5228 13.1634
      vertex 2.28308 11.9683 17.5807
      vertex 1.06744 16.9665 2
    endloop
  endfacet
  facet normal 0.119764 0.948032 0.294774
    outer loop
      vertex 1.06744 16.9665 2
      vertex 2.28308 11.9683 17.5807
      vertex 3.18548 16.6989 2
    endloop
  endfacet
  facet normal 0 0.955567 0.294774
    outer loop
      vertex -1.06744 16.9665 2
      vertex -0.850781 13.5228 13.1634
      vertex 1.06744 16.9665 2
    endloop
  endfacet
  facet normal 0 0.955567 0.294774
    outer loop
      vertex 1.06744 16.9665 2
      vertex -0.850781 13.5228 13.1634
      vertex 0 14.3005 10.6423
    endloop
  endfacet
  facet normal 0 0.955567 0.294774
    outer loop
      vertex 1.06744 16.9665 2
      vertex 0 14.3005 10.6423
      vertex 0.850781 13.5228 13.1634
    endloop
  endfacet
  facet normal -0.119764 0.948032 0.294774
    outer loop
      vertex -3.18548 16.6989 2
      vertex -2.28308 11.9683 17.5807
      vertex -1.06744 16.9665 2
    endloop
  endfacet
  facet normal -0.119764 0.948032 0.294774
    outer loop
      vertex -1.06744 16.9665 2
      vertex -2.28308 11.9683 17.5807
      vertex -0.850781 13.5228 13.1634
    endloop
  endfacet
  facet normal -0.23764 0.925546 0.294774
    outer loop
      vertex -5.25329 16.168 2
      vertex -3.41617 10.5139 21.2339
      vertex -3.18548 16.6989 2
    endloop
  endfacet
  facet normal -0.23764 0.925546 0.294774
    outer loop
      vertex -3.18548 16.6989 2
      vertex -3.41617 10.5139 21.2339
      vertex -2.28308 11.9683 17.5807
    endloop
  endfacet
  facet normal -0.351768 0.888464 0.294774
    outer loop
      vertex -7.23825 15.3821 2
      vertex -4.3086 9.15624 24.261
      vertex -5.25329 16.168 2
    endloop
  endfacet
  facet normal -0.351768 0.888464 0.294774
    outer loop
      vertex -5.25329 16.168 2
      vertex -4.3086 9.15624 24.261
      vertex -3.41617 10.5139 21.2339
    endloop
  endfacet
  facet normal -0.460348 0.83737 0.294774
    outer loop
      vertex -9.10906 14.3536 2
      vertex -5.00618 7.88848 26.7729
      vertex -7.23825 15.3821 2
    endloop
  endfacet
  facet normal -0.460348 0.83737 0.294774
    outer loop
      vertex -7.23825 15.3821 2
      vertex -5.00618 7.88848 26.7729
      vertex -4.3086 9.15624 24.261
    endloop
  endfacet
  facet normal -0.561668 0.77307 0.294774
    outer loop
      vertex -10.8362 13.0987 2
      vertex -5.54453 6.70219 28.8583
      vertex -9.10906 14.3536 2
    endloop
  endfacet
  facet normal -0.561668 0.77307 0.294774
    outer loop
      vertex -9.10906 14.3536 2
      vertex -5.54453 6.70219 28.8583
      vertex -5.00618 7.88848 26.7729
    endloop
  endfacet
  facet normal -0.65413 0.696578 0.294774
    outer loop
      vertex -12.3925 11.6373 2
      vertex -5.95126 5.5886 30.5872
      vertex -10.8362 13.0987 2
    endloop
  endfacet
  facet normal -0.65413 0.696578 0.294774
    outer loop
      vertex -10.8362 13.0987 2
      vertex -5.95126 5.5886 30.5872
      vertex -5.54453 6.70219 28.8583
    endloop
  endfacet
  facet normal -0.736277 0.609101 0.294774
    outer loop
      vertex -13.7533 9.99235 2
      vertex -6.24769 4.53921 32.0152
      vertex -12.3925 11.6373 2
    endloop
  endfacet
  facet normal -0.736277 0.609101 0.294774
    outer loop
      vertex -12.3925 11.6373 2
      vertex -6.24769 4.53921 32.0152
      vertex -5.95126 5.5886 30.5872
    endloop
  endfacet
  facet normal -0.806812 0.512018 0.294774
    outer loop
      vertex -14.8972 8.18981 2
      vertex -6.45025 3.54606 33.1859
      vertex -13.7533 9.99235 2
    endloop
  endfacet
  facet normal -0.806812 0.512018 0.294774
    outer loop
      vertex -13.7533 9.99235 2
      vertex -6.45025 3.54606 33.1859
      vertex -6.24769 4.53921 32.0152
    endloop
  endfacet
  facet normal -0.864623 0.40686 0.294774
    outer loop
      vertex -15.8062 6.25812 2
      vertex -6.57149 2.60184 34.1335
      vertex -14.8972 8.18981 2
    endloop
  endfacet
  facet normal -0.864623 0.40686 0.294774
    outer loop
      vertex -14.8972 8.18981 2
      vertex -6.57149 2.60184 34.1335
      vertex -6.45025 3.54606 33.1859
    endloop
  endfacet
  facet normal -0.908798 0.295287 0.294774
    outer loop
      vertex -16.4659 4.22773 2
      vertex -6.62088 1.69995 34.8847
      vertex -15.8062 6.25812 2
    endloop
  endfacet
  facet normal -0.908798 0.295287 0.294774
    outer loop
      vertex -15.8062 6.25812 2
      vertex -6.62088 1.69995 34.8847
      vertex -6.57149 2.60184 34.1335
    endloop
  endfacet
  facet normal -0.938641 0.179055 0.294774
    outer loop
      vertex -16.8659 2.13067 2
      vertex -6.60537 0.834453 35.4598
      vertex -16.4659 4.22773 2
    endloop
  endfacet
  facet normal -0.938641 0.179055 0.294774
    outer loop
      vertex -16.4659 4.22773 2
      vertex -6.60537 0.834453 35.4598
      vertex -6.62088 1.69995 34.8847
    endloop
  endfacet
  facet normal -0.998027 0.0627904 0
    outer loop
      vertex -12.5 0 0
      vertex -12.5 0 2
      vertex -12.4014 1.56666 0
    endloop
  endfacet
  facet normal -0.998027 0.0627904 0
    outer loop
      vertex -12.4014 1.56666 0
      vertex -12.5 0 2
      vertex -12.4014 1.56666 2
    endloop
  endfacet
  facet normal -0.998027 -0.0627904 0
    outer loop
      vertex -12.5 0 0
      vertex -12.4014 -1.56666 0
      vertex -12.5 0 2
    endloop
  endfacet
  facet normal -0.998027 -0.0627904 0
    outer loop
      vertex -12.5 0 2
      vertex -12.4014 -1.56666 0
      vertex -12.4014 -1.56666 2
    endloop
  endfacet
  facet normal -0.982287 0.187381 0
    outer loop
      vertex -12.4014 1.56666 0
      vertex -12.4014 1.56666 2
      vertex -12.1073 3.10862 0
    endloop
  endfacet
  facet normal -0.982287 0.187381 0
    outer loop
      vertex -12.1073 3.10862 0
      vertex -12.4014 1.56666 2
      vertex -12.1073 3.10862 2
    endloop
  endfacet
  facet normal -0.951056 0.309017 0
    outer loop
      vertex -12.1073 3.10862 0
      vertex -12.1073 3.10862 2
      vertex -11.6222 4.60156 0
    endloop
  endfacet
  facet normal -0.951056 0.309017 0
    outer loop
      vertex -11.6222 4.60156 0
      vertex -12.1073 3.10862 2
      vertex -11.6222 4.60156 2
    endloop
  endfacet
  facet normal -0.904827 0.425779 0
    outer loop
      vertex -11.6222 4.60156 0
      vertex -11.6222 4.60156 2
      vertex -10.9538 6.02192 0
    endloop
  endfacet
  facet normal -0.904827 0.425779 0
    outer loop
      vertex -10.9538 6.02192 0
      vertex -11.6222 4.60156 2
      vertex -10.9538 6.02192 2
    endloop
  endfacet
  facet normal -0.844328 0.535827 0
    outer loop
      vertex -10.9538 6.02192 0
      vertex -10.9538 6.02192 2
      vertex -10.1127 7.34732 0
    endloop
  endfacet
  facet normal -0.844328 0.535827 0
    outer loop
      vertex -10.1127 7.34732 0
      vertex -10.9538 6.02192 2
      vertex -10.1127 7.34732 2
    endloop
  endfacet
  facet normal -0.770513 0.637424 0
    outer loop
      vertex -10.1127 7.34732 0
      vertex -10.1127 7.34732 2
      vertex -9.11211 8.55684 0
    endloop
  endfacet
  facet normal -0.770513 0.637424 0
    outer loop
      vertex -9.11211 8.55684 0
      vertex -10.1127 7.34732 2
      vertex -9.11211 8.55684 2
    endloop
  endfacet
  facet normal -0.684547 0.728969 0
    outer loop
      vertex -9.11211 8.55684 0
      vertex -9.11211 8.55684 2
      vertex -7.9678 9.63142 0
    endloop
  endfacet
  facet normal -0.684547 0.728969 0
    outer loop
      vertex -7.9678 9.63142 0
      vertex -9.11211 8.55684 2
      vertex -7.9678 9.63142 2
    endloop
  endfacet
  facet normal -0.587785 0.809017 0
    outer loop
      vertex -7.9678 9.63142 0
      vertex -7.9678 9.63142 2
      vertex -6.69783 10.5541 0
    endloop
  endfacet
  facet normal -0.587785 0.809017 0
    outer loop
      vertex -6.69783 10.5541 0
      vertex -7.9678 9.63142 2
      vertex -6.69783 10.5541 2
    endloop
  endfacet
  facet normal -0.481754 0.876307 0
    outer loop
      vertex -6.69783 10.5541 0
      vertex -6.69783 10.5541 2
      vertex -5.32224 11.3103 0
    endloop
  endfacet
  facet normal -0.481754 0.876307 0
    outer loop
      vertex -5.32224 11.3103 0
      vertex -6.69783 10.5541 2
      vertex -5.32224 11.3103 2
    endloop
  endfacet
  facet normal -0.368124 0.929777 0
    outer loop
      vertex -5.32224 11.3103 0
      vertex -5.32224 11.3103 2
      vertex -3.86271 11.8882 0
    endloop
  endfacet
  facet normal -0.368124 0.929777 0
    outer loop
      vertex -3.86271 11.8882 0
      vertex -5.32224 11.3103 2
      vertex -3.86271 11.8882 2
    endloop
  endfacet
  facet normal -0.24869 0.968583 0
    outer loop
      vertex -3.86271 11.8882 0
      vertex -3.86271 11.8882 2
      vertex -2.34227 12.2786 0
    endloop
  endfacet
  facet normal -0.24869 0.968583 0
    outer loop
      vertex -2.34227 12.2786 0
      vertex -3.86271 11.8882 2
      vertex -2.34227 12.2786 2
    endloop
  endfacet
  facet normal -0.125333 0.992115 0
    outer loop
      vertex -2.34227 12.2786 0
      vertex -2.34227 12.2786 2
      vertex -0.784881 12.4753 0
    endloop
  endfacet
  facet normal -0.125333 0.992115 0
    outer loop
      vertex -0.784881 12.4753 0
      vertex -2.34227 12.2786 2
      vertex -0.784881 12.4753 2
    endloop
  endfacet
  facet normal 0 1 0
    outer loop
      vertex -0.784881 12.4753 0
      vertex -0.784881 12.4753 2
      vertex 0.784881 12.4753 0
    endloop
  endfacet
  facet normal 0 1 0
    outer loop
      vertex 0.784881 12.4753 0
      vertex -0.784881 12.4753 2
      vertex 0.784881 12.4753 2
    endloop
  endfacet
  facet normal 0.125333 0.992115 0
    outer loop
      vertex 0.784881 12.4753 0
      vertex 0.784881 12.4753 2
      vertex 2.34227 12.2786 0
    endloop
  endfacet
  facet normal 0.125333 0.992115 0
    outer loop
      vertex 2.34227 12.2786 0
      vertex 0.784881 12.4753 2
      vertex 2.34227 12.2786 2
    endloop
  endfacet
  facet normal 0.24869 0.968583 0
    outer loop
      vertex 2.34227 12.2786 0
      vertex 2.34227 12.2786 2
      vertex 3.86271 11.8882 0
    endloop
  endfacet
  facet normal 0.24869 0.968583 0
    outer loop
      vertex 3.86271 11.8882 0
      vertex 2.34227 12.2786 2
      vertex 3.86271 11.8882 2
    endloop
  endfacet
  facet normal 0.368124 0.929777 0
    outer loop
      vertex 3.86271 11.8882 0
      vertex 3.86271 11.8882 2
      vertex 5.32224 11.3103 0
    endloop
  endfacet
  facet normal 0.368124 0.929777 0
    outer loop
      vertex 5.32224 11.3103 0
      vertex 3.86271 11.8882 2
      vertex 5.32224 11.3103 2
    endloop
  endfacet
  facet normal 0.481754 0.876307 0
    outer loop
      vertex 5.32224 11.3103 0
      vertex 5.32224 11.3103 2
      vertex 6.69783 10.5541 0
    endloop
  endfacet
  facet normal 0.481754 0.876307 0
    outer loop
      vertex 6.69783 10.5541 0
      vertex 5.32224 11.3103 2
      vertex 6.69783 10.5541 2
    endloop
  endfacet
  facet normal 0.587785 0.809017 0
    outer loop
      vertex 6.69783 10.5541 0
      vertex 6.69783 10.5541 2
      vertex 7.9678 9.63142 0
    endloop
  endfacet
  facet normal 0.587785 0.809017 0
    outer loop
      vertex 7.9678 9.63142 0
      vertex 6.69783 10.5541 2
      vertex 7.9678 9.63142 2
    endloop
  endfacet
  facet normal 0.684547 0.728969 0
    outer loop
      vertex 7.9678 9.63142 0
      vertex 7.9678 9.63142 2
      vertex 9.11211 8.55684 0
    endloop
  endfacet
  facet normal 0.684547 0.728969 0
    outer loop
      vertex 9.11211 8.55684 0
      vertex 7.9678 9.63142 2
      vertex 9.11211 8.55684 2
    endloop
  endfacet
  facet normal 0.770513 0.637424 0
    outer loop
      vertex 10.1127 7.34732 0
      vertex 9.11211 8.55684 0
      vertex 9.11211 8.55684 2
    endloop
  endfacet
  facet normal 0.770513 0.637424 0
    outer loop
      vertex 10.1127 7.34732 2
      vertex 10.1127 7.34732 0
      vertex 9.11211 8.55684 2
    endloop
  endfacet
  facet normal 0.844328 0.535827 0
    outer loop
      vertex 10.9538 6.02192 0
      vertex 10.1127 7.34732 0
      vertex 10.1127 7.34732 2
    endloop
  endfacet
  facet normal 0.844328 0.535827 0
    outer loop
      vertex 10.9538 6.02192 2
      vertex 10.9538 6.02192 0
      vertex 10.1127 7.34732 2
    endloop
  endfacet
  facet normal 0.904827 0.425779 0
    outer loop
      vertex 11.6222 4.60156 0
      vertex 10.9538 6.02192 0
      vertex 10.9538 6.02192 2
    endloop
  endfacet
  facet normal 0.904827 0.425779 0
    outer loop
      vertex 11.6222 4.60156 2
      vertex 11.6222 4.60156 0
      vertex 10.9538 6.02192 2
    endloop
  endfacet
  facet normal 0.951056 0.309017 0
    outer loop
      vertex 12.1073 3.10862 0
      vertex 11.6222 4.60156 0
      vertex 11.6222 4.60156 2
    endloop
  endfacet
  facet normal 0.951056 0.309017 0
    outer loop
      vertex 12.1073 3.10862 2
      vertex 12.1073 3.10862 0
      vertex 11.6222 4.60156 2
    endloop
  endfacet
  facet normal 0.982287 0.187381 0
    outer loop
      vertex 12.4014 1.56666 0
      vertex 12.1073 3.10862 0
      vertex 12.1073 3.10862 2
    endloop
  endfacet
  facet normal 0.982287 0.187381 0
    outer loop
      vertex 12.4014 1.56666 2
      vertex 12.4014 1.56666 0
      vertex 12.1073 3.10862 2
    endloop
  endfacet
  facet normal 0.998027 0.0627904 0
    outer loop
      vertex 12.5 0 0
      vertex 12.4014 1.56666 0
      vertex 12.4014 1.56666 2
    endloop
  endfacet
  facet normal 0.998027 0.0627904 0
    outer loop
      vertex 12.5 0 2
      vertex 12.5 0 0
      vertex 12.4014 1.56666 2
    endloop
  endfacet
  facet normal 0.998027 -0.0627904 0
    outer loop
      vertex 12.4014 -1.56666 2
      vertex 12.4014 -1.56666 0
      vertex 12.5 0 0
    endloop
  endfacet
  facet normal 0.998027 -0.0627904 0
    outer loop
      vertex 12.5 0 2
      vertex 12.4014 -1.56666 2
      vertex 12.5 0 0
    endloop
  endfacet
  facet normal 0.982287 -0.187381 0
    outer loop
      vertex 12.1073 -3.10862 2
      vertex 12.1073 -3.10862 0
      vertex 12.4014 -1.56666 0
    endloop
  endfacet
  facet normal 0.982287 -0.187381 0
    outer loop
      vertex 12.4014 -1.56666 2
      vertex 12.1073 -3.10862 2
      vertex 12.4014 -1.56666 0
    endloop
  endfacet
  facet normal 0.951056 -0.309017 0
    outer loop
      vertex 11.6222 -4.60156 2
      vertex 11.6222 -4.60156 0
      vertex 12.1073 -3.10862 0
    endloop
  endfacet
  facet normal 0.951056 -0.309017 0
    outer loop
      vertex 12.1073 -3.10862 2
      vertex 11.6222 -4.60156 2
      vertex 12.1073 -3.10862 0
    endloop
  endfacet
  facet normal 0.904827 -0.425779 0
    outer loop
      vertex 10.9538 -6.02192 2
      vertex 10.9538 -6.02192 0
      vertex 11.6222 -4.60156 0
    endloop
  endfacet
  facet normal 0.904827 -0.425779 0
    outer loop
      vertex 11.6222 -4.60156 2
      vertex 10.9538 -6.02192 2
      vertex 11.6222 -4.60156 0
    endloop
  endfacet
  facet normal 0.844328 -0.535827 0
    outer loop
      vertex 10.1127 -7.34732 2
      vertex 10.1127 -7.34732 0
      vertex 10.9538 -6.02192 0
    endloop
  endfacet
  facet normal 0.844328 -0.535827 0
    outer loop
      vertex 10.9538 -6.02192 2
      vertex 10.1127 -7.34732 2
      vertex 10.9538 -6.02192 0
    endloop
  endfacet
  facet normal 0.770513 -0.637424 0
    outer loop
      vertex 9.11211 -8.55684 2
      vertex 9.11211 -8.55684 0
      vertex 10.1127 -7.34732 0
    endloop
  endfacet
  facet normal 0.770513 -0.637424 0
    outer loop
      vertex 10.1127 -7.34732 2
      vertex 9.11211 -8.55684 2
      vertex 10.1127 -7.34732 0
    endloop
  endfacet
  facet normal 0.684547 -0.728969 0
    outer loop
      vertex 7.9678 -9.63142 2
      vertex 7.9678 -9.63142 0
      vertex 9.11211 -8.55684 0
    endloop
  endfacet
  facet normal 0.684547 -0.728969 0
    outer loop
      vertex 9.11211 -8.55684 2
      vertex 7.9678 -9.63142 2
      vertex 9.11211 -8.55684 0
    endloop
  endfacet
  facet normal 0.587785 -0.809017 0
    outer loop
      vertex 6.69783 -10.5541 2
      vertex 6.69783 -10.5541 0
      vertex 7.9678 -9.63142 0
    endloop
  endfacet
  facet normal 0.587785 -0.809017 0
    outer loop
      vertex 7.9678 -9.63142 2
      vertex 6.69783 -10.5541 2
      vertex 7.9678 -9.63142 0
    endloop
  endfacet
  facet normal 0.481754 -0.876307 0
    outer loop
      vertex 5.32224 -11.3103 2
      vertex 5.32224 -11.3103 0
      vertex 6.69783 -10.5541 0
    endloop
  endfacet
  facet normal 0.481754 -0.876307 0
    outer loop
      vertex 6.69783 -10.5541 2
      vertex 5.32224 -11.3103 2
      vertex 6.69783 -10.5541 0
    endloop
  endfacet
  facet normal 0.368124 -0.929777 0
    outer loop
      vertex 3.86271 -11.8882 2
      vertex 3.86271 -11.8882 0
      vertex 5.32224 -11.3103 0
    endloop
  endfacet
  facet normal 0.368124 -0.929777 0
    outer loop
      vertex 5.32224 -11.3103 2
      vertex 3.86271 -11.8882 2
      vertex 5.32224 -11.3103 0
    endloop
  endfacet
  facet normal 0.24869 -0.968583 0
    outer loop
      vertex 2.34227 -12.2786 2
      vertex 2.34227 -12.2786 0
      vertex 3.86271 -11.8882 0
    endloop
  endfacet
  facet normal 0.24869 -0.968583 0
    outer loop
      vertex 3.86271 -11.8882 2
      vertex 2.34227 -12.2786 2
      vertex 3.86271 -11.8882 0
    endloop
  endfacet
  facet normal 0.125333 -0.992115 0
    outer loop
      vertex 0.784881 -12.4753 2
      vertex 0.784881 -12.4753 0
      vertex 2.34227 -12.2786 0
    endloop
  endfacet
  facet normal 0.125333 -0.992115 0
    outer loop
      vertex 2.34227 -12.2786 2
      vertex 0.784881 -12.4753 2
      vertex 2.34227 -12.2786 0
    endloop
  endfacet
  facet normal 0 -1 0
    outer loop
      vertex -0.784881 -12.4753 2
      vertex -0.784881 -12.4753 0
      vertex 0.784881 -12.4753 0
    endloop
  endfacet
  facet normal 0 -1 0
    outer loop
      vertex 0.784881 -12.4753 2
      vertex -0.784881 -12.4753 2
      vertex 0.784881 -12.4753 0
    endloop
  endfacet
  facet normal -0.125333 -0.992115 0
    outer loop
      vertex -2.34227 -12.2786 2
      vertex -2.34227 -12.2786 0
      vertex -0.784881 -12.4753 0
    endloop
  endfacet
  facet normal -0.125333 -0.992115 0
    outer loop
      vertex -0.784881 -12.4753 2
      vertex -2.34227 -12.2786 2
      vertex -0.784881 -12.4753 0
    endloop
  endfacet
  facet normal -0.24869 -0.968583 0
    outer loop
      vertex -3.86271 -11.8882 2
      vertex -3.86271 -11.8882 0
      vertex -2.34227 -12.2786 0
    endloop
  endfacet
  facet normal -0.24869 -0.968583 0
    outer loop
      vertex -2.34227 -12.2786 2
      vertex -3.86271 -11.8882 2
      vertex -2.34227 -12.2786 0
    endloop
  endfacet
  facet normal -0.368124 -0.929777 0
    outer loop
      vertex -5.32224 -11.3103 2
      vertex -5.32224 -11.3103 0
      vertex -3.86271 -11.8882 0
    endloop
  endfacet
  facet normal -0.368124 -0.929777 0
    outer loop
      vertex -3.86271 -11.8882 2
      vertex -5.32224 -11.3103 2
      vertex -3.86271 -11.8882 0
    endloop
  endfacet
  facet normal -0.481754 -0.876307 0
    outer loop
      vertex -6.69783 -10.5541 2
      vertex -6.69783 -10.5541 0
      vertex -5.32224 -11.3103 0
    endloop
  endfacet
  facet normal -0.481754 -0.876307 0
    outer loop
      vertex -5.32224 -11.3103 2
      vertex -6.69783 -10.5541 2
      vertex -5.32224 -11.3103 0
    endloop
  endfacet
  facet normal -0.587785 -0.809017 0
    outer loop
      vertex -7.9678 -9.63142 2
      vertex -7.9678 -9.63142 0
      vertex -6.69783 -10.5541 0
    endloop
  endfacet
  facet normal -0.587785 -0.809017 0
    outer loop
      vertex -6.69783 -10.5541 2
      vertex -7.9678 -9.63142 2
      vertex -6.69783 -10.5541 0
    endloop
  endfacet
  facet normal -0.684547 -0.728969 0
    outer loop
      vertex -9.11211 -8.55684 2
      vertex -9.11211 -8.55684 0
      vertex -7.9678 -9.63142 0
    endloop
  endfacet
  facet normal -0.684547 -0.728969 0
    outer loop
      vertex -7.9678 -9.63142 2
      vertex -9.11211 -8.55684 2
      vertex -7.9678 -9.63142 0
    endloop
  endfacet
  facet normal -0.770513 -0.637424 0
    outer loop
      vertex -10.1127 -7.34732 0
      vertex -9.11211 -8.55684 0
      vertex -10.1127 -7.34732 2
    endloop
  endfacet
  facet normal -0.770513 -0.637424 0
    outer loop
      vertex -10.1127 -7.34732 2
      vertex -9.11211 -8.55684 0
      vertex -9.11211 -8.55684 2
    endloop
  endfacet
  facet normal -0.844328 -0.535827 0
    outer loop
      vertex -10.9538 -6.02192 0
      vertex -10.1127 -7.34732 0
      vertex -10.9538 -6.02192 2
    endloop
  endfacet
  facet normal -0.844328 -0.535827 0
    outer loop
      vertex -10.9538 -6.02192 2
      vertex -10.1127 -7.34732 0
      vertex -10.1127 -7.34732 2
    endloop
  endfacet
  facet normal -0.904827 -0.425779 0
    outer loop
      vertex -11.6222 -4.60156 0
      vertex -10.9538 -6.02192 0
      vertex -11.6222 -4.60156 2
    endloop
  endfacet
  facet normal -0.904827 -0.425779 0
    outer loop
      vertex -11.6222 -4.60156 2
      vertex -10.9538 -6.02192 0
      vertex -10.9538 -6.02192 2
    endloop
  endfacet
  facet normal -0.951056 -0.309017 0
    outer loop
      vertex -12.1073 -3.10862 0
      vertex -11.6222 -4.60156 0
      vertex -12.1073 -3.10862 2
    endloop
  endfacet
  facet normal -0.951056 -0.309017 0
    outer loop
      vertex -12.1073 -3.10862 2
      vertex -11.6222 -4.60156 0
      vertex -11.6222 -4.60156 2
    endloop
  endfacet
  facet normal -0.982287 -0.187381 0
    outer loop
      vertex -12.4014 -1.56666 0
      vertex -12.1073 -3.10862 0
      vertex -12.4014 -1.56666 2
    endloop
  endfacet
  facet normal -0.982287 -0.187381 0
    outer loop
      vertex -12.4014 -1.56666 2
      vertex -12.1073 -3.10862 0
      vertex -12.1073 -3.10862 2
    endloop
  endfacet
  facet normal -0.884264 -0.269333 -0.381494
    outer loop
      vertex -5.95126 5.5886 30.5872
      vertex -8.5 0 40.4405
      vertex -5.54453 6.70219 28.8583
    endloop
  endfacet
  facet normal -0.884264 -0.269333 -0.381494
    outer loop
      vertex -0.850781 13.5228 13.1634
      vertex 0 29.3893 -0.0103497
      vertex 0 14.3005 10.6423
    endloop
  endfacet
  facet normal -0.884264 -0.269333 -0.381494
    outer loop
      vertex -2.28308 11.9683 17.5807
      vertex 0 29.3893 -0.0103497
      vertex -0.850781 13.5228 13.1634
    endloop
  endfacet
  facet normal -0.884264 -0.269333 -0.381494
    outer loop
      vertex -3.41617 10.5139 21.2339
      vertex 0 29.3893 -0.0103497
      vertex -2.28308 11.9683 17.5807
    endloop
  endfacet
  facet normal -0.884264 -0.269333 -0.381494
    outer loop
      vertex -4.3086 9.15624 24.261
      vertex 0 29.3893 -0.0103497
      vertex -3.41617 10.5139 21.2339
    endloop
  endfacet
  facet normal -0.884264 -0.269333 -0.381494
    outer loop
      vertex -5.54453 6.70219 28.8583
      vertex 0 29.3893 -0.0103497
      vertex -5.00618 7.88848 26.7729
    endloop
  endfacet
  facet normal -0.884264 -0.269333 -0.381494
    outer loop
      vertex -8.5 0 40.4405
      vertex 0 29.3893 -0.0103497
      vertex -5.54453 6.70219 28.8583
    endloop
  endfacet
  facet normal -0.884264 -0.269333 -0.381494
    outer loop
      vertex -8.5 0 40.4405
      vertex -5.95126 5.5886 30.5872
      vertex -6.24769 4.53921 32.0152
    endloop
  endfacet
  facet normal -0.884264 -0.269333 -0.381494
    outer loop
      vertex -8.5 0 40.4405
      vertex -6.24769 4.53921 32.0152
      vertex -6.45025 3.54606 33.1859
    endloop
  endfacet
  facet normal -0.884264 -0.269333 -0.381494
    outer loop
      vertex -8.5 0 40.4405
      vertex -6.45025 3.54606 33.1859
      vertex -6.57149 2.60184 34.1335
    endloop
  endfacet
  facet normal -0.884264 -0.269333 -0.381494
    outer loop
      vertex -8.5 0 40.4405
      vertex -6.57149 2.60184 34.1335
      vertex -6.62088 1.69995 34.8847
    endloop
  endfacet
  facet normal -0.884264 -0.269333 -0.381494
    outer loop
      vertex -8.5 0 40.4405
      vertex -6.62088 1.69995 34.8847
      vertex -6.60537 0.834453 35.4598
    endloop
  endfacet
  facet normal -0.884264 -0.269333 -0.381494
    outer loop
      vertex -8.5 0 40.4405
      vertex -6.60537 0.834453 35.4598
      vertex -6.52987 0 35.8739
    endloop
  endfacet
  facet normal -0.884264 -0.269333 -0.381494
    outer loop
      vertex -8.5 0 40.4405
      vertex -6.52987 0 35.8739
      vertex -6.52987 -1.75197e-015 35.8739
    endloop
  endfacet
  facet normal -0.884264 -0.269333 -0.381494
    outer loop
      vertex -5.00618 7.88848 26.7729
      vertex 0 29.3893 -0.0103497
      vertex -4.3086 9.15624 24.261
    endloop
  endfacet
  facet normal -0.884264 0.269333 -0.381494
    outer loop
      vertex -8.5 0 40.4405
      vertex -6.52987 -1.75197e-015 35.8739
      vertex -6.60537 -0.834453 35.4598
    endloop
  endfacet
  facet normal -0.884264 0.269333 -0.381494
    outer loop
      vertex -8.5 0 40.4405
      vertex -6.60537 -0.834453 35.4598
      vertex -6.62088 -1.69995 34.8847
    endloop
  endfacet
  facet normal -0.884264 0.269333 -0.381494
    outer loop
      vertex -8.5 0 40.4405
      vertex -6.62088 -1.69995 34.8847
      vertex -6.57149 -2.60184 34.1335
    endloop
  endfacet
  facet normal -0.884264 0.269333 -0.381494
    outer loop
      vertex -8.5 0 40.4405
      vertex -6.57149 -2.60184 34.1335
      vertex -6.45025 -3.54606 33.1859
    endloop
  endfacet
  facet normal -0.884264 0.269333 -0.381494
    outer loop
      vertex -8.5 0 40.4405
      vertex -6.45025 -3.54606 33.1859
      vertex -6.24769 -4.53921 32.0152
    endloop
  endfacet
  facet normal -0.884264 0.269333 -0.381494
    outer loop
      vertex -8.5 0 40.4405
      vertex -6.24769 -4.53921 32.0152
      vertex 0 -29.3893 -0.0103497
    endloop
  endfacet
  facet normal -0.884264 0.269333 -0.381494
    outer loop
      vertex -6.24769 -4.53921 32.0152
      vertex -5.95126 -5.5886 30.5872
      vertex 0 -29.3893 -0.0103497
    endloop
  endfacet
  facet normal -0.884264 0.269333 -0.381494
    outer loop
      vertex -5.00618 -7.88848 26.7729
      vertex 0 -29.3893 -0.0103497
      vertex -5.54453 -6.70219 28.8583
    endloop
  endfacet
  facet normal -0.884264 0.269333 -0.381494
    outer loop
      vertex -4.3086 -9.15624 24.261
      vertex 0 -29.3893 -0.0103497
      vertex -5.00618 -7.88848 26.7729
    endloop
  endfacet
  facet normal -0.884264 0.269333 -0.381494
    outer loop
      vertex 0 -29.3893 -0.0103497
      vertex -4.3086 -9.15624 24.261
      vertex -3.41617 -10.5139 21.2339
    endloop
  endfacet
  facet normal -0.884264 0.269333 -0.381494
    outer loop
      vertex -3.41617 -10.5139 21.2339
      vertex -2.28308 -11.9683 17.5807
      vertex 0 -29.3893 -0.0103497
    endloop
  endfacet
  facet normal -0.884264 0.269333 -0.381494
    outer loop
      vertex -2.28308 -11.9683 17.5807
      vertex -0.850781 -13.5228 13.1634
      vertex 0 -29.3893 -0.0103497
    endloop
  endfacet
  facet normal -0.884264 0.269333 -0.381494
    outer loop
      vertex -0.850781 -13.5228 13.1634
      vertex 0 -14.3005 10.6423
      vertex 0 -29.3893 -0.0103497
    endloop
  endfacet
  facet normal -0.884264 0.269333 -0.381494
    outer loop
      vertex -5.54453 -6.70219 28.8583
      vertex 0 -29.3893 -0.0103497
      vertex -5.95126 -5.5886 30.5872
    endloop
  endfacet
  facet normal 0.884264 0.269333 -0.381494
    outer loop
      vertex 0.850781 -13.5228 13.1634
      vertex 0 -29.3893 -0.0103497
      vertex 0 -14.3005 10.6423
    endloop
  endfacet
  facet normal 0.884264 0.269333 -0.381494
    outer loop
      vertex 2.28308 -11.9683 17.5807
      vertex 0 -29.3893 -0.0103497
      vertex 0.850781 -13.5228 13.1634
    endloop
  endfacet
  facet normal 0.884264 0.269333 -0.381494
    outer loop
      vertex 6.45025 -3.54606 33.1859
      vertex 6.57149 -2.60184 34.1335
      vertex 8.5 0 40.4405
    endloop
  endfacet
  facet normal 0.884264 0.269333 -0.381494
    outer loop
      vertex 3.41617 -10.5139 21.2339
      vertex 0 -29.3893 -0.0103497
      vertex 2.28308 -11.9683 17.5807
    endloop
  endfacet
  facet normal 0.884264 0.269333 -0.381494
    outer loop
      vertex 4.3086 -9.15624 24.261
      vertex 0 -29.3893 -0.0103497
      vertex 3.41617 -10.5139 21.2339
    endloop
  endfacet
  facet normal 0.884264 0.269333 -0.381494
    outer loop
      vertex 5.00618 -7.88848 26.7729
      vertex 0 -29.3893 -0.0103497
      vertex 4.3086 -9.15624 24.261
    endloop
  endfacet
  facet normal 0.884264 0.269333 -0.381494
    outer loop
      vertex 5.54453 -6.70219 28.8583
      vertex 0 -29.3893 -0.0103497
      vertex 5.00618 -7.88848 26.7729
    endloop
  endfacet
  facet normal 0.884264 0.269333 -0.381494
    outer loop
      vertex 8.5 0 40.4405
      vertex 0 -29.3893 -0.0103497
      vertex 5.54453 -6.70219 28.8583
    endloop
  endfacet
  facet normal 0.884264 0.269333 -0.381494
    outer loop
      vertex 6.24769 -4.53921 32.0152
      vertex 6.45025 -3.54606 33.1859
      vertex 8.5 0 40.4405
    endloop
  endfacet
  facet normal 0.884264 0.269333 -0.381494
    outer loop
      vertex 6.62088 -1.69995 34.8847
      vertex 8.5 0 40.4405
      vertex 6.57149 -2.60184 34.1335
    endloop
  endfacet
  facet normal 0.884264 0.269333 -0.381494
    outer loop
      vertex 6.60537 -0.834453 35.4598
      vertex 8.5 0 40.4405
      vertex 6.62088 -1.69995 34.8847
    endloop
  endfacet
  facet normal 0.884264 0.269333 -0.381494
    outer loop
      vertex 6.52987 -1.75197e-015 35.8739
      vertex 8.5 0 40.4405
      vertex 6.60537 -0.834453 35.4598
    endloop
  endfacet
  facet normal 0.884264 0.269333 -0.381494
    outer loop
      vertex 5.54453 -6.70219 28.8583
      vertex 5.95126 -5.5886 30.5872
      vertex 8.5 0 40.4405
    endloop
  endfacet
  facet normal 0.884264 0.269333 -0.381494
    outer loop
      vertex 5.95126 -5.5886 30.5872
      vertex 6.24769 -4.53921 32.0152
      vertex 8.5 0 40.4405
    endloop
  endfacet
  facet normal 0.884264 -0.269333 -0.381494
    outer loop
      vertex 0.850781 13.5228 13.1634
      vertex 0 14.3005 10.6423
      vertex 0 29.3893 -0.0103497
    endloop
  endfacet
  facet normal 0.884264 -0.269333 -0.381494
    outer loop
      vertex 2.28308 11.9683 17.5807
      vertex 0.850781 13.5228 13.1634
      vertex 0 29.3893 -0.0103497
    endloop
  endfacet
  facet normal 0.884264 -0.269333 -0.381494
    outer loop
      vertex 6.52987 0 35.8739
      vertex 8.5 0 40.4405
      vertex 6.52987 -1.75197e-015 35.8739
    endloop
  endfacet
  facet normal 0.884264 -0.269333 -0.381494
    outer loop
      vertex 6.60537 0.834453 35.4598
      vertex 8.5 0 40.4405
      vertex 6.52987 0 35.8739
    endloop
  endfacet
  facet normal 0.884264 -0.269333 -0.381494
    outer loop
      vertex 6.62088 1.69995 34.8847
      vertex 8.5 0 40.4405
      vertex 6.60537 0.834453 35.4598
    endloop
  endfacet
  facet normal 0.884264 -0.269333 -0.381494
    outer loop
      vertex 6.57149 2.60184 34.1335
      vertex 8.5 0 40.4405
      vertex 6.62088 1.69995 34.8847
    endloop
  endfacet
  facet normal 0.884264 -0.269333 -0.381494
    outer loop
      vertex 6.45025 3.54606 33.1859
      vertex 6.24769 4.53921 32.0152
      vertex 8.5 0 40.4405
    endloop
  endfacet
  facet normal 0.884264 -0.269333 -0.381494
    outer loop
      vertex 8.5 0 40.4405
      vertex 6.24769 4.53921 32.0152
      vertex 0 29.3893 -0.0103497
    endloop
  endfacet
  facet normal 0.884264 -0.269333 -0.381494
    outer loop
      vertex 6.24769 4.53921 32.0152
      vertex 5.95126 5.5886 30.5872
      vertex 0 29.3893 -0.0103497
    endloop
  endfacet
  facet normal 0.884264 -0.269333 -0.381494
    outer loop
      vertex 5.95126 5.5886 30.5872
      vertex 5.54453 6.70219 28.8583
      vertex 0 29.3893 -0.0103497
    endloop
  endfacet
  facet normal 0.884264 -0.269333 -0.381494
    outer loop
      vertex 5.54453 6.70219 28.8583
      vertex 5.00618 7.88848 26.7729
      vertex 0 29.3893 -0.0103497
    endloop
  endfacet
  facet normal 0.884264 -0.269333 -0.381494
    outer loop
      vertex 5.00618 7.88848 26.7729
      vertex 4.3086 9.15624 24.261
      vertex 0 29.3893 -0.0103497
    endloop
  endfacet
  facet normal 0.884264 -0.269333 -0.381494
    outer loop
      vertex 4.3086 9.15624 24.261
      vertex 3.41617 10.5139 21.2339
      vertex 0 29.3893 -0.0103497
    endloop
  endfacet
  facet normal 0.884264 -0.269333 -0.381494
    outer loop
      vertex 3.41617 10.5139 21.2339
      vertex 2.28308 11.9683 17.5807
      vertex 0 29.3893 -0.0103497
    endloop
  endfacet
  facet normal 0.884264 -0.269333 -0.381494
    outer loop
      vertex 6.57149 2.60184 34.1335
      vertex 6.45025 3.54606 33.1859
      vertex 8.5 0 40.4405
    endloop
  endfacet
  facet normal 0 0 -1
    outer loop
      vertex -12.5 0 0
      vertex -12.4014 1.56666 0
      vertex -12.4014 -1.56666 0
    endloop
  endfacet
  facet normal 0 0 -1
    outer loop
      vertex -12.4014 -1.56666 0
      vertex -12.4014 1.56666 0
      vertex -12.1073 3.10862 0
    endloop
  endfacet
  facet normal 0 0 -1
    outer loop
      vertex -12.4014 -1.56666 0
      vertex -12.1073 3.10862 0
      vertex -11.6222 4.60156 0
    endloop
  endfacet
  facet normal 0 0 -1
    outer loop
      vertex -12.4014 -1.56666 0
      vertex -11.6222 4.60156 0
      vertex -10.9538 6.02192 0
    endloop
  endfacet
  facet normal 0 0 -1
    outer loop
      vertex -12.4014 -1.56666 0
      vertex -10.9538 6.02192 0
      vertex -10.1127 7.34732 0
    endloop
  endfacet
  facet normal 0 0 -1
    outer loop
      vertex -12.4014 -1.56666 0
      vertex -10.1127 7.34732 0
      vertex -9.11211 8.55684 0
    endloop
  endfacet
  facet normal 0 0 -1
    outer loop
      vertex -12.4014 -1.56666 0
      vertex -9.11211 8.55684 0
      vertex -7.9678 9.63142 0
    endloop
  endfacet
  facet normal 0 0 -1
    outer loop
      vertex -12.4014 -1.56666 0
      vertex -7.9678 9.63142 0
      vertex -6.69783 10.5541 0
    endloop
  endfacet
  facet normal 0 0 -1
    outer loop
      vertex -12.4014 -1.56666 0
      vertex -6.69783 10.5541 0
      vertex -5.32224 11.3103 0
    endloop
  endfacet
  facet normal 0 0 -1
    outer loop
      vertex -12.4014 -1.56666 0
      vertex -5.32224 11.3103 0
      vertex -3.86271 11.8882 0
    endloop
  endfacet
  facet normal 0 0 -1
    outer loop
      vertex -12.4014 -1.56666 0
      vertex -3.86271 11.8882 0
      vertex -2.34227 12.2786 0
    endloop
  endfacet
  facet normal 0 0 -1
    outer loop
      vertex -12.4014 -1.56666 0
      vertex -2.34227 12.2786 0
      vertex -0.784881 12.4753 0
    endloop
  endfacet
  facet normal 0 0 -1
    outer loop
      vertex -12.4014 -1.56666 0
      vertex -0.784881 12.4753 0
      vertex 0.784881 12.4753 0
    endloop
  endfacet
  facet normal 0 0 -1
    outer loop
      vertex -12.4014 -1.56666 0
      vertex 0.784881 12.4753 0
      vertex 2.34227 12.2786 0
    endloop
  endfacet
  facet normal 0 0 -1
    outer loop
      vertex -12.4014 -1.56666 0
      vertex 2.34227 12.2786 0
      vertex 3.86271 11.8882 0
    endloop
  endfacet
  facet normal 0 0 -1
    outer loop
      vertex -12.4014 -1.56666 0
      vertex 3.86271 11.8882 0
      vertex 5.32224 11.3103 0
    endloop
  endfacet
  facet normal 0 0 -1
    outer loop
      vertex -12.4014 -1.56666 0
      vertex 5.32224 11.3103 0
      vertex 6.69783 10.5541 0
    endloop
  endfacet
  facet normal 0 0 -1
    outer loop
      vertex -12.4014 -1.56666 0
      vertex 6.69783 10.5541 0
      vertex 7.9678 9.63142 0
    endloop
  endfacet
  facet normal 0 0 -1
    outer loop
      vertex -12.4014 -1.56666 0
      vertex 7.9678 9.63142 0
      vertex 9.11211 8.55684 0
    endloop
  endfacet
  facet normal 0 0 -1
    outer loop
      vertex -12.4014 -1.56666 0
      vertex 9.11211 8.55684 0
      vertex 10.1127 7.34732 0
    endloop
  endfacet
  facet normal 0 0 -1
    outer loop
      vertex -12.4014 -1.56666 0
      vertex 10.1127 7.34732 0
      vertex 10.9538 6.02192 0
    endloop
  endfacet
  facet normal 0 0 -1
    outer loop
      vertex -12.4014 -1.56666 0
      vertex 10.9538 6.02192 0
      vertex 11.6222 4.60156 0
    endloop
  endfacet
  facet normal 0 0 -1
    outer loop
      vertex -12.4014 -1.56666 0
      vertex 11.6222 4.60156 0
      vertex 12.1073 3.10862 0
    endloop
  endfacet
  facet normal 0 0 -1
    outer loop
      vertex -12.4014 -1.56666 0
      vertex 12.1073 3.10862 0
      vertex 12.4014 1.56666 0
    endloop
  endfacet
  facet normal 0 0 -1
    outer loop
      vertex -12.4014 -1.56666 0
      vertex 12.4014 1.56666 0
      vertex 12.5 0 0
    endloop
  endfacet
  facet normal 0 0 -1
    outer loop
      vertex -12.4014 -1.56666 0
      vertex 12.5 0 0
      vertex 12.4014 -1.56666 0
    endloop
  endfacet
  facet normal 0 0 -1
    outer loop
      vertex -12.4014 -1.56666 0
      vertex 12.4014 -1.56666 0
      vertex 12.1073 -3.10862 0
    endloop
  endfacet
  facet normal 0 0 -1
    outer loop
      vertex -12.4014 -1.56666 0
      vertex 12.1073 -3.10862 0
      vertex 11.6222 -4.60156 0
    endloop
  endfacet
  facet normal 0 0 -1
    outer loop
      vertex -12.4014 -1.56666 0
      vertex 11.6222 -4.60156 0
      vertex 10.9538 -6.02192 0
    endloop
  endfacet
  facet normal 0 0 -1
    outer loop
      vertex -12.4014 -1.56666 0
      vertex 10.9538 -6.02192 0
      vertex 10.1127 -7.34732 0
    endloop
  endfacet
  facet normal 0 0 -1
    outer loop
      vertex -12.4014 -1.56666 0
      vertex 10.1127 -7.34732 0
      vertex 9.11211 -8.55684 0
    endloop
  endfacet
  facet normal 0 0 -1
    outer loop
      vertex -12.4014 -1.56666 0
      vertex 9.11211 -8.55684 0
      vertex 7.9678 -9.63142 0
    endloop
  endfacet
  facet normal 0 0 -1
    outer loop
      vertex -12.4014 -1.56666 0
      vertex 7.9678 -9.63142 0
      vertex 6.69783 -10.5541 0
    endloop
  endfacet
  facet normal 0 0 -1
    outer loop
      vertex -12.4014 -1.56666 0
      vertex 6.69783 -10.5541 0
      vertex 5.32224 -11.3103 0
    endloop
  endfacet
  facet normal 0 0 -1
    outer loop
      vertex -12.4014 -1.56666 0
      vertex 5.32224 -11.3103 0
      vertex 3.86271 -11.8882 0
    endloop
  endfacet
  facet normal 0 0 -1
    outer loop
      vertex -12.4014 -1.56666 0
      vertex 3.86271 -11.8882 0
      vertex 2.34227 -12.2786 0
    endloop
  endfacet
  facet normal 0 0 -1
    outer loop
      vertex -12.4014 -1.56666 0
      vertex 2.34227 -12.2786 0
      vertex 0.784881 -12.4753 0
    endloop
  endfacet
  facet normal 0 0 -1
    outer loop
      vertex -12.4014 -1.56666 0
      vertex 0.784881 -12.4753 0
      vertex -0.784881 -12.4753 0
    endloop
  endfacet
  facet normal 0 0 -1
    outer loop
      vertex -12.4014 -1.56666 0
      vertex -0.784881 -12.4753 0
      vertex -2.34227 -12.2786 0
    endloop
  endfacet
  facet normal 0 0 -1
    outer loop
      vertex -12.4014 -1.56666 0
      vertex -2.34227 -12.2786 0
      vertex -3.86271 -11.8882 0
    endloop
  endfacet
  facet normal 0 0 -1
    outer loop
      vertex -12.4014 -1.56666 0
      vertex -3.86271 -11.8882 0
      vertex -5.32224 -11.3103 0
    endloop
  endfacet
  facet normal 0 0 -1
    outer loop
      vertex -12.4014 -1.56666 0
      vertex -5.32224 -11.3103 0
      vertex -6.69783 -10.5541 0
    endloop
  endfacet
  facet normal 0 0 -1
    outer loop
      vertex -12.4014 -1.56666 0
      vertex -6.69783 -10.5541 0
      vertex -7.9678 -9.63142 0
    endloop
  endfacet
  facet normal 0 0 -1
    outer loop
      vertex -12.4014 -1.56666 0
      vertex -7.9678 -9.63142 0
      vertex -9.11211 -8.55684 0
    endloop
  endfacet
  facet normal 0 0 -1
    outer loop
      vertex -12.4014 -1.56666 0
      vertex -9.11211 -8.55684 0
      vertex -10.1127 -7.34732 0
    endloop
  endfacet
  facet normal 0 0 -1
    outer loop
      vertex -12.4014 -1.56666 0
      vertex -10.1127 -7.34732 0
      vertex -10.9538 -6.02192 0
    endloop
  endfacet
  facet normal 0 0 -1
    outer loop
      vertex -12.4014 -1.56666 0
      vertex -10.9538 -6.02192 0
      vertex -11.6222 -4.60156 0
    endloop
  endfacet
  facet normal 0 0 -1
    outer loop
      vertex -12.4014 -1.56666 0
      vertex -11.6222 -4.60156 0
      vertex -12.1073 -3.10862 0
    endloop
  endfacet
  facet normal 0.884264 0.446051 0.138263
    outer loop
      vertex 0 29.3893 -0.0103497
      vertex 0 18.7378 34.3522
      vertex 8.5 0 40.4405
    endloop
  endfacet
  facet normal -0.884264 0.446051 0.138263
    outer loop
      vertex 0 29.3893 -0.0103497
      vertex -8.5 0 40.4405
      vertex 0 18.7378 34.3522
    endloop
  endfacet
  facet normal -0.884264 0.442132 0.150325
    outer loop
      vertex 0 11.5806 56.3799
      vertex -8.5 0 40.4405
      vertex 0 0 90.4405
    endloop
  endfacet
  facet normal -0.884264 -0.442132 0.150325
    outer loop
      vertex 0 0 90.4405
      vertex -8.5 0 40.4405
      vertex 0 -11.5806 56.3799
    endloop
  endfacet
  facet normal -0.884264 -0.00634115 0.466945
    outer loop
      vertex 0 -11.5806 56.3799
      vertex -8.5 0 40.4405
      vertex 0 -47.5528 55.8913
    endloop
  endfacet
  facet normal -0.884264 -0.279594 -0.374039
    outer loop
      vertex 0 -47.5528 55.8913
      vertex -8.5 0 40.4405
      vertex 0 -18.7378 34.3522
    endloop
  endfacet
  facet normal -0.884264 -0.446051 0.138263
    outer loop
      vertex 0 -18.7378 34.3522
      vertex -8.5 0 40.4405
      vertex 0 -29.3893 -0.0103497
    endloop
  endfacet
  facet normal -0.884264 0.279594 -0.374039
    outer loop
      vertex 0 18.7378 34.3522
      vertex -8.5 0 40.4405
      vertex 0 47.5528 55.8913
    endloop
  endfacet
  facet normal -0.884264 0.00634115 0.466945
    outer loop
      vertex 0 47.5528 55.8913
      vertex -8.5 0 40.4405
      vertex 0 11.5806 56.3799
    endloop
  endfacet
  facet normal 0.884264 -0.446051 0.138263
    outer loop
      vertex 0 -18.7378 34.3522
      vertex 0 -29.3893 -0.0103497
      vertex 8.5 0 40.4405
    endloop
  endfacet
  facet normal 0.884264 -0.279594 -0.374039
    outer loop
      vertex 8.5 0 40.4405
      vertex 0 -47.5528 55.8913
      vertex 0 -18.7378 34.3522
    endloop
  endfacet
  facet normal 0.884264 -0.00634115 0.466945
    outer loop
      vertex 0 -11.5806 56.3799
      vertex 0 -47.5528 55.8913
      vertex 8.5 0 40.4405
    endloop
  endfacet
  facet normal 0.884264 -0.442132 0.150325
    outer loop
      vertex 0 0 90.4405
      vertex 0 -11.5806 56.3799
      vertex 8.5 0 40.4405
    endloop
  endfacet
  facet normal 0.884264 0.442132 0.150325
    outer loop
      vertex 0 11.5806 56.3799
      vertex 0 0 90.4405
      vertex 8.5 0 40.4405
    endloop
  endfacet
  facet normal 0.884264 0.00634115 0.466945
    outer loop
      vertex 0 47.5528 55.8913
      vertex 0 11.5806 56.3799
      vertex 8.5 0 40.4405
    endloop
  endfacet
  facet normal 0.884264 0.279594 -0.374039
    outer loop
      vertex 8.5 0 40.4405
      vertex 0 18.7378 34.3522
      vertex 0 47.5528 55.8913
    endloop
  endfacet
endsolid OpenSCAD_Model
