solid OpenSCAD_Model
  facet normal 0 0 -1
    outer loop
      vertex -17 0 2
      vertex -16.8659 2.13067 2
      vertex -16.8659 -2.13067 2
    endloop
  endfacet
  facet normal 0 0 -1
    outer loop
      vertex -16.8659 -2.13067 2
      vertex -16.8659 2.13067 2
      vertex -16.4659 4.22773 2
    endloop
  endfacet
  facet normal 0 0 -1
    outer loop
      vertex -16.8659 -2.13067 2
      vertex -16.4659 4.22773 2
      vertex -15.8062 6.25812 2
    endloop
  endfacet
  facet normal 0 0 -1
    outer loop
      vertex -16.8659 -2.13067 2
      vertex -15.8062 6.25812 2
      vertex -14.8972 8.18981 2
    endloop
  endfacet
  facet normal 0 0 -1
    outer loop
      vertex -16.8659 -2.13067 2
      vertex -14.8972 8.18981 2
      vertex -13.7533 9.99235 2
    endloop
  endfacet
  facet normal 0 0 -1
    outer loop
      vertex -16.8659 -2.13067 2
      vertex -13.7533 9.99235 2
      vertex -12.3925 11.6373 2
    endloop
  endfacet
  facet normal 0 0 -1
    outer loop
      vertex -16.8659 -2.13067 2
      vertex -12.3925 11.6373 2
      vertex -10.8362 13.0987 2
    endloop
  endfacet
  facet normal 0 0 -1
    outer loop
      vertex -16.8659 -2.13067 2
      vertex -10.8362 13.0987 2
      vertex -9.10906 14.3536 2
    endloop
  endfacet
  facet normal 0 0 -1
    outer loop
      vertex -16.8659 -2.13067 2
      vertex -9.10906 14.3536 2
      vertex -7.23825 15.3821 2
    endloop
  endfacet
  facet normal 0 0 -1
    outer loop
      vertex -16.8659 -2.13067 2
      vertex -7.23825 15.3821 2
      vertex -5.25329 16.168 2
    endloop
  endfacet
  facet normal 0 0 -1
    outer loop
      vertex -9.11211 8.55684 2
      vertex -5.25329 16.168 2
      vertex -3.18548 16.6989 2
    endloop
  endfacet
  facet normal 0 0 -1
    outer loop
      vertex -6.69783 10.5541 2
      vertex -3.18548 16.6989 2
      vertex -1.06744 16.9665 2
    endloop
  endfacet
  facet normal 0 0 -1
    outer loop
      vertex -3.86271 11.8882 2
      vertex -1.06744 16.9665 2
      vertex 1.06744 16.9665 2
    endloop
  endfacet
  facet normal 0 0 -1
    outer loop
      vertex -2.34227 12.2786 2
      vertex 1.06744 16.9665 2
      vertex 3.18548 16.6989 2
    endloop
  endfacet
  facet normal 0 0 -1
    outer loop
      vertex 0.784881 12.4753 2
      vertex 3.18548 16.6989 2
      vertex 5.25329 16.168 2
    endloop
  endfacet
  facet normal 0 0 -1
    outer loop
      vertex 2.34227 12.2786 2
      vertex 5.25329 16.168 2
      vertex 7.23825 15.3821 2
    endloop
  endfacet
  facet normal 0 0 -1
    outer loop
      vertex 3.86271 11.8882 2
      vertex 7.23825 15.3821 2
      vertex 9.10906 14.3536 2
    endloop
  endfacet
  facet normal 0 0 -1
    outer loop
      vertex 5.32224 11.3103 2
      vertex 9.10906 14.3536 2
      vertex 10.8362 13.0987 2
    endloop
  endfacet
  facet normal 0 0 -1
    outer loop
      vertex 7.9678 9.63142 2
      vertex 10.8362 13.0987 2
      vertex 12.3925 11.6373 2
    endloop
  endfacet
  facet normal 0 0 -1
    outer loop
      vertex 9.11211 8.55684 2
      vertex 12.3925 11.6373 2
      vertex 13.7533 9.99235 2
    endloop
  endfacet
  facet normal 0 0 -1
    outer loop
      vertex 10.1127 7.34732 2
      vertex 13.7533 9.99235 2
      vertex 14.8972 8.18981 2
    endloop
  endfacet
  facet normal 0 0 -1
    outer loop
      vertex 10.9538 6.02192 2
      vertex 14.8972 8.18981 2
      vertex 15.8062 6.25812 2
    endloop
  endfacet
  facet normal 0 0 -1
    outer loop
      vertex 11.6222 4.60156 2
      vertex 15.8062 6.25812 2
      vertex 16.4659 4.22773 2
    endloop
  endfacet
  facet normal 0 0 -1
    outer loop
      vertex 12.1073 3.10862 2
      vertex 16.4659 4.22773 2
      vertex 16.8659 2.13067 2
    endloop
  endfacet
  facet normal 0 0 -1
    outer loop
      vertex 12.5 0 2
      vertex 16.8659 2.13067 2
      vertex 17 0 2
    endloop
  endfacet
  facet normal 0 0 -1
    outer loop
      vertex 12.4014 -1.56666 2
      vertex 17 0 2
      vertex 16.8659 -2.13067 2
    endloop
  endfacet
  facet normal 0 0 -1
    outer loop
      vertex 12.1073 -3.10862 2
      vertex 16.8659 -2.13067 2
      vertex 16.4659 -4.22773 2
    endloop
  endfacet
  facet normal 0 0 -1
    outer loop
      vertex 11.6222 -4.60156 2
      vertex 16.4659 -4.22773 2
      vertex 15.8062 -6.25812 2
    endloop
  endfacet
  facet normal 0 0 -1
    outer loop
      vertex 10.9538 -6.02192 2
      vertex 15.8062 -6.25812 2
      vertex 14.8972 -8.18981 2
    endloop
  endfacet
  facet normal 0 0 -1
    outer loop
      vertex 9.11211 -8.55684 2
      vertex 14.8972 -8.18981 2
      vertex 13.7533 -9.99235 2
    endloop
  endfacet
  facet normal 0 0 -1
    outer loop
      vertex 7.9678 -9.63142 2
      vertex 13.7533 -9.99235 2
      vertex 12.3925 -11.6373 2
    endloop
  endfacet
  facet normal 0 0 -1
    outer loop
      vertex 6.69783 -10.5541 2
      vertex 12.3925 -11.6373 2
      vertex 10.8362 -13.0987 2
    endloop
  endfacet
  facet normal 0 0 -1
    outer loop
      vertex 5.32224 -11.3103 2
      vertex 10.8362 -13.0987 2
      vertex 9.10906 -14.3536 2
    endloop
  endfacet
  facet normal 0 0 -1
    outer loop
      vertex 2.34227 -12.2786 2
      vertex 9.10906 -14.3536 2
      vertex 7.23825 -15.3821 2
    endloop
  endfacet
  facet normal 0 0 -1
    outer loop
      vertex 0.784881 -12.4753 2
      vertex 7.23825 -15.3821 2
      vertex 5.25329 -16.168 2
    endloop
  endfacet
  facet normal 0 0 -1
    outer loop
      vertex -2.34227 -12.2786 2
      vertex 5.25329 -16.168 2
      vertex 3.18548 -16.6989 2
    endloop
  endfacet
  facet normal 0 0 -1
    outer loop
      vertex -5.32224 -11.3103 2
      vertex 3.18548 -16.6989 2
      vertex 1.06744 -16.9665 2
    endloop
  endfacet
  facet normal 0 0 -1
    outer loop
      vertex -7.9678 -9.63142 2
      vertex 1.06744 -16.9665 2
      vertex -1.06744 -16.9665 2
    endloop
  endfacet
  facet normal 0 0 -1
    outer loop
      vertex -16.8659 -2.13067 2
      vertex -1.06744 -16.9665 2
      vertex -3.18548 -16.6989 2
    endloop
  endfacet
  facet normal 0 0 -1
    outer loop
      vertex -16.8659 -2.13067 2
      vertex -3.18548 -16.6989 2
      vertex -5.25329 -16.168 2
    endloop
  endfacet
  facet normal 0 0 -1
    outer loop
      vertex -16.8659 -2.13067 2
      vertex -5.25329 -16.168 2
      vertex -7.23825 -15.3821 2
    endloop
  endfacet
  facet normal 0 0 -1
    outer loop
      vertex -16.8659 -2.13067 2
      vertex -7.23825 -15.3821 2
      vertex -9.10906 -14.3536 2
    endloop
  endfacet
  facet normal 0 0 -1
    outer loop
      vertex -16.8659 -2.13067 2
      vertex -9.10906 -14.3536 2
      vertex -10.8362 -13.0987 2
    endloop
  endfacet
  facet normal 0 0 -1
    outer loop
      vertex -16.8659 -2.13067 2
      vertex -10.8362 -13.0987 2
      vertex -12.3925 -11.6373 2
    endloop
  endfacet
  facet normal 0 0 -1
    outer loop
      vertex -16.8659 -2.13067 2
      vertex -12.3925 -11.6373 2
      vertex -13.7533 -9.99235 2
    endloop
  endfacet
  facet normal 0 0 -1
    outer loop
      vertex -16.8659 -2.13067 2
      vertex -13.7533 -9.99235 2
      vertex -14.8972 -8.18981 2
    endloop
  endfacet
  facet normal 0 0 -1
    outer loop
      vertex -16.8659 -2.13067 2
      vertex -14.8972 -8.18981 2
      vertex -15.8062 -6.25812 2
    endloop
  endfacet
  facet normal 0 0 -1
    outer loop
      vertex -16.8659 -2.13067 2
      vertex -15.8062 -6.25812 2
      vertex -16.4659 -4.22773 2
    endloop
  endfacet
  facet normal 0 0 -1
    outer loop
      vertex -12.4014 -1.56666 2
      vertex -16.8659 -2.13067 2
      vertex -12.5 0 2
    endloop
  endfacet
  facet normal 0 0 -1
    outer loop
      vertex 12.1073 -3.10862 2
      vertex 16.4659 -4.22773 2
      vertex 11.6222 -4.60156 2
    endloop
  endfacet
  facet normal 0 0 -1
    outer loop
      vertex -12.1073 -3.10862 2
      vertex -16.8659 -2.13067 2
      vertex -12.4014 -1.56666 2
    endloop
  endfacet
  facet normal 0 0 -1
    outer loop
      vertex -11.6222 -4.60156 2
      vertex -16.8659 -2.13067 2
      vertex -12.1073 -3.10862 2
    endloop
  endfacet
  facet normal 0 0 -1
    outer loop
      vertex -10.9538 -6.02192 2
      vertex -16.8659 -2.13067 2
      vertex -11.6222 -4.60156 2
    endloop
  endfacet
  facet normal 0 0 -1
    outer loop
      vertex -10.1127 -7.34732 2
      vertex -16.8659 -2.13067 2
      vertex -10.9538 -6.02192 2
    endloop
  endfacet
  facet normal 0 0 -1
    outer loop
      vertex -9.11211 -8.55684 2
      vertex -16.8659 -2.13067 2
      vertex -10.1127 -7.34732 2
    endloop
  endfacet
  facet normal 0 0 -1
    outer loop
      vertex -5.32224 -11.3103 2
      vertex 1.06744 -16.9665 2
      vertex -6.69783 -10.5541 2
    endloop
  endfacet
  facet normal 0 0 -1
    outer loop
      vertex -16.8659 -2.13067 2
      vertex -9.11211 -8.55684 2
      vertex -1.06744 -16.9665 2
    endloop
  endfacet
  facet normal 0 0 -1
    outer loop
      vertex -6.69783 -10.5541 2
      vertex 1.06744 -16.9665 2
      vertex -7.9678 -9.63142 2
    endloop
  endfacet
  facet normal 0 0 -1
    outer loop
      vertex -9.11211 -8.55684 2
      vertex -7.9678 -9.63142 2
      vertex -1.06744 -16.9665 2
    endloop
  endfacet
  facet normal 0 0 -1
    outer loop
      vertex -3.86271 -11.8882 2
      vertex 3.18548 -16.6989 2
      vertex -5.32224 -11.3103 2
    endloop
  endfacet
  facet normal 0 0 -1
    outer loop
      vertex -2.34227 -12.2786 2
      vertex 3.18548 -16.6989 2
      vertex -3.86271 -11.8882 2
    endloop
  endfacet
  facet normal 0 0 -1
    outer loop
      vertex -0.784881 -12.4753 2
      vertex 5.25329 -16.168 2
      vertex -2.34227 -12.2786 2
    endloop
  endfacet
  facet normal 0 0 -1
    outer loop
      vertex 0.784881 -12.4753 2
      vertex 5.25329 -16.168 2
      vertex -0.784881 -12.4753 2
    endloop
  endfacet
  facet normal 0 0 -1
    outer loop
      vertex 3.86271 -11.8882 2
      vertex 9.10906 -14.3536 2
      vertex 2.34227 -12.2786 2
    endloop
  endfacet
  facet normal 0 0 -1
    outer loop
      vertex 5.32224 -11.3103 2
      vertex 9.10906 -14.3536 2
      vertex 3.86271 -11.8882 2
    endloop
  endfacet
  facet normal 0 0 -1
    outer loop
      vertex 2.34227 -12.2786 2
      vertex 7.23825 -15.3821 2
      vertex 0.784881 -12.4753 2
    endloop
  endfacet
  facet normal 0 0 -1
    outer loop
      vertex 10.1127 -7.34732 2
      vertex 14.8972 -8.18981 2
      vertex 9.11211 -8.55684 2
    endloop
  endfacet
  facet normal 0 0 -1
    outer loop
      vertex 10.9538 -6.02192 2
      vertex 14.8972 -8.18981 2
      vertex 10.1127 -7.34732 2
    endloop
  endfacet
  facet normal 0 0 -1
    outer loop
      vertex 9.11211 -8.55684 2
      vertex 13.7533 -9.99235 2
      vertex 7.9678 -9.63142 2
    endloop
  endfacet
  facet normal 0 0 -1
    outer loop
      vertex 7.9678 -9.63142 2
      vertex 12.3925 -11.6373 2
      vertex 6.69783 -10.5541 2
    endloop
  endfacet
  facet normal 0 0 -1
    outer loop
      vertex 6.69783 -10.5541 2
      vertex 10.8362 -13.0987 2
      vertex 5.32224 -11.3103 2
    endloop
  endfacet
  facet normal 0 0 -1
    outer loop
      vertex 12.4014 1.56666 2
      vertex 16.8659 2.13067 2
      vertex 12.5 0 2
    endloop
  endfacet
  facet normal 0 0 -1
    outer loop
      vertex 11.6222 4.60156 2
      vertex 16.4659 4.22773 2
      vertex 12.1073 3.10862 2
    endloop
  endfacet
  facet normal 0 0 -1
    outer loop
      vertex 12.1073 3.10862 2
      vertex 16.8659 2.13067 2
      vertex 12.4014 1.56666 2
    endloop
  endfacet
  facet normal 0 0 -1
    outer loop
      vertex 12.5 0 2
      vertex 17 0 2
      vertex 12.4014 -1.56666 2
    endloop
  endfacet
  facet normal 0 0 -1
    outer loop
      vertex 12.4014 -1.56666 2
      vertex 16.8659 -2.13067 2
      vertex 12.1073 -3.10862 2
    endloop
  endfacet
  facet normal 0 0 -1
    outer loop
      vertex 6.69783 10.5541 2
      vertex 10.8362 13.0987 2
      vertex 7.9678 9.63142 2
    endloop
  endfacet
  facet normal 0 0 -1
    outer loop
      vertex 5.32224 11.3103 2
      vertex 10.8362 13.0987 2
      vertex 6.69783 10.5541 2
    endloop
  endfacet
  facet normal 0 0 -1
    outer loop
      vertex 7.9678 9.63142 2
      vertex 12.3925 11.6373 2
      vertex 9.11211 8.55684 2
    endloop
  endfacet
  facet normal 0 0 -1
    outer loop
      vertex 9.11211 8.55684 2
      vertex 13.7533 9.99235 2
      vertex 10.1127 7.34732 2
    endloop
  endfacet
  facet normal 0 0 -1
    outer loop
      vertex 10.1127 7.34732 2
      vertex 14.8972 8.18981 2
      vertex 10.9538 6.02192 2
    endloop
  endfacet
  facet normal 0 0 -1
    outer loop
      vertex -0.784881 12.4753 2
      vertex 3.18548 16.6989 2
      vertex 0.784881 12.4753 2
    endloop
  endfacet
  facet normal 0 0 -1
    outer loop
      vertex -3.86271 11.8882 2
      vertex 1.06744 16.9665 2
      vertex -2.34227 12.2786 2
    endloop
  endfacet
  facet normal 0 0 -1
    outer loop
      vertex -5.32224 11.3103 2
      vertex -1.06744 16.9665 2
      vertex -3.86271 11.8882 2
    endloop
  endfacet
  facet normal 0 0 -1
    outer loop
      vertex -6.69783 10.5541 2
      vertex -1.06744 16.9665 2
      vertex -5.32224 11.3103 2
    endloop
  endfacet
  facet normal 0 0 -1
    outer loop
      vertex -7.9678 9.63142 2
      vertex -3.18548 16.6989 2
      vertex -6.69783 10.5541 2
    endloop
  endfacet
  facet normal 0 0 -1
    outer loop
      vertex -9.11211 8.55684 2
      vertex -3.18548 16.6989 2
      vertex -7.9678 9.63142 2
    endloop
  endfacet
  facet normal 0 0 -1
    outer loop
      vertex -10.1127 7.34732 2
      vertex -5.25329 16.168 2
      vertex -9.11211 8.55684 2
    endloop
  endfacet
  facet normal 0 0 -1
    outer loop
      vertex -11.6222 4.60156 2
      vertex -16.8659 -2.13067 2
      vertex -10.9538 6.02192 2
    endloop
  endfacet
  facet normal 0 0 -1
    outer loop
      vertex -16.8659 -2.13067 2
      vertex -5.25329 16.168 2
      vertex -10.1127 7.34732 2
    endloop
  endfacet
  facet normal 0 0 -1
    outer loop
      vertex -16.8659 -2.13067 2
      vertex -10.1127 7.34732 2
      vertex -10.9538 6.02192 2
    endloop
  endfacet
  facet normal 0 0 -1
    outer loop
      vertex -12.1073 3.10862 2
      vertex -16.8659 -2.13067 2
      vertex -11.6222 4.60156 2
    endloop
  endfacet
  facet normal 0 0 -1
    outer loop
      vertex -12.4014 1.56666 2
      vertex -16.8659 -2.13067 2
      vertex -12.1073 3.10862 2
    endloop
  endfacet
  facet normal 0 0 -1
    outer loop
      vertex 10.9538 6.02192 2
      vertex 15.8062 6.25812 2
      vertex 11.6222 4.60156 2
    endloop
  endfacet
  facet normal 0 0 -1
    outer loop
      vertex -12.5 0 2
      vertex -16.8659 -2.13067 2
      vertex -12.4014 1.56666 2
    endloop
  endfacet
  facet normal 0 0 -1
    outer loop
      vertex -2.34227 12.2786 2
      vertex 3.18548 16.6989 2
      vertex -0.784881 12.4753 2
    endloop
  endfacet
  facet normal 0 0 -1
    outer loop
      vertex 0.784881 12.4753 2
      vertex 5.25329 16.168 2
      vertex 2.34227 12.2786 2
    endloop
  endfacet
  facet normal 0 0 -1
    outer loop
      vertex 2.34227 12.2786 2
      vertex 7.23825 15.3821 2
      vertex 3.86271 11.8882 2
    endloop
  endfacet
  facet normal 0 0 -1
    outer loop
      vertex 3.86271 11.8882 2
      vertex 9.10906 14.3536 2
      vertex 5.32224 11.3103 2
    endloop
  endfacet
  facet normal 0 0 -1
    outer loop
      vertex 11.6222 -4.60156 2
      vertex 15.8062 -6.25812 2
      vertex 10.9538 -6.02192 2
    endloop
  endfacet
  facet normal -0.953681 0.0600005 0.294774
    outer loop
      vertex -16.8659 2.13067 2
      vertex -17 0 2
      vertex 0 0 57
    endloop
  endfacet
  facet normal -0.953681 -0.0600005 0.294774
    outer loop
      vertex 0 0 57
      vertex -17 0 2
      vertex -16.8659 -2.13067 2
    endloop
  endfacet
  facet normal -0.938641 -0.179055 0.294774
    outer loop
      vertex 0 0 57
      vertex -16.8659 -2.13067 2
      vertex -16.4659 -4.22773 2
    endloop
  endfacet
  facet normal -0.908798 -0.295287 0.294774
    outer loop
      vertex 0 0 57
      vertex -16.4659 -4.22773 2
      vertex -15.8062 -6.25812 2
    endloop
  endfacet
  facet normal -0.864623 -0.40686 0.294774
    outer loop
      vertex 0 0 57
      vertex -15.8062 -6.25812 2
      vertex -14.8972 -8.18981 2
    endloop
  endfacet
  facet normal -0.806812 -0.512018 0.294774
    outer loop
      vertex 0 0 57
      vertex -14.8972 -8.18981 2
      vertex -13.7533 -9.99235 2
    endloop
  endfacet
  facet normal -0.736277 -0.609101 0.294774
    outer loop
      vertex 0 0 57
      vertex -13.7533 -9.99235 2
      vertex -12.3925 -11.6373 2
    endloop
  endfacet
  facet normal -0.65413 -0.696578 0.294774
    outer loop
      vertex 0 0 57
      vertex -12.3925 -11.6373 2
      vertex -10.8362 -13.0987 2
    endloop
  endfacet
  facet normal -0.561668 -0.77307 0.294774
    outer loop
      vertex 0 0 57
      vertex -10.8362 -13.0987 2
      vertex -9.10906 -14.3536 2
    endloop
  endfacet
  facet normal -0.460348 -0.83737 0.294774
    outer loop
      vertex 0 0 57
      vertex -9.10906 -14.3536 2
      vertex -7.23825 -15.3821 2
    endloop
  endfacet
  facet normal -0.351768 -0.888464 0.294774
    outer loop
      vertex 0 0 57
      vertex -7.23825 -15.3821 2
      vertex -5.25329 -16.168 2
    endloop
  endfacet
  facet normal -0.23764 -0.925546 0.294774
    outer loop
      vertex 0 0 57
      vertex -5.25329 -16.168 2
      vertex -3.18548 -16.6989 2
    endloop
  endfacet
  facet normal -0.119764 -0.948032 0.294774
    outer loop
      vertex 0 0 57
      vertex -3.18548 -16.6989 2
      vertex -1.06744 -16.9665 2
    endloop
  endfacet
  facet normal 0 -0.955567 0.294774
    outer loop
      vertex 0 0 57
      vertex -1.06744 -16.9665 2
      vertex 1.06744 -16.9665 2
    endloop
  endfacet
  facet normal 0.119764 -0.948032 0.294774
    outer loop
      vertex 3.18548 -16.6989 2
      vertex 0 0 57
      vertex 1.06744 -16.9665 2
    endloop
  endfacet
  facet normal 0.23764 -0.925546 0.294774
    outer loop
      vertex 5.25329 -16.168 2
      vertex 0 0 57
      vertex 3.18548 -16.6989 2
    endloop
  endfacet
  facet normal 0.351768 -0.888464 0.294774
    outer loop
      vertex 7.23825 -15.3821 2
      vertex 0 0 57
      vertex 5.25329 -16.168 2
    endloop
  endfacet
  facet normal 0.460348 -0.83737 0.294774
    outer loop
      vertex 9.10906 -14.3536 2
      vertex 0 0 57
      vertex 7.23825 -15.3821 2
    endloop
  endfacet
  facet normal 0.561668 -0.77307 0.294774
    outer loop
      vertex 10.8362 -13.0987 2
      vertex 0 0 57
      vertex 9.10906 -14.3536 2
    endloop
  endfacet
  facet normal 0.65413 -0.696578 0.294774
    outer loop
      vertex 12.3925 -11.6373 2
      vertex 0 0 57
      vertex 10.8362 -13.0987 2
    endloop
  endfacet
  facet normal 0.736277 -0.609101 0.294774
    outer loop
      vertex 13.7533 -9.99235 2
      vertex 0 0 57
      vertex 12.3925 -11.6373 2
    endloop
  endfacet
  facet normal 0.806812 -0.512018 0.294774
    outer loop
      vertex 14.8972 -8.18981 2
      vertex 0 0 57
      vertex 13.7533 -9.99235 2
    endloop
  endfacet
  facet normal 0.864623 -0.40686 0.294774
    outer loop
      vertex 15.8062 -6.25812 2
      vertex 0 0 57
      vertex 14.8972 -8.18981 2
    endloop
  endfacet
  facet normal 0.908798 -0.295287 0.294774
    outer loop
      vertex 16.4659 -4.22773 2
      vertex 0 0 57
      vertex 15.8062 -6.25812 2
    endloop
  endfacet
  facet normal 0.938641 -0.179055 0.294774
    outer loop
      vertex 16.8659 -2.13067 2
      vertex 0 0 57
      vertex 16.4659 -4.22773 2
    endloop
  endfacet
  facet normal 0.953681 -0.0600005 0.294774
    outer loop
      vertex 17 0 2
      vertex 0 0 57
      vertex 16.8659 -2.13067 2
    endloop
  endfacet
  facet normal 0.953681 0.0600005 0.294774
    outer loop
      vertex 16.8659 2.13067 2
      vertex 0 0 57
      vertex 17 0 2
    endloop
  endfacet
  facet normal 0.938641 0.179055 0.294774
    outer loop
      vertex 16.4659 4.22773 2
      vertex 0 0 57
      vertex 16.8659 2.13067 2
    endloop
  endfacet
  facet normal 0.908798 0.295287 0.294774
    outer loop
      vertex 15.8062 6.25812 2
      vertex 0 0 57
      vertex 16.4659 4.22773 2
    endloop
  endfacet
  facet normal 0.864623 0.40686 0.294774
    outer loop
      vertex 14.8972 8.18981 2
      vertex 0 0 57
      vertex 15.8062 6.25812 2
    endloop
  endfacet
  facet normal 0.806812 0.512018 0.294774
    outer loop
      vertex 13.7533 9.99235 2
      vertex 0 0 57
      vertex 14.8972 8.18981 2
    endloop
  endfacet
  facet normal 0.736277 0.609101 0.294774
    outer loop
      vertex 12.3925 11.6373 2
      vertex 0 0 57
      vertex 13.7533 9.99235 2
    endloop
  endfacet
  facet normal 0.65413 0.696578 0.294774
    outer loop
      vertex 10.8362 13.0987 2
      vertex 0 0 57
      vertex 12.3925 11.6373 2
    endloop
  endfacet
  facet normal 0.561668 0.77307 0.294774
    outer loop
      vertex 9.10906 14.3536 2
      vertex 0 0 57
      vertex 10.8362 13.0987 2
    endloop
  endfacet
  facet normal 0.460348 0.83737 0.294774
    outer loop
      vertex 7.23825 15.3821 2
      vertex 0 0 57
      vertex 9.10906 14.3536 2
    endloop
  endfacet
  facet normal 0.351768 0.888464 0.294774
    outer loop
      vertex 5.25329 16.168 2
      vertex 0 0 57
      vertex 7.23825 15.3821 2
    endloop
  endfacet
  facet normal 0.23764 0.925546 0.294774
    outer loop
      vertex 3.18548 16.6989 2
      vertex 0 0 57
      vertex 5.25329 16.168 2
    endloop
  endfacet
  facet normal 0.119764 0.948032 0.294774
    outer loop
      vertex 1.06744 16.9665 2
      vertex 0 0 57
      vertex 3.18548 16.6989 2
    endloop
  endfacet
  facet normal 0 0.955567 0.294774
    outer loop
      vertex 1.06744 16.9665 2
      vertex -1.06744 16.9665 2
      vertex 0 0 57
    endloop
  endfacet
  facet normal -0.119764 0.948032 0.294774
    outer loop
      vertex -1.06744 16.9665 2
      vertex -3.18548 16.6989 2
      vertex 0 0 57
    endloop
  endfacet
  facet normal -0.23764 0.925546 0.294774
    outer loop
      vertex -3.18548 16.6989 2
      vertex -5.25329 16.168 2
      vertex 0 0 57
    endloop
  endfacet
  facet normal -0.351768 0.888464 0.294774
    outer loop
      vertex -5.25329 16.168 2
      vertex -7.23825 15.3821 2
      vertex 0 0 57
    endloop
  endfacet
  facet normal -0.460348 0.83737 0.294774
    outer loop
      vertex -7.23825 15.3821 2
      vertex -9.10906 14.3536 2
      vertex 0 0 57
    endloop
  endfacet
  facet normal -0.561668 0.77307 0.294774
    outer loop
      vertex -9.10906 14.3536 2
      vertex -10.8362 13.0987 2
      vertex 0 0 57
    endloop
  endfacet
  facet normal -0.65413 0.696578 0.294774
    outer loop
      vertex -10.8362 13.0987 2
      vertex -12.3925 11.6373 2
      vertex 0 0 57
    endloop
  endfacet
  facet normal -0.736277 0.609101 0.294774
    outer loop
      vertex -12.3925 11.6373 2
      vertex -13.7533 9.99235 2
      vertex 0 0 57
    endloop
  endfacet
  facet normal -0.806812 0.512018 0.294774
    outer loop
      vertex -13.7533 9.99235 2
      vertex -14.8972 8.18981 2
      vertex 0 0 57
    endloop
  endfacet
  facet normal -0.864623 0.40686 0.294774
    outer loop
      vertex -14.8972 8.18981 2
      vertex -15.8062 6.25812 2
      vertex 0 0 57
    endloop
  endfacet
  facet normal -0.908798 0.295287 0.294774
    outer loop
      vertex -15.8062 6.25812 2
      vertex -16.4659 4.22773 2
      vertex 0 0 57
    endloop
  endfacet
  facet normal -0.938641 0.179055 0.294774
    outer loop
      vertex -16.4659 4.22773 2
      vertex -16.8659 2.13067 2
      vertex 0 0 57
    endloop
  endfacet
  facet normal -0.998027 0.0627904 0
    outer loop
      vertex -12.5 0 0
      vertex -12.5 0 2
      vertex -12.4014 1.56666 0
    endloop
  endfacet
  facet normal -0.998027 0.0627904 0
    outer loop
      vertex -12.4014 1.56666 0
      vertex -12.5 0 2
      vertex -12.4014 1.56666 2
    endloop
  endfacet
  facet normal -0.998027 -0.0627904 0
    outer loop
      vertex -12.5 0 0
      vertex -12.4014 -1.56666 0
      vertex -12.5 0 2
    endloop
  endfacet
  facet normal -0.998027 -0.0627904 0
    outer loop
      vertex -12.5 0 2
      vertex -12.4014 -1.56666 0
      vertex -12.4014 -1.56666 2
    endloop
  endfacet
  facet normal -0.982287 0.187381 0
    outer loop
      vertex -12.4014 1.56666 0
      vertex -12.4014 1.56666 2
      vertex -12.1073 3.10862 0
    endloop
  endfacet
  facet normal -0.982287 0.187381 0
    outer loop
      vertex -12.1073 3.10862 0
      vertex -12.4014 1.56666 2
      vertex -12.1073 3.10862 2
    endloop
  endfacet
  facet normal -0.951056 0.309017 0
    outer loop
      vertex -12.1073 3.10862 0
      vertex -12.1073 3.10862 2
      vertex -11.6222 4.60156 0
    endloop
  endfacet
  facet normal -0.951056 0.309017 0
    outer loop
      vertex -11.6222 4.60156 0
      vertex -12.1073 3.10862 2
      vertex -11.6222 4.60156 2
    endloop
  endfacet
  facet normal -0.904827 0.425779 0
    outer loop
      vertex -11.6222 4.60156 0
      vertex -11.6222 4.60156 2
      vertex -10.9538 6.02192 0
    endloop
  endfacet
  facet normal -0.904827 0.425779 0
    outer loop
      vertex -10.9538 6.02192 0
      vertex -11.6222 4.60156 2
      vertex -10.9538 6.02192 2
    endloop
  endfacet
  facet normal -0.844328 0.535827 0
    outer loop
      vertex -10.9538 6.02192 0
      vertex -10.9538 6.02192 2
      vertex -10.1127 7.34732 0
    endloop
  endfacet
  facet normal -0.844328 0.535827 0
    outer loop
      vertex -10.1127 7.34732 0
      vertex -10.9538 6.02192 2
      vertex -10.1127 7.34732 2
    endloop
  endfacet
  facet normal -0.770513 0.637424 0
    outer loop
      vertex -10.1127 7.34732 0
      vertex -10.1127 7.34732 2
      vertex -9.11211 8.55684 0
    endloop
  endfacet
  facet normal -0.770513 0.637424 0
    outer loop
      vertex -9.11211 8.55684 0
      vertex -10.1127 7.34732 2
      vertex -9.11211 8.55684 2
    endloop
  endfacet
  facet normal -0.684547 0.728969 0
    outer loop
      vertex -9.11211 8.55684 0
      vertex -9.11211 8.55684 2
      vertex -7.9678 9.63142 0
    endloop
  endfacet
  facet normal -0.684547 0.728969 0
    outer loop
      vertex -7.9678 9.63142 0
      vertex -9.11211 8.55684 2
      vertex -7.9678 9.63142 2
    endloop
  endfacet
  facet normal -0.587785 0.809017 0
    outer loop
      vertex -7.9678 9.63142 0
      vertex -7.9678 9.63142 2
      vertex -6.69783 10.5541 0
    endloop
  endfacet
  facet normal -0.587785 0.809017 0
    outer loop
      vertex -6.69783 10.5541 0
      vertex -7.9678 9.63142 2
      vertex -6.69783 10.5541 2
    endloop
  endfacet
  facet normal -0.481754 0.876307 0
    outer loop
      vertex -6.69783 10.5541 0
      vertex -6.69783 10.5541 2
      vertex -5.32224 11.3103 0
    endloop
  endfacet
  facet normal -0.481754 0.876307 0
    outer loop
      vertex -5.32224 11.3103 0
      vertex -6.69783 10.5541 2
      vertex -5.32224 11.3103 2
    endloop
  endfacet
  facet normal -0.368124 0.929777 0
    outer loop
      vertex -5.32224 11.3103 0
      vertex -5.32224 11.3103 2
      vertex -3.86271 11.8882 0
    endloop
  endfacet
  facet normal -0.368124 0.929777 0
    outer loop
      vertex -3.86271 11.8882 0
      vertex -5.32224 11.3103 2
      vertex -3.86271 11.8882 2
    endloop
  endfacet
  facet normal -0.24869 0.968583 0
    outer loop
      vertex -3.86271 11.8882 0
      vertex -3.86271 11.8882 2
      vertex -2.34227 12.2786 0
    endloop
  endfacet
  facet normal -0.24869 0.968583 0
    outer loop
      vertex -2.34227 12.2786 0
      vertex -3.86271 11.8882 2
      vertex -2.34227 12.2786 2
    endloop
  endfacet
  facet normal -0.125333 0.992115 0
    outer loop
      vertex -2.34227 12.2786 0
      vertex -2.34227 12.2786 2
      vertex -0.784881 12.4753 0
    endloop
  endfacet
  facet normal -0.125333 0.992115 0
    outer loop
      vertex -0.784881 12.4753 0
      vertex -2.34227 12.2786 2
      vertex -0.784881 12.4753 2
    endloop
  endfacet
  facet normal 0 1 0
    outer loop
      vertex -0.784881 12.4753 0
      vertex -0.784881 12.4753 2
      vertex 0.784881 12.4753 0
    endloop
  endfacet
  facet normal 0 1 0
    outer loop
      vertex 0.784881 12.4753 0
      vertex -0.784881 12.4753 2
      vertex 0.784881 12.4753 2
    endloop
  endfacet
  facet normal 0.125333 0.992115 0
    outer loop
      vertex 0.784881 12.4753 0
      vertex 0.784881 12.4753 2
      vertex 2.34227 12.2786 0
    endloop
  endfacet
  facet normal 0.125333 0.992115 0
    outer loop
      vertex 2.34227 12.2786 0
      vertex 0.784881 12.4753 2
      vertex 2.34227 12.2786 2
    endloop
  endfacet
  facet normal 0.24869 0.968583 0
    outer loop
      vertex 2.34227 12.2786 0
      vertex 2.34227 12.2786 2
      vertex 3.86271 11.8882 0
    endloop
  endfacet
  facet normal 0.24869 0.968583 0
    outer loop
      vertex 3.86271 11.8882 0
      vertex 2.34227 12.2786 2
      vertex 3.86271 11.8882 2
    endloop
  endfacet
  facet normal 0.368124 0.929777 0
    outer loop
      vertex 3.86271 11.8882 0
      vertex 3.86271 11.8882 2
      vertex 5.32224 11.3103 0
    endloop
  endfacet
  facet normal 0.368124 0.929777 0
    outer loop
      vertex 5.32224 11.3103 0
      vertex 3.86271 11.8882 2
      vertex 5.32224 11.3103 2
    endloop
  endfacet
  facet normal 0.481754 0.876307 0
    outer loop
      vertex 5.32224 11.3103 0
      vertex 5.32224 11.3103 2
      vertex 6.69783 10.5541 0
    endloop
  endfacet
  facet normal 0.481754 0.876307 0
    outer loop
      vertex 6.69783 10.5541 0
      vertex 5.32224 11.3103 2
      vertex 6.69783 10.5541 2
    endloop
  endfacet
  facet normal 0.587785 0.809017 0
    outer loop
      vertex 6.69783 10.5541 0
      vertex 6.69783 10.5541 2
      vertex 7.9678 9.63142 0
    endloop
  endfacet
  facet normal 0.587785 0.809017 0
    outer loop
      vertex 7.9678 9.63142 0
      vertex 6.69783 10.5541 2
      vertex 7.9678 9.63142 2
    endloop
  endfacet
  facet normal 0.684547 0.728969 0
    outer loop
      vertex 7.9678 9.63142 0
      vertex 7.9678 9.63142 2
      vertex 9.11211 8.55684 0
    endloop
  endfacet
  facet normal 0.684547 0.728969 0
    outer loop
      vertex 9.11211 8.55684 0
      vertex 7.9678 9.63142 2
      vertex 9.11211 8.55684 2
    endloop
  endfacet
  facet normal 0.770513 0.637424 0
    outer loop
      vertex 10.1127 7.34732 0
      vertex 9.11211 8.55684 0
      vertex 9.11211 8.55684 2
    endloop
  endfacet
  facet normal 0.770513 0.637424 0
    outer loop
      vertex 10.1127 7.34732 2
      vertex 10.1127 7.34732 0
      vertex 9.11211 8.55684 2
    endloop
  endfacet
  facet normal 0.844328 0.535827 0
    outer loop
      vertex 10.9538 6.02192 0
      vertex 10.1127 7.34732 0
      vertex 10.1127 7.34732 2
    endloop
  endfacet
  facet normal 0.844328 0.535827 0
    outer loop
      vertex 10.9538 6.02192 2
      vertex 10.9538 6.02192 0
      vertex 10.1127 7.34732 2
    endloop
  endfacet
  facet normal 0.904827 0.425779 0
    outer loop
      vertex 11.6222 4.60156 0
      vertex 10.9538 6.02192 0
      vertex 10.9538 6.02192 2
    endloop
  endfacet
  facet normal 0.904827 0.425779 0
    outer loop
      vertex 11.6222 4.60156 2
      vertex 11.6222 4.60156 0
      vertex 10.9538 6.02192 2
    endloop
  endfacet
  facet normal 0.951056 0.309017 0
    outer loop
      vertex 12.1073 3.10862 0
      vertex 11.6222 4.60156 0
      vertex 11.6222 4.60156 2
    endloop
  endfacet
  facet normal 0.951056 0.309017 0
    outer loop
      vertex 12.1073 3.10862 2
      vertex 12.1073 3.10862 0
      vertex 11.6222 4.60156 2
    endloop
  endfacet
  facet normal 0.982287 0.187381 0
    outer loop
      vertex 12.4014 1.56666 0
      vertex 12.1073 3.10862 0
      vertex 12.1073 3.10862 2
    endloop
  endfacet
  facet normal 0.982287 0.187381 0
    outer loop
      vertex 12.4014 1.56666 2
      vertex 12.4014 1.56666 0
      vertex 12.1073 3.10862 2
    endloop
  endfacet
  facet normal 0.998027 0.0627904 0
    outer loop
      vertex 12.5 0 0
      vertex 12.4014 1.56666 0
      vertex 12.4014 1.56666 2
    endloop
  endfacet
  facet normal 0.998027 0.0627904 0
    outer loop
      vertex 12.5 0 2
      vertex 12.5 0 0
      vertex 12.4014 1.56666 2
    endloop
  endfacet
  facet normal 0.998027 -0.0627904 0
    outer loop
      vertex 12.4014 -1.56666 2
      vertex 12.4014 -1.56666 0
      vertex 12.5 0 0
    endloop
  endfacet
  facet normal 0.998027 -0.0627904 0
    outer loop
      vertex 12.5 0 2
      vertex 12.4014 -1.56666 2
      vertex 12.5 0 0
    endloop
  endfacet
  facet normal 0.982287 -0.187381 0
    outer loop
      vertex 12.1073 -3.10862 2
      vertex 12.1073 -3.10862 0
      vertex 12.4014 -1.56666 0
    endloop
  endfacet
  facet normal 0.982287 -0.187381 0
    outer loop
      vertex 12.4014 -1.56666 2
      vertex 12.1073 -3.10862 2
      vertex 12.4014 -1.56666 0
    endloop
  endfacet
  facet normal 0.951056 -0.309017 0
    outer loop
      vertex 11.6222 -4.60156 2
      vertex 11.6222 -4.60156 0
      vertex 12.1073 -3.10862 0
    endloop
  endfacet
  facet normal 0.951056 -0.309017 0
    outer loop
      vertex 12.1073 -3.10862 2
      vertex 11.6222 -4.60156 2
      vertex 12.1073 -3.10862 0
    endloop
  endfacet
  facet normal 0.904827 -0.425779 0
    outer loop
      vertex 10.9538 -6.02192 2
      vertex 10.9538 -6.02192 0
      vertex 11.6222 -4.60156 0
    endloop
  endfacet
  facet normal 0.904827 -0.425779 0
    outer loop
      vertex 11.6222 -4.60156 2
      vertex 10.9538 -6.02192 2
      vertex 11.6222 -4.60156 0
    endloop
  endfacet
  facet normal 0.844328 -0.535827 0
    outer loop
      vertex 10.1127 -7.34732 2
      vertex 10.1127 -7.34732 0
      vertex 10.9538 -6.02192 0
    endloop
  endfacet
  facet normal 0.844328 -0.535827 0
    outer loop
      vertex 10.9538 -6.02192 2
      vertex 10.1127 -7.34732 2
      vertex 10.9538 -6.02192 0
    endloop
  endfacet
  facet normal 0.770513 -0.637424 0
    outer loop
      vertex 9.11211 -8.55684 2
      vertex 9.11211 -8.55684 0
      vertex 10.1127 -7.34732 0
    endloop
  endfacet
  facet normal 0.770513 -0.637424 0
    outer loop
      vertex 10.1127 -7.34732 2
      vertex 9.11211 -8.55684 2
      vertex 10.1127 -7.34732 0
    endloop
  endfacet
  facet normal 0.684547 -0.728969 0
    outer loop
      vertex 7.9678 -9.63142 2
      vertex 7.9678 -9.63142 0
      vertex 9.11211 -8.55684 0
    endloop
  endfacet
  facet normal 0.684547 -0.728969 0
    outer loop
      vertex 9.11211 -8.55684 2
      vertex 7.9678 -9.63142 2
      vertex 9.11211 -8.55684 0
    endloop
  endfacet
  facet normal 0.587785 -0.809017 0
    outer loop
      vertex 6.69783 -10.5541 2
      vertex 6.69783 -10.5541 0
      vertex 7.9678 -9.63142 0
    endloop
  endfacet
  facet normal 0.587785 -0.809017 0
    outer loop
      vertex 7.9678 -9.63142 2
      vertex 6.69783 -10.5541 2
      vertex 7.9678 -9.63142 0
    endloop
  endfacet
  facet normal 0.481754 -0.876307 0
    outer loop
      vertex 5.32224 -11.3103 2
      vertex 5.32224 -11.3103 0
      vertex 6.69783 -10.5541 0
    endloop
  endfacet
  facet normal 0.481754 -0.876307 0
    outer loop
      vertex 6.69783 -10.5541 2
      vertex 5.32224 -11.3103 2
      vertex 6.69783 -10.5541 0
    endloop
  endfacet
  facet normal 0.368124 -0.929777 0
    outer loop
      vertex 3.86271 -11.8882 2
      vertex 3.86271 -11.8882 0
      vertex 5.32224 -11.3103 0
    endloop
  endfacet
  facet normal 0.368124 -0.929777 0
    outer loop
      vertex 5.32224 -11.3103 2
      vertex 3.86271 -11.8882 2
      vertex 5.32224 -11.3103 0
    endloop
  endfacet
  facet normal 0.24869 -0.968583 0
    outer loop
      vertex 2.34227 -12.2786 2
      vertex 2.34227 -12.2786 0
      vertex 3.86271 -11.8882 0
    endloop
  endfacet
  facet normal 0.24869 -0.968583 0
    outer loop
      vertex 3.86271 -11.8882 2
      vertex 2.34227 -12.2786 2
      vertex 3.86271 -11.8882 0
    endloop
  endfacet
  facet normal 0.125333 -0.992115 0
    outer loop
      vertex 0.784881 -12.4753 2
      vertex 0.784881 -12.4753 0
      vertex 2.34227 -12.2786 0
    endloop
  endfacet
  facet normal 0.125333 -0.992115 0
    outer loop
      vertex 2.34227 -12.2786 2
      vertex 0.784881 -12.4753 2
      vertex 2.34227 -12.2786 0
    endloop
  endfacet
  facet normal 0 -1 0
    outer loop
      vertex -0.784881 -12.4753 2
      vertex -0.784881 -12.4753 0
      vertex 0.784881 -12.4753 0
    endloop
  endfacet
  facet normal 0 -1 0
    outer loop
      vertex 0.784881 -12.4753 2
      vertex -0.784881 -12.4753 2
      vertex 0.784881 -12.4753 0
    endloop
  endfacet
  facet normal -0.125333 -0.992115 0
    outer loop
      vertex -2.34227 -12.2786 2
      vertex -2.34227 -12.2786 0
      vertex -0.784881 -12.4753 0
    endloop
  endfacet
  facet normal -0.125333 -0.992115 0
    outer loop
      vertex -0.784881 -12.4753 2
      vertex -2.34227 -12.2786 2
      vertex -0.784881 -12.4753 0
    endloop
  endfacet
  facet normal -0.24869 -0.968583 0
    outer loop
      vertex -3.86271 -11.8882 2
      vertex -3.86271 -11.8882 0
      vertex -2.34227 -12.2786 0
    endloop
  endfacet
  facet normal -0.24869 -0.968583 0
    outer loop
      vertex -2.34227 -12.2786 2
      vertex -3.86271 -11.8882 2
      vertex -2.34227 -12.2786 0
    endloop
  endfacet
  facet normal -0.368124 -0.929777 0
    outer loop
      vertex -5.32224 -11.3103 2
      vertex -5.32224 -11.3103 0
      vertex -3.86271 -11.8882 0
    endloop
  endfacet
  facet normal -0.368124 -0.929777 0
    outer loop
      vertex -3.86271 -11.8882 2
      vertex -5.32224 -11.3103 2
      vertex -3.86271 -11.8882 0
    endloop
  endfacet
  facet normal -0.481754 -0.876307 0
    outer loop
      vertex -6.69783 -10.5541 2
      vertex -6.69783 -10.5541 0
      vertex -5.32224 -11.3103 0
    endloop
  endfacet
  facet normal -0.481754 -0.876307 0
    outer loop
      vertex -5.32224 -11.3103 2
      vertex -6.69783 -10.5541 2
      vertex -5.32224 -11.3103 0
    endloop
  endfacet
  facet normal -0.587785 -0.809017 0
    outer loop
      vertex -7.9678 -9.63142 2
      vertex -7.9678 -9.63142 0
      vertex -6.69783 -10.5541 0
    endloop
  endfacet
  facet normal -0.587785 -0.809017 0
    outer loop
      vertex -6.69783 -10.5541 2
      vertex -7.9678 -9.63142 2
      vertex -6.69783 -10.5541 0
    endloop
  endfacet
  facet normal -0.684547 -0.728969 0
    outer loop
      vertex -9.11211 -8.55684 2
      vertex -9.11211 -8.55684 0
      vertex -7.9678 -9.63142 0
    endloop
  endfacet
  facet normal -0.684547 -0.728969 0
    outer loop
      vertex -7.9678 -9.63142 2
      vertex -9.11211 -8.55684 2
      vertex -7.9678 -9.63142 0
    endloop
  endfacet
  facet normal -0.770513 -0.637424 0
    outer loop
      vertex -10.1127 -7.34732 0
      vertex -9.11211 -8.55684 0
      vertex -10.1127 -7.34732 2
    endloop
  endfacet
  facet normal -0.770513 -0.637424 0
    outer loop
      vertex -10.1127 -7.34732 2
      vertex -9.11211 -8.55684 0
      vertex -9.11211 -8.55684 2
    endloop
  endfacet
  facet normal -0.844328 -0.535827 0
    outer loop
      vertex -10.9538 -6.02192 0
      vertex -10.1127 -7.34732 0
      vertex -10.9538 -6.02192 2
    endloop
  endfacet
  facet normal -0.844328 -0.535827 0
    outer loop
      vertex -10.9538 -6.02192 2
      vertex -10.1127 -7.34732 0
      vertex -10.1127 -7.34732 2
    endloop
  endfacet
  facet normal -0.904827 -0.425779 0
    outer loop
      vertex -11.6222 -4.60156 0
      vertex -10.9538 -6.02192 0
      vertex -11.6222 -4.60156 2
    endloop
  endfacet
  facet normal -0.904827 -0.425779 0
    outer loop
      vertex -11.6222 -4.60156 2
      vertex -10.9538 -6.02192 0
      vertex -10.9538 -6.02192 2
    endloop
  endfacet
  facet normal -0.951056 -0.309017 0
    outer loop
      vertex -12.1073 -3.10862 0
      vertex -11.6222 -4.60156 0
      vertex -12.1073 -3.10862 2
    endloop
  endfacet
  facet normal -0.951056 -0.309017 0
    outer loop
      vertex -12.1073 -3.10862 2
      vertex -11.6222 -4.60156 0
      vertex -11.6222 -4.60156 2
    endloop
  endfacet
  facet normal -0.982287 -0.187381 0
    outer loop
      vertex -12.4014 -1.56666 0
      vertex -12.1073 -3.10862 0
      vertex -12.4014 -1.56666 2
    endloop
  endfacet
  facet normal -0.982287 -0.187381 0
    outer loop
      vertex -12.4014 -1.56666 2
      vertex -12.1073 -3.10862 0
      vertex -12.1073 -3.10862 2
    endloop
  endfacet
  facet normal 0 0 -1
    outer loop
      vertex -12.5 0 0
      vertex -12.4014 1.56666 0
      vertex -12.4014 -1.56666 0
    endloop
  endfacet
  facet normal 0 0 -1
    outer loop
      vertex -12.4014 -1.56666 0
      vertex -12.4014 1.56666 0
      vertex -12.1073 3.10862 0
    endloop
  endfacet
  facet normal 0 0 -1
    outer loop
      vertex -12.4014 -1.56666 0
      vertex -12.1073 3.10862 0
      vertex -11.6222 4.60156 0
    endloop
  endfacet
  facet normal 0 0 -1
    outer loop
      vertex -12.4014 -1.56666 0
      vertex -11.6222 4.60156 0
      vertex -10.9538 6.02192 0
    endloop
  endfacet
  facet normal 0 0 -1
    outer loop
      vertex -12.4014 -1.56666 0
      vertex -10.9538 6.02192 0
      vertex -10.1127 7.34732 0
    endloop
  endfacet
  facet normal 0 0 -1
    outer loop
      vertex -12.4014 -1.56666 0
      vertex -10.1127 7.34732 0
      vertex -9.11211 8.55684 0
    endloop
  endfacet
  facet normal 0 0 -1
    outer loop
      vertex -10.2071 4.04127 0
      vertex -9.11211 8.55684 0
      vertex -7.9678 9.63142 0
    endloop
  endfacet
  facet normal 0 0 -1
    outer loop
      vertex -8.88139 6.45271 0
      vertex -7.9678 9.63142 0
      vertex -6.69783 10.5541 0
    endloop
  endfacet
  facet normal 0 0 -1
    outer loop
      vertex -6.99764 8.45869 0
      vertex -6.69783 10.5541 0
      vertex -5.32224 11.3103 0
    endloop
  endfacet
  facet normal 0 0 -1
    outer loop
      vertex -5.88231 9.26903 0
      vertex -5.32224 11.3103 0
      vertex -3.86271 11.8882 0
    endloop
  endfacet
  facet normal 0 0 -1
    outer loop
      vertex -4.6742 9.93319 0
      vertex -3.86271 11.8882 0
      vertex -2.34227 12.2786 0
    endloop
  endfacet
  facet normal 0 0 -1
    outer loop
      vertex -3.39239 10.4407 0
      vertex -2.34227 12.2786 0
      vertex -0.784881 12.4753 0
    endloop
  endfacet
  facet normal 0 0 -1
    outer loop
      vertex -0.689315 10.9563 0
      vertex -0.784881 12.4753 0
      vertex 0.784881 12.4753 0
    endloop
  endfacet
  facet normal 0 0 -1
    outer loop
      vertex 0.689315 10.9563 0
      vertex 0.784881 12.4753 0
      vertex 2.34227 12.2786 0
    endloop
  endfacet
  facet normal 0 0 -1
    outer loop
      vertex 2.05707 10.7835 0
      vertex 2.34227 12.2786 0
      vertex 3.86271 11.8882 0
    endloop
  endfacet
  facet normal 0 0 -1
    outer loop
      vertex 3.39239 10.4407 0
      vertex 3.86271 11.8882 0
      vertex 5.32224 11.3103 0
    endloop
  endfacet
  facet normal 0 0 -1
    outer loop
      vertex 4.6742 9.93319 0
      vertex 5.32224 11.3103 0
      vertex 6.69783 10.5541 0
    endloop
  endfacet
  facet normal 0 0 -1
    outer loop
      vertex 5.88231 9.26903 0
      vertex 6.69783 10.5541 0
      vertex 7.9678 9.63142 0
    endloop
  endfacet
  facet normal 0 0 -1
    outer loop
      vertex 6.99764 8.45869 0
      vertex 7.9678 9.63142 0
      vertex 9.11211 8.55684 0
    endloop
  endfacet
  facet normal 0 0 -1
    outer loop
      vertex 8.00262 7.51496 0
      vertex 9.11211 8.55684 0
      vertex 10.1127 7.34732 0
    endloop
  endfacet
  facet normal 0 0 -1
    outer loop
      vertex 8.88139 6.45271 0
      vertex 10.1127 7.34732 0
      vertex 10.9538 6.02192 0
    endloop
  endfacet
  facet normal 0 0 -1
    outer loop
      vertex 9.62009 5.28869 0
      vertex 10.9538 6.02192 0
      vertex 11.6222 4.60156 0
    endloop
  endfacet
  facet normal 0 0 -1
    outer loop
      vertex 10.2071 4.04127 0
      vertex 11.6222 4.60156 0
      vertex 12.1073 3.10862 0
    endloop
  endfacet
  facet normal 0 0 -1
    outer loop
      vertex 10.8914 1.37591 0
      vertex 12.1073 3.10862 0
      vertex 12.4014 1.56666 0
    endloop
  endfacet
  facet normal 0 0 -1
    outer loop
      vertex 10.978 0 0
      vertex 12.4014 1.56666 0
      vertex 12.5 0 0
    endloop
  endfacet
  facet normal 0 0 -1
    outer loop
      vertex 10.8914 -1.37591 0
      vertex 12.5 0 0
      vertex 12.4014 -1.56666 0
    endloop
  endfacet
  facet normal 0 0 -1
    outer loop
      vertex 10.6331 -2.73012 0
      vertex 12.4014 -1.56666 0
      vertex 12.1073 -3.10862 0
    endloop
  endfacet
  facet normal 0 0 -1
    outer loop
      vertex 10.2071 -4.04127 0
      vertex 12.1073 -3.10862 0
      vertex 11.6222 -4.60156 0
    endloop
  endfacet
  facet normal 0 0 -1
    outer loop
      vertex 9.62009 -5.28869 0
      vertex 11.6222 -4.60156 0
      vertex 10.9538 -6.02192 0
    endloop
  endfacet
  facet normal 0 0 -1
    outer loop
      vertex 8.88139 -6.45271 0
      vertex 10.9538 -6.02192 0
      vertex 10.1127 -7.34732 0
    endloop
  endfacet
  facet normal 0 0 -1
    outer loop
      vertex 8.00262 -7.51496 0
      vertex 10.1127 -7.34732 0
      vertex 9.11211 -8.55684 0
    endloop
  endfacet
  facet normal 0 0 -1
    outer loop
      vertex 6.99764 -8.45869 0
      vertex 9.11211 -8.55684 0
      vertex 7.9678 -9.63142 0
    endloop
  endfacet
  facet normal 0 0 -1
    outer loop
      vertex 5.88231 -9.26903 0
      vertex 7.9678 -9.63142 0
      vertex 6.69783 -10.5541 0
    endloop
  endfacet
  facet normal 0 0 -1
    outer loop
      vertex 4.6742 -9.93319 0
      vertex 6.69783 -10.5541 0
      vertex 5.32224 -11.3103 0
    endloop
  endfacet
  facet normal 0 0 -1
    outer loop
      vertex 3.39239 -10.4407 0
      vertex 5.32224 -11.3103 0
      vertex 3.86271 -11.8882 0
    endloop
  endfacet
  facet normal 0 0 -1
    outer loop
      vertex 0.689315 -10.9563 0
      vertex 3.86271 -11.8882 0
      vertex 2.34227 -12.2786 0
    endloop
  endfacet
  facet normal 0 0 -1
    outer loop
      vertex -0.689315 -10.9563 0
      vertex 2.34227 -12.2786 0
      vertex 0.784881 -12.4753 0
    endloop
  endfacet
  facet normal 0 0 -1
    outer loop
      vertex -2.05707 -10.7835 0
      vertex 0.784881 -12.4753 0
      vertex -0.784881 -12.4753 0
    endloop
  endfacet
  facet normal 0 0 -1
    outer loop
      vertex -3.39239 -10.4407 0
      vertex -0.784881 -12.4753 0
      vertex -2.34227 -12.2786 0
    endloop
  endfacet
  facet normal 0 0 -1
    outer loop
      vertex -5.88231 -9.26903 0
      vertex -2.34227 -12.2786 0
      vertex -3.86271 -11.8882 0
    endloop
  endfacet
  facet normal 0 0 -1
    outer loop
      vertex -8.00262 -7.51496 0
      vertex -3.86271 -11.8882 0
      vertex -5.32224 -11.3103 0
    endloop
  endfacet
  facet normal 0 0 -1
    outer loop
      vertex -8.88139 -6.45271 0
      vertex -5.32224 -11.3103 0
      vertex -6.69783 -10.5541 0
    endloop
  endfacet
  facet normal 0 0 -1
    outer loop
      vertex -12.4014 -1.56666 0
      vertex -6.69783 -10.5541 0
      vertex -7.9678 -9.63142 0
    endloop
  endfacet
  facet normal 0 0 -1
    outer loop
      vertex -12.4014 -1.56666 0
      vertex -7.9678 -9.63142 0
      vertex -9.11211 -8.55684 0
    endloop
  endfacet
  facet normal 0 0 -1
    outer loop
      vertex -12.4014 -1.56666 0
      vertex -9.11211 -8.55684 0
      vertex -10.1127 -7.34732 0
    endloop
  endfacet
  facet normal 0 0 -1
    outer loop
      vertex -12.4014 -1.56666 0
      vertex -10.1127 -7.34732 0
      vertex -10.9538 -6.02192 0
    endloop
  endfacet
  facet normal 0 0 -1
    outer loop
      vertex -12.4014 -1.56666 0
      vertex -10.9538 -6.02192 0
      vertex -11.6222 -4.60156 0
    endloop
  endfacet
  facet normal 0 0 -1
    outer loop
      vertex -12.4014 -1.56666 0
      vertex -11.6222 -4.60156 0
      vertex -12.1073 -3.10862 0
    endloop
  endfacet
  facet normal 0 0 -1
    outer loop
      vertex -10.8914 -1.37591 0
      vertex -12.4014 -1.56666 0
      vertex -10.978 0 0
    endloop
  endfacet
  facet normal 0 0 -1
    outer loop
      vertex -10.6331 -2.73012 0
      vertex -12.4014 -1.56666 0
      vertex -10.8914 -1.37591 0
    endloop
  endfacet
  facet normal 0 0 -1
    outer loop
      vertex -10.2071 -4.04127 0
      vertex -12.4014 -1.56666 0
      vertex -10.6331 -2.73012 0
    endloop
  endfacet
  facet normal 0 0 -1
    outer loop
      vertex -9.62009 -5.28869 0
      vertex -12.4014 -1.56666 0
      vertex -10.2071 -4.04127 0
    endloop
  endfacet
  facet normal 0 0 -1
    outer loop
      vertex -8.88139 -6.45271 0
      vertex -12.4014 -1.56666 0
      vertex -9.62009 -5.28869 0
    endloop
  endfacet
  facet normal 0 0 -1
    outer loop
      vertex -8.00262 -7.51496 0
      vertex -5.32224 -11.3103 0
      vertex -8.88139 -6.45271 0
    endloop
  endfacet
  facet normal 0 0 -1
    outer loop
      vertex -12.4014 -1.56666 0
      vertex -8.88139 -6.45271 0
      vertex -6.69783 -10.5541 0
    endloop
  endfacet
  facet normal 0 0 -1
    outer loop
      vertex -6.99764 -8.45869 0
      vertex -3.86271 -11.8882 0
      vertex -8.00262 -7.51496 0
    endloop
  endfacet
  facet normal 0 0 -1
    outer loop
      vertex -5.88231 -9.26903 0
      vertex -3.86271 -11.8882 0
      vertex -6.99764 -8.45869 0
    endloop
  endfacet
  facet normal 0 0 -1
    outer loop
      vertex -4.6742 -9.93319 0
      vertex -2.34227 -12.2786 0
      vertex -5.88231 -9.26903 0
    endloop
  endfacet
  facet normal 0 0 -1
    outer loop
      vertex -3.39239 -10.4407 0
      vertex -2.34227 -12.2786 0
      vertex -4.6742 -9.93319 0
    endloop
  endfacet
  facet normal 0 0 -1
    outer loop
      vertex 2.05707 -10.7835 0
      vertex 3.86271 -11.8882 0
      vertex 0.689315 -10.9563 0
    endloop
  endfacet
  facet normal 0 0 -1
    outer loop
      vertex 3.39239 -10.4407 0
      vertex 3.86271 -11.8882 0
      vertex 2.05707 -10.7835 0
    endloop
  endfacet
  facet normal 0 0 -1
    outer loop
      vertex 0.689315 -10.9563 0
      vertex 2.34227 -12.2786 0
      vertex -0.689315 -10.9563 0
    endloop
  endfacet
  facet normal 0 0 -1
    outer loop
      vertex -0.689315 -10.9563 0
      vertex 0.784881 -12.4753 0
      vertex -2.05707 -10.7835 0
    endloop
  endfacet
  facet normal 0 0 -1
    outer loop
      vertex -2.05707 -10.7835 0
      vertex -0.784881 -12.4753 0
      vertex -3.39239 -10.4407 0
    endloop
  endfacet
  facet normal 0 0 -1
    outer loop
      vertex 10.8914 1.37591 0
      vertex 12.4014 1.56666 0
      vertex 10.978 0 0
    endloop
  endfacet
  facet normal 0 0 -1
    outer loop
      vertex 10.6331 2.73012 0
      vertex 12.1073 3.10862 0
      vertex 10.8914 1.37591 0
    endloop
  endfacet
  facet normal 0 0 -1
    outer loop
      vertex 10.978 0 0
      vertex 12.5 0 0
      vertex 10.8914 -1.37591 0
    endloop
  endfacet
  facet normal 0 0 -1
    outer loop
      vertex 10.8914 -1.37591 0
      vertex 12.4014 -1.56666 0
      vertex 10.6331 -2.73012 0
    endloop
  endfacet
  facet normal 0 0 -1
    outer loop
      vertex 10.6331 -2.73012 0
      vertex 12.1073 -3.10862 0
      vertex 10.2071 -4.04127 0
    endloop
  endfacet
  facet normal 0 0 -1
    outer loop
      vertex 10.2071 -4.04127 0
      vertex 11.6222 -4.60156 0
      vertex 9.62009 -5.28869 0
    endloop
  endfacet
  facet normal 0 0 -1
    outer loop
      vertex 9.62009 -5.28869 0
      vertex 10.9538 -6.02192 0
      vertex 8.88139 -6.45271 0
    endloop
  endfacet
  facet normal 0 0 -1
    outer loop
      vertex 8.88139 -6.45271 0
      vertex 10.1127 -7.34732 0
      vertex 8.00262 -7.51496 0
    endloop
  endfacet
  facet normal 0 0 -1
    outer loop
      vertex 8.00262 -7.51496 0
      vertex 9.11211 -8.55684 0
      vertex 6.99764 -8.45869 0
    endloop
  endfacet
  facet normal 0 0 -1
    outer loop
      vertex 6.99764 -8.45869 0
      vertex 7.9678 -9.63142 0
      vertex 5.88231 -9.26903 0
    endloop
  endfacet
  facet normal 0 0 -1
    outer loop
      vertex 5.88231 -9.26903 0
      vertex 6.69783 -10.5541 0
      vertex 4.6742 -9.93319 0
    endloop
  endfacet
  facet normal 0 0 -1
    outer loop
      vertex 4.6742 -9.93319 0
      vertex 5.32224 -11.3103 0
      vertex 3.39239 -10.4407 0
    endloop
  endfacet
  facet normal 0 0 -1
    outer loop
      vertex -2.05707 10.7835 0
      vertex -0.784881 12.4753 0
      vertex -0.689315 10.9563 0
    endloop
  endfacet
  facet normal 0 0 -1
    outer loop
      vertex -3.39239 10.4407 0
      vertex -0.784881 12.4753 0
      vertex -2.05707 10.7835 0
    endloop
  endfacet
  facet normal 0 0 -1
    outer loop
      vertex -0.689315 10.9563 0
      vertex 0.784881 12.4753 0
      vertex 0.689315 10.9563 0
    endloop
  endfacet
  facet normal 0 0 -1
    outer loop
      vertex 0.689315 10.9563 0
      vertex 2.34227 12.2786 0
      vertex 2.05707 10.7835 0
    endloop
  endfacet
  facet normal 0 0 -1
    outer loop
      vertex 2.05707 10.7835 0
      vertex 3.86271 11.8882 0
      vertex 3.39239 10.4407 0
    endloop
  endfacet
  facet normal 0 0 -1
    outer loop
      vertex -8.00262 7.51496 0
      vertex -6.69783 10.5541 0
      vertex -6.99764 8.45869 0
    endloop
  endfacet
  facet normal 0 0 -1
    outer loop
      vertex -9.62009 5.28869 0
      vertex -7.9678 9.63142 0
      vertex -8.88139 6.45271 0
    endloop
  endfacet
  facet normal 0 0 -1
    outer loop
      vertex -10.2071 4.04127 0
      vertex -7.9678 9.63142 0
      vertex -9.62009 5.28869 0
    endloop
  endfacet
  facet normal 0 0 -1
    outer loop
      vertex -12.4014 -1.56666 0
      vertex -9.11211 8.55684 0
      vertex -10.2071 4.04127 0
    endloop
  endfacet
  facet normal 0 0 -1
    outer loop
      vertex -10.6331 2.73012 0
      vertex -12.4014 -1.56666 0
      vertex -10.2071 4.04127 0
    endloop
  endfacet
  facet normal 0 0 -1
    outer loop
      vertex -10.8914 1.37591 0
      vertex -12.4014 -1.56666 0
      vertex -10.6331 2.73012 0
    endloop
  endfacet
  facet normal 0 0 -1
    outer loop
      vertex 3.39239 10.4407 0
      vertex 5.32224 11.3103 0
      vertex 4.6742 9.93319 0
    endloop
  endfacet
  facet normal 0 0 -1
    outer loop
      vertex -10.978 0 0
      vertex -12.4014 -1.56666 0
      vertex -10.8914 1.37591 0
    endloop
  endfacet
  facet normal 0 0 -1
    outer loop
      vertex -8.88139 6.45271 0
      vertex -6.69783 10.5541 0
      vertex -8.00262 7.51496 0
    endloop
  endfacet
  facet normal 0 0 -1
    outer loop
      vertex -6.99764 8.45869 0
      vertex -5.32224 11.3103 0
      vertex -5.88231 9.26903 0
    endloop
  endfacet
  facet normal 0 0 -1
    outer loop
      vertex -5.88231 9.26903 0
      vertex -3.86271 11.8882 0
      vertex -4.6742 9.93319 0
    endloop
  endfacet
  facet normal 0 0 -1
    outer loop
      vertex -4.6742 9.93319 0
      vertex -2.34227 12.2786 0
      vertex -3.39239 10.4407 0
    endloop
  endfacet
  facet normal 0 0 -1
    outer loop
      vertex 4.6742 9.93319 0
      vertex 6.69783 10.5541 0
      vertex 5.88231 9.26903 0
    endloop
  endfacet
  facet normal 0 0 -1
    outer loop
      vertex 5.88231 9.26903 0
      vertex 7.9678 9.63142 0
      vertex 6.99764 8.45869 0
    endloop
  endfacet
  facet normal 0 0 -1
    outer loop
      vertex 6.99764 8.45869 0
      vertex 9.11211 8.55684 0
      vertex 8.00262 7.51496 0
    endloop
  endfacet
  facet normal 0 0 -1
    outer loop
      vertex 8.00262 7.51496 0
      vertex 10.1127 7.34732 0
      vertex 8.88139 6.45271 0
    endloop
  endfacet
  facet normal 0 0 -1
    outer loop
      vertex 8.88139 6.45271 0
      vertex 10.9538 6.02192 0
      vertex 9.62009 5.28869 0
    endloop
  endfacet
  facet normal 0 0 -1
    outer loop
      vertex 9.62009 5.28869 0
      vertex 11.6222 4.60156 0
      vertex 10.2071 4.04127 0
    endloop
  endfacet
  facet normal 0 0 -1
    outer loop
      vertex 10.2071 4.04127 0
      vertex 12.1073 3.10862 0
      vertex 10.6331 2.73012 0
    endloop
  endfacet
  facet normal 0.974806 0.0613294 -0.214457
    outer loop
      vertex 0 0 49.9
      vertex -10.8914 -1.37591 0
      vertex -10.978 0 0
    endloop
  endfacet
  facet normal 0.974806 -0.0613294 -0.214457
    outer loop
      vertex -10.8914 1.37591 0
      vertex 0 0 49.9
      vertex -10.978 0 0
    endloop
  endfacet
  facet normal 0.959433 -0.183022 -0.214457
    outer loop
      vertex -10.6331 2.73012 0
      vertex 0 0 49.9
      vertex -10.8914 1.37591 0
    endloop
  endfacet
  facet normal 0.928928 -0.301828 -0.214457
    outer loop
      vertex -10.2071 4.04127 0
      vertex 0 0 49.9
      vertex -10.6331 2.73012 0
    endloop
  endfacet
  facet normal 0.883775 -0.415873 -0.214457
    outer loop
      vertex -9.62009 5.28869 0
      vertex 0 0 49.9
      vertex -10.2071 4.04127 0
    endloop
  endfacet
  facet normal 0.824684 -0.523359 -0.214457
    outer loop
      vertex -8.88139 6.45271 0
      vertex 0 0 49.9
      vertex -9.62009 5.28869 0
    endloop
  endfacet
  facet normal 0.752586 -0.622593 -0.214457
    outer loop
      vertex -8.00262 7.51496 0
      vertex 0 0 49.9
      vertex -8.88139 6.45271 0
    endloop
  endfacet
  facet normal 0.66862 -0.712008 -0.214457
    outer loop
      vertex -6.99764 8.45869 0
      vertex 0 0 49.9
      vertex -8.00262 7.51496 0
    endloop
  endfacet
  facet normal 0.574109 -0.790194 -0.214457
    outer loop
      vertex -5.88231 9.26903 0
      vertex 0 0 49.9
      vertex -6.99764 8.45869 0
    endloop
  endfacet
  facet normal 0.470545 -0.855918 -0.214457
    outer loop
      vertex -4.6742 9.93319 0
      vertex 0 0 49.9
      vertex -5.88231 9.26903 0
    endloop
  endfacet
  facet normal 0.35956 -0.908144 -0.214457
    outer loop
      vertex -3.39239 10.4407 0
      vertex 0 0 49.9
      vertex -4.6742 9.93319 0
    endloop
  endfacet
  facet normal 0.242904 -0.946048 -0.214457
    outer loop
      vertex -2.05707 10.7835 0
      vertex 0 0 49.9
      vertex -3.39239 10.4407 0
    endloop
  endfacet
  facet normal 0.122417 -0.969032 -0.214457
    outer loop
      vertex -0.689315 10.9563 0
      vertex 0 0 49.9
      vertex -2.05707 10.7835 0
    endloop
  endfacet
  facet normal 0 -0.976733 -0.214457
    outer loop
      vertex 0.689315 10.9563 0
      vertex 0 0 49.9
      vertex -0.689315 10.9563 0
    endloop
  endfacet
  facet normal -0.122417 -0.969032 -0.214457
    outer loop
      vertex 0.689315 10.9563 0
      vertex 2.05707 10.7835 0
      vertex 0 0 49.9
    endloop
  endfacet
  facet normal -0.242904 -0.946048 -0.214457
    outer loop
      vertex 2.05707 10.7835 0
      vertex 3.39239 10.4407 0
      vertex 0 0 49.9
    endloop
  endfacet
  facet normal -0.35956 -0.908144 -0.214457
    outer loop
      vertex 3.39239 10.4407 0
      vertex 4.6742 9.93319 0
      vertex 0 0 49.9
    endloop
  endfacet
  facet normal -0.470545 -0.855918 -0.214457
    outer loop
      vertex 4.6742 9.93319 0
      vertex 5.88231 9.26903 0
      vertex 0 0 49.9
    endloop
  endfacet
  facet normal -0.574109 -0.790194 -0.214457
    outer loop
      vertex 5.88231 9.26903 0
      vertex 6.99764 8.45869 0
      vertex 0 0 49.9
    endloop
  endfacet
  facet normal -0.66862 -0.712008 -0.214457
    outer loop
      vertex 6.99764 8.45869 0
      vertex 8.00262 7.51496 0
      vertex 0 0 49.9
    endloop
  endfacet
  facet normal -0.752586 -0.622593 -0.214457
    outer loop
      vertex 8.00262 7.51496 0
      vertex 8.88139 6.45271 0
      vertex 0 0 49.9
    endloop
  endfacet
  facet normal -0.824684 -0.523359 -0.214457
    outer loop
      vertex 8.88139 6.45271 0
      vertex 9.62009 5.28869 0
      vertex 0 0 49.9
    endloop
  endfacet
  facet normal -0.883775 -0.415873 -0.214457
    outer loop
      vertex 9.62009 5.28869 0
      vertex 10.2071 4.04127 0
      vertex 0 0 49.9
    endloop
  endfacet
  facet normal -0.928928 -0.301828 -0.214457
    outer loop
      vertex 10.2071 4.04127 0
      vertex 10.6331 2.73012 0
      vertex 0 0 49.9
    endloop
  endfacet
  facet normal -0.959433 -0.183022 -0.214457
    outer loop
      vertex 10.6331 2.73012 0
      vertex 10.8914 1.37591 0
      vertex 0 0 49.9
    endloop
  endfacet
  facet normal -0.974806 -0.0613294 -0.214457
    outer loop
      vertex 10.8914 1.37591 0
      vertex 10.978 0 0
      vertex 0 0 49.9
    endloop
  endfacet
  facet normal -0.974806 0.0613294 -0.214457
    outer loop
      vertex 10.978 0 0
      vertex 10.8914 -1.37591 0
      vertex 0 0 49.9
    endloop
  endfacet
  facet normal -0.959433 0.183022 -0.214457
    outer loop
      vertex 10.8914 -1.37591 0
      vertex 10.6331 -2.73012 0
      vertex 0 0 49.9
    endloop
  endfacet
  facet normal -0.928928 0.301828 -0.214457
    outer loop
      vertex 10.6331 -2.73012 0
      vertex 10.2071 -4.04127 0
      vertex 0 0 49.9
    endloop
  endfacet
  facet normal -0.883775 0.415873 -0.214457
    outer loop
      vertex 10.2071 -4.04127 0
      vertex 9.62009 -5.28869 0
      vertex 0 0 49.9
    endloop
  endfacet
  facet normal -0.824684 0.523359 -0.214457
    outer loop
      vertex 9.62009 -5.28869 0
      vertex 8.88139 -6.45271 0
      vertex 0 0 49.9
    endloop
  endfacet
  facet normal -0.752586 0.622593 -0.214457
    outer loop
      vertex 8.88139 -6.45271 0
      vertex 8.00262 -7.51496 0
      vertex 0 0 49.9
    endloop
  endfacet
  facet normal -0.66862 0.712008 -0.214457
    outer loop
      vertex 8.00262 -7.51496 0
      vertex 6.99764 -8.45869 0
      vertex 0 0 49.9
    endloop
  endfacet
  facet normal -0.574109 0.790194 -0.214457
    outer loop
      vertex 6.99764 -8.45869 0
      vertex 5.88231 -9.26903 0
      vertex 0 0 49.9
    endloop
  endfacet
  facet normal -0.470545 0.855918 -0.214457
    outer loop
      vertex 5.88231 -9.26903 0
      vertex 4.6742 -9.93319 0
      vertex 0 0 49.9
    endloop
  endfacet
  facet normal -0.35956 0.908144 -0.214457
    outer loop
      vertex 4.6742 -9.93319 0
      vertex 3.39239 -10.4407 0
      vertex 0 0 49.9
    endloop
  endfacet
  facet normal -0.242904 0.946048 -0.214457
    outer loop
      vertex 3.39239 -10.4407 0
      vertex 2.05707 -10.7835 0
      vertex 0 0 49.9
    endloop
  endfacet
  facet normal -0.122417 0.969032 -0.214457
    outer loop
      vertex 2.05707 -10.7835 0
      vertex 0.689315 -10.9563 0
      vertex 0 0 49.9
    endloop
  endfacet
  facet normal 0 0.976733 -0.214457
    outer loop
      vertex 0 0 49.9
      vertex 0.689315 -10.9563 0
      vertex -0.689315 -10.9563 0
    endloop
  endfacet
  facet normal 0.122417 0.969032 -0.214457
    outer loop
      vertex 0 0 49.9
      vertex -0.689315 -10.9563 0
      vertex -2.05707 -10.7835 0
    endloop
  endfacet
  facet normal 0.242904 0.946048 -0.214457
    outer loop
      vertex 0 0 49.9
      vertex -2.05707 -10.7835 0
      vertex -3.39239 -10.4407 0
    endloop
  endfacet
  facet normal 0.35956 0.908144 -0.214457
    outer loop
      vertex 0 0 49.9
      vertex -3.39239 -10.4407 0
      vertex -4.6742 -9.93319 0
    endloop
  endfacet
  facet normal 0.470545 0.855918 -0.214457
    outer loop
      vertex 0 0 49.9
      vertex -4.6742 -9.93319 0
      vertex -5.88231 -9.26903 0
    endloop
  endfacet
  facet normal 0.574109 0.790194 -0.214457
    outer loop
      vertex 0 0 49.9
      vertex -5.88231 -9.26903 0
      vertex -6.99764 -8.45869 0
    endloop
  endfacet
  facet normal 0.66862 0.712008 -0.214457
    outer loop
      vertex 0 0 49.9
      vertex -6.99764 -8.45869 0
      vertex -8.00262 -7.51496 0
    endloop
  endfacet
  facet normal 0.752586 0.622593 -0.214457
    outer loop
      vertex 0 0 49.9
      vertex -8.00262 -7.51496 0
      vertex -8.88139 -6.45271 0
    endloop
  endfacet
  facet normal 0.824684 0.523359 -0.214457
    outer loop
      vertex 0 0 49.9
      vertex -8.88139 -6.45271 0
      vertex -9.62009 -5.28869 0
    endloop
  endfacet
  facet normal 0.883775 0.415873 -0.214457
    outer loop
      vertex 0 0 49.9
      vertex -9.62009 -5.28869 0
      vertex -10.2071 -4.04127 0
    endloop
  endfacet
  facet normal 0.928928 0.301828 -0.214457
    outer loop
      vertex 0 0 49.9
      vertex -10.2071 -4.04127 0
      vertex -10.6331 -2.73012 0
    endloop
  endfacet
  facet normal 0.959433 0.183022 -0.214457
    outer loop
      vertex 0 0 49.9
      vertex -10.6331 -2.73012 0
      vertex -10.8914 -1.37591 0
    endloop
  endfacet
endsolid OpenSCAD_Model
