solid OpenSCAD_Model
  facet normal -0.500000 -0.866025 0.000000
    outer loop
      vertex -23.267949 -44.301270 0.000000
      vertex -16.339746 -48.301270 0.000000
      vertex -16.339746 -48.301270 10.000000
    endloop
  endfacet
  facet normal -0.500000 -0.866025 0.000000
    outer loop
      vertex -23.267949 -44.301270 4.950000
      vertex -23.267949 -44.301270 0.000000
      vertex -16.339746 -48.301270 10.000000
    endloop
  endfacet
  facet normal -0.500000 -0.866025 -0.000000
    outer loop
      vertex -35.392305 -37.301270 0.000000
      vertex -28.464102 -41.301270 0.000000
      vertex -35.392305 -37.301270 10.000000
    endloop
  endfacet
  facet normal -0.500000 -0.866025 0.000000
    outer loop
      vertex -35.392305 -37.301270 10.000000
      vertex -28.464102 -41.301270 4.950000
      vertex -16.339746 -48.301270 10.000000
    endloop
  endfacet
  facet normal -0.500000 -0.866025 -0.000000
    outer loop
      vertex -28.464102 -41.301270 4.950000
      vertex -23.267949 -44.301270 4.950000
      vertex -16.339746 -48.301270 10.000000
    endloop
  endfacet
  facet normal -0.500000 -0.866025 -0.000000
    outer loop
      vertex -28.464102 -41.301270 0.000000
      vertex -28.464102 -41.301270 4.950000
      vertex -35.392305 -37.301270 10.000000
    endloop
  endfacet
  facet normal 0.866025 -0.500000 0.000000
    outer loop
      vertex -16.339746 -48.301270 10.000000
      vertex -16.339746 -48.301270 0.000000
      vertex -11.339746 -39.641016 0.000000
    endloop
  endfacet
  facet normal 0.866025 -0.500000 0.000000
    outer loop
      vertex -5.089746 -28.815699 4.950000
      vertex -16.339746 -48.301270 10.000000
      vertex -11.339746 -39.641016 4.950000
    endloop
  endfacet
  facet normal 0.866025 -0.500000 0.000000
    outer loop
      vertex -11.339746 -39.641016 4.950000
      vertex -16.339746 -48.301270 10.000000
      vertex -11.339746 -39.641016 0.000000
    endloop
  endfacet
  facet normal 0.866025 -0.500000 0.000000
    outer loop
      vertex 21.910254 17.949673 0.000000
      vertex -16.339746 -48.301270 10.000000
      vertex -5.089746 -28.815699 4.950000
    endloop
  endfacet
  facet normal 0.866025 -0.500000 0.000000
    outer loop
      vertex 21.910254 17.949673 0.000000
      vertex -5.089746 -28.815699 4.950000
      vertex -5.089746 -28.815699 0.000000
    endloop
  endfacet
  facet normal 0.866025 -0.500000 0.000000
    outer loop
      vertex 21.910254 17.949673 4.950000
      vertex -16.339746 -48.301270 10.000000
      vertex 21.910254 17.949673 0.000000
    endloop
  endfacet
  facet normal 0.866025 -0.500000 -0.000000
    outer loop
      vertex 28.160254 28.774991 4.950000
      vertex -16.339746 -48.301270 10.000000
      vertex 21.910254 17.949673 4.950000
    endloop
  endfacet
  facet normal 0.866025 -0.500000 0.000000
    outer loop
      vertex 31.160254 33.971143 10.000000
      vertex -16.339746 -48.301270 10.000000
      vertex 28.160254 28.774991 4.950000
    endloop
  endfacet
  facet normal 0.866025 -0.500000 0.000000
    outer loop
      vertex 31.160254 33.971143 0.000000
      vertex 28.160254 28.774991 4.950000
      vertex 28.160254 28.774991 0.000000
    endloop
  endfacet
  facet normal 0.866025 -0.500000 0.000000
    outer loop
      vertex 31.160254 33.971143 10.000000
      vertex 28.160254 28.774991 4.950000
      vertex 31.160254 33.971143 0.000000
    endloop
  endfacet
  facet normal 0.000000 -0.000000 -1.000000
    outer loop
      vertex -16.339746 -48.301270 0.000000
      vertex -23.267949 -44.301270 0.000000
      vertex -11.339746 -39.641016 0.000000
    endloop
  endfacet
  facet normal 0.000000 0.000000 -1.000000
    outer loop
      vertex -11.339746 -39.641016 0.000000
      vertex -23.267949 -44.301270 0.000000
      vertex -18.267949 -35.641016 0.000000
    endloop
  endfacet
  facet normal -0.866025 0.500000 0.000000
    outer loop
      vertex -18.267949 -35.641016 4.950000
      vertex -18.267949 -35.641016 0.000000
      vertex -23.267949 -44.301270 4.950000
    endloop
  endfacet
  facet normal -0.866025 0.500000 0.000000
    outer loop
      vertex -23.267949 -44.301270 4.950000
      vertex -18.267949 -35.641016 0.000000
      vertex -23.267949 -44.301270 0.000000
    endloop
  endfacet
  facet normal 0.000000 0.000000 -1.000000
    outer loop
      vertex -23.464102 -32.641016 4.950000
      vertex -30.392305 -28.641016 4.950000
      vertex -24.142305 -17.815699 4.950000
    endloop
  endfacet
  facet normal 0.000000 -0.000000 -1.000000
    outer loop
      vertex -23.464102 -32.641016 4.950000
      vertex -24.142305 -17.815699 4.950000
      vertex -5.089746 -28.815699 4.950000
    endloop
  endfacet
  facet normal 0.000000 -0.000000 -1.000000
    outer loop
      vertex -23.267949 -44.301270 4.950000
      vertex -28.464102 -41.301270 4.950000
      vertex -18.267949 -35.641016 4.950000
    endloop
  endfacet
  facet normal -0.000000 0.000000 -1.000000
    outer loop
      vertex -23.464102 -32.641016 4.950000
      vertex -5.089746 -28.815699 4.950000
      vertex -18.267949 -35.641016 4.950000
    endloop
  endfacet
  facet normal 0.000000 0.000000 -1.000000
    outer loop
      vertex -23.464102 -32.641016 4.950000
      vertex -18.267949 -35.641016 4.950000
      vertex -28.464102 -41.301270 4.950000
    endloop
  endfacet
  facet normal -0.000000 0.000000 -1.000000
    outer loop
      vertex -18.267949 -35.641016 4.950000
      vertex -5.089746 -28.815699 4.950000
      vertex -11.339746 -39.641016 4.950000
    endloop
  endfacet
  facet normal 0.866025 -0.500000 0.000000
    outer loop
      vertex -23.464102 -32.641016 0.000000
      vertex -23.464102 -32.641016 4.950000
      vertex -28.464102 -41.301270 4.950000
    endloop
  endfacet
  facet normal 0.866025 -0.500000 0.000000
    outer loop
      vertex -28.464102 -41.301270 0.000000
      vertex -23.464102 -32.641016 0.000000
      vertex -28.464102 -41.301270 4.950000
    endloop
  endfacet
  facet normal 0.000000 -0.000000 -1.000000
    outer loop
      vertex -28.464102 -41.301270 0.000000
      vertex -35.392305 -37.301270 0.000000
      vertex -23.464102 -32.641016 0.000000
    endloop
  endfacet
  facet normal 0.000000 0.000000 -1.000000
    outer loop
      vertex -23.464102 -32.641016 0.000000
      vertex -35.392305 -37.301270 0.000000
      vertex -30.392305 -28.641016 0.000000
    endloop
  endfacet
  facet normal -0.866025 0.500000 0.000000
    outer loop
      vertex -35.392305 -37.301270 0.000000
      vertex -35.392305 -37.301270 10.000000
      vertex -30.392305 -28.641016 0.000000
    endloop
  endfacet
  facet normal -0.866025 0.500000 0.000000
    outer loop
      vertex -24.142305 -17.815699 4.950000
      vertex -35.392305 -37.301270 10.000000
      vertex 12.107695 44.971143 10.000000
    endloop
  endfacet
  facet normal -0.866025 0.500000 0.000000
    outer loop
      vertex 9.107695 39.774991 0.000000
      vertex 12.107695 44.971143 10.000000
      vertex 12.107695 44.971143 0.000000
    endloop
  endfacet
  facet normal -0.866025 0.500000 0.000000
    outer loop
      vertex 9.107695 39.774991 4.950000
      vertex 12.107695 44.971143 10.000000
      vertex 9.107695 39.774991 0.000000
    endloop
  endfacet
  facet normal -0.866025 0.500000 0.000000
    outer loop
      vertex 2.857695 28.949673 4.950000
      vertex 12.107695 44.971143 10.000000
      vertex 9.107695 39.774991 4.950000
    endloop
  endfacet
  facet normal -0.866025 0.500000 0.000000
    outer loop
      vertex -24.142305 -17.815699 4.950000
      vertex 12.107695 44.971143 10.000000
      vertex 2.857695 28.949673 4.950000
    endloop
  endfacet
  facet normal -0.866025 0.500000 0.000000
    outer loop
      vertex -24.142305 -17.815699 4.950000
      vertex 2.857695 28.949673 4.950000
      vertex -24.142305 -17.815699 0.000000
    endloop
  endfacet
  facet normal -0.866025 0.500000 0.000000
    outer loop
      vertex -30.392305 -28.641016 4.950000
      vertex -35.392305 -37.301270 10.000000
      vertex -24.142305 -17.815699 4.950000
    endloop
  endfacet
  facet normal -0.866025 0.500000 0.000000
    outer loop
      vertex -30.392305 -28.641016 0.000000
      vertex -35.392305 -37.301270 10.000000
      vertex -30.392305 -28.641016 4.950000
    endloop
  endfacet
  facet normal -0.866025 0.500000 0.000000
    outer loop
      vertex 2.857695 28.949673 0.000000
      vertex -24.142305 -17.815699 0.000000
      vertex 2.857695 28.949673 4.950000
    endloop
  endfacet
  facet normal 0.000000 -0.000000 1.000000
    outer loop
      vertex -6.730571 -29.548128 10.000000
      vertex -16.339746 -48.301270 10.000000
      vertex 31.160254 33.971143 10.000000
    endloop
  endfacet
  facet normal 0.000000 0.000000 1.000000
    outer loop
      vertex -7.775856 -31.358615 10.000000
      vertex -9.174720 -32.912210 10.000000
      vertex -16.339746 -48.301270 10.000000
    endloop
  endfacet
  facet normal 0.000000 0.000000 1.000000
    outer loop
      vertex -35.392305 -37.301270 10.000000
      vertex -16.339746 -48.301270 10.000000
      vertex -18.956195 -34.991327 10.000000
    endloop
  endfacet
  facet normal 0.000000 0.000000 1.000000
    outer loop
      vertex -7.775856 -19.602909 10.000000
      vertex -6.730570 -21.413396 10.000000
      vertex 31.160254 33.971143 10.000000
    endloop
  endfacet
  facet normal 0.000000 0.000000 1.000000
    outer loop
      vertex -35.392305 -37.301270 10.000000
      vertex -18.956195 -34.991327 10.000000
      vertex -20.866025 -34.141016 10.000000
    endloop
  endfacet
  facet normal 0.000000 0.000000 1.000000
    outer loop
      vertex -9.174719 -18.049314 10.000000
      vertex -7.775856 -19.602909 10.000000
      vertex 31.160254 33.971143 10.000000
    endloop
  endfacet
  facet normal 0.000000 0.000000 1.000000
    outer loop
      vertex -35.392305 -37.301270 10.000000
      vertex -20.866025 -34.141016 10.000000
      vertex -22.557332 -32.912210 10.000000
    endloop
  endfacet
  facet normal 0.000000 0.000000 1.000000
    outer loop
      vertex -10.866025 -16.820508 10.000000
      vertex -9.174719 -18.049314 10.000000
      vertex 31.160254 33.971143 10.000000
    endloop
  endfacet
  facet normal 0.000000 0.000000 1.000000
    outer loop
      vertex -35.392305 -37.301270 10.000000
      vertex -22.557332 -32.912210 10.000000
      vertex -23.956195 -31.358615 10.000000
    endloop
  endfacet
  facet normal 0.000000 0.000000 1.000000
    outer loop
      vertex -12.775856 -15.970197 10.000000
      vertex -10.866025 -16.820508 10.000000
      vertex 31.160254 33.971143 10.000000
    endloop
  endfacet
  facet normal 0.000000 0.000000 1.000000
    outer loop
      vertex -35.392305 -37.301270 10.000000
      vertex -23.956195 -31.358615 10.000000
      vertex -25.001480 -29.548128 10.000000
    endloop
  endfacet
  facet normal 0.000000 0.000000 1.000000
    outer loop
      vertex -9.174720 -32.912210 10.000000
      vertex -10.866025 -34.141016 10.000000
      vertex -16.339746 -48.301270 10.000000
    endloop
  endfacet
  facet normal 0.000000 0.000000 1.000000
    outer loop
      vertex -35.392305 -37.301270 10.000000
      vertex -25.001480 -29.548128 10.000000
      vertex -25.647501 -27.559879 10.000000
    endloop
  endfacet
  facet normal 0.000000 0.000000 1.000000
    outer loop
      vertex -25.647501 -23.401645 10.000000
      vertex -35.392305 -37.301270 10.000000
      vertex -25.866025 -25.480762 10.000000
    endloop
  endfacet
  facet normal 0.000000 0.000000 1.000000
    outer loop
      vertex -25.001480 -21.413396 10.000000
      vertex -35.392305 -37.301270 10.000000
      vertex -25.647501 -23.401645 10.000000
    endloop
  endfacet
  facet normal 0.000000 0.000000 1.000000
    outer loop
      vertex 12.107695 44.971143 10.000000
      vertex -35.392305 -37.301270 10.000000
      vertex -25.001480 -21.413396 10.000000
    endloop
  endfacet
  facet normal 0.000000 0.000000 1.000000
    outer loop
      vertex -22.557331 -18.049314 10.000000
      vertex -20.866025 -16.820508 10.000000
      vertex 12.107695 44.971143 10.000000
    endloop
  endfacet
  facet normal 0.000000 0.000000 1.000000
    outer loop
      vertex 12.107695 44.971143 10.000000
      vertex -25.001480 -21.413396 10.000000
      vertex -23.956195 -19.602909 10.000000
    endloop
  endfacet
  facet normal 0.000000 0.000000 1.000000
    outer loop
      vertex -16.911310 -15.535543 10.000000
      vertex -14.820740 -15.535543 10.000000
      vertex 31.160254 33.971143 10.000000
    endloop
  endfacet
  facet normal 0.000000 -0.000000 1.000000
    outer loop
      vertex 12.107695 44.971143 10.000000
      vertex -20.866025 -16.820508 10.000000
      vertex 31.160254 33.971143 10.000000
    endloop
  endfacet
  facet normal 0.000000 0.000000 1.000000
    outer loop
      vertex -20.866025 -16.820508 10.000000
      vertex -18.956195 -15.970197 10.000000
      vertex 31.160254 33.971143 10.000000
    endloop
  endfacet
  facet normal 0.000000 0.000000 1.000000
    outer loop
      vertex -18.956195 -15.970197 10.000000
      vertex -16.911310 -15.535543 10.000000
      vertex 31.160254 33.971143 10.000000
    endloop
  endfacet
  facet normal 0.000000 0.000000 1.000000
    outer loop
      vertex -23.956195 -19.602909 10.000000
      vertex -22.557331 -18.049314 10.000000
      vertex 12.107695 44.971143 10.000000
    endloop
  endfacet
  facet normal 0.000000 0.000000 1.000000
    outer loop
      vertex -14.820740 -15.535543 10.000000
      vertex -12.775856 -15.970197 10.000000
      vertex 31.160254 33.971143 10.000000
    endloop
  endfacet
  facet normal 0.000000 0.000000 1.000000
    outer loop
      vertex -6.730570 -21.413396 10.000000
      vertex -6.084550 -23.401645 10.000000
      vertex 31.160254 33.971143 10.000000
    endloop
  endfacet
  facet normal 0.000000 0.000000 1.000000
    outer loop
      vertex -6.084550 -23.401645 10.000000
      vertex -5.866025 -25.480762 10.000000
      vertex 31.160254 33.971143 10.000000
    endloop
  endfacet
  facet normal 0.000000 0.000000 1.000000
    outer loop
      vertex -10.866025 -34.141016 10.000000
      vertex -12.775856 -34.991327 10.000000
      vertex -16.339746 -48.301270 10.000000
    endloop
  endfacet
  facet normal 0.000000 -0.000000 1.000000
    outer loop
      vertex -5.866025 -25.480762 10.000000
      vertex -6.084550 -27.559879 10.000000
      vertex 31.160254 33.971143 10.000000
    endloop
  endfacet
  facet normal 0.000000 -0.000000 1.000000
    outer loop
      vertex -6.084550 -27.559879 10.000000
      vertex -6.730571 -29.548128 10.000000
      vertex 31.160254 33.971143 10.000000
    endloop
  endfacet
  facet normal 0.000000 -0.000000 1.000000
    outer loop
      vertex -7.775856 -31.358615 10.000000
      vertex -16.339746 -48.301270 10.000000
      vertex -6.730571 -29.548128 10.000000
    endloop
  endfacet
  facet normal 0.000000 -0.000000 1.000000
    outer loop
      vertex -14.820740 -35.425981 10.000000
      vertex -16.339746 -48.301270 10.000000
      vertex -12.775856 -34.991327 10.000000
    endloop
  endfacet
  facet normal 0.000000 0.000000 1.000000
    outer loop
      vertex -16.911311 -35.425981 10.000000
      vertex -16.339746 -48.301270 10.000000
      vertex -14.820740 -35.425981 10.000000
    endloop
  endfacet
  facet normal 0.000000 0.000000 1.000000
    outer loop
      vertex -18.956195 -34.991327 10.000000
      vertex -16.339746 -48.301270 10.000000
      vertex -16.911311 -35.425981 10.000000
    endloop
  endfacet
  facet normal -0.000000 0.000000 1.000000
    outer loop
      vertex -25.647501 -27.559879 10.000000
      vertex -25.866025 -25.480762 10.000000
      vertex -35.392305 -37.301270 10.000000
    endloop
  endfacet
  facet normal 0.500000 0.866025 0.000000
    outer loop
      vertex 31.160254 33.971143 0.000000
      vertex 24.232051 37.971143 0.000000
      vertex 31.160254 33.971143 10.000000
    endloop
  endfacet
  facet normal 0.500000 0.866025 0.000000
    outer loop
      vertex 31.160254 33.971143 10.000000
      vertex 24.232051 37.971143 0.000000
      vertex 24.232051 37.971143 4.950000
    endloop
  endfacet
  facet normal 0.500000 0.866025 0.000000
    outer loop
      vertex 31.160254 33.971143 10.000000
      vertex 24.232051 37.971143 4.950000
      vertex 19.035898 40.971143 4.950000
    endloop
  endfacet
  facet normal 0.500000 0.866025 -0.000000
    outer loop
      vertex 19.035898 40.971143 4.950000
      vertex 19.035898 40.971143 0.000000
      vertex 12.107695 44.971143 0.000000
    endloop
  endfacet
  facet normal 0.500000 0.866025 0.000000
    outer loop
      vertex 19.035898 40.971143 4.950000
      vertex 12.107695 44.971143 0.000000
      vertex 12.107695 44.971143 10.000000
    endloop
  endfacet
  facet normal 0.500000 0.866025 0.000000
    outer loop
      vertex 19.035898 40.971143 4.950000
      vertex 12.107695 44.971143 10.000000
      vertex 31.160254 33.971143 10.000000
    endloop
  endfacet
  facet normal 0.000000 -0.000000 -1.000000
    outer loop
      vertex 28.160254 28.774991 0.000000
      vertex 21.232051 32.774991 0.000000
      vertex 31.160254 33.971143 0.000000
    endloop
  endfacet
  facet normal 0.000000 0.000000 -1.000000
    outer loop
      vertex 31.160254 33.971143 0.000000
      vertex 21.232051 32.774991 0.000000
      vertex 24.232051 37.971143 0.000000
    endloop
  endfacet
  facet normal -0.500000 -0.866025 0.000000
    outer loop
      vertex 28.160254 28.774991 4.950000
      vertex 21.232051 32.774991 4.950000
      vertex 21.232051 32.774991 0.000000
    endloop
  endfacet
  facet normal -0.500000 -0.866025 -0.000000
    outer loop
      vertex 28.160254 28.774991 0.000000
      vertex 28.160254 28.774991 4.950000
      vertex 21.232051 32.774991 0.000000
    endloop
  endfacet
  facet normal 0.000000 0.000000 -1.000000
    outer loop
      vertex 9.107695 39.774991 4.950000
      vertex 16.035898 35.774991 4.950000
      vertex 2.857695 28.949673 4.950000
    endloop
  endfacet
  facet normal 0.000000 0.000000 -1.000000
    outer loop
      vertex 24.232051 37.971143 4.950000
      vertex 16.035898 35.774991 4.950000
      vertex 19.035898 40.971143 4.950000
    endloop
  endfacet
  facet normal 0.000000 0.000000 -1.000000
    outer loop
      vertex 2.857695 28.949673 4.950000
      vertex 16.035898 35.774991 4.950000
      vertex 24.232051 37.971143 4.950000
    endloop
  endfacet
  facet normal 0.000000 0.000000 -1.000000
    outer loop
      vertex 2.857695 28.949673 4.950000
      vertex 24.232051 37.971143 4.950000
      vertex 21.232051 32.774991 4.950000
    endloop
  endfacet
  facet normal -0.000000 0.000000 -1.000000
    outer loop
      vertex 2.857695 28.949673 4.950000
      vertex 21.232051 32.774991 4.950000
      vertex 28.160254 28.774991 4.950000
    endloop
  endfacet
  facet normal 0.000000 0.000000 -1.000000
    outer loop
      vertex 2.857695 28.949673 4.950000
      vertex 28.160254 28.774991 4.950000
      vertex 21.910254 17.949673 4.950000
    endloop
  endfacet
  facet normal 0.500000 0.866025 -0.000000
    outer loop
      vertex 2.857695 28.949673 4.950000
      vertex 21.910254 17.949673 4.950000
      vertex 2.857695 28.949673 0.000000
    endloop
  endfacet
  facet normal 0.500000 0.866025 0.000000
    outer loop
      vertex 2.857695 28.949673 0.000000
      vertex 21.910254 17.949673 4.950000
      vertex 21.910254 17.949673 0.000000
    endloop
  endfacet
  facet normal 0.000000 -0.000000 -1.000000
    outer loop
      vertex -5.089746 -28.815699 0.000000
      vertex -24.142305 -17.815699 0.000000
      vertex 21.910254 17.949673 0.000000
    endloop
  endfacet
  facet normal 0.000000 0.000000 -1.000000
    outer loop
      vertex 21.910254 17.949673 0.000000
      vertex -24.142305 -17.815699 0.000000
      vertex 2.857695 28.949673 0.000000
    endloop
  endfacet
  facet normal -0.500000 -0.866025 0.000000
    outer loop
      vertex -5.089746 -28.815699 4.950000
      vertex -24.142305 -17.815699 4.950000
      vertex -24.142305 -17.815699 0.000000
    endloop
  endfacet
  facet normal -0.500000 -0.866025 -0.000000
    outer loop
      vertex -5.089746 -28.815699 0.000000
      vertex -5.089746 -28.815699 4.950000
      vertex -24.142305 -17.815699 0.000000
    endloop
  endfacet
  facet normal 0.500000 0.866025 -0.000000
    outer loop
      vertex -18.267949 -35.641016 4.950000
      vertex -11.339746 -39.641016 4.950000
      vertex -18.267949 -35.641016 0.000000
    endloop
  endfacet
  facet normal 0.500000 0.866025 0.000000
    outer loop
      vertex -18.267949 -35.641016 0.000000
      vertex -11.339746 -39.641016 4.950000
      vertex -11.339746 -39.641016 0.000000
    endloop
  endfacet
  facet normal 0.500000 0.866025 -0.000000
    outer loop
      vertex -30.392305 -28.641016 4.950000
      vertex -23.464102 -32.641016 4.950000
      vertex -30.392305 -28.641016 0.000000
    endloop
  endfacet
  facet normal 0.500000 0.866025 0.000000
    outer loop
      vertex -30.392305 -28.641016 0.000000
      vertex -23.464102 -32.641016 4.950000
      vertex -23.464102 -32.641016 0.000000
    endloop
  endfacet
  facet normal -0.500000 -0.866025 0.000000
    outer loop
      vertex 16.035898 35.774991 4.950000
      vertex 9.107695 39.774991 4.950000
      vertex 9.107695 39.774991 0.000000
    endloop
  endfacet
  facet normal -0.500000 -0.866025 -0.000000
    outer loop
      vertex 16.035898 35.774991 0.000000
      vertex 16.035898 35.774991 4.950000
      vertex 9.107695 39.774991 0.000000
    endloop
  endfacet
  facet normal 0.000000 -0.000000 -1.000000
    outer loop
      vertex 16.035898 35.774991 0.000000
      vertex 9.107695 39.774991 0.000000
      vertex 19.035898 40.971143 0.000000
    endloop
  endfacet
  facet normal 0.000000 0.000000 -1.000000
    outer loop
      vertex 19.035898 40.971143 0.000000
      vertex 9.107695 39.774991 0.000000
      vertex 12.107695 44.971143 0.000000
    endloop
  endfacet
  facet normal -0.406737 -0.913545 0.000000
    outer loop
      vertex -20.866025 -34.141016 39.900000
      vertex -20.866025 -34.141016 10.000000
      vertex -18.956195 -34.991327 10.000000
    endloop
  endfacet
  facet normal -0.406737 -0.913545 0.000000
    outer loop
      vertex -18.956195 -34.991327 39.900000
      vertex -20.866025 -34.141016 39.900000
      vertex -18.956195 -34.991327 10.000000
    endloop
  endfacet
  facet normal -0.207912 -0.978148 0.000000
    outer loop
      vertex -18.956195 -34.991327 39.900000
      vertex -18.956195 -34.991327 10.000000
      vertex -16.911311 -35.425981 10.000000
    endloop
  endfacet
  facet normal -0.207912 -0.978148 0.000000
    outer loop
      vertex -16.911311 -35.425981 39.900000
      vertex -18.956195 -34.991327 39.900000
      vertex -16.911311 -35.425981 10.000000
    endloop
  endfacet
  facet normal -0.000000 -1.000000 0.000000
    outer loop
      vertex -16.911311 -35.425981 39.900000
      vertex -16.911311 -35.425981 10.000000
      vertex -14.820740 -35.425981 10.000000
    endloop
  endfacet
  facet normal -0.000000 -1.000000 0.000000
    outer loop
      vertex -14.820740 -35.425981 39.900000
      vertex -16.911311 -35.425981 39.900000
      vertex -14.820740 -35.425981 10.000000
    endloop
  endfacet
  facet normal 0.207912 -0.978148 0.000000
    outer loop
      vertex -14.820740 -35.425981 39.900000
      vertex -14.820740 -35.425981 10.000000
      vertex -12.775856 -34.991327 10.000000
    endloop
  endfacet
  facet normal 0.207912 -0.978148 0.000000
    outer loop
      vertex -12.775856 -34.991327 39.900000
      vertex -14.820740 -35.425981 39.900000
      vertex -12.775856 -34.991327 10.000000
    endloop
  endfacet
  facet normal 0.406737 -0.913545 0.000000
    outer loop
      vertex -12.775856 -34.991327 39.900000
      vertex -12.775856 -34.991327 10.000000
      vertex -10.866025 -34.141016 10.000000
    endloop
  endfacet
  facet normal 0.406737 -0.913545 0.000000
    outer loop
      vertex -10.866025 -34.141016 39.900000
      vertex -12.775856 -34.991327 39.900000
      vertex -10.866025 -34.141016 10.000000
    endloop
  endfacet
  facet normal 0.587785 -0.809017 0.000000
    outer loop
      vertex -10.866025 -34.141016 39.900000
      vertex -10.866025 -34.141016 10.000000
      vertex -9.174720 -32.912210 10.000000
    endloop
  endfacet
  facet normal 0.587785 -0.809017 0.000000
    outer loop
      vertex -9.174720 -32.912210 39.900000
      vertex -10.866025 -34.141016 39.900000
      vertex -9.174720 -32.912210 10.000000
    endloop
  endfacet
  facet normal 0.743145 -0.669131 0.000000
    outer loop
      vertex -9.174720 -32.912210 39.900000
      vertex -9.174720 -32.912210 10.000000
      vertex -7.775856 -31.358615 10.000000
    endloop
  endfacet
  facet normal 0.743145 -0.669131 0.000000
    outer loop
      vertex -7.775856 -31.358615 39.900000
      vertex -9.174720 -32.912210 39.900000
      vertex -7.775856 -31.358615 10.000000
    endloop
  endfacet
  facet normal 0.866025 -0.500000 0.000000
    outer loop
      vertex -7.775856 -31.358615 39.900000
      vertex -7.775856 -31.358615 10.000000
      vertex -6.730571 -29.548128 10.000000
    endloop
  endfacet
  facet normal 0.866025 -0.500000 0.000000
    outer loop
      vertex -6.730571 -29.548128 39.900000
      vertex -7.775856 -31.358615 39.900000
      vertex -6.730571 -29.548128 10.000000
    endloop
  endfacet
  facet normal 0.951057 -0.309017 0.000000
    outer loop
      vertex -6.730571 -29.548128 39.900000
      vertex -6.730571 -29.548128 10.000000
      vertex -6.084550 -27.559879 10.000000
    endloop
  endfacet
  facet normal 0.951057 -0.309017 0.000000
    outer loop
      vertex -6.084550 -27.559879 39.900000
      vertex -6.730571 -29.548128 39.900000
      vertex -6.084550 -27.559879 10.000000
    endloop
  endfacet
  facet normal 0.994522 -0.104529 0.000000
    outer loop
      vertex -6.084550 -27.559879 39.900000
      vertex -6.084550 -27.559879 10.000000
      vertex -5.866025 -25.480762 10.000000
    endloop
  endfacet
  facet normal 0.994522 -0.104529 0.000000
    outer loop
      vertex -5.866025 -25.480762 39.900000
      vertex -6.084550 -27.559879 39.900000
      vertex -5.866025 -25.480762 10.000000
    endloop
  endfacet
  facet normal 0.994522 0.104529 -0.000000
    outer loop
      vertex -5.866025 -25.480762 39.900000
      vertex -5.866025 -25.480762 10.000000
      vertex -6.084550 -23.401645 10.000000
    endloop
  endfacet
  facet normal 0.994522 0.104529 -0.000000
    outer loop
      vertex -6.084550 -23.401645 39.900000
      vertex -5.866025 -25.480762 39.900000
      vertex -6.084550 -23.401645 10.000000
    endloop
  endfacet
  facet normal 0.951057 0.309017 -0.000000
    outer loop
      vertex -6.084550 -23.401645 39.900000
      vertex -6.084550 -23.401645 10.000000
      vertex -6.730570 -21.413396 10.000000
    endloop
  endfacet
  facet normal 0.951057 0.309017 -0.000000
    outer loop
      vertex -6.730570 -21.413396 39.900000
      vertex -6.084550 -23.401645 39.900000
      vertex -6.730570 -21.413396 10.000000
    endloop
  endfacet
  facet normal 0.866025 0.500000 -0.000000
    outer loop
      vertex -6.730570 -21.413396 39.900000
      vertex -6.730570 -21.413396 10.000000
      vertex -7.775856 -19.602909 10.000000
    endloop
  endfacet
  facet normal 0.866025 0.500000 -0.000000
    outer loop
      vertex -7.775856 -19.602909 39.900000
      vertex -6.730570 -21.413396 39.900000
      vertex -7.775856 -19.602909 10.000000
    endloop
  endfacet
  facet normal 0.743145 0.669131 -0.000000
    outer loop
      vertex -7.775856 -19.602909 39.900000
      vertex -7.775856 -19.602909 10.000000
      vertex -9.174719 -18.049314 10.000000
    endloop
  endfacet
  facet normal 0.743145 0.669131 -0.000000
    outer loop
      vertex -9.174719 -18.049314 39.900000
      vertex -7.775856 -19.602909 39.900000
      vertex -9.174719 -18.049314 10.000000
    endloop
  endfacet
  facet normal 0.587785 0.809017 0.000000
    outer loop
      vertex -9.174719 -18.049314 10.000000
      vertex -10.866025 -16.820508 10.000000
      vertex -9.174719 -18.049314 39.900000
    endloop
  endfacet
  facet normal 0.587785 0.809017 0.000000
    outer loop
      vertex -9.174719 -18.049314 39.900000
      vertex -10.866025 -16.820508 10.000000
      vertex -10.866025 -16.820508 39.900000
    endloop
  endfacet
  facet normal 0.406737 0.913545 0.000000
    outer loop
      vertex -12.775856 -15.970197 10.000000
      vertex -12.775856 -15.970197 39.900000
      vertex -10.866025 -16.820508 10.000000
    endloop
  endfacet
  facet normal 0.406737 0.913545 0.000000
    outer loop
      vertex -10.866025 -16.820508 10.000000
      vertex -12.775856 -15.970197 39.900000
      vertex -10.866025 -16.820508 39.900000
    endloop
  endfacet
  facet normal 0.207912 0.978148 0.000000
    outer loop
      vertex -14.820740 -15.535543 10.000000
      vertex -14.820740 -15.535543 39.900000
      vertex -12.775856 -15.970197 10.000000
    endloop
  endfacet
  facet normal 0.207912 0.978148 0.000000
    outer loop
      vertex -12.775856 -15.970197 10.000000
      vertex -14.820740 -15.535543 39.900000
      vertex -12.775856 -15.970197 39.900000
    endloop
  endfacet
  facet normal 0.000000 1.000000 0.000000
    outer loop
      vertex -16.911310 -15.535543 10.000000
      vertex -16.911310 -15.535543 39.900000
      vertex -14.820740 -15.535543 10.000000
    endloop
  endfacet
  facet normal 0.000000 1.000000 0.000000
    outer loop
      vertex -14.820740 -15.535543 10.000000
      vertex -16.911310 -15.535543 39.900000
      vertex -14.820740 -15.535543 39.900000
    endloop
  endfacet
  facet normal -0.207912 0.978148 0.000000
    outer loop
      vertex -18.956195 -15.970197 10.000000
      vertex -18.956195 -15.970197 39.900000
      vertex -16.911310 -15.535543 10.000000
    endloop
  endfacet
  facet normal -0.207912 0.978148 0.000000
    outer loop
      vertex -16.911310 -15.535543 10.000000
      vertex -18.956195 -15.970197 39.900000
      vertex -16.911310 -15.535543 39.900000
    endloop
  endfacet
  facet normal -0.406737 0.913545 0.000000
    outer loop
      vertex -20.866025 -16.820508 10.000000
      vertex -20.866025 -16.820508 39.900000
      vertex -18.956195 -15.970197 10.000000
    endloop
  endfacet
  facet normal -0.406737 0.913545 0.000000
    outer loop
      vertex -18.956195 -15.970197 10.000000
      vertex -20.866025 -16.820508 39.900000
      vertex -18.956195 -15.970197 39.900000
    endloop
  endfacet
  facet normal -0.587785 0.809017 0.000000
    outer loop
      vertex -22.557331 -18.049314 10.000000
      vertex -22.557331 -18.049314 39.900000
      vertex -20.866025 -16.820508 10.000000
    endloop
  endfacet
  facet normal -0.587785 0.809017 0.000000
    outer loop
      vertex -20.866025 -16.820508 10.000000
      vertex -22.557331 -18.049314 39.900000
      vertex -20.866025 -16.820508 39.900000
    endloop
  endfacet
  facet normal -0.743145 0.669131 0.000000
    outer loop
      vertex -23.956195 -19.602909 10.000000
      vertex -23.956195 -19.602909 39.900000
      vertex -22.557331 -18.049314 10.000000
    endloop
  endfacet
  facet normal -0.743145 0.669131 0.000000
    outer loop
      vertex -22.557331 -18.049314 10.000000
      vertex -23.956195 -19.602909 39.900000
      vertex -22.557331 -18.049314 39.900000
    endloop
  endfacet
  facet normal -0.866025 0.500000 0.000000
    outer loop
      vertex -25.001480 -21.413396 10.000000
      vertex -25.001480 -21.413396 39.900000
      vertex -23.956195 -19.602909 10.000000
    endloop
  endfacet
  facet normal -0.866025 0.500000 0.000000
    outer loop
      vertex -23.956195 -19.602909 10.000000
      vertex -25.001480 -21.413396 39.900000
      vertex -23.956195 -19.602909 39.900000
    endloop
  endfacet
  facet normal -0.951057 0.309017 0.000000
    outer loop
      vertex -25.647501 -23.401645 10.000000
      vertex -25.647501 -23.401645 39.900000
      vertex -25.001480 -21.413396 10.000000
    endloop
  endfacet
  facet normal -0.951057 0.309017 0.000000
    outer loop
      vertex -25.001480 -21.413396 10.000000
      vertex -25.647501 -23.401645 39.900000
      vertex -25.001480 -21.413396 39.900000
    endloop
  endfacet
  facet normal -0.994522 0.104529 0.000000
    outer loop
      vertex -25.866025 -25.480762 10.000000
      vertex -25.866025 -25.480762 39.900000
      vertex -25.647501 -23.401645 10.000000
    endloop
  endfacet
  facet normal -0.994522 0.104529 0.000000
    outer loop
      vertex -25.647501 -23.401645 10.000000
      vertex -25.866025 -25.480762 39.900000
      vertex -25.647501 -23.401645 39.900000
    endloop
  endfacet
  facet normal -0.994522 -0.104529 -0.000000
    outer loop
      vertex -25.647501 -27.559879 10.000000
      vertex -25.647501 -27.559879 39.900000
      vertex -25.866025 -25.480762 10.000000
    endloop
  endfacet
  facet normal -0.994522 -0.104529 -0.000000
    outer loop
      vertex -25.866025 -25.480762 10.000000
      vertex -25.647501 -27.559879 39.900000
      vertex -25.866025 -25.480762 39.900000
    endloop
  endfacet
  facet normal -0.951057 -0.309017 -0.000000
    outer loop
      vertex -25.001480 -29.548128 10.000000
      vertex -25.001480 -29.548128 39.900000
      vertex -25.647501 -27.559879 10.000000
    endloop
  endfacet
  facet normal -0.951057 -0.309017 -0.000000
    outer loop
      vertex -25.647501 -27.559879 10.000000
      vertex -25.001480 -29.548128 39.900000
      vertex -25.647501 -27.559879 39.900000
    endloop
  endfacet
  facet normal -0.866025 -0.500000 -0.000000
    outer loop
      vertex -23.956195 -31.358615 10.000000
      vertex -23.956195 -31.358615 39.900000
      vertex -25.001480 -29.548128 10.000000
    endloop
  endfacet
  facet normal -0.866025 -0.500000 -0.000000
    outer loop
      vertex -25.001480 -29.548128 10.000000
      vertex -23.956195 -31.358615 39.900000
      vertex -25.001480 -29.548128 39.900000
    endloop
  endfacet
  facet normal -0.743145 -0.669131 -0.000000
    outer loop
      vertex -22.557332 -32.912210 10.000000
      vertex -22.557332 -32.912210 39.900000
      vertex -23.956195 -31.358615 10.000000
    endloop
  endfacet
  facet normal -0.743145 -0.669131 -0.000000
    outer loop
      vertex -23.956195 -31.358615 10.000000
      vertex -22.557332 -32.912210 39.900000
      vertex -23.956195 -31.358615 39.900000
    endloop
  endfacet
  facet normal -0.587785 -0.809017 0.000000
    outer loop
      vertex -22.557332 -32.912210 10.000000
      vertex -20.866025 -34.141016 10.000000
      vertex -20.866025 -34.141016 39.900000
    endloop
  endfacet
  facet normal -0.587785 -0.809017 0.000000
    outer loop
      vertex -22.557332 -32.912210 39.900000
      vertex -22.557332 -32.912210 10.000000
      vertex -20.866025 -34.141016 39.900000
    endloop
  endfacet
  facet normal 0.866025 -0.500000 0.000000
    outer loop
      vertex 19.035898 40.971143 0.000000
      vertex 19.035898 40.971143 4.950000
      vertex 16.035898 35.774991 4.950000
    endloop
  endfacet
  facet normal 0.866025 -0.500000 0.000000
    outer loop
      vertex 16.035898 35.774991 0.000000
      vertex 19.035898 40.971143 0.000000
      vertex 16.035898 35.774991 4.950000
    endloop
  endfacet
  facet normal -0.866025 0.500000 0.000000
    outer loop
      vertex 24.232051 37.971143 4.950000
      vertex 24.232051 37.971143 0.000000
      vertex 21.232051 32.774991 4.950000
    endloop
  endfacet
  facet normal -0.866025 0.500000 0.000000
    outer loop
      vertex 21.232051 32.774991 4.950000
      vertex 24.232051 37.971143 0.000000
      vertex 21.232051 32.774991 0.000000
    endloop
  endfacet
  facet normal 0.000000 0.000000 1.000000
    outer loop
      vertex -22.557332 -32.912210 39.900000
      vertex -20.866025 -34.141016 39.900000
      vertex -18.956195 -34.991327 39.900000
    endloop
  endfacet
  facet normal 0.000000 0.000000 1.000000
    outer loop
      vertex -14.820740 -35.425981 39.900000
      vertex -22.557332 -32.912210 39.900000
      vertex -16.911311 -35.425981 39.900000
    endloop
  endfacet
  facet normal 0.000000 0.000000 1.000000
    outer loop
      vertex -16.911311 -35.425981 39.900000
      vertex -22.557332 -32.912210 39.900000
      vertex -18.956195 -34.991327 39.900000
    endloop
  endfacet
  facet normal -0.000000 0.000000 1.000000
    outer loop
      vertex -12.775856 -34.991327 39.900000
      vertex -22.557332 -32.912210 39.900000
      vertex -14.820740 -35.425981 39.900000
    endloop
  endfacet
  facet normal -0.000000 0.000000 1.000000
    outer loop
      vertex -10.866025 -34.141016 39.900000
      vertex -22.557332 -32.912210 39.900000
      vertex -12.775856 -34.991327 39.900000
    endloop
  endfacet
  facet normal -0.000000 0.000000 1.000000
    outer loop
      vertex -9.174720 -32.912210 39.900000
      vertex -22.557332 -32.912210 39.900000
      vertex -10.866025 -34.141016 39.900000
    endloop
  endfacet
  facet normal 0.000000 0.000000 1.000000
    outer loop
      vertex -7.775856 -31.358615 39.900000
      vertex -22.557332 -32.912210 39.900000
      vertex -9.174720 -32.912210 39.900000
    endloop
  endfacet
  facet normal 0.000000 0.000000 1.000000
    outer loop
      vertex -6.730571 -29.548128 39.900000
      vertex -22.557332 -32.912210 39.900000
      vertex -7.775856 -31.358615 39.900000
    endloop
  endfacet
  facet normal 0.000000 0.000000 1.000000
    outer loop
      vertex -6.084550 -27.559879 39.900000
      vertex -22.557332 -32.912210 39.900000
      vertex -6.730571 -29.548128 39.900000
    endloop
  endfacet
  facet normal 0.000000 0.000000 1.000000
    outer loop
      vertex -5.866025 -25.480762 39.900000
      vertex -22.557332 -32.912210 39.900000
      vertex -6.084550 -27.559879 39.900000
    endloop
  endfacet
  facet normal 0.000000 -0.000000 1.000000
    outer loop
      vertex -6.084550 -23.401645 39.900000
      vertex -22.557332 -32.912210 39.900000
      vertex -5.866025 -25.480762 39.900000
    endloop
  endfacet
  facet normal 0.000000 -0.000000 1.000000
    outer loop
      vertex -6.730570 -21.413396 39.900000
      vertex -22.557332 -32.912210 39.900000
      vertex -6.084550 -23.401645 39.900000
    endloop
  endfacet
  facet normal 0.000000 -0.000000 1.000000
    outer loop
      vertex -7.775856 -19.602909 39.900000
      vertex -22.557332 -32.912210 39.900000
      vertex -6.730570 -21.413396 39.900000
    endloop
  endfacet
  facet normal 0.000000 -0.000000 1.000000
    outer loop
      vertex -9.174719 -18.049314 39.900000
      vertex -22.557332 -32.912210 39.900000
      vertex -7.775856 -19.602909 39.900000
    endloop
  endfacet
  facet normal 0.000000 -0.000000 1.000000
    outer loop
      vertex -10.866025 -16.820508 39.900000
      vertex -22.557332 -32.912210 39.900000
      vertex -9.174719 -18.049314 39.900000
    endloop
  endfacet
  facet normal 0.000000 -0.000000 1.000000
    outer loop
      vertex -12.775856 -15.970197 39.900000
      vertex -22.557332 -32.912210 39.900000
      vertex -10.866025 -16.820508 39.900000
    endloop
  endfacet
  facet normal 0.000000 -0.000000 1.000000
    outer loop
      vertex -14.820740 -15.535543 39.900000
      vertex -22.557332 -32.912210 39.900000
      vertex -12.775856 -15.970197 39.900000
    endloop
  endfacet
  facet normal 0.000000 -0.000000 1.000000
    outer loop
      vertex -16.911310 -15.535543 39.900000
      vertex -22.557332 -32.912210 39.900000
      vertex -14.820740 -15.535543 39.900000
    endloop
  endfacet
  facet normal 0.000000 -0.000000 1.000000
    outer loop
      vertex -18.956195 -15.970197 39.900000
      vertex -22.557332 -32.912210 39.900000
      vertex -16.911310 -15.535543 39.900000
    endloop
  endfacet
  facet normal 0.000000 -0.000000 1.000000
    outer loop
      vertex -20.866025 -16.820508 39.900000
      vertex -22.557332 -32.912210 39.900000
      vertex -18.956195 -15.970197 39.900000
    endloop
  endfacet
  facet normal 0.000000 -0.000000 1.000000
    outer loop
      vertex -22.557331 -18.049314 39.900000
      vertex -22.557332 -32.912210 39.900000
      vertex -20.866025 -16.820508 39.900000
    endloop
  endfacet
  facet normal 0.000000 0.000000 1.000000
    outer loop
      vertex -23.956195 -19.602909 39.900000
      vertex -22.557332 -32.912210 39.900000
      vertex -22.557331 -18.049314 39.900000
    endloop
  endfacet
  facet normal 0.000000 0.000000 1.000000
    outer loop
      vertex -25.001480 -21.413396 39.900000
      vertex -22.557332 -32.912210 39.900000
      vertex -23.956195 -19.602909 39.900000
    endloop
  endfacet
  facet normal 0.000000 0.000000 1.000000
    outer loop
      vertex -25.647501 -23.401645 39.900000
      vertex -22.557332 -32.912210 39.900000
      vertex -25.001480 -21.413396 39.900000
    endloop
  endfacet
  facet normal 0.000000 0.000000 1.000000
    outer loop
      vertex -25.866025 -25.480762 39.900000
      vertex -22.557332 -32.912210 39.900000
      vertex -25.647501 -23.401645 39.900000
    endloop
  endfacet
  facet normal 0.000000 0.000000 1.000000
    outer loop
      vertex -25.647501 -27.559879 39.900000
      vertex -22.557332 -32.912210 39.900000
      vertex -25.866025 -25.480762 39.900000
    endloop
  endfacet
  facet normal 0.000000 0.000000 1.000000
    outer loop
      vertex -25.001480 -29.548128 39.900000
      vertex -22.557332 -32.912210 39.900000
      vertex -25.647501 -27.559879 39.900000
    endloop
  endfacet
  facet normal 0.000000 0.000000 1.000000
    outer loop
      vertex -23.956195 -31.358615 39.900000
      vertex -22.557332 -32.912210 39.900000
      vertex -25.001480 -29.548128 39.900000
    endloop
  endfacet
endsolid OpenSCAD_Model
