solid OpenSCAD_Model
  facet normal 0.500000 -0.866025 0.000000
    outer loop
      vertex -40.750000 -10.301260 0.000000
      vertex -40.750000 -10.301260 5.000000
      vertex -45.857368 -13.250000 5.000000
    endloop
  endfacet
  facet normal 0.500000 -0.866025 0.000000
    outer loop
      vertex -45.857368 -13.250000 0.000000
      vertex -40.750000 -10.301260 0.000000
      vertex -45.857368 -13.250000 5.000000
    endloop
  endfacet
  facet normal 0.000000 0.000000 -1.000000
    outer loop
      vertex -45.857368 -13.250000 0.000000
      vertex -45.857368 1.250000 0.000000
      vertex -40.750000 -10.301260 0.000000
    endloop
  endfacet
  facet normal 0.000000 0.000000 -1.000000
    outer loop
      vertex -40.750000 -10.301260 0.000000
      vertex -45.857368 1.250000 0.000000
      vertex -40.750000 -1.698740 0.000000
    endloop
  endfacet
  facet normal 0.000000 -0.000000 -1.000000
    outer loop
      vertex -40.750000 -1.698740 0.000000
      vertex -40.750000 1.500000 0.000000
      vertex -35.750000 1.500000 0.000000
    endloop
  endfacet
  facet normal -0.000000 0.000000 -1.000000
    outer loop
      vertex -40.750000 -1.698740 0.000000
      vertex -35.750000 1.500000 0.000000
      vertex -40.750000 -10.301260 0.000000
    endloop
  endfacet
  facet normal 0.000000 0.000000 -1.000000
    outer loop
      vertex -40.750000 -10.301260 0.000000
      vertex -35.750000 1.500000 0.000000
      vertex -35.750000 -3.400000 0.000000
    endloop
  endfacet
  facet normal 0.000000 -0.000000 -1.000000
    outer loop
      vertex -35.750000 -8.500000 0.000000
      vertex -35.750000 -3.400000 0.000000
      vertex 9.250000 -3.400000 0.000000
    endloop
  endfacet
  facet normal 0.000000 0.000000 -1.000000
    outer loop
      vertex 21.750000 -9.500000 0.000000
      vertex 24.250000 -13.500000 0.000000
      vertex 19.440599 -13.500000 0.000000
    endloop
  endfacet
  facet normal 0.000000 -0.000000 -1.000000
    outer loop
      vertex 9.250000 -3.400000 0.000000
      vertex 9.250000 1.500000 0.000000
      vertex 14.059401 1.500000 0.000000
    endloop
  endfacet
  facet normal 0.000000 0.000000 -1.000000
    outer loop
      vertex 9.250000 -3.400000 0.000000
      vertex 14.059401 1.500000 0.000000
      vertex 11.750000 -2.500000 0.000000
    endloop
  endfacet
  facet normal 0.000000 0.000000 -1.000000
    outer loop
      vertex 9.250000 -3.400000 0.000000
      vertex 11.750000 -2.500000 0.000000
      vertex 21.750000 -2.500000 0.000000
    endloop
  endfacet
  facet normal 0.000000 0.000000 -1.000000
    outer loop
      vertex 9.250000 -8.500000 0.000000
      vertex 14.059401 -13.500000 0.000000
      vertex 9.250000 -13.500000 0.000000
    endloop
  endfacet
  facet normal 0.000000 -0.000000 -1.000000
    outer loop
      vertex 21.750000 -2.500000 0.000000
      vertex 19.440599 1.500000 0.000000
      vertex 24.250000 1.500000 0.000000
    endloop
  endfacet
  facet normal -0.000000 0.000000 -1.000000
    outer loop
      vertex 21.750000 -2.500000 0.000000
      vertex 24.250000 1.500000 0.000000
      vertex 24.250000 -13.500000 0.000000
    endloop
  endfacet
  facet normal 0.000000 0.000000 -1.000000
    outer loop
      vertex 21.750000 -2.500000 0.000000
      vertex 24.250000 -13.500000 0.000000
      vertex 21.750000 -9.500000 0.000000
    endloop
  endfacet
  facet normal 0.000000 0.000000 -1.000000
    outer loop
      vertex 21.750000 -2.500000 0.000000
      vertex 21.750000 -9.500000 0.000000
      vertex 11.750000 -9.500000 0.000000
    endloop
  endfacet
  facet normal 0.000000 0.000000 -1.000000
    outer loop
      vertex 21.750000 -2.500000 0.000000
      vertex 11.750000 -9.500000 0.000000
      vertex 9.250000 -8.500000 0.000000
    endloop
  endfacet
  facet normal 0.000000 0.000000 -1.000000
    outer loop
      vertex -40.750000 -10.301260 0.000000
      vertex -35.750000 -3.400000 0.000000
      vertex -35.750000 -8.500000 0.000000
    endloop
  endfacet
  facet normal 0.000000 0.000000 -1.000000
    outer loop
      vertex -35.750000 -13.500000 0.000000
      vertex -40.750000 -10.301260 0.000000
      vertex -35.750000 -8.500000 0.000000
    endloop
  endfacet
  facet normal 0.000000 0.000000 -1.000000
    outer loop
      vertex -35.750000 -8.500000 0.000000
      vertex 9.250000 -3.400000 0.000000
      vertex 21.750000 -2.500000 0.000000
    endloop
  endfacet
  facet normal -0.000000 0.000000 -1.000000
    outer loop
      vertex -35.750000 -8.500000 0.000000
      vertex 21.750000 -2.500000 0.000000
      vertex 9.250000 -8.500000 0.000000
    endloop
  endfacet
  facet normal 0.000000 0.000000 -1.000000
    outer loop
      vertex 9.250000 -8.500000 0.000000
      vertex 11.750000 -9.500000 0.000000
      vertex 14.059401 -13.500000 0.000000
    endloop
  endfacet
  facet normal 0.000000 0.000000 -1.000000
    outer loop
      vertex -40.750000 -10.301260 0.000000
      vertex -35.750000 -13.500000 0.000000
      vertex -40.750000 -13.500000 0.000000
    endloop
  endfacet
  facet normal -1.000000 0.000000 0.000000
    outer loop
      vertex -45.857368 1.250000 5.000000
      vertex -45.857368 1.250000 0.000000
      vertex -45.857368 -13.250000 5.000000
    endloop
  endfacet
  facet normal -1.000000 0.000000 0.000000
    outer loop
      vertex -45.857368 -13.250000 5.000000
      vertex -45.857368 1.250000 0.000000
      vertex -45.857368 -13.250000 0.000000
    endloop
  endfacet
  facet normal -1.000000 -0.000000 -0.000000
    outer loop
      vertex -40.750000 -13.500000 0.000000
      vertex -40.750000 -13.500000 5.000000
      vertex -40.750000 -10.301260 0.000000
    endloop
  endfacet
  facet normal -1.000000 0.000000 0.000000
    outer loop
      vertex -40.750000 -10.301260 0.000000
      vertex -40.750000 -13.500000 5.000000
      vertex -40.750000 -10.301260 5.000000
    endloop
  endfacet
  facet normal 0.000000 -0.000000 1.000000
    outer loop
      vertex -45.857368 1.250000 5.000000
      vertex -45.857368 -13.250000 5.000000
      vertex -40.750000 -10.301260 5.000000
    endloop
  endfacet
  facet normal 0.000000 0.000000 1.000000
    outer loop
      vertex -35.750000 -13.500000 5.000000
      vertex -45.857368 1.250000 5.000000
      vertex -40.750000 -10.301260 5.000000
    endloop
  endfacet
  facet normal 0.000000 0.000000 1.000000
    outer loop
      vertex -40.750000 -13.500000 5.000000
      vertex -35.750000 -13.500000 5.000000
      vertex -40.750000 -10.301260 5.000000
    endloop
  endfacet
  facet normal 0.000000 0.000000 1.000000
    outer loop
      vertex -35.750000 -13.500000 5.000000
      vertex -35.750000 -8.500000 5.000000
      vertex -45.857368 1.250000 5.000000
    endloop
  endfacet
  facet normal 0.000000 0.000000 1.000000
    outer loop
      vertex 11.750000 -9.500000 5.000000
      vertex 21.750000 -9.500000 5.000000
      vertex 9.250000 -8.500000 5.000000
    endloop
  endfacet
  facet normal 0.000000 0.000000 1.000000
    outer loop
      vertex 9.250000 -13.500000 5.000000
      vertex 14.059401 -13.500000 5.000000
      vertex 9.250000 -8.500000 5.000000
    endloop
  endfacet
  facet normal 0.000000 0.000000 1.000000
    outer loop
      vertex 14.059401 -13.500000 5.000000
      vertex 11.750000 -9.500000 5.000000
      vertex 9.250000 -8.500000 5.000000
    endloop
  endfacet
  facet normal 0.000000 0.000000 1.000000
    outer loop
      vertex 19.440599 -13.500000 5.000000
      vertex 24.250000 -13.500000 5.000000
      vertex 21.750000 -9.500000 5.000000
    endloop
  endfacet
  facet normal 0.000000 0.000000 1.000000
    outer loop
      vertex 24.250000 -13.500000 5.000000
      vertex 24.250000 1.500000 5.000000
      vertex 21.750000 -9.500000 5.000000
    endloop
  endfacet
  facet normal 0.000000 -0.000000 1.000000
    outer loop
      vertex 9.250000 1.500000 5.000000
      vertex 9.250000 -3.400000 5.000000
      vertex 11.750000 -2.500000 5.000000
    endloop
  endfacet
  facet normal 0.000000 0.000000 1.000000
    outer loop
      vertex 21.750000 -9.500000 5.000000
      vertex 24.250000 1.500000 5.000000
      vertex 21.750000 -2.500000 5.000000
    endloop
  endfacet
  facet normal 0.000000 -0.000000 1.000000
    outer loop
      vertex -40.750000 1.500000 5.000000
      vertex -40.750000 -1.698740 5.000000
      vertex -35.750000 -3.400000 5.000000
    endloop
  endfacet
  facet normal 0.000000 0.000000 1.000000
    outer loop
      vertex 21.750000 -9.500000 5.000000
      vertex 21.750000 -2.500000 5.000000
      vertex 11.750000 -2.500000 5.000000
    endloop
  endfacet
  facet normal 0.000000 0.000000 1.000000
    outer loop
      vertex -40.750000 1.500000 5.000000
      vertex -35.750000 -3.400000 5.000000
      vertex -35.750000 1.500000 5.000000
    endloop
  endfacet
  facet normal 0.000000 0.000000 1.000000
    outer loop
      vertex 9.250000 -3.400000 5.000000
      vertex -35.750000 -3.400000 5.000000
      vertex 9.250000 -8.500000 5.000000
    endloop
  endfacet
  facet normal 0.000000 0.000000 1.000000
    outer loop
      vertex 21.750000 -9.500000 5.000000
      vertex 11.750000 -2.500000 5.000000
      vertex 9.250000 -3.400000 5.000000
    endloop
  endfacet
  facet normal 0.000000 0.000000 1.000000
    outer loop
      vertex -35.750000 -8.500000 5.000000
      vertex 9.250000 -8.500000 5.000000
      vertex -35.750000 -3.400000 5.000000
    endloop
  endfacet
  facet normal 0.000000 0.000000 1.000000
    outer loop
      vertex -35.750000 -8.500000 5.000000
      vertex -40.750000 -1.698740 5.000000
      vertex -45.857368 1.250000 5.000000
    endloop
  endfacet
  facet normal 0.000000 0.000000 1.000000
    outer loop
      vertex -35.750000 -8.500000 5.000000
      vertex -35.750000 -3.400000 5.000000
      vertex -40.750000 -1.698740 5.000000
    endloop
  endfacet
  facet normal 0.000000 0.000000 1.000000
    outer loop
      vertex 9.250000 1.500000 5.000000
      vertex 11.750000 -2.500000 5.000000
      vertex 14.059401 1.500000 5.000000
    endloop
  endfacet
  facet normal 0.000000 0.000000 1.000000
    outer loop
      vertex 19.440599 1.500000 5.000000
      vertex 21.750000 -2.500000 5.000000
      vertex 24.250000 1.500000 5.000000
    endloop
  endfacet
  facet normal 0.000000 -0.000000 1.000000
    outer loop
      vertex 9.250000 -3.400000 5.000000
      vertex 9.250000 -8.500000 5.000000
      vertex 21.750000 -9.500000 5.000000
    endloop
  endfacet
  facet normal 0.000000 -1.000000 0.000000
    outer loop
      vertex -40.750000 -13.500000 5.000000
      vertex -40.750000 -13.500000 0.000000
      vertex -35.750000 -13.500000 0.000000
    endloop
  endfacet
  facet normal 0.000000 -1.000000 0.000000
    outer loop
      vertex -35.750000 -13.500000 5.000000
      vertex -40.750000 -13.500000 5.000000
      vertex -35.750000 -13.500000 0.000000
    endloop
  endfacet
  facet normal 1.000000 0.000000 0.000000
    outer loop
      vertex -35.750000 -8.500000 0.000000
      vertex -35.750000 -8.500000 5.000000
      vertex -35.750000 -13.500000 5.000000
    endloop
  endfacet
  facet normal 1.000000 0.000000 0.000000
    outer loop
      vertex -35.750000 -13.500000 0.000000
      vertex -35.750000 -8.500000 0.000000
      vertex -35.750000 -13.500000 5.000000
    endloop
  endfacet
  facet normal 0.000000 -1.000000 0.000000
    outer loop
      vertex 9.250000 -8.500000 0.000000
      vertex 9.250000 -8.500000 5.000000
      vertex -35.750000 -8.500000 5.000000
    endloop
  endfacet
  facet normal -0.000000 -1.000000 -0.000000
    outer loop
      vertex -35.750000 -8.500000 0.000000
      vertex 9.250000 -8.500000 0.000000
      vertex -35.750000 -8.500000 5.000000
    endloop
  endfacet
  facet normal -1.000000 0.000000 0.000000
    outer loop
      vertex 9.250000 -8.500000 5.000000
      vertex 9.250000 -8.500000 0.000000
      vertex 9.250000 -13.500000 5.000000
    endloop
  endfacet
  facet normal -1.000000 0.000000 0.000000
    outer loop
      vertex 9.250000 -13.500000 5.000000
      vertex 9.250000 -8.500000 0.000000
      vertex 9.250000 -13.500000 0.000000
    endloop
  endfacet
  facet normal 0.000000 -1.000000 0.000000
    outer loop
      vertex 9.250000 -13.500000 5.000000
      vertex 9.250000 -13.500000 0.000000
      vertex 14.059401 -13.500000 0.000000
    endloop
  endfacet
  facet normal 0.000000 -1.000000 0.000000
    outer loop
      vertex 14.059401 -13.500000 5.000000
      vertex 9.250000 -13.500000 5.000000
      vertex 14.059401 -13.500000 0.000000
    endloop
  endfacet
  facet normal 0.866025 0.500000 0.000000
    outer loop
      vertex 14.059401 -13.500000 0.000000
      vertex 11.750000 -9.500000 0.000000
      vertex 11.750000 -9.500000 5.000000
    endloop
  endfacet
  facet normal 0.866025 0.500000 -0.000000
    outer loop
      vertex 14.059401 -13.500000 5.000000
      vertex 14.059401 -13.500000 0.000000
      vertex 11.750000 -9.500000 5.000000
    endloop
  endfacet
  facet normal 0.000000 -1.000000 0.000000
    outer loop
      vertex 21.750000 -9.500000 0.000000
      vertex 21.750000 -9.500000 5.000000
      vertex 11.750000 -9.500000 5.000000
    endloop
  endfacet
  facet normal 0.000000 -1.000000 0.000000
    outer loop
      vertex 11.750000 -9.500000 0.000000
      vertex 21.750000 -9.500000 0.000000
      vertex 11.750000 -9.500000 5.000000
    endloop
  endfacet
  facet normal -0.866025 0.500000 0.000000
    outer loop
      vertex 19.440599 -13.500000 0.000000
      vertex 19.440599 -13.500000 5.000000
      vertex 21.750000 -9.500000 0.000000
    endloop
  endfacet
  facet normal -0.866025 0.500000 0.000000
    outer loop
      vertex 21.750000 -9.500000 0.000000
      vertex 19.440599 -13.500000 5.000000
      vertex 21.750000 -9.500000 5.000000
    endloop
  endfacet
  facet normal 0.000000 -1.000000 0.000000
    outer loop
      vertex 19.440599 -13.500000 5.000000
      vertex 19.440599 -13.500000 0.000000
      vertex 24.250000 -13.500000 0.000000
    endloop
  endfacet
  facet normal 0.000000 -1.000000 0.000000
    outer loop
      vertex 24.250000 -13.500000 5.000000
      vertex 19.440599 -13.500000 5.000000
      vertex 24.250000 -13.500000 0.000000
    endloop
  endfacet
  facet normal 1.000000 0.000000 -0.000000
    outer loop
      vertex 24.250000 -13.500000 5.000000
      vertex 24.250000 -13.500000 0.000000
      vertex 24.250000 1.500000 0.000000
    endloop
  endfacet
  facet normal 1.000000 0.000000 0.000000
    outer loop
      vertex 24.250000 1.500000 5.000000
      vertex 24.250000 -13.500000 5.000000
      vertex 24.250000 1.500000 0.000000
    endloop
  endfacet
  facet normal 0.000000 1.000000 0.000000
    outer loop
      vertex 19.440599 1.500000 0.000000
      vertex 19.440599 1.500000 5.000000
      vertex 24.250000 1.500000 0.000000
    endloop
  endfacet
  facet normal 0.000000 1.000000 0.000000
    outer loop
      vertex 24.250000 1.500000 0.000000
      vertex 19.440599 1.500000 5.000000
      vertex 24.250000 1.500000 5.000000
    endloop
  endfacet
  facet normal -0.866025 -0.500000 0.000000
    outer loop
      vertex 21.750000 -2.500000 5.000000
      vertex 19.440599 1.500000 5.000000
      vertex 21.750000 -2.500000 0.000000
    endloop
  endfacet
  facet normal -0.866025 -0.500000 0.000000
    outer loop
      vertex 21.750000 -2.500000 0.000000
      vertex 19.440599 1.500000 5.000000
      vertex 19.440599 1.500000 0.000000
    endloop
  endfacet
  facet normal 0.000000 1.000000 0.000000
    outer loop
      vertex 11.750000 -2.500000 0.000000
      vertex 11.750000 -2.500000 5.000000
      vertex 21.750000 -2.500000 0.000000
    endloop
  endfacet
  facet normal 0.000000 1.000000 0.000000
    outer loop
      vertex 21.750000 -2.500000 0.000000
      vertex 11.750000 -2.500000 5.000000
      vertex 21.750000 -2.500000 5.000000
    endloop
  endfacet
  facet normal 0.866025 -0.500000 0.000000
    outer loop
      vertex 11.750000 -2.500000 5.000000
      vertex 11.750000 -2.500000 0.000000
      vertex 14.059401 1.500000 0.000000
    endloop
  endfacet
  facet normal 0.866025 -0.500000 0.000000
    outer loop
      vertex 14.059401 1.500000 5.000000
      vertex 11.750000 -2.500000 5.000000
      vertex 14.059401 1.500000 0.000000
    endloop
  endfacet
  facet normal 0.000000 1.000000 0.000000
    outer loop
      vertex 9.250000 1.500000 0.000000
      vertex 9.250000 1.500000 5.000000
      vertex 14.059401 1.500000 0.000000
    endloop
  endfacet
  facet normal 0.000000 1.000000 0.000000
    outer loop
      vertex 14.059401 1.500000 0.000000
      vertex 9.250000 1.500000 5.000000
      vertex 14.059401 1.500000 5.000000
    endloop
  endfacet
  facet normal -1.000000 0.000000 0.000000
    outer loop
      vertex 9.250000 1.500000 5.000000
      vertex 9.250000 1.500000 0.000000
      vertex 9.250000 -3.400000 5.000000
    endloop
  endfacet
  facet normal -1.000000 0.000000 0.000000
    outer loop
      vertex 9.250000 -3.400000 5.000000
      vertex 9.250000 1.500000 0.000000
      vertex 9.250000 -3.400000 0.000000
    endloop
  endfacet
  facet normal 0.000000 1.000000 0.000000
    outer loop
      vertex 9.250000 -3.400000 5.000000
      vertex 9.250000 -3.400000 0.000000
      vertex -35.750000 -3.400000 5.000000
    endloop
  endfacet
  facet normal 0.000000 1.000000 -0.000000
    outer loop
      vertex -35.750000 -3.400000 5.000000
      vertex 9.250000 -3.400000 0.000000
      vertex -35.750000 -3.400000 0.000000
    endloop
  endfacet
  facet normal 1.000000 0.000000 0.000000
    outer loop
      vertex -35.750000 1.500000 0.000000
      vertex -35.750000 1.500000 5.000000
      vertex -35.750000 -3.400000 5.000000
    endloop
  endfacet
  facet normal 1.000000 0.000000 0.000000
    outer loop
      vertex -35.750000 -3.400000 0.000000
      vertex -35.750000 1.500000 0.000000
      vertex -35.750000 -3.400000 5.000000
    endloop
  endfacet
  facet normal 0.000000 1.000000 0.000000
    outer loop
      vertex -40.750000 1.500000 0.000000
      vertex -40.750000 1.500000 5.000000
      vertex -35.750000 1.500000 0.000000
    endloop
  endfacet
  facet normal 0.000000 1.000000 0.000000
    outer loop
      vertex -35.750000 1.500000 0.000000
      vertex -40.750000 1.500000 5.000000
      vertex -35.750000 1.500000 5.000000
    endloop
  endfacet
  facet normal -1.000000 -0.000000 -0.000000
    outer loop
      vertex -40.750000 -1.698740 0.000000
      vertex -40.750000 -1.698740 5.000000
      vertex -40.750000 1.500000 0.000000
    endloop
  endfacet
  facet normal -1.000000 0.000000 0.000000
    outer loop
      vertex -40.750000 1.500000 0.000000
      vertex -40.750000 -1.698740 5.000000
      vertex -40.750000 1.500000 5.000000
    endloop
  endfacet
  facet normal 0.500000 0.866025 0.000000
    outer loop
      vertex -45.857368 1.250000 0.000000
      vertex -45.857368 1.250000 5.000000
      vertex -40.750000 -1.698740 0.000000
    endloop
  endfacet
  facet normal 0.500000 0.866025 0.000000
    outer loop
      vertex -40.750000 -1.698740 0.000000
      vertex -45.857368 1.250000 5.000000
      vertex -40.750000 -1.698740 5.000000
    endloop
  endfacet
  facet normal 0.500000 -0.866025 0.000000
    outer loop
      vertex -22.750000 1.698740 0.000000
      vertex -22.750000 1.698740 5.000000
      vertex -27.857368 -1.250000 5.000000
    endloop
  endfacet
  facet normal 0.500000 -0.866025 0.000000
    outer loop
      vertex -27.857368 -1.250000 0.000000
      vertex -22.750000 1.698740 0.000000
      vertex -27.857368 -1.250000 5.000000
    endloop
  endfacet
  facet normal 0.000000 0.000000 -1.000000
    outer loop
      vertex -27.857368 -1.250000 0.000000
      vertex -27.857368 13.250000 0.000000
      vertex -22.750000 1.698740 0.000000
    endloop
  endfacet
  facet normal 0.000000 0.000000 -1.000000
    outer loop
      vertex -22.750000 1.698740 0.000000
      vertex -27.857368 13.250000 0.000000
      vertex -22.750000 10.301260 0.000000
    endloop
  endfacet
  facet normal 0.000000 -0.000000 -1.000000
    outer loop
      vertex -22.750000 10.301260 0.000000
      vertex -22.750000 13.500000 0.000000
      vertex -17.750000 13.500000 0.000000
    endloop
  endfacet
  facet normal -0.000000 0.000000 -1.000000
    outer loop
      vertex -22.750000 10.301260 0.000000
      vertex -17.750000 13.500000 0.000000
      vertex -22.750000 1.698740 0.000000
    endloop
  endfacet
  facet normal 0.000000 0.000000 -1.000000
    outer loop
      vertex -22.750000 1.698740 0.000000
      vertex -17.750000 13.500000 0.000000
      vertex -17.750000 8.600000 0.000000
    endloop
  endfacet
  facet normal 0.000000 -0.000000 -1.000000
    outer loop
      vertex -17.750000 3.500000 0.000000
      vertex -17.750000 8.600000 0.000000
      vertex 27.250000 8.600000 0.000000
    endloop
  endfacet
  facet normal 0.000000 0.000000 -1.000000
    outer loop
      vertex 39.750000 2.500000 0.000000
      vertex 42.250000 -1.500000 0.000000
      vertex 37.440599 -1.500000 0.000000
    endloop
  endfacet
  facet normal 0.000000 -0.000000 -1.000000
    outer loop
      vertex 27.250000 8.600000 0.000000
      vertex 27.250000 13.500000 0.000000
      vertex 32.059401 13.500000 0.000000
    endloop
  endfacet
  facet normal 0.000000 0.000000 -1.000000
    outer loop
      vertex 27.250000 8.600000 0.000000
      vertex 32.059401 13.500000 0.000000
      vertex 29.750000 9.500000 0.000000
    endloop
  endfacet
  facet normal 0.000000 0.000000 -1.000000
    outer loop
      vertex 27.250000 8.600000 0.000000
      vertex 29.750000 9.500000 0.000000
      vertex 39.750000 9.500000 0.000000
    endloop
  endfacet
  facet normal 0.000000 0.000000 -1.000000
    outer loop
      vertex 27.250000 3.500000 0.000000
      vertex 32.059401 -1.500000 0.000000
      vertex 27.250000 -1.500000 0.000000
    endloop
  endfacet
  facet normal 0.000000 -0.000000 -1.000000
    outer loop
      vertex 39.750000 9.500000 0.000000
      vertex 37.440599 13.500000 0.000000
      vertex 42.250000 13.500000 0.000000
    endloop
  endfacet
  facet normal -0.000000 0.000000 -1.000000
    outer loop
      vertex 39.750000 9.500000 0.000000
      vertex 42.250000 13.500000 0.000000
      vertex 42.250000 -1.500000 0.000000
    endloop
  endfacet
  facet normal 0.000000 0.000000 -1.000000
    outer loop
      vertex 39.750000 9.500000 0.000000
      vertex 42.250000 -1.500000 0.000000
      vertex 39.750000 2.500000 0.000000
    endloop
  endfacet
  facet normal 0.000000 0.000000 -1.000000
    outer loop
      vertex 39.750000 9.500000 0.000000
      vertex 39.750000 2.500000 0.000000
      vertex 29.750000 2.500000 0.000000
    endloop
  endfacet
  facet normal 0.000000 0.000000 -1.000000
    outer loop
      vertex 39.750000 9.500000 0.000000
      vertex 29.750000 2.500000 0.000000
      vertex 27.250000 3.500000 0.000000
    endloop
  endfacet
  facet normal 0.000000 0.000000 -1.000000
    outer loop
      vertex -22.750000 1.698740 0.000000
      vertex -17.750000 8.600000 0.000000
      vertex -17.750000 3.500000 0.000000
    endloop
  endfacet
  facet normal 0.000000 0.000000 -1.000000
    outer loop
      vertex -17.750000 -1.500000 0.000000
      vertex -22.750000 1.698740 0.000000
      vertex -17.750000 3.500000 0.000000
    endloop
  endfacet
  facet normal 0.000000 0.000000 -1.000000
    outer loop
      vertex -17.750000 3.500000 0.000000
      vertex 27.250000 8.600000 0.000000
      vertex 39.750000 9.500000 0.000000
    endloop
  endfacet
  facet normal -0.000000 0.000000 -1.000000
    outer loop
      vertex -17.750000 3.500000 0.000000
      vertex 39.750000 9.500000 0.000000
      vertex 27.250000 3.500000 0.000000
    endloop
  endfacet
  facet normal 0.000000 0.000000 -1.000000
    outer loop
      vertex 27.250000 3.500000 0.000000
      vertex 29.750000 2.500000 0.000000
      vertex 32.059401 -1.500000 0.000000
    endloop
  endfacet
  facet normal 0.000000 0.000000 -1.000000
    outer loop
      vertex -22.750000 1.698740 0.000000
      vertex -17.750000 -1.500000 0.000000
      vertex -22.750000 -1.500000 0.000000
    endloop
  endfacet
  facet normal -1.000000 0.000000 0.000000
    outer loop
      vertex -27.857368 13.250000 5.000000
      vertex -27.857368 13.250000 0.000000
      vertex -27.857368 -1.250000 5.000000
    endloop
  endfacet
  facet normal -1.000000 0.000000 0.000000
    outer loop
      vertex -27.857368 -1.250000 5.000000
      vertex -27.857368 13.250000 0.000000
      vertex -27.857368 -1.250000 0.000000
    endloop
  endfacet
  facet normal -1.000000 -0.000000 -0.000000
    outer loop
      vertex -22.750000 -1.500000 0.000000
      vertex -22.750000 -1.500000 5.000000
      vertex -22.750000 1.698740 0.000000
    endloop
  endfacet
  facet normal -1.000000 0.000000 0.000000
    outer loop
      vertex -22.750000 1.698740 0.000000
      vertex -22.750000 -1.500000 5.000000
      vertex -22.750000 1.698740 5.000000
    endloop
  endfacet
  facet normal 0.000000 -0.000000 1.000000
    outer loop
      vertex -27.857368 13.250000 5.000000
      vertex -27.857368 -1.250000 5.000000
      vertex -22.750000 1.698740 5.000000
    endloop
  endfacet
  facet normal 0.000000 0.000000 1.000000
    outer loop
      vertex -17.750000 -1.500000 5.000000
      vertex -27.857368 13.250000 5.000000
      vertex -22.750000 1.698740 5.000000
    endloop
  endfacet
  facet normal 0.000000 0.000000 1.000000
    outer loop
      vertex -22.750000 -1.500000 5.000000
      vertex -17.750000 -1.500000 5.000000
      vertex -22.750000 1.698740 5.000000
    endloop
  endfacet
  facet normal 0.000000 0.000000 1.000000
    outer loop
      vertex -17.750000 -1.500000 5.000000
      vertex -17.750000 3.500000 5.000000
      vertex -27.857368 13.250000 5.000000
    endloop
  endfacet
  facet normal 0.000000 0.000000 1.000000
    outer loop
      vertex 29.750000 2.500000 5.000000
      vertex 39.750000 2.500000 5.000000
      vertex 27.250000 3.500000 5.000000
    endloop
  endfacet
  facet normal 0.000000 0.000000 1.000000
    outer loop
      vertex 27.250000 -1.500000 5.000000
      vertex 32.059401 -1.500000 5.000000
      vertex 27.250000 3.500000 5.000000
    endloop
  endfacet
  facet normal 0.000000 0.000000 1.000000
    outer loop
      vertex 32.059401 -1.500000 5.000000
      vertex 29.750000 2.500000 5.000000
      vertex 27.250000 3.500000 5.000000
    endloop
  endfacet
  facet normal 0.000000 0.000000 1.000000
    outer loop
      vertex 37.440599 -1.500000 5.000000
      vertex 42.250000 -1.500000 5.000000
      vertex 39.750000 2.500000 5.000000
    endloop
  endfacet
  facet normal 0.000000 0.000000 1.000000
    outer loop
      vertex 42.250000 -1.500000 5.000000
      vertex 42.250000 13.500000 5.000000
      vertex 39.750000 2.500000 5.000000
    endloop
  endfacet
  facet normal 0.000000 -0.000000 1.000000
    outer loop
      vertex 27.250000 13.500000 5.000000
      vertex 27.250000 8.600000 5.000000
      vertex 29.750000 9.500000 5.000000
    endloop
  endfacet
  facet normal 0.000000 0.000000 1.000000
    outer loop
      vertex 39.750000 2.500000 5.000000
      vertex 42.250000 13.500000 5.000000
      vertex 39.750000 9.500000 5.000000
    endloop
  endfacet
  facet normal 0.000000 -0.000000 1.000000
    outer loop
      vertex -22.750000 13.500000 5.000000
      vertex -22.750000 10.301260 5.000000
      vertex -17.750000 8.600000 5.000000
    endloop
  endfacet
  facet normal 0.000000 0.000000 1.000000
    outer loop
      vertex 39.750000 2.500000 5.000000
      vertex 39.750000 9.500000 5.000000
      vertex 29.750000 9.500000 5.000000
    endloop
  endfacet
  facet normal 0.000000 0.000000 1.000000
    outer loop
      vertex -22.750000 13.500000 5.000000
      vertex -17.750000 8.600000 5.000000
      vertex -17.750000 13.500000 5.000000
    endloop
  endfacet
  facet normal 0.000000 0.000000 1.000000
    outer loop
      vertex 27.250000 8.600000 5.000000
      vertex -17.750000 8.600000 5.000000
      vertex 27.250000 3.500000 5.000000
    endloop
  endfacet
  facet normal 0.000000 0.000000 1.000000
    outer loop
      vertex 39.750000 2.500000 5.000000
      vertex 29.750000 9.500000 5.000000
      vertex 27.250000 8.600000 5.000000
    endloop
  endfacet
  facet normal 0.000000 0.000000 1.000000
    outer loop
      vertex -17.750000 3.500000 5.000000
      vertex 27.250000 3.500000 5.000000
      vertex -17.750000 8.600000 5.000000
    endloop
  endfacet
  facet normal 0.000000 0.000000 1.000000
    outer loop
      vertex -17.750000 3.500000 5.000000
      vertex -22.750000 10.301260 5.000000
      vertex -27.857368 13.250000 5.000000
    endloop
  endfacet
  facet normal 0.000000 0.000000 1.000000
    outer loop
      vertex -17.750000 3.500000 5.000000
      vertex -17.750000 8.600000 5.000000
      vertex -22.750000 10.301260 5.000000
    endloop
  endfacet
  facet normal 0.000000 0.000000 1.000000
    outer loop
      vertex 27.250000 13.500000 5.000000
      vertex 29.750000 9.500000 5.000000
      vertex 32.059401 13.500000 5.000000
    endloop
  endfacet
  facet normal 0.000000 0.000000 1.000000
    outer loop
      vertex 37.440599 13.500000 5.000000
      vertex 39.750000 9.500000 5.000000
      vertex 42.250000 13.500000 5.000000
    endloop
  endfacet
  facet normal 0.000000 -0.000000 1.000000
    outer loop
      vertex 27.250000 8.600000 5.000000
      vertex 27.250000 3.500000 5.000000
      vertex 39.750000 2.500000 5.000000
    endloop
  endfacet
  facet normal 0.000000 -1.000000 0.000000
    outer loop
      vertex -22.750000 -1.500000 5.000000
      vertex -22.750000 -1.500000 0.000000
      vertex -17.750000 -1.500000 0.000000
    endloop
  endfacet
  facet normal 0.000000 -1.000000 0.000000
    outer loop
      vertex -17.750000 -1.500000 5.000000
      vertex -22.750000 -1.500000 5.000000
      vertex -17.750000 -1.500000 0.000000
    endloop
  endfacet
  facet normal 1.000000 0.000000 0.000000
    outer loop
      vertex -17.750000 3.500000 0.000000
      vertex -17.750000 3.500000 5.000000
      vertex -17.750000 -1.500000 5.000000
    endloop
  endfacet
  facet normal 1.000000 0.000000 0.000000
    outer loop
      vertex -17.750000 -1.500000 0.000000
      vertex -17.750000 3.500000 0.000000
      vertex -17.750000 -1.500000 5.000000
    endloop
  endfacet
  facet normal 0.000000 -1.000000 0.000000
    outer loop
      vertex 27.250000 3.500000 0.000000
      vertex 27.250000 3.500000 5.000000
      vertex -17.750000 3.500000 5.000000
    endloop
  endfacet
  facet normal -0.000000 -1.000000 -0.000000
    outer loop
      vertex -17.750000 3.500000 0.000000
      vertex 27.250000 3.500000 0.000000
      vertex -17.750000 3.500000 5.000000
    endloop
  endfacet
  facet normal -1.000000 0.000000 0.000000
    outer loop
      vertex 27.250000 3.500000 5.000000
      vertex 27.250000 3.500000 0.000000
      vertex 27.250000 -1.500000 5.000000
    endloop
  endfacet
  facet normal -1.000000 0.000000 0.000000
    outer loop
      vertex 27.250000 -1.500000 5.000000
      vertex 27.250000 3.500000 0.000000
      vertex 27.250000 -1.500000 0.000000
    endloop
  endfacet
  facet normal 0.000000 -1.000000 0.000000
    outer loop
      vertex 27.250000 -1.500000 5.000000
      vertex 27.250000 -1.500000 0.000000
      vertex 32.059401 -1.500000 0.000000
    endloop
  endfacet
  facet normal 0.000000 -1.000000 0.000000
    outer loop
      vertex 32.059401 -1.500000 5.000000
      vertex 27.250000 -1.500000 5.000000
      vertex 32.059401 -1.500000 0.000000
    endloop
  endfacet
  facet normal 0.866025 0.500000 0.000000
    outer loop
      vertex 32.059401 -1.500000 0.000000
      vertex 29.750000 2.500000 0.000000
      vertex 29.750000 2.500000 5.000000
    endloop
  endfacet
  facet normal 0.866025 0.500000 -0.000000
    outer loop
      vertex 32.059401 -1.500000 5.000000
      vertex 32.059401 -1.500000 0.000000
      vertex 29.750000 2.500000 5.000000
    endloop
  endfacet
  facet normal 0.000000 -1.000000 0.000000
    outer loop
      vertex 39.750000 2.500000 0.000000
      vertex 39.750000 2.500000 5.000000
      vertex 29.750000 2.500000 5.000000
    endloop
  endfacet
  facet normal 0.000000 -1.000000 0.000000
    outer loop
      vertex 29.750000 2.500000 0.000000
      vertex 39.750000 2.500000 0.000000
      vertex 29.750000 2.500000 5.000000
    endloop
  endfacet
  facet normal -0.866025 0.500000 0.000000
    outer loop
      vertex 37.440599 -1.500000 0.000000
      vertex 37.440599 -1.500000 5.000000
      vertex 39.750000 2.500000 0.000000
    endloop
  endfacet
  facet normal -0.866025 0.500000 0.000000
    outer loop
      vertex 39.750000 2.500000 0.000000
      vertex 37.440599 -1.500000 5.000000
      vertex 39.750000 2.500000 5.000000
    endloop
  endfacet
  facet normal 0.000000 -1.000000 0.000000
    outer loop
      vertex 37.440599 -1.500000 5.000000
      vertex 37.440599 -1.500000 0.000000
      vertex 42.250000 -1.500000 0.000000
    endloop
  endfacet
  facet normal 0.000000 -1.000000 0.000000
    outer loop
      vertex 42.250000 -1.500000 5.000000
      vertex 37.440599 -1.500000 5.000000
      vertex 42.250000 -1.500000 0.000000
    endloop
  endfacet
  facet normal 1.000000 0.000000 -0.000000
    outer loop
      vertex 42.250000 -1.500000 5.000000
      vertex 42.250000 -1.500000 0.000000
      vertex 42.250000 13.500000 0.000000
    endloop
  endfacet
  facet normal 1.000000 0.000000 0.000000
    outer loop
      vertex 42.250000 13.500000 5.000000
      vertex 42.250000 -1.500000 5.000000
      vertex 42.250000 13.500000 0.000000
    endloop
  endfacet
  facet normal 0.000000 1.000000 0.000000
    outer loop
      vertex 37.440599 13.500000 0.000000
      vertex 37.440599 13.500000 5.000000
      vertex 42.250000 13.500000 0.000000
    endloop
  endfacet
  facet normal 0.000000 1.000000 0.000000
    outer loop
      vertex 42.250000 13.500000 0.000000
      vertex 37.440599 13.500000 5.000000
      vertex 42.250000 13.500000 5.000000
    endloop
  endfacet
  facet normal -0.866025 -0.500000 0.000000
    outer loop
      vertex 39.750000 9.500000 5.000000
      vertex 37.440599 13.500000 5.000000
      vertex 39.750000 9.500000 0.000000
    endloop
  endfacet
  facet normal -0.866025 -0.500000 0.000000
    outer loop
      vertex 39.750000 9.500000 0.000000
      vertex 37.440599 13.500000 5.000000
      vertex 37.440599 13.500000 0.000000
    endloop
  endfacet
  facet normal -0.000000 1.000000 0.000000
    outer loop
      vertex 29.750000 9.500000 0.000000
      vertex 29.750000 9.500000 5.000000
      vertex 39.750000 9.500000 0.000000
    endloop
  endfacet
  facet normal -0.000000 1.000000 0.000000
    outer loop
      vertex 39.750000 9.500000 0.000000
      vertex 29.750000 9.500000 5.000000
      vertex 39.750000 9.500000 5.000000
    endloop
  endfacet
  facet normal 0.866025 -0.500000 0.000000
    outer loop
      vertex 29.750000 9.500000 5.000000
      vertex 29.750000 9.500000 0.000000
      vertex 32.059401 13.500000 0.000000
    endloop
  endfacet
  facet normal 0.866025 -0.500000 0.000000
    outer loop
      vertex 32.059401 13.500000 5.000000
      vertex 29.750000 9.500000 5.000000
      vertex 32.059401 13.500000 0.000000
    endloop
  endfacet
  facet normal 0.000000 1.000000 0.000000
    outer loop
      vertex 27.250000 13.500000 0.000000
      vertex 27.250000 13.500000 5.000000
      vertex 32.059401 13.500000 0.000000
    endloop
  endfacet
  facet normal 0.000000 1.000000 0.000000
    outer loop
      vertex 32.059401 13.500000 0.000000
      vertex 27.250000 13.500000 5.000000
      vertex 32.059401 13.500000 5.000000
    endloop
  endfacet
  facet normal -1.000000 0.000000 0.000000
    outer loop
      vertex 27.250000 13.500000 5.000000
      vertex 27.250000 13.500000 0.000000
      vertex 27.250000 8.600000 5.000000
    endloop
  endfacet
  facet normal -1.000000 0.000000 0.000000
    outer loop
      vertex 27.250000 8.600000 5.000000
      vertex 27.250000 13.500000 0.000000
      vertex 27.250000 8.600000 0.000000
    endloop
  endfacet
  facet normal 0.000000 1.000000 0.000000
    outer loop
      vertex 27.250000 8.600000 5.000000
      vertex 27.250000 8.600000 0.000000
      vertex -17.750000 8.600000 5.000000
    endloop
  endfacet
  facet normal 0.000000 1.000000 -0.000000
    outer loop
      vertex -17.750000 8.600000 5.000000
      vertex 27.250000 8.600000 0.000000
      vertex -17.750000 8.600000 0.000000
    endloop
  endfacet
  facet normal 1.000000 0.000000 0.000000
    outer loop
      vertex -17.750000 13.500000 0.000000
      vertex -17.750000 13.500000 5.000000
      vertex -17.750000 8.600000 5.000000
    endloop
  endfacet
  facet normal 1.000000 0.000000 0.000000
    outer loop
      vertex -17.750000 8.600000 0.000000
      vertex -17.750000 13.500000 0.000000
      vertex -17.750000 8.600000 5.000000
    endloop
  endfacet
  facet normal 0.000000 1.000000 0.000000
    outer loop
      vertex -22.750000 13.500000 0.000000
      vertex -22.750000 13.500000 5.000000
      vertex -17.750000 13.500000 0.000000
    endloop
  endfacet
  facet normal 0.000000 1.000000 0.000000
    outer loop
      vertex -17.750000 13.500000 0.000000
      vertex -22.750000 13.500000 5.000000
      vertex -17.750000 13.500000 5.000000
    endloop
  endfacet
  facet normal -1.000000 -0.000000 -0.000000
    outer loop
      vertex -22.750000 10.301260 0.000000
      vertex -22.750000 10.301260 5.000000
      vertex -22.750000 13.500000 0.000000
    endloop
  endfacet
  facet normal -1.000000 0.000000 0.000000
    outer loop
      vertex -22.750000 13.500000 0.000000
      vertex -22.750000 10.301260 5.000000
      vertex -22.750000 13.500000 5.000000
    endloop
  endfacet
  facet normal 0.500000 0.866025 0.000000
    outer loop
      vertex -27.857368 13.250000 0.000000
      vertex -27.857368 13.250000 5.000000
      vertex -22.750000 10.301260 0.000000
    endloop
  endfacet
  facet normal 0.500000 0.866025 0.000000
    outer loop
      vertex -22.750000 10.301260 0.000000
      vertex -27.857368 13.250000 5.000000
      vertex -22.750000 10.301260 5.000000
    endloop
  endfacet
  facet normal 0.500000 -0.866025 0.000000
    outer loop
      vertex -22.750000 -22.301260 0.000000
      vertex -22.750000 -22.301260 5.000000
      vertex -27.857368 -25.250000 5.000000
    endloop
  endfacet
  facet normal 0.500000 -0.866025 0.000000
    outer loop
      vertex -27.857368 -25.250000 0.000000
      vertex -22.750000 -22.301260 0.000000
      vertex -27.857368 -25.250000 5.000000
    endloop
  endfacet
  facet normal 0.000000 0.000000 -1.000000
    outer loop
      vertex -27.857368 -25.250000 0.000000
      vertex -27.857368 -10.750000 0.000000
      vertex -22.750000 -22.301260 0.000000
    endloop
  endfacet
  facet normal 0.000000 0.000000 -1.000000
    outer loop
      vertex -22.750000 -22.301260 0.000000
      vertex -27.857368 -10.750000 0.000000
      vertex -22.750000 -13.698740 0.000000
    endloop
  endfacet
  facet normal 0.000000 -0.000000 -1.000000
    outer loop
      vertex -22.750000 -13.698740 0.000000
      vertex -22.750000 -10.500000 0.000000
      vertex -17.750000 -10.500000 0.000000
    endloop
  endfacet
  facet normal -0.000000 0.000000 -1.000000
    outer loop
      vertex -22.750000 -13.698740 0.000000
      vertex -17.750000 -10.500000 0.000000
      vertex -22.750000 -22.301260 0.000000
    endloop
  endfacet
  facet normal 0.000000 0.000000 -1.000000
    outer loop
      vertex -22.750000 -22.301260 0.000000
      vertex -17.750000 -10.500000 0.000000
      vertex -17.750000 -15.400000 0.000000
    endloop
  endfacet
  facet normal 0.000000 -0.000000 -1.000000
    outer loop
      vertex -17.750000 -20.500000 0.000000
      vertex -17.750000 -15.400000 0.000000
      vertex 27.250000 -15.400000 0.000000
    endloop
  endfacet
  facet normal 0.000000 0.000000 -1.000000
    outer loop
      vertex 39.750000 -21.500000 0.000000
      vertex 42.250000 -25.500000 0.000000
      vertex 37.440599 -25.500000 0.000000
    endloop
  endfacet
  facet normal 0.000000 -0.000000 -1.000000
    outer loop
      vertex 27.250000 -15.400000 0.000000
      vertex 27.250000 -10.500000 0.000000
      vertex 32.059401 -10.500000 0.000000
    endloop
  endfacet
  facet normal 0.000000 0.000000 -1.000000
    outer loop
      vertex 27.250000 -15.400000 0.000000
      vertex 32.059401 -10.500000 0.000000
      vertex 29.750000 -14.500000 0.000000
    endloop
  endfacet
  facet normal 0.000000 0.000000 -1.000000
    outer loop
      vertex 27.250000 -15.400000 0.000000
      vertex 29.750000 -14.500000 0.000000
      vertex 39.750000 -14.500000 0.000000
    endloop
  endfacet
  facet normal 0.000000 0.000000 -1.000000
    outer loop
      vertex 27.250000 -20.500000 0.000000
      vertex 32.059401 -25.500000 0.000000
      vertex 27.250000 -25.500000 0.000000
    endloop
  endfacet
  facet normal 0.000000 -0.000000 -1.000000
    outer loop
      vertex 39.750000 -14.500000 0.000000
      vertex 37.440599 -10.500000 0.000000
      vertex 42.250000 -10.500000 0.000000
    endloop
  endfacet
  facet normal -0.000000 0.000000 -1.000000
    outer loop
      vertex 39.750000 -14.500000 0.000000
      vertex 42.250000 -10.500000 0.000000
      vertex 42.250000 -25.500000 0.000000
    endloop
  endfacet
  facet normal 0.000000 0.000000 -1.000000
    outer loop
      vertex 39.750000 -14.500000 0.000000
      vertex 42.250000 -25.500000 0.000000
      vertex 39.750000 -21.500000 0.000000
    endloop
  endfacet
  facet normal 0.000000 0.000000 -1.000000
    outer loop
      vertex 39.750000 -14.500000 0.000000
      vertex 39.750000 -21.500000 0.000000
      vertex 29.750000 -21.500000 0.000000
    endloop
  endfacet
  facet normal 0.000000 0.000000 -1.000000
    outer loop
      vertex 39.750000 -14.500000 0.000000
      vertex 29.750000 -21.500000 0.000000
      vertex 27.250000 -20.500000 0.000000
    endloop
  endfacet
  facet normal 0.000000 0.000000 -1.000000
    outer loop
      vertex -22.750000 -22.301260 0.000000
      vertex -17.750000 -15.400000 0.000000
      vertex -17.750000 -20.500000 0.000000
    endloop
  endfacet
  facet normal 0.000000 0.000000 -1.000000
    outer loop
      vertex -17.750000 -25.500000 0.000000
      vertex -22.750000 -22.301260 0.000000
      vertex -17.750000 -20.500000 0.000000
    endloop
  endfacet
  facet normal 0.000000 0.000000 -1.000000
    outer loop
      vertex -17.750000 -20.500000 0.000000
      vertex 27.250000 -15.400000 0.000000
      vertex 39.750000 -14.500000 0.000000
    endloop
  endfacet
  facet normal -0.000000 0.000000 -1.000000
    outer loop
      vertex -17.750000 -20.500000 0.000000
      vertex 39.750000 -14.500000 0.000000
      vertex 27.250000 -20.500000 0.000000
    endloop
  endfacet
  facet normal 0.000000 0.000000 -1.000000
    outer loop
      vertex 27.250000 -20.500000 0.000000
      vertex 29.750000 -21.500000 0.000000
      vertex 32.059401 -25.500000 0.000000
    endloop
  endfacet
  facet normal 0.000000 0.000000 -1.000000
    outer loop
      vertex -22.750000 -22.301260 0.000000
      vertex -17.750000 -25.500000 0.000000
      vertex -22.750000 -25.500000 0.000000
    endloop
  endfacet
  facet normal -1.000000 0.000000 0.000000
    outer loop
      vertex -27.857368 -10.750000 5.000000
      vertex -27.857368 -10.750000 0.000000
      vertex -27.857368 -25.250000 5.000000
    endloop
  endfacet
  facet normal -1.000000 0.000000 0.000000
    outer loop
      vertex -27.857368 -25.250000 5.000000
      vertex -27.857368 -10.750000 0.000000
      vertex -27.857368 -25.250000 0.000000
    endloop
  endfacet
  facet normal -1.000000 -0.000000 -0.000000
    outer loop
      vertex -22.750000 -25.500000 0.000000
      vertex -22.750000 -25.500000 5.000000
      vertex -22.750000 -22.301260 0.000000
    endloop
  endfacet
  facet normal -1.000000 0.000000 0.000000
    outer loop
      vertex -22.750000 -22.301260 0.000000
      vertex -22.750000 -25.500000 5.000000
      vertex -22.750000 -22.301260 5.000000
    endloop
  endfacet
  facet normal 0.000000 -0.000000 1.000000
    outer loop
      vertex -27.857368 -10.750000 5.000000
      vertex -27.857368 -25.250000 5.000000
      vertex -22.750000 -22.301260 5.000000
    endloop
  endfacet
  facet normal 0.000000 0.000000 1.000000
    outer loop
      vertex -17.750000 -25.500000 5.000000
      vertex -27.857368 -10.750000 5.000000
      vertex -22.750000 -22.301260 5.000000
    endloop
  endfacet
  facet normal 0.000000 0.000000 1.000000
    outer loop
      vertex -22.750000 -25.500000 5.000000
      vertex -17.750000 -25.500000 5.000000
      vertex -22.750000 -22.301260 5.000000
    endloop
  endfacet
  facet normal 0.000000 0.000000 1.000000
    outer loop
      vertex -17.750000 -25.500000 5.000000
      vertex -17.750000 -20.500000 5.000000
      vertex -27.857368 -10.750000 5.000000
    endloop
  endfacet
  facet normal 0.000000 0.000000 1.000000
    outer loop
      vertex 29.750000 -21.500000 5.000000
      vertex 39.750000 -21.500000 5.000000
      vertex 27.250000 -20.500000 5.000000
    endloop
  endfacet
  facet normal 0.000000 0.000000 1.000000
    outer loop
      vertex 27.250000 -25.500000 5.000000
      vertex 32.059401 -25.500000 5.000000
      vertex 27.250000 -20.500000 5.000000
    endloop
  endfacet
  facet normal 0.000000 0.000000 1.000000
    outer loop
      vertex 32.059401 -25.500000 5.000000
      vertex 29.750000 -21.500000 5.000000
      vertex 27.250000 -20.500000 5.000000
    endloop
  endfacet
  facet normal 0.000000 0.000000 1.000000
    outer loop
      vertex 37.440599 -25.500000 5.000000
      vertex 42.250000 -25.500000 5.000000
      vertex 39.750000 -21.500000 5.000000
    endloop
  endfacet
  facet normal 0.000000 0.000000 1.000000
    outer loop
      vertex 42.250000 -25.500000 5.000000
      vertex 42.250000 -10.500000 5.000000
      vertex 39.750000 -21.500000 5.000000
    endloop
  endfacet
  facet normal 0.000000 -0.000000 1.000000
    outer loop
      vertex 27.250000 -10.500000 5.000000
      vertex 27.250000 -15.400000 5.000000
      vertex 29.750000 -14.500000 5.000000
    endloop
  endfacet
  facet normal 0.000000 0.000000 1.000000
    outer loop
      vertex 39.750000 -21.500000 5.000000
      vertex 42.250000 -10.500000 5.000000
      vertex 39.750000 -14.500000 5.000000
    endloop
  endfacet
  facet normal 0.000000 -0.000000 1.000000
    outer loop
      vertex -22.750000 -10.500000 5.000000
      vertex -22.750000 -13.698740 5.000000
      vertex -17.750000 -15.400000 5.000000
    endloop
  endfacet
  facet normal 0.000000 0.000000 1.000000
    outer loop
      vertex 39.750000 -21.500000 5.000000
      vertex 39.750000 -14.500000 5.000000
      vertex 29.750000 -14.500000 5.000000
    endloop
  endfacet
  facet normal 0.000000 0.000000 1.000000
    outer loop
      vertex -22.750000 -10.500000 5.000000
      vertex -17.750000 -15.400000 5.000000
      vertex -17.750000 -10.500000 5.000000
    endloop
  endfacet
  facet normal 0.000000 0.000000 1.000000
    outer loop
      vertex 27.250000 -15.400000 5.000000
      vertex -17.750000 -15.400000 5.000000
      vertex 27.250000 -20.500000 5.000000
    endloop
  endfacet
  facet normal 0.000000 0.000000 1.000000
    outer loop
      vertex 39.750000 -21.500000 5.000000
      vertex 29.750000 -14.500000 5.000000
      vertex 27.250000 -15.400000 5.000000
    endloop
  endfacet
  facet normal 0.000000 0.000000 1.000000
    outer loop
      vertex -17.750000 -20.500000 5.000000
      vertex 27.250000 -20.500000 5.000000
      vertex -17.750000 -15.400000 5.000000
    endloop
  endfacet
  facet normal 0.000000 0.000000 1.000000
    outer loop
      vertex -17.750000 -20.500000 5.000000
      vertex -22.750000 -13.698740 5.000000
      vertex -27.857368 -10.750000 5.000000
    endloop
  endfacet
  facet normal 0.000000 0.000000 1.000000
    outer loop
      vertex -17.750000 -20.500000 5.000000
      vertex -17.750000 -15.400000 5.000000
      vertex -22.750000 -13.698740 5.000000
    endloop
  endfacet
  facet normal 0.000000 0.000000 1.000000
    outer loop
      vertex 27.250000 -10.500000 5.000000
      vertex 29.750000 -14.500000 5.000000
      vertex 32.059401 -10.500000 5.000000
    endloop
  endfacet
  facet normal 0.000000 0.000000 1.000000
    outer loop
      vertex 37.440599 -10.500000 5.000000
      vertex 39.750000 -14.500000 5.000000
      vertex 42.250000 -10.500000 5.000000
    endloop
  endfacet
  facet normal 0.000000 -0.000000 1.000000
    outer loop
      vertex 27.250000 -15.400000 5.000000
      vertex 27.250000 -20.500000 5.000000
      vertex 39.750000 -21.500000 5.000000
    endloop
  endfacet
  facet normal 0.000000 -1.000000 0.000000
    outer loop
      vertex -22.750000 -25.500000 5.000000
      vertex -22.750000 -25.500000 0.000000
      vertex -17.750000 -25.500000 0.000000
    endloop
  endfacet
  facet normal 0.000000 -1.000000 0.000000
    outer loop
      vertex -17.750000 -25.500000 5.000000
      vertex -22.750000 -25.500000 5.000000
      vertex -17.750000 -25.500000 0.000000
    endloop
  endfacet
  facet normal 1.000000 0.000000 0.000000
    outer loop
      vertex -17.750000 -20.500000 0.000000
      vertex -17.750000 -20.500000 5.000000
      vertex -17.750000 -25.500000 5.000000
    endloop
  endfacet
  facet normal 1.000000 0.000000 0.000000
    outer loop
      vertex -17.750000 -25.500000 0.000000
      vertex -17.750000 -20.500000 0.000000
      vertex -17.750000 -25.500000 5.000000
    endloop
  endfacet
  facet normal 0.000000 -1.000000 0.000000
    outer loop
      vertex 27.250000 -20.500000 0.000000
      vertex 27.250000 -20.500000 5.000000
      vertex -17.750000 -20.500000 5.000000
    endloop
  endfacet
  facet normal -0.000000 -1.000000 -0.000000
    outer loop
      vertex -17.750000 -20.500000 0.000000
      vertex 27.250000 -20.500000 0.000000
      vertex -17.750000 -20.500000 5.000000
    endloop
  endfacet
  facet normal -1.000000 0.000000 0.000000
    outer loop
      vertex 27.250000 -20.500000 5.000000
      vertex 27.250000 -20.500000 0.000000
      vertex 27.250000 -25.500000 5.000000
    endloop
  endfacet
  facet normal -1.000000 0.000000 0.000000
    outer loop
      vertex 27.250000 -25.500000 5.000000
      vertex 27.250000 -20.500000 0.000000
      vertex 27.250000 -25.500000 0.000000
    endloop
  endfacet
  facet normal 0.000000 -1.000000 0.000000
    outer loop
      vertex 27.250000 -25.500000 5.000000
      vertex 27.250000 -25.500000 0.000000
      vertex 32.059401 -25.500000 0.000000
    endloop
  endfacet
  facet normal 0.000000 -1.000000 0.000000
    outer loop
      vertex 32.059401 -25.500000 5.000000
      vertex 27.250000 -25.500000 5.000000
      vertex 32.059401 -25.500000 0.000000
    endloop
  endfacet
  facet normal 0.866025 0.500000 0.000000
    outer loop
      vertex 32.059401 -25.500000 0.000000
      vertex 29.750000 -21.500000 0.000000
      vertex 29.750000 -21.500000 5.000000
    endloop
  endfacet
  facet normal 0.866025 0.500000 -0.000000
    outer loop
      vertex 32.059401 -25.500000 5.000000
      vertex 32.059401 -25.500000 0.000000
      vertex 29.750000 -21.500000 5.000000
    endloop
  endfacet
  facet normal 0.000000 -1.000000 0.000000
    outer loop
      vertex 39.750000 -21.500000 0.000000
      vertex 39.750000 -21.500000 5.000000
      vertex 29.750000 -21.500000 5.000000
    endloop
  endfacet
  facet normal -0.000000 -1.000000 -0.000000
    outer loop
      vertex 29.750000 -21.500000 0.000000
      vertex 39.750000 -21.500000 0.000000
      vertex 29.750000 -21.500000 5.000000
    endloop
  endfacet
  facet normal -0.866025 0.500000 0.000000
    outer loop
      vertex 37.440599 -25.500000 0.000000
      vertex 37.440599 -25.500000 5.000000
      vertex 39.750000 -21.500000 0.000000
    endloop
  endfacet
  facet normal -0.866025 0.500000 0.000000
    outer loop
      vertex 39.750000 -21.500000 0.000000
      vertex 37.440599 -25.500000 5.000000
      vertex 39.750000 -21.500000 5.000000
    endloop
  endfacet
  facet normal 0.000000 -1.000000 0.000000
    outer loop
      vertex 37.440599 -25.500000 5.000000
      vertex 37.440599 -25.500000 0.000000
      vertex 42.250000 -25.500000 0.000000
    endloop
  endfacet
  facet normal 0.000000 -1.000000 0.000000
    outer loop
      vertex 42.250000 -25.500000 5.000000
      vertex 37.440599 -25.500000 5.000000
      vertex 42.250000 -25.500000 0.000000
    endloop
  endfacet
  facet normal 1.000000 0.000000 -0.000000
    outer loop
      vertex 42.250000 -25.500000 5.000000
      vertex 42.250000 -25.500000 0.000000
      vertex 42.250000 -10.500000 0.000000
    endloop
  endfacet
  facet normal 1.000000 0.000000 0.000000
    outer loop
      vertex 42.250000 -10.500000 5.000000
      vertex 42.250000 -25.500000 5.000000
      vertex 42.250000 -10.500000 0.000000
    endloop
  endfacet
  facet normal 0.000000 1.000000 0.000000
    outer loop
      vertex 37.440599 -10.500000 0.000000
      vertex 37.440599 -10.500000 5.000000
      vertex 42.250000 -10.500000 0.000000
    endloop
  endfacet
  facet normal 0.000000 1.000000 0.000000
    outer loop
      vertex 42.250000 -10.500000 0.000000
      vertex 37.440599 -10.500000 5.000000
      vertex 42.250000 -10.500000 5.000000
    endloop
  endfacet
  facet normal -0.866025 -0.500000 0.000000
    outer loop
      vertex 39.750000 -14.500000 5.000000
      vertex 37.440599 -10.500000 5.000000
      vertex 39.750000 -14.500000 0.000000
    endloop
  endfacet
  facet normal -0.866025 -0.500000 0.000000
    outer loop
      vertex 39.750000 -14.500000 0.000000
      vertex 37.440599 -10.500000 5.000000
      vertex 37.440599 -10.500000 0.000000
    endloop
  endfacet
  facet normal 0.000000 1.000000 0.000000
    outer loop
      vertex 29.750000 -14.500000 0.000000
      vertex 29.750000 -14.500000 5.000000
      vertex 39.750000 -14.500000 0.000000
    endloop
  endfacet
  facet normal 0.000000 1.000000 0.000000
    outer loop
      vertex 39.750000 -14.500000 0.000000
      vertex 29.750000 -14.500000 5.000000
      vertex 39.750000 -14.500000 5.000000
    endloop
  endfacet
  facet normal 0.866025 -0.500000 0.000000
    outer loop
      vertex 29.750000 -14.500000 5.000000
      vertex 29.750000 -14.500000 0.000000
      vertex 32.059401 -10.500000 0.000000
    endloop
  endfacet
  facet normal 0.866025 -0.500000 0.000000
    outer loop
      vertex 32.059401 -10.500000 5.000000
      vertex 29.750000 -14.500000 5.000000
      vertex 32.059401 -10.500000 0.000000
    endloop
  endfacet
  facet normal 0.000000 1.000000 0.000000
    outer loop
      vertex 27.250000 -10.500000 0.000000
      vertex 27.250000 -10.500000 5.000000
      vertex 32.059401 -10.500000 0.000000
    endloop
  endfacet
  facet normal 0.000000 1.000000 0.000000
    outer loop
      vertex 32.059401 -10.500000 0.000000
      vertex 27.250000 -10.500000 5.000000
      vertex 32.059401 -10.500000 5.000000
    endloop
  endfacet
  facet normal -1.000000 0.000000 0.000000
    outer loop
      vertex 27.250000 -10.500000 5.000000
      vertex 27.250000 -10.500000 0.000000
      vertex 27.250000 -15.400000 5.000000
    endloop
  endfacet
  facet normal -1.000000 0.000000 0.000000
    outer loop
      vertex 27.250000 -15.400000 5.000000
      vertex 27.250000 -10.500000 0.000000
      vertex 27.250000 -15.400000 0.000000
    endloop
  endfacet
  facet normal 0.000000 1.000000 0.000000
    outer loop
      vertex 27.250000 -15.400000 5.000000
      vertex 27.250000 -15.400000 0.000000
      vertex -17.750000 -15.400000 5.000000
    endloop
  endfacet
  facet normal 0.000000 1.000000 -0.000000
    outer loop
      vertex -17.750000 -15.400000 5.000000
      vertex 27.250000 -15.400000 0.000000
      vertex -17.750000 -15.400000 0.000000
    endloop
  endfacet
  facet normal 1.000000 0.000000 0.000000
    outer loop
      vertex -17.750000 -10.500000 0.000000
      vertex -17.750000 -10.500000 5.000000
      vertex -17.750000 -15.400000 5.000000
    endloop
  endfacet
  facet normal 1.000000 0.000000 0.000000
    outer loop
      vertex -17.750000 -15.400000 0.000000
      vertex -17.750000 -10.500000 0.000000
      vertex -17.750000 -15.400000 5.000000
    endloop
  endfacet
  facet normal 0.000000 1.000000 0.000000
    outer loop
      vertex -22.750000 -10.500000 0.000000
      vertex -22.750000 -10.500000 5.000000
      vertex -17.750000 -10.500000 0.000000
    endloop
  endfacet
  facet normal 0.000000 1.000000 0.000000
    outer loop
      vertex -17.750000 -10.500000 0.000000
      vertex -22.750000 -10.500000 5.000000
      vertex -17.750000 -10.500000 5.000000
    endloop
  endfacet
  facet normal -1.000000 -0.000000 -0.000000
    outer loop
      vertex -22.750000 -13.698740 0.000000
      vertex -22.750000 -13.698740 5.000000
      vertex -22.750000 -10.500000 0.000000
    endloop
  endfacet
  facet normal -1.000000 0.000000 0.000000
    outer loop
      vertex -22.750000 -10.500000 0.000000
      vertex -22.750000 -13.698740 5.000000
      vertex -22.750000 -10.500000 5.000000
    endloop
  endfacet
  facet normal 0.500000 0.866025 0.000000
    outer loop
      vertex -27.857368 -10.750000 0.000000
      vertex -27.857368 -10.750000 5.000000
      vertex -22.750000 -13.698740 0.000000
    endloop
  endfacet
  facet normal 0.500000 0.866025 0.000000
    outer loop
      vertex -22.750000 -13.698740 0.000000
      vertex -27.857368 -10.750000 5.000000
      vertex -22.750000 -13.698740 5.000000
    endloop
  endfacet
  facet normal 0.500000 -0.866025 0.000000
    outer loop
      vertex -40.750000 13.698740 0.000000
      vertex -40.750000 13.698740 5.000000
      vertex -45.857368 10.750000 5.000000
    endloop
  endfacet
  facet normal 0.500000 -0.866025 0.000000
    outer loop
      vertex -45.857368 10.750000 0.000000
      vertex -40.750000 13.698740 0.000000
      vertex -45.857368 10.750000 5.000000
    endloop
  endfacet
  facet normal 0.000000 0.000000 -1.000000
    outer loop
      vertex -45.857368 10.750000 0.000000
      vertex -45.857368 25.250000 0.000000
      vertex -40.750000 13.698740 0.000000
    endloop
  endfacet
  facet normal 0.000000 0.000000 -1.000000
    outer loop
      vertex -40.750000 13.698740 0.000000
      vertex -45.857368 25.250000 0.000000
      vertex -40.750000 22.301260 0.000000
    endloop
  endfacet
  facet normal 0.000000 -0.000000 -1.000000
    outer loop
      vertex -40.750000 22.301260 0.000000
      vertex -40.750000 25.500000 0.000000
      vertex -35.750000 25.500000 0.000000
    endloop
  endfacet
  facet normal -0.000000 0.000000 -1.000000
    outer loop
      vertex -40.750000 22.301260 0.000000
      vertex -35.750000 25.500000 0.000000
      vertex -40.750000 13.698740 0.000000
    endloop
  endfacet
  facet normal 0.000000 0.000000 -1.000000
    outer loop
      vertex -40.750000 13.698740 0.000000
      vertex -35.750000 25.500000 0.000000
      vertex -35.750000 20.600000 0.000000
    endloop
  endfacet
  facet normal 0.000000 -0.000000 -1.000000
    outer loop
      vertex -35.750000 15.500000 0.000000
      vertex -35.750000 20.600000 0.000000
      vertex 9.250000 20.600000 0.000000
    endloop
  endfacet
  facet normal 0.000000 0.000000 -1.000000
    outer loop
      vertex 21.750000 14.500000 0.000000
      vertex 24.250000 10.500000 0.000000
      vertex 19.440599 10.500000 0.000000
    endloop
  endfacet
  facet normal 0.000000 -0.000000 -1.000000
    outer loop
      vertex 9.250000 20.600000 0.000000
      vertex 9.250000 25.500000 0.000000
      vertex 14.059401 25.500000 0.000000
    endloop
  endfacet
  facet normal 0.000000 0.000000 -1.000000
    outer loop
      vertex 9.250000 20.600000 0.000000
      vertex 14.059401 25.500000 0.000000
      vertex 11.750000 21.500000 0.000000
    endloop
  endfacet
  facet normal 0.000000 0.000000 -1.000000
    outer loop
      vertex 9.250000 20.600000 0.000000
      vertex 11.750000 21.500000 0.000000
      vertex 21.750000 21.500000 0.000000
    endloop
  endfacet
  facet normal 0.000000 0.000000 -1.000000
    outer loop
      vertex 9.250000 15.500000 0.000000
      vertex 14.059401 10.500000 0.000000
      vertex 9.250000 10.500000 0.000000
    endloop
  endfacet
  facet normal 0.000000 -0.000000 -1.000000
    outer loop
      vertex 21.750000 21.500000 0.000000
      vertex 19.440599 25.500000 0.000000
      vertex 24.250000 25.500000 0.000000
    endloop
  endfacet
  facet normal -0.000000 0.000000 -1.000000
    outer loop
      vertex 21.750000 21.500000 0.000000
      vertex 24.250000 25.500000 0.000000
      vertex 24.250000 10.500000 0.000000
    endloop
  endfacet
  facet normal 0.000000 0.000000 -1.000000
    outer loop
      vertex 21.750000 21.500000 0.000000
      vertex 24.250000 10.500000 0.000000
      vertex 21.750000 14.500000 0.000000
    endloop
  endfacet
  facet normal 0.000000 0.000000 -1.000000
    outer loop
      vertex 21.750000 21.500000 0.000000
      vertex 21.750000 14.500000 0.000000
      vertex 11.750000 14.500000 0.000000
    endloop
  endfacet
  facet normal 0.000000 0.000000 -1.000000
    outer loop
      vertex 21.750000 21.500000 0.000000
      vertex 11.750000 14.500000 0.000000
      vertex 9.250000 15.500000 0.000000
    endloop
  endfacet
  facet normal 0.000000 0.000000 -1.000000
    outer loop
      vertex -40.750000 13.698740 0.000000
      vertex -35.750000 20.600000 0.000000
      vertex -35.750000 15.500000 0.000000
    endloop
  endfacet
  facet normal 0.000000 0.000000 -1.000000
    outer loop
      vertex -35.750000 10.500000 0.000000
      vertex -40.750000 13.698740 0.000000
      vertex -35.750000 15.500000 0.000000
    endloop
  endfacet
  facet normal 0.000000 0.000000 -1.000000
    outer loop
      vertex -35.750000 15.500000 0.000000
      vertex 9.250000 20.600000 0.000000
      vertex 21.750000 21.500000 0.000000
    endloop
  endfacet
  facet normal -0.000000 0.000000 -1.000000
    outer loop
      vertex -35.750000 15.500000 0.000000
      vertex 21.750000 21.500000 0.000000
      vertex 9.250000 15.500000 0.000000
    endloop
  endfacet
  facet normal 0.000000 0.000000 -1.000000
    outer loop
      vertex 9.250000 15.500000 0.000000
      vertex 11.750000 14.500000 0.000000
      vertex 14.059401 10.500000 0.000000
    endloop
  endfacet
  facet normal 0.000000 0.000000 -1.000000
    outer loop
      vertex -40.750000 13.698740 0.000000
      vertex -35.750000 10.500000 0.000000
      vertex -40.750000 10.500000 0.000000
    endloop
  endfacet
  facet normal -1.000000 0.000000 0.000000
    outer loop
      vertex -45.857368 25.250000 5.000000
      vertex -45.857368 25.250000 0.000000
      vertex -45.857368 10.750000 5.000000
    endloop
  endfacet
  facet normal -1.000000 0.000000 0.000000
    outer loop
      vertex -45.857368 10.750000 5.000000
      vertex -45.857368 25.250000 0.000000
      vertex -45.857368 10.750000 0.000000
    endloop
  endfacet
  facet normal -1.000000 -0.000000 -0.000000
    outer loop
      vertex -40.750000 10.500000 0.000000
      vertex -40.750000 10.500000 5.000000
      vertex -40.750000 13.698740 0.000000
    endloop
  endfacet
  facet normal -1.000000 0.000000 0.000000
    outer loop
      vertex -40.750000 13.698740 0.000000
      vertex -40.750000 10.500000 5.000000
      vertex -40.750000 13.698740 5.000000
    endloop
  endfacet
  facet normal 0.000000 -0.000000 1.000000
    outer loop
      vertex -45.857368 25.250000 5.000000
      vertex -45.857368 10.750000 5.000000
      vertex -40.750000 13.698740 5.000000
    endloop
  endfacet
  facet normal 0.000000 0.000000 1.000000
    outer loop
      vertex -35.750000 10.500000 5.000000
      vertex -45.857368 25.250000 5.000000
      vertex -40.750000 13.698740 5.000000
    endloop
  endfacet
  facet normal 0.000000 0.000000 1.000000
    outer loop
      vertex -40.750000 10.500000 5.000000
      vertex -35.750000 10.500000 5.000000
      vertex -40.750000 13.698740 5.000000
    endloop
  endfacet
  facet normal 0.000000 0.000000 1.000000
    outer loop
      vertex -35.750000 10.500000 5.000000
      vertex -35.750000 15.500000 5.000000
      vertex -45.857368 25.250000 5.000000
    endloop
  endfacet
  facet normal 0.000000 0.000000 1.000000
    outer loop
      vertex 11.750000 14.500000 5.000000
      vertex 21.750000 14.500000 5.000000
      vertex 9.250000 15.500000 5.000000
    endloop
  endfacet
  facet normal 0.000000 0.000000 1.000000
    outer loop
      vertex 9.250000 10.500000 5.000000
      vertex 14.059401 10.500000 5.000000
      vertex 9.250000 15.500000 5.000000
    endloop
  endfacet
  facet normal 0.000000 0.000000 1.000000
    outer loop
      vertex 14.059401 10.500000 5.000000
      vertex 11.750000 14.500000 5.000000
      vertex 9.250000 15.500000 5.000000
    endloop
  endfacet
  facet normal 0.000000 0.000000 1.000000
    outer loop
      vertex 19.440599 10.500000 5.000000
      vertex 24.250000 10.500000 5.000000
      vertex 21.750000 14.500000 5.000000
    endloop
  endfacet
  facet normal 0.000000 0.000000 1.000000
    outer loop
      vertex 24.250000 10.500000 5.000000
      vertex 24.250000 25.500000 5.000000
      vertex 21.750000 14.500000 5.000000
    endloop
  endfacet
  facet normal 0.000000 -0.000000 1.000000
    outer loop
      vertex 9.250000 25.500000 5.000000
      vertex 9.250000 20.600000 5.000000
      vertex 11.750000 21.500000 5.000000
    endloop
  endfacet
  facet normal 0.000000 0.000000 1.000000
    outer loop
      vertex 21.750000 14.500000 5.000000
      vertex 24.250000 25.500000 5.000000
      vertex 21.750000 21.500000 5.000000
    endloop
  endfacet
  facet normal 0.000000 -0.000000 1.000000
    outer loop
      vertex -40.750000 25.500000 5.000000
      vertex -40.750000 22.301260 5.000000
      vertex -35.750000 20.600000 5.000000
    endloop
  endfacet
  facet normal 0.000000 0.000000 1.000000
    outer loop
      vertex 21.750000 14.500000 5.000000
      vertex 21.750000 21.500000 5.000000
      vertex 11.750000 21.500000 5.000000
    endloop
  endfacet
  facet normal 0.000000 0.000000 1.000000
    outer loop
      vertex -40.750000 25.500000 5.000000
      vertex -35.750000 20.600000 5.000000
      vertex -35.750000 25.500000 5.000000
    endloop
  endfacet
  facet normal 0.000000 0.000000 1.000000
    outer loop
      vertex 9.250000 20.600000 5.000000
      vertex -35.750000 20.600000 5.000000
      vertex 9.250000 15.500000 5.000000
    endloop
  endfacet
  facet normal 0.000000 0.000000 1.000000
    outer loop
      vertex 21.750000 14.500000 5.000000
      vertex 11.750000 21.500000 5.000000
      vertex 9.250000 20.600000 5.000000
    endloop
  endfacet
  facet normal 0.000000 0.000000 1.000000
    outer loop
      vertex -35.750000 15.500000 5.000000
      vertex 9.250000 15.500000 5.000000
      vertex -35.750000 20.600000 5.000000
    endloop
  endfacet
  facet normal 0.000000 0.000000 1.000000
    outer loop
      vertex -35.750000 15.500000 5.000000
      vertex -40.750000 22.301260 5.000000
      vertex -45.857368 25.250000 5.000000
    endloop
  endfacet
  facet normal 0.000000 0.000000 1.000000
    outer loop
      vertex -35.750000 15.500000 5.000000
      vertex -35.750000 20.600000 5.000000
      vertex -40.750000 22.301260 5.000000
    endloop
  endfacet
  facet normal 0.000000 0.000000 1.000000
    outer loop
      vertex 9.250000 25.500000 5.000000
      vertex 11.750000 21.500000 5.000000
      vertex 14.059401 25.500000 5.000000
    endloop
  endfacet
  facet normal 0.000000 0.000000 1.000000
    outer loop
      vertex 19.440599 25.500000 5.000000
      vertex 21.750000 21.500000 5.000000
      vertex 24.250000 25.500000 5.000000
    endloop
  endfacet
  facet normal 0.000000 -0.000000 1.000000
    outer loop
      vertex 9.250000 20.600000 5.000000
      vertex 9.250000 15.500000 5.000000
      vertex 21.750000 14.500000 5.000000
    endloop
  endfacet
  facet normal 0.000000 -1.000000 0.000000
    outer loop
      vertex -40.750000 10.500000 5.000000
      vertex -40.750000 10.500000 0.000000
      vertex -35.750000 10.500000 0.000000
    endloop
  endfacet
  facet normal 0.000000 -1.000000 0.000000
    outer loop
      vertex -35.750000 10.500000 5.000000
      vertex -40.750000 10.500000 5.000000
      vertex -35.750000 10.500000 0.000000
    endloop
  endfacet
  facet normal 1.000000 0.000000 0.000000
    outer loop
      vertex -35.750000 15.500000 0.000000
      vertex -35.750000 15.500000 5.000000
      vertex -35.750000 10.500000 5.000000
    endloop
  endfacet
  facet normal 1.000000 0.000000 0.000000
    outer loop
      vertex -35.750000 10.500000 0.000000
      vertex -35.750000 15.500000 0.000000
      vertex -35.750000 10.500000 5.000000
    endloop
  endfacet
  facet normal 0.000000 -1.000000 0.000000
    outer loop
      vertex 9.250000 15.500000 0.000000
      vertex 9.250000 15.500000 5.000000
      vertex -35.750000 15.500000 5.000000
    endloop
  endfacet
  facet normal -0.000000 -1.000000 -0.000000
    outer loop
      vertex -35.750000 15.500000 0.000000
      vertex 9.250000 15.500000 0.000000
      vertex -35.750000 15.500000 5.000000
    endloop
  endfacet
  facet normal -1.000000 0.000000 0.000000
    outer loop
      vertex 9.250000 15.500000 5.000000
      vertex 9.250000 15.500000 0.000000
      vertex 9.250000 10.500000 5.000000
    endloop
  endfacet
  facet normal -1.000000 0.000000 0.000000
    outer loop
      vertex 9.250000 10.500000 5.000000
      vertex 9.250000 15.500000 0.000000
      vertex 9.250000 10.500000 0.000000
    endloop
  endfacet
  facet normal 0.000000 -1.000000 0.000000
    outer loop
      vertex 9.250000 10.500000 5.000000
      vertex 9.250000 10.500000 0.000000
      vertex 14.059401 10.500000 0.000000
    endloop
  endfacet
  facet normal 0.000000 -1.000000 0.000000
    outer loop
      vertex 14.059401 10.500000 5.000000
      vertex 9.250000 10.500000 5.000000
      vertex 14.059401 10.500000 0.000000
    endloop
  endfacet
  facet normal 0.866025 0.500000 0.000000
    outer loop
      vertex 14.059401 10.500000 0.000000
      vertex 11.750000 14.500000 0.000000
      vertex 11.750000 14.500000 5.000000
    endloop
  endfacet
  facet normal 0.866025 0.500000 -0.000000
    outer loop
      vertex 14.059401 10.500000 5.000000
      vertex 14.059401 10.500000 0.000000
      vertex 11.750000 14.500000 5.000000
    endloop
  endfacet
  facet normal 0.000000 -1.000000 0.000000
    outer loop
      vertex 21.750000 14.500000 0.000000
      vertex 21.750000 14.500000 5.000000
      vertex 11.750000 14.500000 5.000000
    endloop
  endfacet
  facet normal 0.000000 -1.000000 0.000000
    outer loop
      vertex 11.750000 14.500000 0.000000
      vertex 21.750000 14.500000 0.000000
      vertex 11.750000 14.500000 5.000000
    endloop
  endfacet
  facet normal -0.866025 0.500000 0.000000
    outer loop
      vertex 19.440599 10.500000 0.000000
      vertex 19.440599 10.500000 5.000000
      vertex 21.750000 14.500000 0.000000
    endloop
  endfacet
  facet normal -0.866025 0.500000 0.000000
    outer loop
      vertex 21.750000 14.500000 0.000000
      vertex 19.440599 10.500000 5.000000
      vertex 21.750000 14.500000 5.000000
    endloop
  endfacet
  facet normal 0.000000 -1.000000 0.000000
    outer loop
      vertex 19.440599 10.500000 5.000000
      vertex 19.440599 10.500000 0.000000
      vertex 24.250000 10.500000 0.000000
    endloop
  endfacet
  facet normal 0.000000 -1.000000 0.000000
    outer loop
      vertex 24.250000 10.500000 5.000000
      vertex 19.440599 10.500000 5.000000
      vertex 24.250000 10.500000 0.000000
    endloop
  endfacet
  facet normal 1.000000 0.000000 -0.000000
    outer loop
      vertex 24.250000 10.500000 5.000000
      vertex 24.250000 10.500000 0.000000
      vertex 24.250000 25.500000 0.000000
    endloop
  endfacet
  facet normal 1.000000 0.000000 0.000000
    outer loop
      vertex 24.250000 25.500000 5.000000
      vertex 24.250000 10.500000 5.000000
      vertex 24.250000 25.500000 0.000000
    endloop
  endfacet
  facet normal 0.000000 1.000000 0.000000
    outer loop
      vertex 19.440599 25.500000 0.000000
      vertex 19.440599 25.500000 5.000000
      vertex 24.250000 25.500000 0.000000
    endloop
  endfacet
  facet normal 0.000000 1.000000 0.000000
    outer loop
      vertex 24.250000 25.500000 0.000000
      vertex 19.440599 25.500000 5.000000
      vertex 24.250000 25.500000 5.000000
    endloop
  endfacet
  facet normal -0.866025 -0.500000 0.000000
    outer loop
      vertex 21.750000 21.500000 5.000000
      vertex 19.440599 25.500000 5.000000
      vertex 21.750000 21.500000 0.000000
    endloop
  endfacet
  facet normal -0.866025 -0.500000 0.000000
    outer loop
      vertex 21.750000 21.500000 0.000000
      vertex 19.440599 25.500000 5.000000
      vertex 19.440599 25.500000 0.000000
    endloop
  endfacet
  facet normal -0.000000 1.000000 0.000000
    outer loop
      vertex 11.750000 21.500000 0.000000
      vertex 11.750000 21.500000 5.000000
      vertex 21.750000 21.500000 0.000000
    endloop
  endfacet
  facet normal -0.000000 1.000000 0.000000
    outer loop
      vertex 21.750000 21.500000 0.000000
      vertex 11.750000 21.500000 5.000000
      vertex 21.750000 21.500000 5.000000
    endloop
  endfacet
  facet normal 0.866025 -0.500000 0.000000
    outer loop
      vertex 11.750000 21.500000 5.000000
      vertex 11.750000 21.500000 0.000000
      vertex 14.059401 25.500000 0.000000
    endloop
  endfacet
  facet normal 0.866025 -0.500000 0.000000
    outer loop
      vertex 14.059401 25.500000 5.000000
      vertex 11.750000 21.500000 5.000000
      vertex 14.059401 25.500000 0.000000
    endloop
  endfacet
  facet normal 0.000000 1.000000 0.000000
    outer loop
      vertex 9.250000 25.500000 0.000000
      vertex 9.250000 25.500000 5.000000
      vertex 14.059401 25.500000 0.000000
    endloop
  endfacet
  facet normal 0.000000 1.000000 0.000000
    outer loop
      vertex 14.059401 25.500000 0.000000
      vertex 9.250000 25.500000 5.000000
      vertex 14.059401 25.500000 5.000000
    endloop
  endfacet
  facet normal -1.000000 0.000000 0.000000
    outer loop
      vertex 9.250000 25.500000 5.000000
      vertex 9.250000 25.500000 0.000000
      vertex 9.250000 20.600000 5.000000
    endloop
  endfacet
  facet normal -1.000000 0.000000 0.000000
    outer loop
      vertex 9.250000 20.600000 5.000000
      vertex 9.250000 25.500000 0.000000
      vertex 9.250000 20.600000 0.000000
    endloop
  endfacet
  facet normal 0.000000 1.000000 0.000000
    outer loop
      vertex 9.250000 20.600000 5.000000
      vertex 9.250000 20.600000 0.000000
      vertex -35.750000 20.600000 5.000000
    endloop
  endfacet
  facet normal 0.000000 1.000000 -0.000000
    outer loop
      vertex -35.750000 20.600000 5.000000
      vertex 9.250000 20.600000 0.000000
      vertex -35.750000 20.600000 0.000000
    endloop
  endfacet
  facet normal 1.000000 0.000000 0.000000
    outer loop
      vertex -35.750000 25.500000 0.000000
      vertex -35.750000 25.500000 5.000000
      vertex -35.750000 20.600000 5.000000
    endloop
  endfacet
  facet normal 1.000000 0.000000 0.000000
    outer loop
      vertex -35.750000 20.600000 0.000000
      vertex -35.750000 25.500000 0.000000
      vertex -35.750000 20.600000 5.000000
    endloop
  endfacet
  facet normal 0.000000 1.000000 0.000000
    outer loop
      vertex -40.750000 25.500000 0.000000
      vertex -40.750000 25.500000 5.000000
      vertex -35.750000 25.500000 0.000000
    endloop
  endfacet
  facet normal 0.000000 1.000000 0.000000
    outer loop
      vertex -35.750000 25.500000 0.000000
      vertex -40.750000 25.500000 5.000000
      vertex -35.750000 25.500000 5.000000
    endloop
  endfacet
  facet normal -1.000000 -0.000000 -0.000000
    outer loop
      vertex -40.750000 22.301260 0.000000
      vertex -40.750000 22.301260 5.000000
      vertex -40.750000 25.500000 0.000000
    endloop
  endfacet
  facet normal -1.000000 0.000000 0.000000
    outer loop
      vertex -40.750000 25.500000 0.000000
      vertex -40.750000 22.301260 5.000000
      vertex -40.750000 25.500000 5.000000
    endloop
  endfacet
  facet normal 0.500000 0.866025 0.000000
    outer loop
      vertex -45.857368 25.250000 0.000000
      vertex -45.857368 25.250000 5.000000
      vertex -40.750000 22.301260 0.000000
    endloop
  endfacet
  facet normal 0.500000 0.866025 0.000000
    outer loop
      vertex -40.750000 22.301260 0.000000
      vertex -45.857368 25.250000 5.000000
      vertex -40.750000 22.301260 5.000000
    endloop
  endfacet
endsolid OpenSCAD_Model
